<?xml version="1.0" encoding="UTF-8"?><svg id="Camada_2" xmlns="http://www.w3.org/2000/svg" xmlns:xlink="http://www.w3.org/1999/xlink" viewBox="0 0 472.26 553.48"><defs><style>.cls-1,.cls-2{fill:none;}.cls-3{clip-path:url(#clippath);}.cls-4{fill:#00a7b3;}.cls-5{fill:#ff9200;}.cls-6{clip-path:url(#clippath-1);}.cls-2{stroke:#039093;stroke-linecap:round;stroke-miterlimit:10;stroke-width:7.93px;}.cls-7{opacity:.3;}</style><clipPath id="clippath"><line class="cls-4" x1="29.34" y1="299.37" x2="9.83" y2="315.9"/></clipPath><clipPath id="clippath-1"><circle class="cls-1" cx="281.83" cy="380.77" r="163.41"/></clipPath></defs><g id="Camada_1-2"><g id="Camada_1-2" class="cls-7"><polyline class="cls-2" points="281.93 198.19 298.46 212.05 314.99 198.16 331.52 212.02 348.05 198.15 364.6 212 381.13 198.12 397.67 211.98"/><polyline class="cls-2" points="281.93 216.16 298.46 230.02 314.99 216.13 331.52 229.99 348.05 216.11 364.6 229.97 381.13 216.09 397.67 229.94"/><polyline class="cls-2" points="281.93 234.13 298.46 247.99 314.99 234.1 331.52 247.96 348.05 234.08 364.6 247.94 381.13 234.05 397.67 247.91"/><polyline class="cls-2" points="281.93 252.1 298.46 265.95 314.99 252.07 331.52 265.94 348.05 252.05 364.6 265.91 381.13 252.02 397.67 265.88"/><polyline class="cls-2" points="281.93 270.06 298.46 283.92 314.99 270.05 331.52 283.89 348.05 270.02 364.6 283.88 381.13 269.99 397.67 283.85"/><circle class="cls-4" cx="226.82" cy="315.83" r="102.36"/><g class="cls-7"><line class="cls-4" x1="351.91" y1="73.29" x2="43.94" y2="336.53"/><path class="cls-4" d="m349.17,62.55c3.81-1.26,8.07.21,10.58,4.03,3.25,4.94,2.38,11.95-1.96,15.66L49.83,345.47c-4.33,3.71-10.49,2.71-13.76-2.23-3.25-4.94-2.38-11.95,1.96-15.66L346,64.34c.98-.83,2.05-1.44,3.16-1.8h.01Z"/><line class="cls-4" x1="366.88" y1="11.18" x2="58.91" y2="274.42"/><path class="cls-4" d="m364.14.44c3.81-1.26,8.07.21,10.58,4.03,3.25,4.94,2.38,11.95-1.96,15.66L64.8,283.37c-4.33,3.71-10.49,2.71-13.76-2.23-3.25-4.94-2.38-11.95,1.96-15.66L360.99,2.25c.98-.83,2.05-1.44,3.16-1.8h0Z"/><line class="cls-4" x1="29.34" y1="299.37" x2="9.83" y2="315.9"/><g class="cls-3"><polygon class="cls-4" points="17.89 313.24 20.02 302.45 29.34 299.37 31.7 308.69 17.89 313.24"/><polygon class="cls-4" points="17.85 313.26 19.98 302.46 20.02 302.45 17.89 313.24 17.85 313.26"/><polygon class="cls-4" points="17.83 313.26 19.94 302.48 19.98 302.46 17.85 313.26 17.83 313.26"/><polygon class="cls-4" points="17.79 313.27 19.9 302.49 19.94 302.48 17.83 313.26 17.79 313.27"/><polygon class="cls-4" points="17.75 313.28 19.86 302.49 19.9 302.49 17.79 313.27 17.75 313.28"/><polygon class="cls-4" points="17.71 313.3 19.82 302.5 19.86 302.49 17.75 313.28 17.71 313.3"/><polygon class="cls-4" points="17.67 313.31 19.78 302.52 19.82 302.5 17.71 313.3 17.67 313.31"/><polygon class="cls-4" points="17.63 313.32 19.74 302.53 19.78 302.52 17.67 313.31 17.63 313.32"/><polygon class="cls-4" points="17.59 313.34 19.7 302.54 19.74 302.53 17.63 313.32 17.59 313.34"/><polygon class="cls-4" points="17.55 313.35 19.66 302.55 19.7 302.54 17.59 313.34 17.55 313.35"/><polygon class="cls-4" points="17.51 313.36 19.62 302.57 19.66 302.55 17.55 313.35 17.51 313.36"/><polygon class="cls-4" points="17.47 313.38 19.6 302.58 19.62 302.57 17.51 313.36 17.47 313.38"/><polygon class="cls-4" points="17.43 313.39 19.56 302.59 19.6 302.58 17.47 313.38 17.43 313.39"/><polygon class="cls-4" points="17.39 313.4 19.52 302.61 19.56 302.59 17.43 313.39 17.39 313.4"/><polygon class="cls-4" points="17.35 313.42 19.48 302.62 19.52 302.61 17.39 313.4 17.35 313.42"/><polygon class="cls-4" points="17.31 313.43 19.44 302.63 19.48 302.62 17.35 313.42 17.31 313.43"/><polygon class="cls-4" points="17.27 313.44 19.4 302.65 19.44 302.63 17.31 313.43 17.27 313.44"/><polygon class="cls-4" points="17.25 313.46 19.36 302.66 19.4 302.65 17.27 313.44 17.25 313.46"/><polygon class="cls-4" points="17.21 313.47 19.32 302.67 19.36 302.66 17.25 313.46 17.21 313.47"/><polygon class="cls-4" points="17.17 313.48 19.28 302.69 19.32 302.67 17.21 313.47 17.17 313.48"/><polygon class="cls-4" points="17.13 313.5 19.24 302.7 19.28 302.69 17.17 313.48 17.13 313.5"/><polygon class="cls-4" points="17.09 313.51 19.2 302.71 19.24 302.7 17.13 313.5 17.09 313.51"/><polygon class="cls-4" points="17.05 313.52 19.16 302.73 19.2 302.71 17.09 313.51 17.05 313.52"/><polygon class="cls-4" points="17.01 313.54 19.12 302.74 19.16 302.73 17.05 313.52 17.01 313.54"/><polygon class="cls-4" points="16.97 313.55 19.08 302.75 19.12 302.74 17.01 313.54 16.97 313.55"/><polygon class="cls-4" points="16.93 313.56 19.04 302.77 19.08 302.75 16.97 313.55 16.93 313.56"/><polygon class="cls-4" points="16.89 313.58 19.02 302.78 19.04 302.77 16.93 313.56 16.89 313.58"/><polygon class="cls-4" points="16.85 313.59 18.98 302.79 19.02 302.78 16.89 313.58 16.85 313.59"/><polygon class="cls-4" points="16.81 313.6 18.94 302.81 18.98 302.79 16.85 313.59 16.81 313.6"/><polygon class="cls-4" points="16.77 313.61 18.9 302.82 18.94 302.81 16.81 313.6 16.77 313.61"/><polygon class="cls-4" points="16.73 313.63 18.86 302.83 18.9 302.82 16.77 313.61 16.73 313.63"/><polygon class="cls-4" points="16.69 313.64 18.82 302.85 18.86 302.83 16.73 313.63 16.69 313.64"/><polygon class="cls-4" points="16.66 313.64 18.78 302.86 18.82 302.85 16.69 313.64 16.66 313.64"/><polygon class="cls-4" points="16.62 313.65 18.74 302.87 18.78 302.86 16.66 313.64 16.62 313.65"/><polygon class="cls-4" points="16.58 313.67 18.7 302.87 18.74 302.87 16.62 313.65 16.58 313.67"/><polygon class="cls-4" points="16.54 313.68 18.66 302.89 18.7 302.87 16.58 313.67 16.54 313.68"/><polygon class="cls-4" points="16.51 313.69 18.62 302.9 18.66 302.89 16.54 313.68 16.51 313.69"/><polygon class="cls-4" points="16.47 313.71 18.58 302.91 18.62 302.9 16.51 313.69 16.47 313.71"/><polygon class="cls-4" points="16.43 313.72 18.54 302.92 18.58 302.91 16.47 313.71 16.43 313.72"/><polygon class="cls-4" points="16.39 313.73 18.5 302.94 18.54 302.92 16.43 313.72 16.39 313.73"/><polygon class="cls-4" points="16.35 313.75 18.46 302.95 18.5 302.94 16.39 313.73 16.35 313.75"/><polygon class="cls-4" points="16.31 313.76 18.43 302.96 18.46 302.95 16.35 313.75 16.31 313.76"/><polygon class="cls-4" points="16.27 313.77 18.39 302.98 18.43 302.96 16.31 313.76 16.27 313.77"/><polygon class="cls-4" points="16.23 313.79 18.36 302.99 18.39 302.98 16.27 313.77 16.23 313.79"/><polygon class="cls-4" points="16.19 313.8 18.32 303 18.36 302.99 16.23 313.79 16.19 313.8"/><polygon class="cls-4" points="16.15 313.81 18.28 303.02 18.32 303 16.19 313.8 16.15 313.81"/><polygon class="cls-4" points="16.11 313.83 18.24 303.03 18.28 303.02 16.15 313.81 16.11 313.83"/><polygon class="cls-4" points="16.08 313.84 18.2 303.04 18.24 303.03 16.11 313.83 16.08 313.84"/><polygon class="cls-4" points="16.04 313.85 18.16 303.06 18.2 303.04 16.08 313.84 16.04 313.85"/><polygon class="cls-4" points="16 313.87 18.12 303.07 18.16 303.06 16.04 313.85 16 313.87"/><polygon class="cls-4" points="15.96 313.88 18.08 303.08 18.12 303.07 16 313.87 15.96 313.88"/><polygon class="cls-4" points="15.92 313.89 18.04 303.1 18.08 303.08 15.96 313.88 15.92 313.89"/><polygon class="cls-4" points="15.88 313.91 18 303.11 18.04 303.1 15.92 313.89 15.88 313.91"/><polygon class="cls-4" points="15.84 313.92 17.96 303.12 18 303.11 15.88 313.91 15.84 313.92"/><polygon class="cls-4" points="15.8 313.93 17.92 303.14 17.96 303.12 15.84 313.92 15.8 313.93"/><polygon class="cls-4" points="15.77 313.95 17.88 303.15 17.92 303.14 15.8 313.93 15.77 313.95"/><polygon class="cls-4" points="15.73 313.96 17.85 303.16 17.88 303.15 15.77 313.95 15.73 313.96"/><polygon class="cls-4" points="15.69 313.97 17.81 303.18 17.85 303.16 15.73 313.96 15.69 313.97"/><polygon class="cls-4" points="15.65 313.98 17.77 303.19 17.81 303.18 15.69 313.97 15.65 313.98"/><polygon class="cls-4" points="15.61 314 17.73 303.2 17.77 303.19 15.65 313.98 15.61 314"/><polygon class="cls-4" points="15.57 314.01 17.69 303.22 17.73 303.2 15.61 314 15.57 314.01"/><polygon class="cls-4" points="15.53 314.02 17.65 303.23 17.69 303.22 15.57 314.01 15.53 314.02"/><polygon class="cls-4" points="15.5 314.02 17.62 303.24 17.65 303.23 15.53 314.02 15.5 314.02"/><polygon class="cls-4" points="15.46 314.04 17.58 303.26 17.62 303.24 15.5 314.02 15.46 314.04"/><polygon class="cls-4" points="15.42 314.05 17.54 303.26 17.58 303.26 15.46 314.04 15.42 314.05"/><polygon class="cls-4" points="15.38 314.06 17.5 303.27 17.54 303.26 15.42 314.05 15.38 314.06"/><polygon class="cls-4" points="15.34 314.08 17.46 303.28 17.5 303.27 15.38 314.06 15.34 314.08"/><polygon class="cls-4" points="15.3 314.09 17.42 303.29 17.46 303.28 15.34 314.08 15.3 314.09"/><polygon class="cls-4" points="15.26 314.1 17.38 303.31 17.42 303.29 15.3 314.09 15.26 314.1"/><polygon class="cls-4" points="15.22 314.12 17.34 303.32 17.38 303.31 15.26 314.1 15.22 314.12"/><polygon class="cls-4" points="15.18 314.13 17.3 303.33 17.34 303.32 15.22 314.12 15.18 314.13"/><polygon class="cls-4" points="15.14 314.14 17.27 303.35 17.3 303.33 15.18 314.13 15.14 314.14"/><polygon class="cls-4" points="15.1 314.16 17.23 303.36 17.27 303.35 15.14 314.14 15.1 314.16"/><polygon class="cls-4" points="15.06 314.17 17.19 303.37 17.23 303.36 15.1 314.16 15.06 314.17"/><polygon class="cls-4" points="15.03 314.18 17.15 303.39 17.19 303.37 15.06 314.17 15.03 314.18"/><polygon class="cls-4" points="14.99 314.2 17.11 303.4 17.15 303.39 15.03 314.18 14.99 314.2"/><polygon class="cls-4" points="14.95 314.21 17.07 303.41 17.11 303.4 14.99 314.2 14.95 314.21"/><polygon class="cls-4" points="14.92 314.22 17.03 303.43 17.07 303.41 14.95 314.21 14.92 314.22"/><polygon class="cls-4" points="14.88 314.24 16.99 303.44 17.03 303.43 14.92 314.22 14.88 314.24"/><polygon class="cls-4" points="14.84 314.25 16.95 303.45 16.99 303.44 14.88 314.24 14.84 314.25"/><polygon class="cls-4" points="14.8 314.26 16.91 303.47 16.95 303.45 14.84 314.25 14.8 314.26"/><polygon class="cls-4" points="14.76 314.28 16.88 303.48 16.91 303.47 14.8 314.26 14.76 314.28"/><polygon class="cls-4" points="14.72 314.29 16.84 303.49 16.88 303.48 14.76 314.28 14.72 314.29"/><polygon class="cls-4" points="14.68 314.3 16.8 303.51 16.84 303.49 14.72 314.29 14.68 314.3"/><polygon class="cls-4" points="14.64 314.32 16.76 303.52 16.8 303.51 14.68 314.3 14.64 314.32"/><polygon class="cls-4" points="14.6 314.33 16.72 303.53 16.76 303.52 14.64 314.32 14.6 314.33"/><polygon class="cls-4" points="14.56 314.34 16.69 303.55 16.72 303.53 14.6 314.33 14.56 314.34"/><polygon class="cls-4" points="14.52 314.35 16.65 303.56 16.69 303.55 14.56 314.34 14.52 314.35"/><polygon class="cls-4" points="14.48 314.37 16.61 303.57 16.65 303.56 14.52 314.35 14.48 314.37"/><polygon class="cls-4" points="14.44 314.38 16.57 303.59 16.61 303.57 14.48 314.37 14.44 314.38"/><polygon class="cls-4" points="14.4 314.39 16.53 303.6 16.57 303.59 14.44 314.38 14.4 314.39"/><polygon class="cls-4" points="14.36 314.41 16.49 303.61 16.53 303.6 14.4 314.39 14.36 314.41"/><polygon class="cls-4" points="14.34 314.41 16.45 303.63 16.49 303.61 14.36 314.41 14.34 314.41"/><polygon class="cls-4" points="14.3 314.42 16.41 303.64 16.45 303.63 14.34 314.41 14.3 314.42"/><polygon class="cls-4" points="14.26 314.43 16.37 303.64 16.41 303.64 14.3 314.42 14.26 314.43"/><polygon class="cls-4" points="14.22 314.45 16.33 303.65 16.37 303.64 14.26 314.43 14.22 314.45"/><polygon class="cls-4" points="14.18 314.46 16.29 303.66 16.33 303.65 14.22 314.45 14.18 314.46"/><polygon class="cls-4" points="14.14 314.47 16.25 303.68 16.29 303.66 14.18 314.46 14.14 314.47"/><polygon class="cls-4" points="14.1 314.49 16.21 303.69 16.25 303.68 14.14 314.47 14.1 314.49"/><polygon class="cls-4" points="14.06 314.5 16.17 303.7 16.21 303.69 14.1 314.49 14.06 314.5"/><polygon class="cls-4" points="14.02 314.51 16.14 303.72 16.17 303.7 14.06 314.5 14.02 314.51"/><polygon class="cls-4" points="13.98 314.53 16.11 303.73 16.14 303.72 14.02 314.51 13.98 314.53"/><polygon class="cls-4" points="13.94 314.54 16.07 303.74 16.11 303.73 13.98 314.53 13.94 314.54"/><polygon class="cls-4" points="13.9 314.55 16.03 303.76 16.07 303.74 13.94 314.54 13.9 314.55"/><polygon class="cls-4" points="13.86 314.57 15.99 303.77 16.03 303.76 13.9 314.55 13.86 314.57"/><polygon class="cls-4" points="13.82 314.58 15.95 303.78 15.99 303.77 13.86 314.57 13.82 314.58"/><polygon class="cls-4" points="13.78 314.59 15.91 303.8 15.95 303.78 13.82 314.58 13.78 314.59"/><polygon class="cls-4" points="13.76 314.61 15.87 303.81 15.91 303.8 13.78 314.59 13.76 314.61"/><polygon class="cls-4" points="13.72 314.62 15.83 303.82 15.87 303.81 13.76 314.61 13.72 314.62"/><polygon class="cls-4" points="13.68 314.63 15.79 303.84 15.83 303.82 13.72 314.62 13.68 314.63"/><polygon class="cls-4" points="13.64 314.65 15.75 303.85 15.79 303.84 13.68 314.63 13.64 314.65"/><polygon class="cls-4" points="13.6 314.66 15.71 303.86 15.75 303.85 13.64 314.65 13.6 314.66"/><polygon class="cls-4" points="13.56 314.67 15.67 303.88 15.71 303.86 13.6 314.66 13.56 314.67"/><polygon class="cls-4" points="13.52 314.69 15.63 303.89 15.67 303.88 13.56 314.67 13.52 314.69"/><polygon class="cls-4" points="13.48 314.7 15.59 303.9 15.63 303.89 13.52 314.69 13.48 314.7"/><polygon class="cls-4" points="13.44 314.71 15.55 303.92 15.59 303.9 13.48 314.7 13.44 314.71"/><polygon class="cls-4" points="13.4 314.72 15.53 303.93 15.55 303.92 13.44 314.71 13.4 314.72"/><polygon class="cls-4" points="13.36 314.74 15.49 303.94 15.53 303.93 13.4 314.72 13.36 314.74"/><polygon class="cls-4" points="13.32 314.75 15.45 303.96 15.49 303.94 13.36 314.74 13.32 314.75"/><polygon class="cls-4" points="13.28 314.76 15.41 303.97 15.45 303.96 13.32 314.75 13.28 314.76"/><polygon class="cls-4" points="13.24 314.78 15.37 303.98 15.41 303.97 13.28 314.76 13.24 314.78"/><polygon class="cls-4" points="13.2 314.79 15.33 304 15.37 303.98 13.24 314.78 13.2 314.79"/><polygon class="cls-4" points="13.18 314.79 15.29 304.01 15.33 304 13.2 314.79 13.18 314.79"/><polygon class="cls-4" points="13.14 314.8 15.25 304.02 15.29 304.01 13.18 314.79 13.14 314.8"/><polygon class="cls-4" points="13.1 314.82 15.21 304.02 15.25 304.02 13.14 314.8 13.1 314.82"/><polygon class="cls-4" points="13.06 314.83 15.17 304.03 15.21 304.02 13.1 314.82 13.06 314.83"/><polygon class="cls-4" points="13.02 314.84 15.13 304.05 15.17 304.03 13.06 314.83 13.02 314.84"/><polygon class="cls-4" points="12.98 314.86 15.09 304.06 15.13 304.05 13.02 314.84 12.98 314.86"/><polygon class="cls-4" points="12.94 314.87 15.05 304.07 15.09 304.06 12.98 314.86 12.94 314.87"/><polygon class="cls-4" points="12.9 314.88 15.01 304.09 15.05 304.07 12.94 314.87 12.9 314.88"/><polygon class="cls-4" points="12.86 314.9 14.97 304.1 15.01 304.09 12.9 314.88 12.86 314.9"/><polygon class="cls-4" points="12.82 314.91 14.95 304.11 14.97 304.1 12.86 314.9 12.82 314.91"/><polygon class="cls-4" points="12.78 314.92 14.91 304.13 14.95 304.11 12.82 314.91 12.78 314.92"/><polygon class="cls-4" points="12.74 314.94 14.87 304.14 14.91 304.13 12.78 314.92 12.74 314.94"/><polygon class="cls-4" points="12.7 314.95 14.83 304.15 14.87 304.14 12.74 314.94 12.7 314.95"/><polygon class="cls-4" points="12.66 314.96 14.79 304.17 14.83 304.15 12.7 314.95 12.66 314.96"/><polygon class="cls-4" points="12.62 314.98 14.75 304.18 14.79 304.17 12.66 314.96 12.62 314.98"/><polygon class="cls-4" points="12.59 314.99 14.71 304.19 14.75 304.18 12.62 314.98 12.59 314.99"/><polygon class="cls-4" points="12.55 315 14.67 304.21 14.71 304.19 12.59 314.99 12.55 315"/><polygon class="cls-4" points="12.51 315.02 14.63 304.22 14.67 304.21 12.55 315 12.51 315.02"/><polygon class="cls-4" points="12.47 315.03 14.59 304.23 14.63 304.22 12.51 315.02 12.47 315.03"/><polygon class="cls-4" points="12.44 315.04 14.55 304.25 14.59 304.23 12.47 315.03 12.44 315.04"/><polygon class="cls-4" points="12.4 315.06 14.51 304.26 14.55 304.25 12.44 315.04 12.4 315.06"/><polygon class="cls-4" points="12.36 315.07 14.47 304.27 14.51 304.26 12.4 315.06 12.36 315.07"/><polygon class="cls-4" points="12.32 315.08 14.43 304.29 14.47 304.27 12.36 315.07 12.32 315.08"/><polygon class="cls-4" points="12.28 315.09 14.39 304.3 14.43 304.29 12.32 315.08 12.28 315.09"/><polygon class="cls-4" points="12.24 315.11 14.36 304.31 14.39 304.3 12.28 315.09 12.24 315.11"/><polygon class="cls-4" points="12.2 315.12 14.32 304.33 14.36 304.31 12.24 315.11 12.2 315.12"/><polygon class="cls-4" points="12.16 315.13 14.29 304.34 14.32 304.33 12.2 315.12 12.16 315.13"/><polygon class="cls-4" points="12.12 315.15 14.25 304.35 14.29 304.34 12.16 315.13 12.12 315.15"/><polygon class="cls-4" points="12.08 315.16 14.21 304.37 14.25 304.35 12.12 315.15 12.08 315.16"/><polygon class="cls-4" points="12.04 315.17 14.17 304.38 14.21 304.37 12.08 315.16 12.04 315.17"/><polygon class="cls-4" points="12.01 315.17 14.13 304.39 14.17 304.38 12.04 315.17 12.01 315.17"/><polygon class="cls-4" points="11.97 315.19 14.09 304.4 14.13 304.39 12.01 315.17 11.97 315.19"/><polygon class="cls-4" points="11.93 315.2 14.05 304.4 14.09 304.4 11.97 315.19 11.93 315.2"/><polygon class="cls-4" points="11.89 315.21 14.01 304.42 14.05 304.4 11.93 315.2 11.89 315.21"/><polygon class="cls-4" points="11.85 315.23 13.97 304.43 14.01 304.42 11.89 315.21 11.85 315.23"/><polygon class="cls-4" points="11.81 315.24 13.93 304.44 13.97 304.43 11.85 315.23 11.81 315.24"/><polygon class="cls-4" points="11.77 315.25 13.89 304.46 13.93 304.44 11.81 315.24 11.77 315.25"/><polygon class="cls-4" points="11.73 315.27 13.85 304.47 13.89 304.46 11.77 315.25 11.73 315.27"/><polygon class="cls-4" points="11.7 315.28 13.81 304.48 13.85 304.47 11.73 315.27 11.7 315.28"/><polygon class="cls-4" points="11.66 315.29 13.78 304.5 13.81 304.48 11.7 315.28 11.66 315.29"/><polygon class="cls-4" points="11.62 315.31 13.74 304.51 13.78 304.5 11.66 315.29 11.62 315.31"/><polygon class="cls-4" points="11.58 315.32 13.7 304.52 13.74 304.51 11.62 315.31 11.58 315.32"/><polygon class="cls-4" points="11.54 315.33 13.66 304.54 13.7 304.52 11.58 315.32 11.54 315.33"/><polygon class="cls-4" points="11.5 315.35 13.62 304.55 13.66 304.54 11.54 315.33 11.5 315.35"/><polygon class="cls-4" points="11.46 315.36 13.58 304.56 13.62 304.55 11.5 315.35 11.46 315.36"/><polygon class="cls-4" points="11.43 315.37 13.55 304.58 13.58 304.56 11.46 315.36 11.43 315.37"/><polygon class="cls-4" points="11.39 315.39 13.51 304.59 13.55 304.58 11.43 315.37 11.39 315.39"/><polygon class="cls-4" points="11.35 315.4 13.47 304.6 13.51 304.59 11.39 315.39 11.35 315.4"/><polygon class="cls-4" points="11.31 315.41 13.43 304.62 13.47 304.6 11.35 315.4 11.31 315.41"/><polygon class="cls-4" points="11.27 315.43 13.39 304.63 13.43 304.62 11.31 315.41 11.27 315.43"/><polygon class="cls-4" points="11.23 315.44 13.35 304.64 13.39 304.63 11.27 315.43 11.23 315.44"/><polygon class="cls-4" points="11.19 315.45 13.31 304.66 13.35 304.64 11.23 315.44 11.19 315.45"/><polygon class="cls-4" points="11.15 315.46 13.27 304.67 13.31 304.66 11.19 315.45 11.15 315.46"/><polygon class="cls-4" points="11.11 315.48 13.23 304.68 13.27 304.67 11.15 315.46 11.11 315.48"/><polygon class="cls-4" points="11.07 315.49 13.2 304.7 13.23 304.68 11.11 315.48 11.07 315.49"/><polygon class="cls-4" points="11.03 315.5 13.16 304.71 13.2 304.7 11.07 315.49 11.03 315.5"/><polygon class="cls-4" points="10.99 315.52 13.12 304.72 13.16 304.71 11.03 315.5 10.99 315.52"/><polygon class="cls-4" points="10.96 315.53 13.08 304.74 13.12 304.72 10.99 315.52 10.96 315.53"/><polygon class="cls-4" points="10.92 315.54 13.04 304.75 13.08 304.74 10.96 315.53 10.92 315.54"/><polygon class="cls-4" points="10.88 315.56 13 304.76 13.04 304.75 10.92 315.54 10.88 315.56"/><polygon class="cls-4" points="10.85 315.56 12.96 304.77 13 304.76 10.88 315.56 10.85 315.56"/><polygon class="cls-4" points="10.81 315.57 12.92 304.79 12.96 304.77 10.85 315.56 10.81 315.57"/><polygon class="cls-4" points="10.77 315.58 12.88 304.79 12.92 304.79 10.81 315.57 10.77 315.58"/><polygon class="cls-4" points="10.73 315.6 12.84 304.8 12.88 304.79 10.77 315.58 10.73 315.6"/><polygon class="cls-4" points="10.69 315.61 12.81 304.81 12.84 304.8 10.73 315.6 10.69 315.61"/><polygon class="cls-4" points="10.65 315.62 12.77 304.83 12.81 304.81 10.69 315.61 10.65 315.62"/><polygon class="cls-4" points="10.61 315.64 12.73 304.84 12.77 304.83 10.65 315.62 10.61 315.64"/><polygon class="cls-4" points="10.57 315.65 12.69 304.85 12.73 304.84 10.61 315.64 10.57 315.65"/><polygon class="cls-4" points="10.53 315.66 12.65 304.87 12.69 304.85 10.57 315.65 10.53 315.66"/><polygon class="cls-4" points="10.49 315.68 12.62 304.88 12.65 304.87 10.53 315.66 10.49 315.68"/><polygon class="cls-4" points="10.45 315.69 12.58 304.89 12.62 304.88 10.49 315.68 10.45 315.69"/><polygon class="cls-4" points="10.41 315.7 12.54 304.91 12.58 304.89 10.45 315.69 10.41 315.7"/><polygon class="cls-4" points="10.37 315.72 12.5 304.92 12.54 304.91 10.41 315.7 10.37 315.72"/><polygon class="cls-4" points="10.33 315.73 12.46 304.93 12.5 304.92 10.37 315.72 10.33 315.73"/><polygon class="cls-4" points="10.29 315.74 12.42 304.95 12.46 304.93 10.33 315.73 10.29 315.74"/><polygon class="cls-4" points="10.27 315.76 12.38 304.96 12.42 304.95 10.29 315.74 10.27 315.76"/><polygon class="cls-4" points="10.23 315.77 12.34 304.97 12.38 304.96 10.27 315.76 10.23 315.77"/><polygon class="cls-4" points="10.19 315.78 12.3 304.99 12.34 304.97 10.23 315.77 10.19 315.78"/><polygon class="cls-4" points="10.15 315.8 12.26 305 12.3 304.99 10.19 315.78 10.15 315.8"/><polygon class="cls-4" points="10.11 315.81 12.22 305.01 12.26 305 10.15 315.8 10.11 315.81"/><polygon class="cls-4" points="10.07 315.82 12.18 305.03 12.22 305.01 10.11 315.81 10.07 315.82"/><polygon class="cls-4" points="10.03 315.83 12.14 305.04 12.18 305.03 10.07 315.82 10.03 315.83"/><polygon class="cls-4" points="9.99 315.85 12.1 305.05 12.14 305.04 10.03 315.83 9.99 315.85"/><polygon class="cls-4" points="9.95 315.86 12.07 305.07 12.1 305.05 9.99 315.85 9.95 315.86"/><polygon class="cls-4" points="9.91 315.87 12.04 305.08 12.07 305.07 9.95 315.86 9.91 315.87"/><polygon class="cls-4" points="9.87 315.89 12 305.09 12.04 305.08 9.91 315.87 9.87 315.89"/><polygon class="cls-4" points="9.83 315.9 11.96 305.11 12 305.09 9.87 315.89 9.83 315.9"/><polygon class="cls-4" points="11.96 305.11 9.83 315.9 7.47 306.59 11.96 305.11"/></g><path class="cls-4" d="m26.6,288.63c3.82-1.26,8.1.22,10.61,4.07,3.24,4.96,2.34,11.96-2.02,15.65l-19.5,16.52c-4.35,3.69-10.51,2.66-13.74-2.3-3.24-4.96-2.34-11.96,2.02-15.65l19.5-16.52c.96-.82,2.03-1.41,3.13-1.77Z"/></g><g class="cls-7"><g class="cls-6"><circle class="cls-4" cx="91.89" cy="207.56" r="9.5"/><circle class="cls-4" cx="122.8" cy="207.56" r="9.5"/><circle class="cls-4" cx="153.71" cy="207.56" r="9.5"/><circle class="cls-4" cx="184.6" cy="207.56" r="9.5"/><circle class="cls-4" cx="215.51" cy="207.56" r="9.5"/><circle class="cls-4" cx="246.42" cy="207.56" r="9.5"/><circle class="cls-4" cx="277.33" cy="207.56" r="9.5"/><circle class="cls-4" cx="308.23" cy="207.56" r="9.5"/><circle class="cls-4" cx="339.14" cy="207.56" r="9.5"/><circle class="cls-4" cx="370.04" cy="207.56" r="9.5"/><circle class="cls-4" cx="400.95" cy="207.56" r="9.5"/><circle class="cls-4" cx="431.85" cy="207.56" r="9.5"/><circle class="cls-4" cx="462.76" cy="207.56" r="9.5"/><circle class="cls-4" cx="91.89" cy="238.15" r="9.5"/><circle class="cls-4" cx="122.8" cy="238.15" r="9.5"/><circle class="cls-4" cx="153.71" cy="238.15" r="9.5"/><circle class="cls-4" cx="184.6" cy="238.15" r="9.5"/><circle class="cls-4" cx="215.51" cy="238.15" r="9.5"/><circle class="cls-4" cx="246.42" cy="238.15" r="9.5"/><circle class="cls-4" cx="277.33" cy="238.15" r="9.5"/><circle class="cls-4" cx="308.23" cy="238.15" r="9.5"/><circle class="cls-4" cx="339.14" cy="238.15" r="9.5"/><circle class="cls-4" cx="370.04" cy="238.15" r="9.5"/><circle class="cls-4" cx="400.95" cy="238.15" r="9.5"/><circle class="cls-4" cx="431.85" cy="238.15" r="9.5"/><circle class="cls-4" cx="462.76" cy="238.15" r="9.5"/><circle class="cls-4" cx="91.89" cy="268.73" r="9.5"/><circle class="cls-4" cx="122.8" cy="268.73" r="9.5"/><circle class="cls-4" cx="153.71" cy="268.73" r="9.5"/><circle class="cls-4" cx="184.6" cy="268.73" r="9.5"/><circle class="cls-4" cx="215.51" cy="268.73" r="9.5"/><circle class="cls-4" cx="246.42" cy="268.73" r="9.5"/><circle class="cls-4" cx="277.33" cy="268.73" r="9.5"/><circle class="cls-4" cx="308.23" cy="268.73" r="9.5"/><circle class="cls-4" cx="339.14" cy="268.73" r="9.5"/><circle class="cls-4" cx="370.04" cy="268.73" r="9.5"/><circle class="cls-4" cx="400.95" cy="268.73" r="9.5"/><circle class="cls-4" cx="431.85" cy="268.73" r="9.5"/><circle class="cls-4" cx="462.76" cy="268.73" r="9.5"/><circle class="cls-4" cx="91.89" cy="299.32" r="9.5"/><circle class="cls-4" cx="122.8" cy="299.32" r="9.5"/><circle class="cls-4" cx="153.71" cy="299.32" r="9.5"/><circle class="cls-4" cx="184.6" cy="299.32" r="9.5"/><circle class="cls-4" cx="215.51" cy="299.32" r="9.5"/><circle class="cls-4" cx="246.42" cy="299.32" r="9.5"/><circle class="cls-4" cx="277.33" cy="299.32" r="9.5"/><circle class="cls-4" cx="308.23" cy="299.32" r="9.5"/><circle class="cls-4" cx="339.14" cy="299.32" r="9.5"/><circle class="cls-4" cx="370.04" cy="299.32" r="9.5"/><circle class="cls-4" cx="400.95" cy="299.32" r="9.5"/><circle class="cls-4" cx="431.85" cy="299.32" r="9.5"/><circle class="cls-4" cx="462.76" cy="299.32" r="9.5"/><circle class="cls-4" cx="91.89" cy="329.89" r="9.5"/><circle class="cls-4" cx="122.8" cy="329.89" r="9.5"/><circle class="cls-4" cx="153.71" cy="329.89" r="9.5"/><circle class="cls-4" cx="184.6" cy="329.89" r="9.5"/><circle class="cls-4" cx="215.51" cy="329.89" r="9.5"/><circle class="cls-4" cx="246.42" cy="329.89" r="9.5"/><circle class="cls-4" cx="277.33" cy="329.89" r="9.5"/><circle class="cls-4" cx="308.23" cy="329.89" r="9.5"/><circle class="cls-4" cx="339.14" cy="329.89" r="9.5"/><circle class="cls-4" cx="370.04" cy="329.89" r="9.5"/><circle class="cls-4" cx="400.95" cy="329.89" r="9.5"/><circle class="cls-4" cx="431.85" cy="329.89" r="9.5"/><circle class="cls-4" cx="462.76" cy="329.89" r="9.5"/><circle class="cls-4" cx="91.89" cy="360.49" r="9.5"/><circle class="cls-4" cx="122.8" cy="360.49" r="9.5"/><circle class="cls-4" cx="153.71" cy="360.49" r="9.5"/><circle class="cls-4" cx="184.6" cy="360.49" r="9.5"/><circle class="cls-4" cx="215.51" cy="360.49" r="9.5"/><circle class="cls-4" cx="246.42" cy="360.49" r="9.5"/><circle class="cls-4" cx="277.33" cy="360.49" r="9.5"/><circle class="cls-4" cx="308.23" cy="360.49" r="9.5"/><circle class="cls-4" cx="339.14" cy="360.49" r="9.5"/><circle class="cls-4" cx="370.04" cy="360.49" r="9.5"/><circle class="cls-4" cx="400.95" cy="360.49" r="9.5"/><circle class="cls-4" cx="431.85" cy="360.49" r="9.5"/><circle class="cls-4" cx="462.76" cy="360.49" r="9.5"/><circle class="cls-4" cx="91.89" cy="391.06" r="9.5"/><circle class="cls-4" cx="122.8" cy="391.06" r="9.5"/><circle class="cls-4" cx="153.71" cy="391.06" r="9.5"/><circle class="cls-4" cx="184.6" cy="391.06" r="9.5"/><circle class="cls-4" cx="215.51" cy="391.06" r="9.5"/><circle class="cls-4" cx="246.42" cy="391.06" r="9.5"/><circle class="cls-4" cx="277.33" cy="391.06" r="9.5"/><circle class="cls-4" cx="308.23" cy="391.06" r="9.5"/><circle class="cls-4" cx="339.14" cy="391.06" r="9.5"/><circle class="cls-4" cx="370.04" cy="391.06" r="9.5"/><circle class="cls-4" cx="400.95" cy="391.06" r="9.5"/><circle class="cls-4" cx="431.85" cy="391.06" r="9.5"/><circle class="cls-4" cx="462.76" cy="391.06" r="9.5"/><circle class="cls-4" cx="91.89" cy="421.65" r="9.5"/><circle class="cls-4" cx="122.8" cy="421.65" r="9.5"/><circle class="cls-4" cx="153.71" cy="421.65" r="9.5"/><circle class="cls-4" cx="184.6" cy="421.65" r="9.5"/><circle class="cls-4" cx="215.51" cy="421.65" r="9.5"/><circle class="cls-4" cx="246.42" cy="421.65" r="9.5"/><circle class="cls-4" cx="277.33" cy="421.65" r="9.5"/><circle class="cls-4" cx="308.23" cy="421.65" r="9.5"/><circle class="cls-4" cx="339.14" cy="421.65" r="9.5"/><circle class="cls-4" cx="370.04" cy="421.65" r="9.5"/><circle class="cls-4" cx="400.95" cy="421.65" r="9.5"/><circle class="cls-4" cx="431.85" cy="421.65" r="9.5"/><circle class="cls-4" cx="462.76" cy="421.65" r="9.5"/><circle class="cls-4" cx="91.89" cy="452.23" r="9.5"/><circle class="cls-4" cx="122.8" cy="452.23" r="9.5"/><circle class="cls-4" cx="153.71" cy="452.23" r="9.5"/><circle class="cls-4" cx="184.6" cy="452.23" r="9.5"/><circle class="cls-4" cx="215.51" cy="452.23" r="9.5"/><circle class="cls-4" cx="246.42" cy="452.23" r="9.5"/><circle class="cls-4" cx="277.33" cy="452.23" r="9.5"/><circle class="cls-4" cx="308.23" cy="452.23" r="9.5"/><circle class="cls-4" cx="339.14" cy="452.23" r="9.5"/><circle class="cls-4" cx="370.04" cy="452.23" r="9.5"/><circle class="cls-4" cx="400.95" cy="452.23" r="9.5"/><circle class="cls-4" cx="431.85" cy="452.23" r="9.5"/><circle class="cls-4" cx="462.76" cy="452.23" r="9.5"/><circle class="cls-4" cx="91.89" cy="482.81" r="9.5"/><circle class="cls-4" cx="122.8" cy="482.81" r="9.5"/><circle class="cls-4" cx="153.71" cy="482.81" r="9.5"/><circle class="cls-4" cx="184.6" cy="482.81" r="9.5"/><circle class="cls-4" cx="215.51" cy="482.81" r="9.5"/><circle class="cls-4" cx="246.42" cy="482.81" r="9.5"/><circle class="cls-4" cx="277.33" cy="482.81" r="9.5"/><circle class="cls-4" cx="308.23" cy="482.81" r="9.5"/><circle class="cls-4" cx="339.14" cy="482.81" r="9.5"/><circle class="cls-4" cx="370.04" cy="482.81" r="9.5"/><circle class="cls-4" cx="400.95" cy="482.81" r="9.5"/><circle class="cls-4" cx="431.85" cy="482.81" r="9.5"/><circle class="cls-4" cx="462.76" cy="482.81" r="9.5"/><circle class="cls-4" cx="91.89" cy="513.4" r="9.5"/><circle class="cls-4" cx="122.8" cy="513.4" r="9.5"/><circle class="cls-4" cx="153.71" cy="513.4" r="9.5"/><circle class="cls-4" cx="184.6" cy="513.4" r="9.5"/><circle class="cls-4" cx="215.51" cy="513.4" r="9.5"/><circle class="cls-4" cx="246.42" cy="513.4" r="9.5"/><circle class="cls-4" cx="277.33" cy="513.4" r="9.5"/><circle class="cls-4" cx="308.23" cy="513.4" r="9.5"/><circle class="cls-4" cx="339.14" cy="513.4" r="9.5"/><circle class="cls-4" cx="370.04" cy="513.4" r="9.5"/><circle class="cls-4" cx="400.95" cy="513.4" r="9.5"/><circle class="cls-4" cx="431.85" cy="513.4" r="9.5"/><circle class="cls-4" cx="462.76" cy="513.4" r="9.5"/><circle class="cls-4" cx="91.89" cy="543.98" r="9.5"/><circle class="cls-4" cx="122.8" cy="543.98" r="9.5"/><circle class="cls-4" cx="153.71" cy="543.98" r="9.5"/><circle class="cls-4" cx="184.6" cy="543.98" r="9.5"/><circle class="cls-4" cx="215.51" cy="543.98" r="9.5"/><circle class="cls-4" cx="246.42" cy="543.98" r="9.5"/><circle class="cls-4" cx="277.33" cy="543.98" r="9.5"/><circle class="cls-4" cx="308.23" cy="543.98" r="9.5"/><circle class="cls-4" cx="339.14" cy="543.98" r="9.5"/><circle class="cls-4" cx="370.04" cy="543.98" r="9.5"/><circle class="cls-4" cx="400.95" cy="543.98" r="9.5"/><circle class="cls-4" cx="431.85" cy="543.98" r="9.5"/><circle class="cls-4" cx="462.76" cy="543.98" r="9.5"/></g></g></g><g class="cls-7"><path class="cls-5" d="m230.76,283.11c-.53-1.3-1.07-2.45-1.62-3.55l-5.94.8-6.41.83c-.2,1.21-.37,2.47-.5,3.88-.16,1.76-.26,3.58-.3,5.58-.03,1.43-.03,2.89,0,4.37l8.98-1.2,9-1.16c-.41-1.48-.83-2.92-1.29-4.31-.61-1.87-1.24-3.58-1.92-5.24Z"/><path class="cls-5" d="m216.05,297.61c.05,1.39.12,2.8.22,4.26.2,2.9.5,5.98.92,9.32l9.88-1.32,10.14-1.31c-.46-3.2-1-6.35-1.65-9.39-.3-1.39-.62-2.71-.94-4.01l-9.32,1.25-9.26,1.2Z"/><path class="cls-5" d="m196.9,297.62l8.98-1.24,7.44-1c-.01-1.64,0-3.24.05-4.81.07-2.06.19-3.94.38-5.75.12-1.17.26-2.25.43-3.29-1.52.2-3.03.4-4.55.58l-6.45.8c-1.12,1.6-2.15,3.31-3.04,5.16-1.42,2.95-2.49,6.16-3.24,9.54Z"/><path class="cls-5" d="m228.47,271.64c-.55,0-1.11,0-1.67.02.12.13.24.22.37.36,1.15,1.27,2.21,2.79,3.34,4.78l7.76-.98c-1.29-.87-2.61-1.64-3.94-2.26-1.92-.89-3.9-1.53-5.87-1.92Z"/><path class="cls-5" d="m217.29,278.52l5.56-.74,5-.63c-.83-1.4-1.62-2.54-2.46-3.48-.66-.73-1.25-1.26-1.86-1.64-.09-.06-.17-.08-.26-.13-.47.05-.94.09-1.41.15-.64.08-1.27.22-1.91.33,0,0-.01,0-.02.02-.48.52-.9,1.18-1.31,2.07-.34.73-.64,1.54-.91,2.49-.15.49-.28,1.02-.41,1.57Z"/><path class="cls-5" d="m237.38,343.74l-11.23,1.48s.03.06.04.09c1,1.9,1.94,3.33,2.94,4.48.42.48.81.84,1.2,1.15.18-.01.35-.02.53-.03,1.33-.12,2.63-.3,3.93-.53.33-.45.65-.95.96-1.61.64-1.36,1.16-2.97,1.62-5.03Z"/><path class="cls-5" d="m245.29,282.1c-1.33-1.54-2.77-2.92-4.26-4.17l-4.29.6-4.97.67c.45.92.89,1.88,1.33,2.92.72,1.7,1.39,3.46,2.04,5.39.53,1.57,1.01,3.17,1.48,4.8l14.28-1.84c-1.6-3.08-3.48-5.9-5.61-8.38Z"/><path class="cls-5" d="m227.43,312.46l-9.89,1.28c.48,3.55,1.06,7.06,1.76,10.41.21,1.03.44,2.02.66,3l9.24-1.24,9.48-1.22c-.03-1.06-.08-2.15-.14-3.26-.19-3.36-.52-6.84-.96-10.34l-10.15,1.36Z"/><path class="cls-5" d="m197.14,330.27c-.93-2.22-1.73-4.52-2.37-6.88-.57-2.12-1.01-4.33-1.34-6.55l-8.44,1.05c.8,4.84,2.53,9.35,5.02,13.4l1.03-.17,6.11-.85Z"/><path class="cls-5" d="m245.77,277.27l-1.35.19c.98.91,1.94,1.88,2.85,2.91,2.53,2.88,4.7,6.15,6.52,9.74l9.34-1.15c-3.64-5.02-8.5-9.17-14.14-12.16-1.07.16-2.14.31-3.22.47Z"/><path class="cls-5" d="m237.27,294.81c1.09,4.22,1.98,8.67,2.68,13.4l16.05-2.07c-.69-4.22-1.8-8.27-3.38-12.03-.19-.45-.41-.87-.61-1.31l-7.62,1.06-7.12.95Z"/><path class="cls-5" d="m196.05,314.06l10.29-1.42,8.05-1.08c-.16-1.35-.29-2.66-.4-3.82-.18-1.92-.33-3.84-.43-5.71-.08-1.41-.13-2.76-.17-4.09l-16.71,2.16-.22.03c-.08.48-.18.94-.25,1.43-.3,2.25-.46,4.63-.45,7.06,0,1.8.13,3.62.31,5.44Z"/><path class="cls-5" d="m209.29,279.6c1.59-.22,3.18-.44,4.77-.65l.6-.08c.21-.96.43-1.83.68-2.64.32-1.06.68-1.98,1.07-2.81.06-.12.11-.22.17-.33-1.56.39-3.09.87-4.59,1.42-1.21.72-2.39,1.54-3.52,2.48-1.11.93-2.17,2-3.19,3.17l4-.56Z"/><path class="cls-5" d="m223.92,346.53c-.16-.3-.31-.64-.47-.95l-10.22,1.35c1.6,1.17,3.23,2.15,4.88,2.93.52.24,1.05.47,1.59.67,2.35.37,4.76.56,7.21.55-1.02-1.23-1.98-2.68-2.99-4.55Z"/><path class="cls-5" d="m240.09,343.39c-.06.28-.11.58-.17.86-.5,2.18-1.07,3.91-1.77,5.41.65-.16,1.3-.33,1.94-.52,1.34-.76,2.64-1.65,3.86-2.67,1.4-1.17,2.73-2.56,3.97-4.1l-7.83,1.03Z"/><path class="cls-5" d="m238.74,327.27l-9.19,1.23-8.98,1.16c.47,1.84.97,3.62,1.51,5.35.59,1.89,1.2,3.61,1.84,5.27.36.91.72,1.77,1.08,2.58l12.86-1.7c.15-.93.28-1.9.4-2.95.19-1.75.32-3.57.4-5.56.07-1.74.09-3.53.07-5.37Z"/><path class="cls-5" d="m205.58,345.41l1.56-.21c-.69-.68-1.37-1.35-2.02-2.09-2.72-3.1-5.03-6.66-6.93-10.58l-6.82.84c3.53,4.99,8.25,9.15,13.76,12.19.13-.08.28-.13.45-.15Z"/><path class="cls-5" d="m185.6,315.5l7.55-1.04c-.2-1.96-.32-3.92-.32-5.84,0-2.51.18-5.01.53-7.45.03-.22.09-.44.12-.66l-6.84.84-.52-.4c-1.4,4.55-1.93,9.32-1.5,14.15.02.19.05.37.06.56l.91-.15Z"/><path class="cls-5" d="m186.8,299.02l7.14-.99c.83-3.96,2.09-7.7,3.79-11.14.61-1.23,1.28-2.41,2-3.55-.89.11-1.77.21-2.66.32-.84.79-1.66,1.61-2.44,2.47-3.51,3.88-6.14,8.25-7.84,12.89h.02Z"/><path class="cls-5" d="m274.65,248.05l-107.9,14.23c-5.88.78-10.05,6.13-9.37,12.02l11,95.25c.7,6.03,6.2,10.32,12.22,9.53l109.43-14.44c5.95-.78,10.14-6.24,9.35-12.2l-12.54-95.05c-.78-5.95-6.24-10.14-12.2-9.35Zm2.01,59.01h0c1.08,12.34-3.06,24.38-11.65,33.91-8.02,8.88-19.03,14.57-31.2,16.18-.79.1-1.57.19-2.37.26-27.16,2.37-51.07-16.35-53.29-41.73-1.08-12.34,3.06-24.38,11.65-33.91,8.54-9.45,20.47-15.29,33.57-16.44,27.16-2.37,51.07,16.35,53.3,41.73Z"/><path class="cls-5" d="m251.5,341.88c-.25.35-.48.73-.74,1.07-.73.96-1.5,1.86-2.3,2.72,2.29-1.23,4.47-2.64,6.5-4.25l-3.46.46Z"/><path class="cls-5" d="m267.69,323.3l-9.07,1.26c-.81,4.27-2.11,8.31-3.93,12-.44.88-.92,1.72-1.41,2.56l5.03-.66c.62-.61,1.26-1.21,1.85-1.86,3.63-4.02,6.33-8.55,8.02-13.38l-.5.08Z"/><path class="cls-5" d="m263.46,291.2l-8.58,1.19c.09.21.2.41.3.62,1.7,3.99,2.9,8.29,3.64,12.76l10.25-1.27.75.59.16,1.55-1.08.17-9.73,1.35c.54,4.74.51,9.41-.1,13.92l9.42-1.16.14.96c1.42-4.58,1.96-9.39,1.54-14.25-.53-6.07-2.52-11.68-5.63-16.59l-1.08.17Z"/><path class="cls-5" d="m248.17,309.68l-7.86,1.05c.6,4.77.94,9.28,1.06,13.62l14.81-1.91c.03-.18.07-.36.1-.55.59-4.31.6-8.8.07-13.35l-8.18,1.13Z"/><path class="cls-5" d="m255.74,324.96l-7.11.99-7.19.96c.01,1.98-.01,3.93-.1,5.85-.1,2.05-.25,3.93-.46,5.75-.09.8-.21,1.55-.32,2.29l9.35-1.23c.87-1.33,1.69-2.71,2.4-4.18,1.54-3.2,2.69-6.71,3.44-10.42Z"/><path class="cls-5" d="m210.59,344.75l11.74-1.55c-.28-.64-.56-1.27-.84-1.96-.68-1.7-1.32-3.47-1.95-5.43-.6-1.87-1.16-3.8-1.68-5.81l-16.68,2.15c1.68,3.39,3.69,6.46,6,9.15,1.07,1.25,2.23,2.37,3.41,3.43Z"/><path class="cls-5" d="m217.24,327.52c-.22-.91-.43-1.84-.64-2.79-.74-3.43-1.37-7-1.88-10.62l-18.38,2.38c.31,2.09.72,4.16,1.25,6.15.63,2.34,1.39,4.6,2.27,6.7.08.18.17.35.25.53l10-1.38,7.13-.95Z"/><path class="cls-5" d="m201.55,280.68c.04-.06.08-.12.12-.18.35-.46.71-.9,1.08-1.34-.82.54-1.63,1.09-2.41,1.68l1.21-.17Z"/><path class="cls-5" d="m209.59,347.41l-.53.07c.39.17.79.34,1.19.5-.22-.18-.44-.38-.66-.57Z"/><path class="cls-5" d="m241.81,275.22c.05.04.1.09.15.13l3.09-.39c-2.19-.89-4.47-1.62-6.83-2.16,1.23.72,2.43,1.52,3.59,2.42Z"/></g></g></svg>