<?xml version="1.0" encoding="UTF-8"?><svg id="Camada_2" xmlns="http://www.w3.org/2000/svg" xmlns:xlink="http://www.w3.org/1999/xlink" viewBox="0 0 402.7 329.31"><defs><style>.cls-1{stroke:#3f8d91;stroke-linecap:round;}.cls-1,.cls-2{fill:none;stroke-miterlimit:10;stroke-width:6px;}.cls-2{stroke:#00a7b3;}.cls-3{clip-path:url(#clippath);}.cls-4{fill:#00a7b3;}.cls-5{opacity:.3;}</style><clipPath id="clippath"><line class="cls-4" x1="109.2" y1="288.92" x2="92.91" y2="302.72"/></clipPath></defs><g id="Camada_3"><g class="cls-5"><line class="cls-4" x1="378.72" y1="100.02" x2="121.4" y2="319.96"/><path class="cls-4" d="m376.43,91.04c3.18-1.05,6.74.17,8.85,3.37,2.72,4.13,1.99,9.99-1.64,13.08L126.33,327.44c-3.62,3.1-8.77,2.26-11.49-1.86-2.72-4.13-1.99-9.99,1.64-13.08L373.79,92.55c.82-.7,1.71-1.2,2.64-1.5Z"/><line class="cls-4" x1="391.23" y1="48.13" x2="133.92" y2="268.07"/><path class="cls-4" d="m388.95,39.15c3.18-1.05,6.74.17,8.85,3.37,2.72,4.13,1.99,9.99-1.64,13.08l-257.32,219.94c-3.62,3.1-8.77,2.26-11.49-1.86-2.72-4.13-1.99-9.99,1.64-13.08L386.3,40.66c.82-.7,1.72-1.2,2.64-1.5Z"/><line class="cls-4" x1="109.2" y1="288.92" x2="92.91" y2="302.72"/><g class="cls-3"><polygon class="cls-4" points="99.65 300.5 101.42 291.48 109.2 288.92 111.18 296.7 99.65 300.5"/><polygon class="cls-4" points="99.61 300.51 101.38 291.5 101.42 291.48 99.65 300.5 99.61 300.51"/><polygon class="cls-4" points="99.58 300.53 101.35 291.51 101.38 291.5 99.61 300.51 99.58 300.53"/><polygon class="cls-4" points="99.55 300.54 101.32 291.52 101.35 291.51 99.58 300.53 99.55 300.54"/><polygon class="cls-4" points="99.52 300.55 101.29 291.53 101.32 291.52 99.55 300.54 99.52 300.55"/><polygon class="cls-4" points="99.48 300.56 101.25 291.54 101.29 291.53 99.52 300.55 99.48 300.56"/><polygon class="cls-4" points="99.45 300.57 101.22 291.55 101.25 291.54 99.48 300.56 99.45 300.57"/><polygon class="cls-4" points="99.42 300.58 101.19 291.56 101.22 291.55 99.45 300.57 99.42 300.58"/><polygon class="cls-4" points="99.39 300.59 101.16 291.57 101.19 291.56 99.42 300.58 99.39 300.59"/><polygon class="cls-4" points="99.35 300.6 101.12 291.58 101.16 291.57 99.39 300.59 99.35 300.6"/><polygon class="cls-4" points="99.32 300.61 101.09 291.59 101.12 291.58 99.35 300.6 99.32 300.61"/><polygon class="cls-4" points="99.29 300.62 101.06 291.6 101.09 291.59 99.32 300.61 99.29 300.62"/><polygon class="cls-4" points="99.26 300.63 101.03 291.61 101.06 291.6 99.29 300.62 99.26 300.63"/><polygon class="cls-4" points="99.22 300.64 100.99 291.62 101.03 291.61 99.26 300.63 99.22 300.64"/><polygon class="cls-4" points="99.19 300.65 100.96 291.63 100.99 291.62 99.22 300.64 99.19 300.65"/><polygon class="cls-4" points="99.16 300.66 100.93 291.64 100.96 291.63 99.19 300.65 99.16 300.66"/><polygon class="cls-4" points="99.13 300.67 100.9 291.66 100.93 291.64 99.16 300.66 99.13 300.67"/><polygon class="cls-4" points="99.09 300.69 100.87 291.67 100.9 291.66 99.13 300.67 99.09 300.69"/><polygon class="cls-4" points="99.06 300.7 100.83 291.68 100.87 291.67 99.09 300.69 99.06 300.7"/><polygon class="cls-4" points="99.03 300.71 100.8 291.69 100.83 291.68 99.06 300.7 99.03 300.71"/><polygon class="cls-4" points="99 300.72 100.77 291.7 100.8 291.69 99.03 300.71 99 300.72"/><polygon class="cls-4" points="98.97 300.73 100.74 291.71 100.77 291.7 99 300.72 98.97 300.73"/><polygon class="cls-4" points="98.93 300.74 100.7 291.72 100.74 291.71 98.97 300.73 98.93 300.74"/><polygon class="cls-4" points="98.9 300.75 100.67 291.73 100.7 291.72 98.93 300.74 98.9 300.75"/><polygon class="cls-4" points="98.87 300.76 100.64 291.74 100.67 291.73 98.9 300.75 98.87 300.76"/><polygon class="cls-4" points="98.84 300.77 100.61 291.75 100.64 291.74 98.87 300.76 98.84 300.77"/><polygon class="cls-4" points="98.8 300.78 100.57 291.76 100.61 291.75 98.84 300.77 98.8 300.78"/><polygon class="cls-4" points="98.77 300.79 100.54 291.77 100.57 291.76 98.8 300.78 98.77 300.79"/><polygon class="cls-4" points="98.74 300.8 100.51 291.78 100.54 291.77 98.77 300.79 98.74 300.8"/><polygon class="cls-4" points="98.71 300.81 100.48 291.79 100.51 291.78 98.74 300.8 98.71 300.81"/><polygon class="cls-4" points="98.67 300.82 100.44 291.8 100.48 291.79 98.71 300.81 98.67 300.82"/><polygon class="cls-4" points="98.64 300.84 100.41 291.82 100.44 291.8 98.67 300.82 98.64 300.84"/><polygon class="cls-4" points="98.61 300.85 100.38 291.83 100.41 291.82 98.64 300.84 98.61 300.85"/><polygon class="cls-4" points="98.58 300.86 100.35 291.84 100.38 291.83 98.61 300.85 98.58 300.86"/><polygon class="cls-4" points="98.54 300.87 100.31 291.85 100.35 291.84 98.58 300.86 98.54 300.87"/><polygon class="cls-4" points="98.51 300.88 100.28 291.86 100.31 291.85 98.54 300.87 98.51 300.88"/><polygon class="cls-4" points="98.48 300.89 100.25 291.87 100.28 291.86 98.51 300.88 98.48 300.89"/><polygon class="cls-4" points="98.45 300.9 100.22 291.88 100.25 291.87 98.48 300.89 98.45 300.9"/><polygon class="cls-4" points="98.41 300.91 100.19 291.89 100.22 291.88 98.45 300.9 98.41 300.91"/><polygon class="cls-4" points="98.38 300.92 100.15 291.9 100.19 291.89 98.41 300.91 98.38 300.92"/><polygon class="cls-4" points="98.35 300.93 100.12 291.91 100.15 291.9 98.38 300.92 98.35 300.93"/><polygon class="cls-4" points="98.32 300.94 100.09 291.92 100.12 291.91 98.35 300.93 98.32 300.94"/><polygon class="cls-4" points="98.29 300.95 100.06 291.93 100.09 291.92 98.32 300.94 98.29 300.95"/><polygon class="cls-4" points="98.25 300.96 100.02 291.94 100.06 291.93 98.29 300.95 98.25 300.96"/><polygon class="cls-4" points="98.22 300.97 99.99 291.95 100.02 291.94 98.25 300.96 98.22 300.97"/><polygon class="cls-4" points="98.19 300.98 99.96 291.96 99.99 291.95 98.22 300.97 98.19 300.98"/><polygon class="cls-4" points="98.16 301 99.93 291.98 99.96 291.96 98.19 300.98 98.16 301"/><polygon class="cls-4" points="98.12 301.01 99.89 291.99 99.93 291.98 98.16 301 98.12 301.01"/><polygon class="cls-4" points="98.09 301.02 99.86 292 99.89 291.99 98.12 301.01 98.09 301.02"/><polygon class="cls-4" points="98.06 301.03 99.83 292.01 99.86 292 98.09 301.02 98.06 301.03"/><polygon class="cls-4" points="98.03 301.04 99.8 292.02 99.83 292.01 98.06 301.03 98.03 301.04"/><polygon class="cls-4" points="97.99 301.05 99.76 292.03 99.8 292.02 98.03 301.04 97.99 301.05"/><polygon class="cls-4" points="97.96 301.06 99.73 292.04 99.76 292.03 97.99 301.05 97.96 301.06"/><polygon class="cls-4" points="97.93 301.07 99.7 292.05 99.73 292.04 97.96 301.06 97.93 301.07"/><polygon class="cls-4" points="97.9 301.08 99.67 292.06 99.7 292.05 97.93 301.07 97.9 301.08"/><polygon class="cls-4" points="97.86 301.09 99.63 292.07 99.67 292.06 97.9 301.08 97.86 301.09"/><polygon class="cls-4" points="97.83 301.1 99.6 292.08 99.63 292.07 97.86 301.09 97.83 301.1"/><polygon class="cls-4" points="97.8 301.11 99.57 292.09 99.6 292.08 97.83 301.1 97.8 301.11"/><polygon class="cls-4" points="97.77 301.12 99.54 292.1 99.57 292.09 97.8 301.11 97.77 301.12"/><polygon class="cls-4" points="97.73 301.13 99.51 292.11 99.54 292.1 97.77 301.12 97.73 301.13"/><polygon class="cls-4" points="97.7 301.14 99.47 292.12 99.51 292.11 97.73 301.13 97.7 301.14"/><polygon class="cls-4" points="97.67 301.16 99.44 292.14 99.47 292.12 97.7 301.14 97.67 301.16"/><polygon class="cls-4" points="97.64 301.17 99.41 292.15 99.44 292.14 97.67 301.16 97.64 301.17"/><polygon class="cls-4" points="97.6 301.18 99.38 292.16 99.41 292.15 97.64 301.17 97.6 301.18"/><polygon class="cls-4" points="97.57 301.19 99.34 292.17 99.38 292.16 97.6 301.18 97.57 301.19"/><polygon class="cls-4" points="97.54 301.2 99.31 292.18 99.34 292.17 97.57 301.19 97.54 301.2"/><polygon class="cls-4" points="97.51 301.21 99.28 292.19 99.31 292.18 97.54 301.2 97.51 301.21"/><polygon class="cls-4" points="97.48 301.22 99.25 292.2 99.28 292.19 97.51 301.21 97.48 301.22"/><polygon class="cls-4" points="97.44 301.23 99.21 292.21 99.25 292.2 97.48 301.22 97.44 301.23"/><polygon class="cls-4" points="97.41 301.24 99.18 292.22 99.21 292.21 97.44 301.23 97.41 301.24"/><polygon class="cls-4" points="97.38 301.25 99.15 292.23 99.18 292.22 97.41 301.24 97.38 301.25"/><polygon class="cls-4" points="97.35 301.26 99.12 292.24 99.15 292.23 97.38 301.25 97.35 301.26"/><polygon class="cls-4" points="97.31 301.27 99.08 292.25 99.12 292.24 97.35 301.26 97.31 301.27"/><polygon class="cls-4" points="97.28 301.28 99.05 292.26 99.08 292.25 97.31 301.27 97.28 301.28"/><polygon class="cls-4" points="97.25 301.29 99.02 292.27 99.05 292.26 97.28 301.28 97.25 301.29"/><polygon class="cls-4" points="97.22 301.3 98.99 292.28 99.02 292.27 97.25 301.29 97.22 301.3"/><polygon class="cls-4" points="97.18 301.32 98.95 292.3 98.99 292.28 97.22 301.3 97.18 301.32"/><polygon class="cls-4" points="97.15 301.33 98.92 292.31 98.95 292.3 97.18 301.32 97.15 301.33"/><polygon class="cls-4" points="97.12 301.34 98.89 292.32 98.92 292.31 97.15 301.33 97.12 301.34"/><polygon class="cls-4" points="97.09 301.35 98.86 292.33 98.89 292.32 97.12 301.34 97.09 301.35"/><polygon class="cls-4" points="97.05 301.36 98.82 292.34 98.86 292.33 97.09 301.35 97.05 301.36"/><polygon class="cls-4" points="97.02 301.37 98.79 292.35 98.82 292.34 97.05 301.36 97.02 301.37"/><polygon class="cls-4" points="96.99 301.38 98.76 292.36 98.79 292.35 97.02 301.37 96.99 301.38"/><polygon class="cls-4" points="96.96 301.39 98.73 292.37 98.76 292.36 96.99 301.38 96.96 301.39"/><polygon class="cls-4" points="96.92 301.4 98.7 292.38 98.73 292.37 96.96 301.39 96.92 301.4"/><polygon class="cls-4" points="96.89 301.41 98.66 292.39 98.7 292.38 96.92 301.4 96.89 301.41"/><polygon class="cls-4" points="96.86 301.42 98.63 292.4 98.66 292.39 96.89 301.41 96.86 301.42"/><polygon class="cls-4" points="96.83 301.43 98.6 292.41 98.63 292.4 96.86 301.42 96.83 301.43"/><polygon class="cls-4" points="96.8 301.44 98.57 292.42 98.6 292.41 96.83 301.43 96.8 301.44"/><polygon class="cls-4" points="96.76 301.45 98.53 292.43 98.57 292.42 96.8 301.44 96.76 301.45"/><polygon class="cls-4" points="96.73 301.46 98.5 292.45 98.53 292.43 96.76 301.45 96.73 301.46"/><polygon class="cls-4" points="96.7 301.48 98.47 292.46 98.5 292.45 96.73 301.46 96.7 301.48"/><polygon class="cls-4" points="96.67 301.49 98.44 292.47 98.47 292.46 96.7 301.48 96.67 301.49"/><polygon class="cls-4" points="96.63 301.5 98.4 292.48 98.44 292.47 96.67 301.49 96.63 301.5"/><polygon class="cls-4" points="96.6 301.51 98.37 292.49 98.4 292.48 96.63 301.5 96.6 301.51"/><polygon class="cls-4" points="96.57 301.52 98.34 292.5 98.37 292.49 96.6 301.51 96.57 301.52"/><polygon class="cls-4" points="96.54 301.53 98.31 292.51 98.34 292.5 96.57 301.52 96.54 301.53"/><polygon class="cls-4" points="96.5 301.54 98.27 292.52 98.31 292.51 96.54 301.53 96.5 301.54"/><polygon class="cls-4" points="96.47 301.55 98.24 292.53 98.27 292.52 96.5 301.54 96.47 301.55"/><polygon class="cls-4" points="96.44 301.56 98.21 292.54 98.24 292.53 96.47 301.55 96.44 301.56"/><polygon class="cls-4" points="96.41 301.57 98.18 292.55 98.21 292.54 96.44 301.56 96.41 301.57"/><polygon class="cls-4" points="96.37 301.58 98.14 292.56 98.18 292.55 96.41 301.57 96.37 301.58"/><polygon class="cls-4" points="96.34 301.59 98.11 292.57 98.14 292.56 96.37 301.58 96.34 301.59"/><polygon class="cls-4" points="96.31 301.6 98.08 292.58 98.11 292.57 96.34 301.59 96.31 301.6"/><polygon class="cls-4" points="96.28 301.61 98.05 292.59 98.08 292.58 96.31 301.6 96.28 301.61"/><polygon class="cls-4" points="96.24 301.62 98.02 292.61 98.05 292.59 96.28 301.61 96.24 301.62"/><polygon class="cls-4" points="96.21 301.64 97.98 292.62 98.02 292.61 96.24 301.62 96.21 301.64"/><polygon class="cls-4" points="96.18 301.65 97.95 292.63 97.98 292.62 96.21 301.64 96.18 301.65"/><polygon class="cls-4" points="96.15 301.66 97.92 292.64 97.95 292.63 96.18 301.65 96.15 301.66"/><polygon class="cls-4" points="96.12 301.67 97.89 292.65 97.92 292.64 96.15 301.66 96.12 301.67"/><polygon class="cls-4" points="96.08 301.68 97.85 292.66 97.89 292.65 96.12 301.67 96.08 301.68"/><polygon class="cls-4" points="96.05 301.69 97.82 292.67 97.85 292.66 96.08 301.68 96.05 301.69"/><polygon class="cls-4" points="96.02 301.7 97.79 292.68 97.82 292.67 96.05 301.69 96.02 301.7"/><polygon class="cls-4" points="95.99 301.71 97.76 292.69 97.79 292.68 96.02 301.7 95.99 301.71"/><polygon class="cls-4" points="95.95 301.72 97.72 292.7 97.76 292.69 95.99 301.71 95.95 301.72"/><polygon class="cls-4" points="95.92 301.73 97.69 292.71 97.72 292.7 95.95 301.72 95.92 301.73"/><polygon class="cls-4" points="95.89 301.74 97.66 292.72 97.69 292.71 95.92 301.73 95.89 301.74"/><polygon class="cls-4" points="95.86 301.75 97.63 292.73 97.66 292.72 95.89 301.74 95.86 301.75"/><polygon class="cls-4" points="95.82 301.76 97.59 292.74 97.63 292.73 95.86 301.75 95.82 301.76"/><polygon class="cls-4" points="95.79 301.77 97.56 292.75 97.59 292.74 95.82 301.76 95.79 301.77"/><polygon class="cls-4" points="95.76 301.78 97.53 292.77 97.56 292.75 95.79 301.77 95.76 301.78"/><polygon class="cls-4" points="95.73 301.8 97.5 292.78 97.53 292.77 95.76 301.78 95.73 301.8"/><polygon class="cls-4" points="95.69 301.81 97.46 292.79 97.5 292.78 95.73 301.8 95.69 301.81"/><polygon class="cls-4" points="95.66 301.82 97.43 292.8 97.46 292.79 95.69 301.81 95.66 301.82"/><polygon class="cls-4" points="95.63 301.83 97.4 292.81 97.43 292.8 95.66 301.82 95.63 301.83"/><polygon class="cls-4" points="95.6 301.84 97.37 292.82 97.4 292.81 95.63 301.83 95.6 301.84"/><polygon class="cls-4" points="95.56 301.85 97.34 292.83 97.37 292.82 95.6 301.84 95.56 301.85"/><polygon class="cls-4" points="95.53 301.86 97.3 292.84 97.34 292.83 95.56 301.85 95.53 301.86"/><polygon class="cls-4" points="95.5 301.87 97.27 292.85 97.3 292.84 95.53 301.86 95.5 301.87"/><polygon class="cls-4" points="95.47 301.88 97.24 292.86 97.27 292.85 95.5 301.87 95.47 301.88"/><polygon class="cls-4" points="95.43 301.89 97.21 292.87 97.24 292.86 95.47 301.88 95.43 301.89"/><polygon class="cls-4" points="95.4 301.9 97.17 292.88 97.21 292.87 95.43 301.89 95.4 301.9"/><polygon class="cls-4" points="95.37 301.91 97.14 292.89 97.17 292.88 95.4 301.9 95.37 301.91"/><polygon class="cls-4" points="95.34 301.92 97.11 292.9 97.14 292.89 95.37 301.91 95.34 301.92"/><polygon class="cls-4" points="95.31 301.93 97.08 292.91 97.11 292.9 95.34 301.92 95.31 301.93"/><polygon class="cls-4" points="95.27 301.95 97.04 292.93 97.08 292.91 95.31 301.93 95.27 301.95"/><polygon class="cls-4" points="95.24 301.96 97.01 292.94 97.04 292.93 95.27 301.95 95.24 301.96"/><polygon class="cls-4" points="95.21 301.97 96.98 292.95 97.01 292.94 95.24 301.96 95.21 301.97"/><polygon class="cls-4" points="95.18 301.98 96.95 292.96 96.98 292.95 95.21 301.97 95.18 301.98"/><polygon class="cls-4" points="95.14 301.99 96.91 292.97 96.95 292.96 95.18 301.98 95.14 301.99"/><polygon class="cls-4" points="95.11 302 96.88 292.98 96.91 292.97 95.14 301.99 95.11 302"/><polygon class="cls-4" points="95.08 302.01 96.85 292.99 96.88 292.98 95.11 302 95.08 302.01"/><polygon class="cls-4" points="95.05 302.02 96.82 293 96.85 292.99 95.08 302.01 95.05 302.02"/><polygon class="cls-4" points="95.01 302.03 96.78 293.01 96.82 293 95.05 302.02 95.01 302.03"/><polygon class="cls-4" points="94.98 302.04 96.75 293.02 96.78 293.01 95.01 302.03 94.98 302.04"/><polygon class="cls-4" points="94.95 302.05 96.72 293.03 96.75 293.02 94.98 302.04 94.95 302.05"/><polygon class="cls-4" points="94.92 302.06 96.69 293.04 96.72 293.03 94.95 302.05 94.92 302.06"/><polygon class="cls-4" points="94.88 302.07 96.65 293.05 96.69 293.04 94.92 302.06 94.88 302.07"/><polygon class="cls-4" points="94.85 302.08 96.62 293.06 96.65 293.05 94.88 302.07 94.85 302.08"/><polygon class="cls-4" points="94.82 302.09 96.59 293.07 96.62 293.06 94.85 302.08 94.82 302.09"/><polygon class="cls-4" points="94.79 302.11 96.56 293.09 96.59 293.07 94.82 302.09 94.79 302.11"/><polygon class="cls-4" points="94.75 302.12 96.53 293.1 96.56 293.09 94.79 302.11 94.75 302.12"/><polygon class="cls-4" points="94.72 302.13 96.49 293.11 96.53 293.1 94.75 302.12 94.72 302.13"/><polygon class="cls-4" points="94.69 302.14 96.46 293.12 96.49 293.11 94.72 302.13 94.69 302.14"/><polygon class="cls-4" points="94.66 302.15 96.43 293.13 96.46 293.12 94.69 302.14 94.66 302.15"/><polygon class="cls-4" points="94.63 302.16 96.4 293.14 96.43 293.13 94.66 302.15 94.63 302.16"/><polygon class="cls-4" points="94.59 302.17 96.36 293.15 96.4 293.14 94.63 302.16 94.59 302.17"/><polygon class="cls-4" points="94.56 302.18 96.33 293.16 96.36 293.15 94.59 302.17 94.56 302.18"/><polygon class="cls-4" points="94.53 302.19 96.3 293.17 96.33 293.16 94.56 302.18 94.53 302.19"/><polygon class="cls-4" points="94.5 302.2 96.27 293.18 96.3 293.17 94.53 302.19 94.5 302.2"/><polygon class="cls-4" points="94.46 302.21 96.23 293.19 96.27 293.18 94.5 302.2 94.46 302.21"/><polygon class="cls-4" points="94.43 302.22 96.2 293.2 96.23 293.19 94.46 302.21 94.43 302.22"/><polygon class="cls-4" points="94.4 302.23 96.17 293.21 96.2 293.2 94.43 302.22 94.4 302.23"/><polygon class="cls-4" points="94.37 302.24 96.14 293.22 96.17 293.21 94.4 302.23 94.37 302.24"/><polygon class="cls-4" points="94.33 302.25 96.1 293.23 96.14 293.22 94.37 302.24 94.33 302.25"/><polygon class="cls-4" points="94.3 302.27 96.07 293.25 96.1 293.23 94.33 302.25 94.3 302.27"/><polygon class="cls-4" points="94.27 302.28 96.04 293.26 96.07 293.25 94.3 302.27 94.27 302.28"/><polygon class="cls-4" points="94.24 302.29 96.01 293.27 96.04 293.26 94.27 302.28 94.24 302.29"/><polygon class="cls-4" points="94.2 302.3 95.97 293.28 96.01 293.27 94.24 302.29 94.2 302.3"/><polygon class="cls-4" points="94.17 302.31 95.94 293.29 95.97 293.28 94.2 302.3 94.17 302.31"/><polygon class="cls-4" points="94.14 302.32 95.91 293.3 95.94 293.29 94.17 302.31 94.14 302.32"/><polygon class="cls-4" points="94.11 302.33 95.88 293.31 95.91 293.3 94.14 302.32 94.11 302.33"/><polygon class="cls-4" points="94.07 302.34 95.85 293.32 95.88 293.31 94.11 302.33 94.07 302.34"/><polygon class="cls-4" points="94.04 302.35 95.81 293.33 95.85 293.32 94.07 302.34 94.04 302.35"/><polygon class="cls-4" points="94.01 302.36 95.78 293.34 95.81 293.33 94.04 302.35 94.01 302.36"/><polygon class="cls-4" points="93.98 302.37 95.75 293.35 95.78 293.34 94.01 302.36 93.98 302.37"/><polygon class="cls-4" points="93.95 302.38 95.72 293.36 95.75 293.35 93.98 302.37 93.95 302.38"/><polygon class="cls-4" points="93.91 302.39 95.68 293.37 95.72 293.36 93.95 302.38 93.91 302.39"/><polygon class="cls-4" points="93.88 302.4 95.65 293.38 95.68 293.37 93.91 302.39 93.88 302.4"/><polygon class="cls-4" points="93.85 302.41 95.62 293.39 95.65 293.38 93.88 302.4 93.85 302.41"/><polygon class="cls-4" points="93.82 302.43 95.59 293.41 95.62 293.39 93.85 302.41 93.82 302.43"/><polygon class="cls-4" points="93.78 302.44 95.55 293.42 95.59 293.41 93.82 302.43 93.78 302.44"/><polygon class="cls-4" points="93.75 302.45 95.52 293.43 95.55 293.42 93.78 302.44 93.75 302.45"/><polygon class="cls-4" points="93.72 302.46 95.49 293.44 95.52 293.43 93.75 302.45 93.72 302.46"/><polygon class="cls-4" points="93.69 302.47 95.46 293.45 95.49 293.44 93.72 302.46 93.69 302.47"/><polygon class="cls-4" points="93.65 302.48 95.42 293.46 95.46 293.45 93.69 302.47 93.65 302.48"/><polygon class="cls-4" points="93.62 302.49 95.39 293.47 95.42 293.46 93.65 302.48 93.62 302.49"/><polygon class="cls-4" points="93.59 302.5 95.36 293.48 95.39 293.47 93.62 302.49 93.59 302.5"/><polygon class="cls-4" points="93.56 302.51 95.33 293.49 95.36 293.48 93.59 302.5 93.56 302.51"/><polygon class="cls-4" points="93.52 302.52 95.29 293.5 95.33 293.49 93.56 302.51 93.52 302.52"/><polygon class="cls-4" points="93.49 302.53 95.26 293.51 95.29 293.5 93.52 302.52 93.49 302.53"/><polygon class="cls-4" points="93.46 302.54 95.23 293.52 95.26 293.51 93.49 302.53 93.46 302.54"/><polygon class="cls-4" points="93.43 302.55 95.2 293.53 95.23 293.52 93.46 302.54 93.43 302.55"/><polygon class="cls-4" points="93.39 302.56 95.17 293.54 95.2 293.53 93.43 302.55 93.39 302.56"/><polygon class="cls-4" points="93.36 302.57 95.13 293.56 95.17 293.54 93.39 302.56 93.36 302.57"/><polygon class="cls-4" points="93.33 302.59 95.1 293.57 95.13 293.56 93.36 302.57 93.33 302.59"/><polygon class="cls-4" points="93.3 302.6 95.07 293.58 95.1 293.57 93.33 302.59 93.3 302.6"/><polygon class="cls-4" points="93.26 302.61 95.04 293.59 95.07 293.58 93.3 302.6 93.26 302.61"/><polygon class="cls-4" points="93.23 302.62 95 293.6 95.04 293.59 93.26 302.61 93.23 302.62"/><polygon class="cls-4" points="93.2 302.63 94.97 293.61 95 293.6 93.23 302.62 93.2 302.63"/><polygon class="cls-4" points="93.17 302.64 94.94 293.62 94.97 293.61 93.2 302.63 93.17 302.64"/><polygon class="cls-4" points="93.14 302.65 94.91 293.63 94.94 293.62 93.17 302.64 93.14 302.65"/><polygon class="cls-4" points="93.1 302.66 94.87 293.64 94.91 293.63 93.14 302.65 93.1 302.66"/><polygon class="cls-4" points="93.07 302.67 94.84 293.65 94.87 293.64 93.1 302.66 93.07 302.67"/><polygon class="cls-4" points="93.04 302.68 94.81 293.66 94.84 293.65 93.07 302.67 93.04 302.68"/><polygon class="cls-4" points="93.01 302.69 94.78 293.67 94.81 293.66 93.04 302.68 93.01 302.69"/><polygon class="cls-4" points="92.97 302.7 94.74 293.68 94.78 293.67 93.01 302.69 92.97 302.7"/><polygon class="cls-4" points="92.94 302.71 94.71 293.69 94.74 293.68 92.97 302.7 92.94 302.71"/><polygon class="cls-4" points="92.91 302.72 94.68 293.7 94.71 293.69 92.94 302.71 92.91 302.72"/><polygon class="cls-4" points="94.68 293.7 92.91 302.72 90.93 294.94 94.68 293.7"/></g><path class="cls-4" d="m106.92,279.94c3.19-1.05,6.77.18,8.87,3.4,2.71,4.14,1.95,9.99-1.69,13.08l-16.3,13.81c-3.64,3.08-8.78,2.22-11.48-1.92-2.71-4.14-1.95-10,1.69-13.08l16.3-13.81c.81-.69,1.7-1.18,2.62-1.48Z"/><polyline class="cls-1" points="3 15.15 16.82 26.73 30.63 15.13 44.44 26.71 58.25 15.11 72.07 26.69 85.88 15.09 99.71 26.67"/><polyline class="cls-1" points="3 30.17 16.82 41.75 30.63 30.15 44.44 41.73 58.25 30.13 72.07 41.71 85.88 30.11 99.71 41.69"/><polyline class="cls-1" points="3 45.18 16.82 56.76 30.63 45.16 44.44 56.74 58.25 45.14 72.07 56.72 85.88 45.12 99.71 56.7"/><polyline class="cls-1" points="3 60.19 16.82 71.77 30.63 60.17 44.44 71.75 58.25 60.15 72.07 71.73 85.88 60.13 99.71 71.71"/><polyline class="cls-1" points="3 75.21 16.82 86.79 30.63 75.19 44.44 86.77 58.25 75.17 72.07 86.75 85.88 75.15 99.71 86.73"/><circle class="cls-2" cx="260.12" cy="143.62" r="80.68"/><circle class="cls-2" cx="260.03" cy="145.57" r="92.59"/><circle class="cls-2" cx="260.03" cy="143.03" r="110.33"/><circle class="cls-2" cx="260.03" cy="143.03" r="127.72"/><circle class="cls-2" cx="257.13" cy="145.57" r="142.57"/><circle class="cls-2" cx="260.12" cy="143.36" r="67.67"/><circle class="cls-2" cx="260.12" cy="142.32" r="53.09"/><circle class="cls-2" cx="260.12" cy="141.54" r="36.7"/><circle class="cls-2" cx="260.38" cy="140.24" r="18.22"/><circle class="cls-2" cx="260.12" cy="140.76" r="5.21"/></g></g></svg>