<?xml version="1.0" encoding="UTF-8"?><svg xmlns="http://www.w3.org/2000/svg" xmlns:xlink="http://www.w3.org/1999/xlink" viewBox="0 0 460.58 367.21"><defs><style>.cls-1,.cls-2{fill:none;}.cls-3{clip-path:url(#clippath);}.cls-4{fill:#3f8d91;}.cls-5{mix-blend-mode:multiply;}.cls-6{clip-path:url(#clippath-1);}.cls-2{stroke:#00a7b3;stroke-miterlimit:10;stroke-width:2px;}.cls-7{opacity:.3;}.cls-8{opacity:.5;}.cls-9{isolation:isolate;}</style><clipPath id="clippath"><path class="cls-1" d="m240.81,230.43c2.67-19.04-1.97-39.02-12.76-54.93-5.12-7.55-12.21-14.55-21.2-16.07-7.31-1.23-14.77,1.35-22.17.84-20.85-1.44-34.52-26.1-55.39-27.28-6.48-.37-12.85,1.66-18.94,3.91-26.42,9.76-53.12,26.76-61.17,53.75-7.73,25.91,3.77,53.25,15.02,77.83,2.88,6.29,5.99,12.87,11.62,16.89,14.87,10.61,35.93-2.62,53.61,2.01,10.06,2.64,18.06,10.9,28.28,12.87,11.25,2.18,22.34-3.69,32.3-9.35,13.77-7.83,27.55-15.66,41.32-23.49,9.36-5.32,18.95-10.84,25.7-19.23,6.86-8.53,10.17-19.29,13.34-29.77,2.25-7.45,4.3-16.24-.41-22.44-7.91-10.43-25.76-3.31-36.76-10.4"/></clipPath><clipPath id="clippath-1"><rect class="cls-2" x="44.61" y="106.59" width="216" height="216" transform="translate(-98.29 134.65) rotate(-36.91)"/></clipPath></defs><g class="cls-9"><g id="Camada_2"><g id="Camada_3"><g class="cls-8"><path class="cls-4" d="m360.01,61.41c-.73,0-1.37-.14-1.93-.42-.56-.28-.99-.68-1.31-1.18-.31-.5-.47-1.08-.47-1.73s.16-1.25.48-1.74c.32-.49.76-.88,1.32-1.15s1.2-.41,1.92-.41,1.39.14,1.94.42c.56.28.99.66,1.3,1.16.31.49.46,1.07.46,1.73s-.16,1.24-.47,1.74-.75.89-1.31,1.17c-.56.28-1.21.42-1.94.42Zm.03-1.93c.35,0,.64-.13.87-.39s.34-.6.34-1.01-.11-.75-.33-1.01c-.22-.26-.51-.39-.85-.39-.37,0-.67.13-.89.39-.23.26-.34.6-.34,1.01s.11.75.34,1.01.52.39.87.39Z"/><path class="cls-4" d="m213.13,6.45l1.96-3.35-1.83-3.1h2.72l.72,1.52.75-1.52h2.64l-1.8,3.1,1.93,3.35h-2.64l-.88-1.65-.85,1.65h-2.71Z"/><path class="cls-4" d="m269.26,61.41c-.73,0-1.37-.14-1.93-.42-.56-.28-.99-.68-1.31-1.18-.31-.5-.47-1.08-.47-1.73s.16-1.25.48-1.74c.32-.49.76-.88,1.32-1.15s1.2-.41,1.92-.41,1.39.14,1.94.42c.56.28.99.66,1.3,1.16.31.49.46,1.07.46,1.73s-.16,1.24-.47,1.74-.75.89-1.31,1.17c-.56.28-1.21.42-1.94.42Zm.03-1.93c.35,0,.64-.13.87-.39s.34-.6.34-1.01-.11-.75-.33-1.01c-.22-.26-.51-.39-.85-.39-.37,0-.67.13-.89.39-.23.26-.34.6-.34,1.01s.11.75.34,1.01.52.39.87.39Z"/><path class="cls-4" d="m456.86,58.02c-.73,0-1.37-.14-1.93-.42-.56-.28-.99-.68-1.31-1.18-.31-.5-.47-1.08-.47-1.73s.16-1.25.48-1.74c.32-.49.76-.88,1.32-1.15s1.2-.41,1.92-.41,1.39.14,1.94.42c.56.28.99.66,1.3,1.16.31.49.46,1.07.46,1.73s-.16,1.24-.47,1.74-.75.89-1.31,1.17c-.56.28-1.21.42-1.94.42Zm.03-1.93c.35,0,.64-.13.87-.39s.34-.6.34-1.01-.11-.75-.33-1.01c-.22-.26-.51-.39-.85-.39-.37,0-.67.13-.89.39-.23.26-.34.6-.34,1.01s.11.75.34,1.01.52.39.87.39Z"/><path class="cls-4" d="m306.59,6.45l1.96-3.35-1.83-3.1h2.72l.72,1.52.75-1.52h2.64l-1.8,3.1,1.93,3.35h-2.64l-.88-1.65-.85,1.65h-2.71Z"/><path class="cls-4" d="m394.63,6.45l1.96-3.35-1.83-3.1h2.72l.72,1.52.75-1.52h2.64l-1.8,3.1,1.93,3.35h-2.64l-.88-1.65-.85,1.65h-2.71Z"/><path class="cls-4" d="m360.01,177.89c-.73,0-1.37-.14-1.93-.42-.56-.28-.99-.68-1.31-1.18-.31-.5-.47-1.08-.47-1.73s.16-1.25.48-1.74c.32-.49.76-.88,1.32-1.15s1.2-.41,1.92-.41,1.39.14,1.94.42c.56.28.99.66,1.3,1.16.31.49.46,1.07.46,1.73s-.16,1.24-.47,1.74-.75.89-1.31,1.17c-.56.28-1.21.42-1.94.42Zm.03-1.93c.35,0,.64-.13.87-.39s.34-.6.34-1.01-.11-.75-.33-1.01c-.22-.26-.51-.39-.85-.39-.37,0-.67.13-.89.39-.23.26-.34.6-.34,1.01s.11.75.34,1.01.52.39.87.39Z"/><path class="cls-4" d="m213.13,122.93l1.96-3.35-1.83-3.1h2.72l.72,1.52.75-1.52h2.64l-1.8,3.1,1.93,3.35h-2.64l-.88-1.65-.85,1.65h-2.71Z"/><path class="cls-4" d="m269.26,177.89c-.73,0-1.37-.14-1.93-.42-.56-.28-.99-.68-1.31-1.18-.31-.5-.47-1.08-.47-1.73s.16-1.25.48-1.74c.32-.49.76-.88,1.32-1.15s1.2-.41,1.92-.41,1.39.14,1.94.42c.56.28.99.66,1.3,1.16.31.49.46,1.07.46,1.73s-.16,1.24-.47,1.74-.75.89-1.31,1.17c-.56.28-1.21.42-1.94.42Zm.03-1.93c.35,0,.64-.13.87-.39s.34-.6.34-1.01-.11-.75-.33-1.01c-.22-.26-.51-.39-.85-.39-.37,0-.67.13-.89.39-.23.26-.34.6-.34,1.01s.11.75.34,1.01.52.39.87.39Z"/><path class="cls-4" d="m456.86,174.5c-.73,0-1.37-.14-1.93-.42-.56-.28-.99-.68-1.31-1.18-.31-.5-.47-1.08-.47-1.73s.16-1.25.48-1.74c.32-.49.76-.88,1.32-1.15s1.2-.41,1.92-.41,1.39.14,1.94.42c.56.28.99.66,1.3,1.16.31.49.46,1.07.46,1.73s-.16,1.24-.47,1.74-.75.89-1.31,1.17c-.56.28-1.21.42-1.94.42Zm.03-1.93c.35,0,.64-.13.87-.39s.34-.6.34-1.01-.11-.75-.33-1.01c-.22-.26-.51-.39-.85-.39-.37,0-.67.13-.89.39-.23.26-.34.6-.34,1.01s.11.75.34,1.01.52.39.87.39Z"/><path class="cls-4" d="m306.59,122.93l1.96-3.35-1.83-3.1h2.72l.72,1.52.75-1.52h2.64l-1.8,3.1,1.93,3.35h-2.64l-.88-1.65-.85,1.65h-2.71Z"/><path class="cls-4" d="m394.63,122.93l1.96-3.35-1.83-3.1h2.72l.72,1.52.75-1.52h2.64l-1.8,3.1,1.93,3.35h-2.64l-.88-1.65-.85,1.65h-2.71Z"/></g><g class="cls-7"><g class="cls-3"><g class="cls-5"><g class="cls-6"><polygon class="cls-2" points="131.11 365.81 303.83 236.09 174.11 63.38 1.4 193.09 131.11 365.81 131.11 365.81"/></g><rect class="cls-2" x="44.61" y="106.59" width="216" height="216" transform="translate(-98.29 134.65) rotate(-36.91)"/><path class="cls-2" d="m134.9,217.93c.29-2.41-.06-4.82-.71-7.1,1.88,2.12,2.42,5.7,1.89,8.47-.28,1.45-1.02,3.16-2.41,3.58-.85.26-1.7-.1-2.29-.85,2.17.66,3.25-1.97,3.51-4.11h0Z"/><path class="cls-2" d="m103.19,245.88c1.62,3.15,3.44,6.2,5.65,8.97,1.92,2.4,4.03,4.5,6.38,6.47-4.35-3.92-7.79-8.47-10.56-13.63-3.03-5.65-5.19-11.8-6.68-18.03-3.04-12.78-3.42-26.45-.33-39.26,1.53-6.34,4.13-12.22,8-17.47-3.6,4.53-6.18,9.59-7.84,15.13-1.88,6.26-2.74,12.69-2.94,19.22-.2,6.7.48,13.48,1.89,20.03,1.38,6.42,3.41,12.72,6.42,18.57h0Zm59.03-20.74c.47-7.88-.29-15.78-2.14-23.44-2.21-9.16-6.27-18.19-12.41-25.41-5.7-6.7-13.73-12.12-22.84-11.72-.69.03-1.38.13-2.07.21,3.76-.13,7.38.43,10.84,1.98,4.04,1.81,7.59,4.64,10.58,7.88,6.27,6.79,10.37,15.39,12.91,24.21,2.1,7.29,3.13,14.91,3.1,22.49-.03,9.24-1.62,18.73-5.62,27.11-3.7,7.76-9.66,14.76-18.24,17.04-.64.17-1.29.28-1.93.41,3.98-.45,7.6-1.71,10.9-4.01,3.71-2.57,6.69-6.03,9.05-9.86,4.94-8,7.33-17.57,7.88-26.9h0Zm7.03,5.52c-.37,1.16-.81,2.28-1.31,3.36,1.32-1.61,2.47-3.36,3.42-5.28,1.75-3.57,2.67-7.39,3.09-11.33.07,4.19-.44,8.29-1.84,12.26-.37,1.04-.8,2.05-1.28,3.02,1.32-1.51,2.49-3.15,3.46-4.97,1.85-3.46,2.83-7.23,3.3-11.11.02,4.16-.58,8.23-2.12,12.11-.37.93-.79,1.83-1.25,2.7,1.22-1.28,2.31-2.68,3.24-4.24,2.1-3.49,3.23-7.35,3.77-11.36-.03,4.19-.73,8.29-2.45,12.14-.35.78-.73,1.53-1.15,2.26,1.26-1.23,2.39-2.59,3.36-4.12,2.14-3.39,3.32-7.13,3.89-11.07-.08,4.21-.86,8.34-2.76,12.13-.32.64-.66,1.25-1.02,1.85,1.25-1.14,2.38-2.42,3.36-3.87,2.23-3.31,3.46-6.99,4.07-10.91-.13,4.28-1.02,8.47-3.12,12.24-.25.46-.52.9-.8,1.34,1.19-1.02,2.28-2.18,3.24-3.49,2.37-3.25,3.67-6.94,4.32-10.88-.17,4.19-1.1,8.25-3.22,11.91-.26.45-.54.89-.83,1.32,1.19-.96,2.28-2.06,3.25-3.33,2.42-3.18,3.76-6.79,4.44-10.7-.21,4.19-1.23,8.08-3.36,11.71-.33.56-.69,1.1-1.07,1.62,4.64-4.38,7.12-11.12,6.3-18.22-1.05-9.14-7.49-16.6-15.61-18.4-7.83.55-15.75-.79-22.57-2.66,3.43,7.15,5.86,15.24,6.87,24.04.88,7.64.67,15.07-.48,22.02.6-.98,1.14-2.01,1.61-3.08,1.61-3.64,2.43-7.5,2.8-11.45.13,4.23-.27,8.4-1.55,12.45h0Zm38.79-31.87c-1.98-4.32-4.8-8.05-8.8-10.7.8.3,1.59.63,2.36,1.05,4.07,2.17,7.11,5.43,9.45,9.36-1.98-4.32-4.8-8.05-8.8-10.7.8.3,1.59.64,2.36,1.05,4.08,2.17,7.11,5.43,9.45,9.36-1.98-4.32-4.8-8.05-8.8-10.7.8.3,1.59.64,2.36,1.05,4.08,2.17,7.11,5.43,9.45,9.36-1.98-4.32-4.8-8.05-8.8-10.7.8.3,1.59.64,2.36,1.05,4.07,2.17,7.11,5.43,9.45,9.36-1.98-4.32-4.8-8.05-8.8-10.7.8.3,1.59.63,2.36,1.05,4.07,2.17,7.11,5.43,9.45,9.36-1.98-4.32-4.81-8.05-8.81-10.71-.93-.62-1.9-1.14-2.89-1.6-1.9-.39-3.88-.5-5.89-.27l-21.64,1.85c1.61.42,7.35,2.7,8.66,3.4,4.07,2.17,7.11,5.43,9.45,9.36-1.98-4.32-4.8-8.05-8.8-10.7.8.3,1.59.64,2.36,1.05,4.07,2.17,7.11,5.43,9.45,9.36-1.98-4.32-4.8-8.05-8.8-10.7.8.3,1.59.64,2.36,1.05,4.07,2.17,7.11,5.43,9.45,9.36h0Zm-19.54,36.91c-.35,3.53-.52,7.08-.7,10.62-.12,2.42-.3,4.8-.83,7.18-.51,2.26-1.32,4.41-2.09,6.59-.72,2.04-1.86,4.28-.62,6.35-.59-2.02.36-3.72,1.1-5.56.86-2.13,1.74-4.27,2.3-6.5,1.14-4.5.97-9.29.94-13.91-.01-1.59-.03-3.18-.1-4.77h0Zm13.01,28.19s0-.08,0-.12l3.73-31.58-.75.12-1.69,6.03-.79-5.65-.99.15-1.65,5.89-.77-5.52-1.05.16-1.61,5.75-.75-5.39-.75.12-.63,16.39c-.12,3.06-.72,6.07-1.79,8.94l-2.58,6.93c-.16.43-.1.89.18,1.26.27.37.69.57,1.15.54l7.12-.39c1.71-.22,3.57-1.72,3.64-3.64h0Zm-46.85-23.19l-7.11,5.97,7.87-10.97-17.37,12.59,17.48-17.39-16.9,9.01,13.65-11.14-18.78-.82c-.1,0-.2-.02-.29-.04-3.84-.27-7.19-4.67-7.87-10.58-.16-1.35-.15-2.66-.02-3.88l-20.15-1.23,21.36-3.12c.37-.75.81-1.43,1.31-2l-24.82-2.15c0-1.63.04-3.27.14-4.89l24.71,2.96-24.44-6.45c.45-4.39,1.29-8.75,2.61-13.05h0s24.81,5.59,24.81,5.59l-24.1-7.67c.64-1.69,1.38-3.33,2.16-4.96-6.93,9.42-10.46,25.04-8.5,42.11,3.04,26.46,18.15,46.53,33.68,44.74,9.41-1.08,16.84-9.94,20.57-22.63h0Zm-11.74-62.4c-2.43-2.01-5.23-3.64-8-5.14-2.77-1.49-5.68-2.92-8.7-3.83,2.43,2.02,5.22,3.64,8,5.14,2.77,1.49,5.68,2.92,8.7,3.83h0Zm-.16,5.33c1.74.61,3.48,1.2,5.26,1.7-3.49-2.02-7.18-3.72-10.85-5.39-4.83-2.2-9.78-4.19-14.8-5.95-1.74-.61-3.48-1.2-5.26-1.7,3.49,2.02,7.18,3.72,10.85,5.39,4.83,2.2,9.78,4.19,14.8,5.94h0Zm-8.91,41.3c2.17-.25,4.19-4.01,3.62-9.01-.57-5-3.4-8.2-5.57-7.95-2.17.25-4.19,4.01-3.62,9.01.57,5,3.4,8.2,5.57,7.95h0Zm23.4-5.44l-15.18.13,14.85-3.32-8.76-.25,8.72-2.63c-.01-.15-.03-.29-.05-.44l-6.11-.19,5.81-2.33c-.02-.17-.05-.34-.07-.51l-4.91-.2,4.53-2.19c-.03-.19-.06-.37-.1-.56l-4.39-.14,3.96-2.11c-.04-.2-.08-.39-.13-.59l-4.16-.13,3.68-1.96c-.05-.19-.09-.37-.14-.56l-18.51,5.17c2.1,1.85,3.68,5.05,4.12,8.9.24,2.07.11,4.03-.3,5.75l17.15-1.45c0-.13,0-.26,0-.4h0Zm-58.02-39.76c5.32-11.52,13.48-18.46,22.99-19.55,11.34-1.3,22.21,3.88,30,13.89,1.93,2.48,3.73,5.16,5.37,8.02,4.26,1.35,9.12,2.56,14.17,3.19,1.44-.51,2.93-.85,4.45-1.03.48-.06.99-.09,1.59-.11l27.44-2.35c12.63-1.45,24.17,8.47,25.75,22.12,1.57,13.65-7.42,25.94-19.99,27.38l-2.69.42-3.82,32.35c-.15,3.22-2.91,6.03-6.31,6.42-.03,0-.06,0-.09,0l-7.17.39c-.78.04-1.55-.13-2.22-.48-.2-.06-.39-.14-.57-.22-4.34-2.07-4.73-2.42-4.94-2.6-1.34-1.19-1.8-3.05-1.17-4.73l2.43-6.51c1.06-2.85,1.66-5.84,1.78-8.88l.48-12.41-2.53.39c-.76.17-1.4.28-2.03.35-1.51.17-3.04.17-4.57,0-5.12,2.14-9.85,5-13.89,7.88-.74,2.19-1.58,4.31-2.52,6.33-5.77,12.42-13.46,19.02-26.25,20.49-9.51,1.09-19.04-3.82-26.83-13.82-7.48-9.6-12.51-22.86-14.18-37.34-1.67-14.48.23-28.54,5.33-39.58h0Z"/><path class="cls-2" d="m92.11,183.25c-1.6-.35-3.19-.81-4.76-1.29-4.24-1.3-8.36-2.94-12.46-4.61,1.3-.89,2.6-1.78,3.91-2.65-3.96-1.85-7.91-3.83-11.59-6.18,2.07.5,4.12,1.12,6.14,1.79,3.56,1.17,7.05,2.53,10.54,3.89-1.25.89-2.5,1.78-3.76,2.65.37.17.75.34,1.13.51,3.72,1.74,7.44,3.61,10.86,5.89h0Z"/><path class="cls-2" d="m87.25,201.32c-1.68.16-3.36.21-5.05.23-4.39.05-8.77-.24-13.15-.57.96-1.24,1.92-2.49,2.91-3.72-4.34-.54-8.7-1.21-12.93-2.33,2.13-.16,4.26-.2,6.4-.18,3.75.02,7.48.25,11.22.47-.92,1.23-1.83,2.46-2.77,3.67.41.05.82.09,1.23.14,4.07.51,8.19,1.15,12.14,2.28h0Z"/><path class="cls-2" d="m71.53,222.27c-4.3.82-8.65,1.53-13.02,1.78,1.97-.81,4-1.5,6.03-2.15,3.57-1.13,7.19-2.07,10.82-3.01-.49,1.45-.98,2.9-1.5,4.34,1.84-.36,3.69-.69,5.54-.98,2.62-.4,5.27-.75,7.92-.84-1.54.67-3.13,1.24-4.73,1.78-4.16,1.41-8.42,2.48-12.68,3.52.53-1.48,1.06-2.96,1.62-4.43h0Z"/><path class="cls-2" d="m75.97,251.04c.16-1.57.32-3.13.5-4.69-3.97,1.83-8.03,3.57-12.2,4.87,1.72-1.26,3.51-2.42,5.33-3.54,3.19-1.96,6.48-3.75,9.77-5.54-.13,1.53-.25,3.05-.4,4.57,1.7-.8,3.41-1.56,5.14-2.29,2.45-1.02,4.93-2,7.48-2.73-1.33,1.03-2.74,1.96-4.16,2.87-3.7,2.37-7.57,4.44-11.46,6.48h0Z"/><path class="cls-2" d="m76.85,274.56c1.35-1.65,2.8-3.22,4.28-4.75,2.61-2.69,5.35-5.24,8.09-7.79.26,1.51.51,3.02.74,4.53,1.45-1.19,2.92-2.36,4.41-3.49,2.12-1.6,4.28-3.16,6.57-4.5-1.04,1.33-2.17,2.58-3.32,3.81-3,3.21-6.23,6.18-9.49,9.12-.23-1.56-.47-3.11-.68-4.67-3.39,2.76-6.89,5.45-10.61,7.75h0Z"/></g></g></g></g></g></g></svg>