<?xml version="1.0" encoding="UTF-8"?><svg id="Camada_2" xmlns="http://www.w3.org/2000/svg" xmlns:xlink="http://www.w3.org/1999/xlink" viewBox="0 0 1001.17 2019"><defs><style>.cls-1{fill:none;}.cls-2{clip-path:url(#clippath);}.cls-3{fill:#fff;}.cls-4{fill:#ff9200;}.cls-5{opacity:.3;}.cls-6{opacity:.4;}.cls-7{opacity:.5;}</style><clipPath id="clippath"><rect class="cls-1" width="788" height="2019"/></clipPath></defs><g id="Camada_2-2"><g class="cls-2"><g class="cls-5"><path class="cls-3" d="m473.58,123.14l-36.74,5.29c-3.79.55-6.6,3.79-6.6,7.62v42.41c0,4.57,3.96,8.13,8.5,7.65l36.74-3.87c3.92-.41,6.89-3.72,6.89-7.65v-43.83c0-4.69-4.15-8.29-8.79-7.62Zm-27.82,51.21c-3,0-5.45-2.44-5.45-5.45s2.44-5.45,5.45-5.45,5.45,2.44,5.45,5.45-2.44,5.45-5.45,5.45Zm14.82-4.38c-.03.37-.3.68-.67.73l-1.69.25c-.52.08-.95-.36-.9-.88.04-.39.06-.78.06-1.18,0-6.41-5.21-11.62-11.62-11.62-.46,0-.92.03-1.37.09-.42.05-.8-.23-.87-.65l-.28-1.64c-.08-.45.24-.86.69-.92.6-.08,1.21-.12,1.83-.12,8.2,0,14.86,6.67,14.86,14.86,0,.36-.01.72-.04,1.07Zm7.73-.52l-1.66.25c-.48.07-.9-.3-.9-.78h0c0-11.04-8.97-20.01-20-20.01-.94,0-1.86.07-2.77.2-.42.06-.81-.23-.88-.65l-.28-1.64c-.07-.43.22-.85.65-.91,1.07-.15,2.16-.24,3.27-.24,12.73,0,23.11,10.29,23.24,23-.26.3-.43.49-.69.79Zm8.34-1.25l-1.65.25c-.47.07-.89-.29-.91-.76-.64-15.09-13.1-27.16-28.34-27.16-1.41,0-2.8.11-4.15.31-.43.06-.83-.22-.9-.65l-.28-1.64c-.07-.43.22-.85.65-.92,1.53-.23,3.09-.35,4.68-.35,16.93,0,30.78,13.37,31.57,30.1.02.4-.28.76-.68.82Z"/><path class="cls-3" d="m445.76,165.61c-1.81,0-3.29,1.47-3.29,3.29s1.47,3.29,3.29,3.29,3.29-1.47,3.29-3.29-1.47-3.29-3.29-3.29Z"/></g><g class="cls-5"><path class="cls-4" d="m883.38,1329.22s-191.55-30.24-342.77,10.08l10.08,156.26s40.33,216.75,70.57,312.52c0,0,115.94,20.16,171.38-10.08,0,0,45.37-272.2,70.57-312.52,0,0,25.2-105.85,20.16-156.26Z"/><path class="cls-3" d="m750.32,1191.49l19.08,129.04s-53.31,24.49-90.64-1.05l8.04-91.07,63.52-36.92Z"/><path class="cls-4" d="m883.38,1329.22s297.4,322.6-52.93,446.1v-25.2s131.06-110.9,30.24-262.11c0,0,12.6-143.66,22.68-158.78Z"/><path class="cls-3" d="m827.93,1752.64s-45.37-30.24-65.53-20.16c-20.16,10.08-20.16,25.2-20.16,25.2,0,0,10.08,20.16,25.2,15.12,15.12-5.04,50.41,5.04,65.53,0,0,0,5.04-20.16-5.04-20.16Z"/><path class="cls-4" d="m540.61,1339.3s-310,312.52,40.33,436.02v-25.2s-131.06-110.9-30.24-262.11c0,0,10.08-123.5-10.08-148.7Z"/><path class="cls-3" d="m583.46,1752.64s45.37-30.24,65.53-20.16c20.16,10.08,20.16,25.2,20.16,25.2,0,0-10.08,20.16-25.2,15.12-15.12-5.04-50.41,5.04-65.53,0,0,0-5.04-20.16,5.04-20.16Z"/><path class="cls-3" d="m694.58,1096.66c-1.29,1.21-54.41,105.53-54.41,105.53l60.21,29.07,65.04-91.39s-49.25-63.52-70.84-43.21Z"/><path class="cls-4" d="m738.77,1142.4c1.07,2.78.81,5.88-.72,8.44l-30.03,50.06c-.46.76-1,1.45-1.65,2.05-3.57,3.33-15.81,13-25.26-.17-8.06-11.23-15.62-21.44-23.72-25.65-4.73-2.46-10.55-.5-12.96,4.27-4.95,9.81-14.53,29.8-20.55,48.75-1.51,4.75.94,9.85,5.56,11.72,12.19,4.94,36.29,13.87,57.67,16.82,3.51.49,6.99-1,9.08-3.86,9.2-12.6,35.13-47.82,43.98-56.64,8.22-8.19,23.4-5.1,30.23-3.14,2.6.75,5.36.39,7.67-1.01,6.94-4.18,19.04-14.58,7.97-32.2-2.75-4.38-1.35-10.22,2.97-13.06,7.74-5.1,16.15-14.66,8.14-30.14-8.1-15.68-22.58-17.08-32.44-15.88-4.36.53-8.79-1.75-10.46-5.82-.74-1.81-2.22-3.35-4.96-3.9-5.17-1.05-8.56-5.77-7.54-10.95,1.74-8.87.43-20.4-13.74-28.18-25.98-14.28-48.74,8.99-54.52,28.64-5.79,19.65,23.26,33.53,41.53,35.85,13.42,1.7,20.78,16.35,23.74,24.01Z"/><path class="cls-3" d="m728.9,1216.57s11.55-33.8,26.34-32.56c14.79,1.24,26.43,15.97,8.1,32.53-22.8,20.6-34.44.03-34.44.03Z"/><polygon class="cls-3" points="1001.17 1484.96 702.79 1597.86 697.57 2002.69 949.91 1921.93 1001.17 1484.96"/><polygon class="cls-3" points="399 1484.96 702.79 1597.86 702.6 2002.69 450.26 1921.93 399 1484.96"/><g class="cls-6"><polygon class="cls-3" points="685.28 1619.09 413.91 1517.64 427.08 1600 685.28 1675.93 685.28 1619.09"/><polygon class="cls-3" points="680.17 1706.22 593.31 1675.93 606.18 1939.75 674.39 1965.49 680.17 1706.22"/><polygon class="cls-3" points="574.27 1675.93 437.59 1628.28 464.62 1836.03 580.94 1859.78 574.27 1675.93"/><polygon class="cls-3" points="582.32 1884.42 469.07 1859.78 469.07 1899.86 582.32 1931.6 582.32 1884.42"/></g><g class="cls-6"><polygon class="cls-3" points="731.61 1619.09 973.9 1525.79 969.44 1572.12 731.61 1647.62 731.61 1619.09"/><polygon class="cls-3" points="732.3 1684.94 965.24 1619.09 934.35 1905.01 724.08 1965.49 732.3 1684.94"/></g><path class="cls-3" d="m970.39,1712.61c1.29-2.94,25.49-45.58,7.95-61.18-17.54-15.6-25.88,1.76-24.68,20.53,1.21,18.76,6.96,62.93,16.73,40.65Z"/><path class="cls-3" d="m427.33,1712.61c-1.29-2.94-25.49-45.58-7.95-61.18,17.54-15.6,25.88,1.76,24.68,20.53-1.21,18.76-6.96,62.93-16.73,40.65Z"/></g><g class="cls-5"><path class="cls-3" d="m508.46,928.3l28.04,11.58,7.57-8.49c.14-.27.31-.52.55-.74.1-.09.21-.17.32-.24l11.72-13.15-48.2,11.05Z"/><path class="cls-3" d="m565.88,957.55c-2.39-2.58-5.56-6.02-8.74-9.47-4.16-4.51-8.3-9.01-10.67-11.59l-7.32,8.21c-.37.41-.85.69-1.36.8s-1.06.08-1.57-.13l-10.31-4.26c-1.01,3.33-2.79,9.24-4.59,15.17-1.36,4.48-2.72,8.96-3.74,12.33-.31,1.01-.57,1.86-.8,2.6l50.95-11.68c-.53-.56-1.13-1.21-1.85-1.99Z"/><path class="cls-3" d="m504.9,932.45l7.84,34.2c2.09-6.85,5.56-18.33,8.34-27.52l-16.18-6.68Z"/><path class="cls-3" d="m549.95,932.6c6.59,7.15,14.81,16.08,19.63,21.29l-7.9-34.46-11.74,13.17Z"/><path class="cls-3" d="m566.91,894.66l-75.54,13.23c-6.17,1.08-9.94,6.95-8.36,13.05l17.66,68.21c1.44,5.57,7.28,8.75,12.98,7.14l70.08-19.75c4.75-1.34,7.74-6.51,6.73-11.59l-12.37-61.89c-1.1-5.51-6.08-9.29-11.18-8.4Zm8.37,60.8c.92,4.03-1.6,8.05-5.63,8.97l-52.33,11.99c-4.03.92-8.05-1.6-8.97-5.63l-8.74-38.13c-.92-4.03,1.6-8.05,5.63-8.97l52.33-11.99c4.03-.92,8.05,1.6,8.97,5.63l8.74,38.13Z"/></g><g class="cls-7"><path class="cls-3" d="m453.18,484.36c-1.94,0-3.64-.38-5.12-1.12-1.48-.75-2.64-1.79-3.47-3.12-.83-1.33-1.25-2.86-1.25-4.59s.43-3.32,1.28-4.63c.85-1.31,2.02-2.33,3.5-3.05s3.18-1.09,5.09-1.09,3.68.37,5.16,1.11c1.48.74,2.63,1.76,3.45,3.07.82,1.31,1.23,2.84,1.23,4.59s-.41,3.29-1.25,4.63-1.98,2.37-3.46,3.11c-1.48.74-3.2,1.11-5.16,1.11Zm.07-5.12c.93,0,1.7-.35,2.3-1.04s.9-1.59.9-2.68-.3-1.99-.89-2.68c-.59-.69-1.34-1.04-2.25-1.04-.98,0-1.77.35-2.37,1.04-.6.69-.9,1.59-.9,2.68s.3,1.98.9,2.68,1.37,1.04,2.31,1.04Z"/><path class="cls-3" d="m63.46,338.55l5.19-8.88-4.85-8.23h7.21l1.91,4.03,1.98-4.03h7l-4.78,8.23,5.12,8.88h-7l-2.32-4.37-2.25,4.37h-7.2Z"/><path class="cls-3" d="m212.4,484.36c-1.94,0-3.64-.38-5.12-1.12-1.48-.75-2.64-1.79-3.47-3.12-.83-1.33-1.25-2.86-1.25-4.59s.43-3.32,1.28-4.63c.85-1.31,2.02-2.33,3.5-3.05s3.18-1.09,5.09-1.09,3.68.37,5.16,1.11c1.48.74,2.63,1.76,3.45,3.07.82,1.31,1.23,2.84,1.23,4.59s-.41,3.29-1.25,4.63-1.98,2.37-3.46,3.11c-1.48.74-3.2,1.11-5.16,1.11Zm.07-5.12c.93,0,1.7-.35,2.3-1.04s.9-1.59.9-2.68-.3-1.99-.89-2.68c-.59-.69-1.34-1.04-2.25-1.04-.98,0-1.77.35-2.37,1.04-.6.69-.9,1.59-.9,2.68s.3,1.98.9,2.68,1.37,1.04,2.31,1.04Z"/><path class="cls-3" d="m710.13,475.38c-1.94,0-3.64-.38-5.12-1.12-1.48-.75-2.64-1.79-3.47-3.12-.83-1.33-1.25-2.86-1.25-4.59s.43-3.32,1.28-4.63c.85-1.31,2.02-2.33,3.5-3.05s3.18-1.09,5.09-1.09,3.68.37,5.16,1.11c1.48.74,2.63,1.76,3.45,3.07.82,1.31,1.23,2.84,1.23,4.59s-.41,3.29-1.25,4.63-1.98,2.37-3.46,3.11c-1.48.74-3.2,1.11-5.16,1.11Zm.07-5.12c.93,0,1.7-.35,2.3-1.04s.9-1.59.9-2.68-.3-1.99-.89-2.68c-.59-.69-1.34-1.04-2.25-1.04-.98,0-1.77.35-2.37,1.04-.6.69-.9,1.59-.9,2.68s.3,1.98.9,2.68,1.37,1.04,2.31,1.04Z"/><path class="cls-3" d="m311.43,338.55l5.19-8.88-4.85-8.23h7.21l1.91,4.03,1.98-4.03h7l-4.78,8.23,5.12,8.88h-7l-2.32-4.37-2.25,4.37h-7.2Z"/><path class="cls-3" d="m545.02,338.55l5.19-8.88-4.85-8.23h7.21l1.91,4.03,1.98-4.03h7l-4.78,8.23,5.12,8.88h-7l-2.32-4.37-2.25,4.37h-7.2Z"/><path class="cls-3" d="m453.18,793.43c-1.94,0-3.64-.38-5.12-1.12-1.48-.75-2.64-1.79-3.47-3.12-.83-1.33-1.25-2.86-1.25-4.59s.43-3.32,1.28-4.63c.85-1.31,2.02-2.33,3.5-3.05s3.18-1.09,5.09-1.09,3.68.37,5.16,1.11c1.48.74,2.63,1.76,3.45,3.07.82,1.31,1.23,2.84,1.23,4.59s-.41,3.29-1.25,4.63-1.98,2.37-3.46,3.11c-1.48.74-3.2,1.11-5.16,1.11Zm.07-5.12c.93,0,1.7-.35,2.3-1.04s.9-1.59.9-2.68-.3-1.99-.89-2.68c-.59-.69-1.34-1.04-2.25-1.04-.98,0-1.77.35-2.37,1.04-.6.69-.9,1.59-.9,2.68s.3,1.98.9,2.68,1.37,1.04,2.31,1.04Z"/><path class="cls-3" d="m63.46,647.61l5.19-8.88-4.85-8.23h7.21l1.91,4.03,1.98-4.03h7l-4.78,8.23,5.12,8.88h-7l-2.32-4.37-2.25,4.37h-7.2Z"/><path class="cls-3" d="m212.4,793.43c-1.94,0-3.64-.38-5.12-1.12-1.48-.75-2.64-1.79-3.47-3.12-.83-1.33-1.25-2.86-1.25-4.59s.43-3.32,1.28-4.63c.85-1.31,2.02-2.33,3.5-3.05s3.18-1.09,5.09-1.09,3.68.37,5.16,1.11c1.48.74,2.63,1.76,3.45,3.07.82,1.31,1.23,2.84,1.23,4.59s-.41,3.29-1.25,4.63-1.98,2.37-3.46,3.11c-1.48.74-3.2,1.11-5.16,1.11Zm.07-5.12c.93,0,1.7-.35,2.3-1.04s.9-1.59.9-2.68-.3-1.99-.89-2.68c-.59-.69-1.34-1.04-2.25-1.04-.98,0-1.77.35-2.37,1.04-.6.69-.9,1.59-.9,2.68s.3,1.98.9,2.68,1.37,1.04,2.31,1.04Z"/><path class="cls-3" d="m710.13,784.44c-1.94,0-3.64-.38-5.12-1.12-1.48-.75-2.64-1.79-3.47-3.12-.83-1.33-1.25-2.86-1.25-4.59s.43-3.32,1.28-4.63c.85-1.31,2.02-2.33,3.5-3.05s3.18-1.09,5.09-1.09,3.68.37,5.16,1.11c1.48.74,2.63,1.76,3.45,3.07.82,1.31,1.23,2.84,1.23,4.59s-.41,3.29-1.25,4.63-1.98,2.37-3.46,3.11c-1.48.74-3.2,1.11-5.16,1.11Zm.07-5.12c.93,0,1.7-.35,2.3-1.04s.9-1.59.9-2.68-.3-1.99-.89-2.68c-.59-.69-1.34-1.04-2.25-1.04-.98,0-1.77.35-2.37,1.04-.6.69-.9,1.59-.9,2.68s.3,1.98.9,2.68,1.37,1.04,2.31,1.04Z"/><path class="cls-3" d="m311.43,647.61l5.19-8.88-4.85-8.23h7.21l1.91,4.03,1.98-4.03h7l-4.78,8.23,5.12,8.88h-7l-2.32-4.37-2.25,4.37h-7.2Z"/><path class="cls-3" d="m545.02,647.61l5.19-8.88-4.85-8.23h7.21l1.91,4.03,1.98-4.03h7l-4.78,8.23,5.12,8.88h-7l-2.32-4.37-2.25,4.37h-7.2Z"/></g></g></g></svg>