<?xml version="1.0" encoding="UTF-8"?><svg id="Camada_2" xmlns="http://www.w3.org/2000/svg" xmlns:xlink="http://www.w3.org/1999/xlink" viewBox="0 0 472.26 926.29"><defs><style>.cls-1{clip-path:url(#clippath);}.cls-2{fill:#fff;}.cls-3{clip-path:url(#clippath-1);}.cls-4{opacity:.3;}</style><clipPath id="clippath"><line class="cls-2" x1="29.34" y1="511.48" x2="9.83" y2="528.01"/></clipPath><clipPath id="clippath-1"><circle class="cls-2" cx="281.83" cy="592.88" r="163.41"/></clipPath></defs><g id="Camada_2-2"><g class="cls-4"><path class="cls-2" d="m168.15,172.72c-14.51,0-26.32,11.81-26.32,26.32s11.81,26.32,26.32,26.32,26.32-11.81,26.32-26.32-11.81-26.32-26.32-26.32Zm13.98,29.83l-19.16,11.37c-2.09,1.24-4.73-.27-4.73-2.7v-22.73c0-2.43,2.64-3.93,4.73-2.7l19.16,11.37c2.05,1.21,2.05,4.18,0,5.39Z"/><path class="cls-2" d="m212.65,153.73l-83.95-4.37c-6.86-.36-12.33,4.99-12.13,11.9l2.17,77.2c.18,6.31,5.64,11.13,12.11,10.81l79.72-3.94c5.4-.27,9.87-5.06,10.03-10.74l1.94-69.16c.17-6.16-4.22-11.42-9.89-11.71Zm-44.5,76.93c-17.44,0-31.62-14.18-31.62-31.62s14.18-31.62,31.62-31.62,31.62,14.18,31.62,31.62-14.18,31.62-31.62,31.62Z"/></g><g class="cls-4"><path class="cls-2" d="m305.39,2.36L260.24,0c-3.69-.19-6.63,2.68-6.52,6.4l1.17,41.52c.1,3.39,3.03,5.98,6.51,5.81l42.87-2.12c2.91-.14,5.31-2.72,5.39-5.77l1.05-37.19c.09-3.31-2.27-6.14-5.32-6.3Zm-1.71,27.68c0,2.93-1.26,6.07-4.24,6.14l-4.77,5.58c-.28.33-.72.52-1.16.52-.53,0-.97-.27-1.22-.45-.53-.18-1.61-.58-1.61-1.66v-2.62c0-.76-.41-2.84-1.17-2.84h-21.95c-2.93,0-6.88-1.74-6.88-4.67V12.29c0-3.05,3.93-5.58,6.88-5.58h31.91c2.9,0,4.2,2.68,4.2,5.58v17.75Z"/><path class="cls-2" d="m299.47,10.71h-31.91c-1.37,0-3.88.33-3.88,2.31v17.02c0,1.36,2.52,2.67,3.88,2.67h24.79c.76,0,.33,1.25.33,2v3.86l5.6-5.86h1.19c1.11,0,1.2-1.3,1.2-2.67V12.29c0-1.35.15-1.58-1.2-1.58Zm-2.8,18h-29c-.55,0-1-.45-1-1s.45-1,1-1h29c.55,0,1,.45,1,1s-.45,1-1,1Zm0-7h-29c-.55,0-1-.45-1-1s.45-1,1-1h29c.55,0,1,.45,1,1s-.45,1-1,1Zm0-5h-29c-.55,0-1-.45-1-1s.45-1,1-1h29c.55,0,1,.45,1,1s-.45,1-1,1Z"/></g><g id="Camada_1-2" class="cls-4"><circle class="cls-2" cx="226.82" cy="527.94" r="102.36"/><g class="cls-4"><line class="cls-2" x1="351.91" y1="285.4" x2="43.94" y2="548.64"/><path class="cls-2" d="m349.17,274.66c3.81-1.26,8.07.21,10.58,4.03,3.25,4.94,2.38,11.95-1.96,15.66L49.83,557.59c-4.33,3.71-10.49,2.71-13.76-2.23-3.25-4.94-2.38-11.95,1.96-15.66l307.97-263.24c.98-.83,2.05-1.44,3.16-1.8h.01Z"/><line class="cls-2" x1="366.88" y1="223.29" x2="58.91" y2="486.53"/><path class="cls-2" d="m364.14,212.55c3.81-1.26,8.07.21,10.58,4.03,3.25,4.94,2.38,11.95-1.96,15.66L64.8,495.48c-4.33,3.71-10.49,2.71-13.76-2.23-3.25-4.94-2.38-11.95,1.96-15.66L360.99,214.36c.98-.83,2.05-1.44,3.16-1.8h0Z"/><line class="cls-2" x1="29.34" y1="511.48" x2="9.83" y2="528.01"/><g class="cls-1"><polygon class="cls-2" points="17.89 525.36 20.02 514.56 29.34 511.48 31.7 520.8 17.89 525.36"/><polygon class="cls-2" points="17.85 525.37 19.98 514.57 20.02 514.56 17.89 525.36 17.85 525.37"/><polygon class="cls-2" points="17.83 525.37 19.94 514.59 19.98 514.57 17.85 525.37 17.83 525.37"/><polygon class="cls-2" points="17.79 525.38 19.9 514.6 19.94 514.59 17.83 525.37 17.79 525.38"/><polygon class="cls-2" points="17.75 525.4 19.86 514.6 19.9 514.6 17.79 525.38 17.75 525.4"/><polygon class="cls-2" points="17.71 525.41 19.82 514.61 19.86 514.6 17.75 525.4 17.71 525.41"/><polygon class="cls-2" points="17.67 525.42 19.78 514.63 19.82 514.61 17.71 525.41 17.67 525.42"/><polygon class="cls-2" points="17.63 525.44 19.74 514.64 19.78 514.63 17.67 525.42 17.63 525.44"/><polygon class="cls-2" points="17.59 525.45 19.7 514.65 19.74 514.64 17.63 525.44 17.59 525.45"/><polygon class="cls-2" points="17.55 525.46 19.66 514.67 19.7 514.65 17.59 525.45 17.55 525.46"/><polygon class="cls-2" points="17.51 525.48 19.62 514.68 19.66 514.67 17.55 525.46 17.51 525.48"/><polygon class="cls-2" points="17.47 525.49 19.6 514.69 19.62 514.68 17.51 525.48 17.47 525.49"/><polygon class="cls-2" points="17.43 525.5 19.56 514.71 19.6 514.69 17.47 525.49 17.43 525.5"/><polygon class="cls-2" points="17.39 525.52 19.52 514.72 19.56 514.71 17.43 525.5 17.39 525.52"/><polygon class="cls-2" points="17.35 525.53 19.48 514.73 19.52 514.72 17.39 525.52 17.35 525.53"/><polygon class="cls-2" points="17.31 525.54 19.44 514.75 19.48 514.73 17.35 525.53 17.31 525.54"/><polygon class="cls-2" points="17.27 525.55 19.4 514.76 19.44 514.75 17.31 525.54 17.27 525.55"/><polygon class="cls-2" points="17.25 525.57 19.36 514.77 19.4 514.76 17.27 525.55 17.25 525.57"/><polygon class="cls-2" points="17.21 525.58 19.32 514.79 19.36 514.77 17.25 525.57 17.21 525.58"/><polygon class="cls-2" points="17.17 525.59 19.28 514.8 19.32 514.79 17.21 525.58 17.17 525.59"/><polygon class="cls-2" points="17.13 525.61 19.24 514.81 19.28 514.8 17.17 525.59 17.13 525.61"/><polygon class="cls-2" points="17.09 525.62 19.2 514.83 19.24 514.81 17.13 525.61 17.09 525.62"/><polygon class="cls-2" points="17.05 525.63 19.16 514.84 19.2 514.83 17.09 525.62 17.05 525.63"/><polygon class="cls-2" points="17.01 525.65 19.12 514.85 19.16 514.84 17.05 525.63 17.01 525.65"/><polygon class="cls-2" points="16.97 525.66 19.08 514.86 19.12 514.85 17.01 525.65 16.97 525.66"/><polygon class="cls-2" points="16.93 525.67 19.04 514.88 19.08 514.86 16.97 525.66 16.93 525.67"/><polygon class="cls-2" points="16.89 525.69 19.02 514.89 19.04 514.88 16.93 525.67 16.89 525.69"/><polygon class="cls-2" points="16.85 525.7 18.98 514.9 19.02 514.89 16.89 525.69 16.85 525.7"/><polygon class="cls-2" points="16.81 525.71 18.94 514.92 18.98 514.9 16.85 525.7 16.81 525.71"/><polygon class="cls-2" points="16.77 525.73 18.9 514.93 18.94 514.92 16.81 525.71 16.77 525.73"/><polygon class="cls-2" points="16.73 525.74 18.86 514.94 18.9 514.93 16.77 525.73 16.73 525.74"/><polygon class="cls-2" points="16.69 525.75 18.82 514.96 18.86 514.94 16.73 525.74 16.69 525.75"/><polygon class="cls-2" points="16.66 525.75 18.78 514.97 18.82 514.96 16.69 525.75 16.66 525.75"/><polygon class="cls-2" points="16.62 525.77 18.74 514.98 18.78 514.97 16.66 525.75 16.62 525.77"/><polygon class="cls-2" points="16.58 525.78 18.7 514.98 18.74 514.98 16.62 525.77 16.58 525.78"/><polygon class="cls-2" points="16.54 525.79 18.66 515 18.7 514.98 16.58 525.78 16.54 525.79"/><polygon class="cls-2" points="16.51 525.81 18.62 515.01 18.66 515 16.54 525.79 16.51 525.81"/><polygon class="cls-2" points="16.47 525.82 18.58 515.02 18.62 515.01 16.51 525.81 16.47 525.82"/><polygon class="cls-2" points="16.43 525.83 18.54 515.04 18.58 515.02 16.47 525.82 16.43 525.83"/><polygon class="cls-2" points="16.39 525.85 18.5 515.05 18.54 515.04 16.43 525.83 16.39 525.85"/><polygon class="cls-2" points="16.35 525.86 18.46 515.06 18.5 515.05 16.39 525.85 16.35 525.86"/><polygon class="cls-2" points="16.31 525.87 18.43 515.08 18.46 515.06 16.35 525.86 16.31 525.87"/><polygon class="cls-2" points="16.27 525.89 18.39 515.09 18.43 515.08 16.31 525.87 16.27 525.89"/><polygon class="cls-2" points="16.23 525.9 18.36 515.1 18.39 515.09 16.27 525.89 16.23 525.9"/><polygon class="cls-2" points="16.19 525.91 18.32 515.12 18.36 515.1 16.23 525.9 16.19 525.91"/><polygon class="cls-2" points="16.15 525.92 18.28 515.13 18.32 515.12 16.19 525.91 16.15 525.92"/><polygon class="cls-2" points="16.11 525.94 18.24 515.14 18.28 515.13 16.15 525.92 16.11 525.94"/><polygon class="cls-2" points="16.08 525.95 18.2 515.16 18.24 515.14 16.11 525.94 16.08 525.95"/><polygon class="cls-2" points="16.04 525.96 18.16 515.17 18.2 515.16 16.08 525.95 16.04 525.96"/><polygon class="cls-2" points="16 525.98 18.12 515.18 18.16 515.17 16.04 525.96 16 525.98"/><polygon class="cls-2" points="15.96 525.99 18.08 515.2 18.12 515.18 16 525.98 15.96 525.99"/><polygon class="cls-2" points="15.92 526 18.04 515.21 18.08 515.2 15.96 525.99 15.92 526"/><polygon class="cls-2" points="15.88 526.02 18 515.22 18.04 515.21 15.92 526 15.88 526.02"/><polygon class="cls-2" points="15.84 526.03 17.96 515.23 18 515.22 15.88 526.02 15.84 526.03"/><polygon class="cls-2" points="15.8 526.04 17.92 515.25 17.96 515.23 15.84 526.03 15.8 526.04"/><polygon class="cls-2" points="15.77 526.06 17.88 515.26 17.92 515.25 15.8 526.04 15.77 526.06"/><polygon class="cls-2" points="15.73 526.07 17.85 515.27 17.88 515.26 15.77 526.06 15.73 526.07"/><polygon class="cls-2" points="15.69 526.08 17.81 515.29 17.85 515.27 15.73 526.07 15.69 526.08"/><polygon class="cls-2" points="15.65 526.1 17.77 515.3 17.81 515.29 15.69 526.08 15.65 526.1"/><polygon class="cls-2" points="15.61 526.11 17.73 515.31 17.77 515.3 15.65 526.1 15.61 526.11"/><polygon class="cls-2" points="15.57 526.12 17.69 515.33 17.73 515.31 15.61 526.11 15.57 526.12"/><polygon class="cls-2" points="15.53 526.14 17.65 515.34 17.69 515.33 15.57 526.12 15.53 526.14"/><polygon class="cls-2" points="15.5 526.14 17.62 515.35 17.65 515.34 15.53 526.14 15.5 526.14"/><polygon class="cls-2" points="15.46 526.15 17.58 515.37 17.62 515.35 15.5 526.14 15.46 526.15"/><polygon class="cls-2" points="15.42 526.16 17.54 515.37 17.58 515.37 15.46 526.15 15.42 526.16"/><polygon class="cls-2" points="15.38 526.18 17.5 515.38 17.54 515.37 15.42 526.16 15.38 526.18"/><polygon class="cls-2" points="15.34 526.19 17.46 515.39 17.5 515.38 15.38 526.18 15.34 526.19"/><polygon class="cls-2" points="15.3 526.2 17.42 515.41 17.46 515.39 15.34 526.19 15.3 526.2"/><polygon class="cls-2" points="15.26 526.22 17.38 515.42 17.42 515.41 15.3 526.2 15.26 526.22"/><polygon class="cls-2" points="15.22 526.23 17.34 515.43 17.38 515.42 15.26 526.22 15.22 526.23"/><polygon class="cls-2" points="15.18 526.24 17.3 515.45 17.34 515.43 15.22 526.23 15.18 526.24"/><polygon class="cls-2" points="15.14 526.26 17.27 515.46 17.3 515.45 15.18 526.24 15.14 526.26"/><polygon class="cls-2" points="15.1 526.27 17.23 515.47 17.27 515.46 15.14 526.26 15.1 526.27"/><polygon class="cls-2" points="15.06 526.28 17.19 515.49 17.23 515.47 15.1 526.27 15.06 526.28"/><polygon class="cls-2" points="15.03 526.29 17.15 515.5 17.19 515.49 15.06 526.28 15.03 526.29"/><polygon class="cls-2" points="14.99 526.31 17.11 515.51 17.15 515.5 15.03 526.29 14.99 526.31"/><polygon class="cls-2" points="14.95 526.32 17.07 515.53 17.11 515.51 14.99 526.31 14.95 526.32"/><polygon class="cls-2" points="14.92 526.33 17.03 515.54 17.07 515.53 14.95 526.32 14.92 526.33"/><polygon class="cls-2" points="14.88 526.35 16.99 515.55 17.03 515.54 14.92 526.33 14.88 526.35"/><polygon class="cls-2" points="14.84 526.36 16.95 515.57 16.99 515.55 14.88 526.35 14.84 526.36"/><polygon class="cls-2" points="14.8 526.37 16.91 515.58 16.95 515.57 14.84 526.36 14.8 526.37"/><polygon class="cls-2" points="14.76 526.39 16.88 515.59 16.91 515.58 14.8 526.37 14.76 526.39"/><polygon class="cls-2" points="14.72 526.4 16.84 515.6 16.88 515.59 14.76 526.39 14.72 526.4"/><polygon class="cls-2" points="14.68 526.41 16.8 515.62 16.84 515.6 14.72 526.4 14.68 526.41"/><polygon class="cls-2" points="14.64 526.43 16.76 515.63 16.8 515.62 14.68 526.41 14.64 526.43"/><polygon class="cls-2" points="14.6 526.44 16.72 515.64 16.76 515.63 14.64 526.43 14.6 526.44"/><polygon class="cls-2" points="14.56 526.45 16.69 515.66 16.72 515.64 14.6 526.44 14.56 526.45"/><polygon class="cls-2" points="14.52 526.47 16.65 515.67 16.69 515.66 14.56 526.45 14.52 526.47"/><polygon class="cls-2" points="14.48 526.48 16.61 515.68 16.65 515.67 14.52 526.47 14.48 526.48"/><polygon class="cls-2" points="14.44 526.49 16.57 515.7 16.61 515.68 14.48 526.48 14.44 526.49"/><polygon class="cls-2" points="14.4 526.51 16.53 515.71 16.57 515.7 14.44 526.49 14.4 526.51"/><polygon class="cls-2" points="14.36 526.52 16.49 515.72 16.53 515.71 14.4 526.51 14.36 526.52"/><polygon class="cls-2" points="14.34 526.52 16.45 515.74 16.49 515.72 14.36 526.52 14.34 526.52"/><polygon class="cls-2" points="14.3 526.53 16.41 515.75 16.45 515.74 14.34 526.52 14.3 526.53"/><polygon class="cls-2" points="14.26 526.55 16.37 515.75 16.41 515.75 14.3 526.53 14.26 526.55"/><polygon class="cls-2" points="14.22 526.56 16.33 515.76 16.37 515.75 14.26 526.55 14.22 526.56"/><polygon class="cls-2" points="14.18 526.57 16.29 515.78 16.33 515.76 14.22 526.56 14.18 526.57"/><polygon class="cls-2" points="14.14 526.59 16.25 515.79 16.29 515.78 14.18 526.57 14.14 526.59"/><polygon class="cls-2" points="14.1 526.6 16.21 515.8 16.25 515.79 14.14 526.59 14.1 526.6"/><polygon class="cls-2" points="14.06 526.61 16.17 515.82 16.21 515.8 14.1 526.6 14.06 526.61"/><polygon class="cls-2" points="14.02 526.63 16.14 515.83 16.17 515.82 14.06 526.61 14.02 526.63"/><polygon class="cls-2" points="13.98 526.64 16.11 515.84 16.14 515.83 14.02 526.63 13.98 526.64"/><polygon class="cls-2" points="13.94 526.65 16.07 515.86 16.11 515.84 13.98 526.64 13.94 526.65"/><polygon class="cls-2" points="13.9 526.66 16.03 515.87 16.07 515.86 13.94 526.65 13.9 526.66"/><polygon class="cls-2" points="13.86 526.68 15.99 515.88 16.03 515.87 13.9 526.66 13.86 526.68"/><polygon class="cls-2" points="13.82 526.69 15.95 515.9 15.99 515.88 13.86 526.68 13.82 526.69"/><polygon class="cls-2" points="13.78 526.7 15.91 515.91 15.95 515.9 13.82 526.69 13.78 526.7"/><polygon class="cls-2" points="13.76 526.72 15.87 515.92 15.91 515.91 13.78 526.7 13.76 526.72"/><polygon class="cls-2" points="13.72 526.73 15.83 515.94 15.87 515.92 13.76 526.72 13.72 526.73"/><polygon class="cls-2" points="13.68 526.74 15.79 515.95 15.83 515.94 13.72 526.73 13.68 526.74"/><polygon class="cls-2" points="13.64 526.76 15.75 515.96 15.79 515.95 13.68 526.74 13.64 526.76"/><polygon class="cls-2" points="13.6 526.77 15.71 515.97 15.75 515.96 13.64 526.76 13.6 526.77"/><polygon class="cls-2" points="13.56 526.78 15.67 515.99 15.71 515.97 13.6 526.77 13.56 526.78"/><polygon class="cls-2" points="13.52 526.8 15.63 516 15.67 515.99 13.56 526.78 13.52 526.8"/><polygon class="cls-2" points="13.48 526.81 15.59 516.01 15.63 516 13.52 526.8 13.48 526.81"/><polygon class="cls-2" points="13.44 526.82 15.55 516.03 15.59 516.01 13.48 526.81 13.44 526.82"/><polygon class="cls-2" points="13.4 526.84 15.53 516.04 15.55 516.03 13.44 526.82 13.4 526.84"/><polygon class="cls-2" points="13.36 526.85 15.49 516.05 15.53 516.04 13.4 526.84 13.36 526.85"/><polygon class="cls-2" points="13.32 526.86 15.45 516.07 15.49 516.05 13.36 526.85 13.32 526.86"/><polygon class="cls-2" points="13.28 526.88 15.41 516.08 15.45 516.07 13.32 526.86 13.28 526.88"/><polygon class="cls-2" points="13.24 526.89 15.37 516.09 15.41 516.08 13.28 526.88 13.24 526.89"/><polygon class="cls-2" points="13.2 526.9 15.33 516.11 15.37 516.09 13.24 526.89 13.2 526.9"/><polygon class="cls-2" points="13.18 526.9 15.29 516.12 15.33 516.11 13.2 526.9 13.18 526.9"/><polygon class="cls-2" points="13.14 526.92 15.25 516.13 15.29 516.12 13.18 526.9 13.14 526.92"/><polygon class="cls-2" points="13.1 526.93 15.21 516.13 15.25 516.13 13.14 526.92 13.1 526.93"/><polygon class="cls-2" points="13.06 526.94 15.17 516.15 15.21 516.13 13.1 526.93 13.06 526.94"/><polygon class="cls-2" points="13.02 526.96 15.13 516.16 15.17 516.15 13.06 526.94 13.02 526.96"/><polygon class="cls-2" points="12.98 526.97 15.09 516.17 15.13 516.16 13.02 526.96 12.98 526.97"/><polygon class="cls-2" points="12.94 526.98 15.05 516.19 15.09 516.17 12.98 526.97 12.94 526.98"/><polygon class="cls-2" points="12.9 527 15.01 516.2 15.05 516.19 12.94 526.98 12.9 527"/><polygon class="cls-2" points="12.86 527.01 14.97 516.21 15.01 516.2 12.9 527 12.86 527.01"/><polygon class="cls-2" points="12.82 527.02 14.95 516.23 14.97 516.21 12.86 527.01 12.82 527.02"/><polygon class="cls-2" points="12.78 527.03 14.91 516.24 14.95 516.23 12.82 527.02 12.78 527.03"/><polygon class="cls-2" points="12.74 527.05 14.87 516.25 14.91 516.24 12.78 527.03 12.74 527.05"/><polygon class="cls-2" points="12.7 527.06 14.83 516.27 14.87 516.25 12.74 527.05 12.7 527.06"/><polygon class="cls-2" points="12.66 527.07 14.79 516.28 14.83 516.27 12.7 527.06 12.66 527.07"/><polygon class="cls-2" points="12.62 527.09 14.75 516.29 14.79 516.28 12.66 527.07 12.62 527.09"/><polygon class="cls-2" points="12.59 527.1 14.71 516.31 14.75 516.29 12.62 527.09 12.59 527.1"/><polygon class="cls-2" points="12.55 527.11 14.67 516.32 14.71 516.31 12.59 527.1 12.55 527.11"/><polygon class="cls-2" points="12.51 527.13 14.63 516.33 14.67 516.32 12.55 527.11 12.51 527.13"/><polygon class="cls-2" points="12.47 527.14 14.59 516.34 14.63 516.33 12.51 527.13 12.47 527.14"/><polygon class="cls-2" points="12.44 527.15 14.55 516.36 14.59 516.34 12.47 527.14 12.44 527.15"/><polygon class="cls-2" points="12.4 527.17 14.51 516.37 14.55 516.36 12.44 527.15 12.4 527.17"/><polygon class="cls-2" points="12.36 527.18 14.47 516.38 14.51 516.37 12.4 527.17 12.36 527.18"/><polygon class="cls-2" points="12.32 527.19 14.43 516.4 14.47 516.38 12.36 527.18 12.32 527.19"/><polygon class="cls-2" points="12.28 527.21 14.39 516.41 14.43 516.4 12.32 527.19 12.28 527.21"/><polygon class="cls-2" points="12.24 527.22 14.36 516.42 14.39 516.41 12.28 527.21 12.24 527.22"/><polygon class="cls-2" points="12.2 527.23 14.32 516.44 14.36 516.42 12.24 527.22 12.2 527.23"/><polygon class="cls-2" points="12.16 527.25 14.29 516.45 14.32 516.44 12.2 527.23 12.16 527.25"/><polygon class="cls-2" points="12.12 527.26 14.25 516.46 14.29 516.45 12.16 527.25 12.12 527.26"/><polygon class="cls-2" points="12.08 527.27 14.21 516.48 14.25 516.46 12.12 527.26 12.08 527.27"/><polygon class="cls-2" points="12.04 527.29 14.17 516.49 14.21 516.48 12.08 527.27 12.04 527.29"/><polygon class="cls-2" points="12.01 527.29 14.13 516.5 14.17 516.49 12.04 527.29 12.01 527.29"/><polygon class="cls-2" points="11.97 527.3 14.09 516.52 14.13 516.5 12.01 527.29 11.97 527.3"/><polygon class="cls-2" points="11.93 527.31 14.05 516.52 14.09 516.52 11.97 527.3 11.93 527.31"/><polygon class="cls-2" points="11.89 527.33 14.01 516.53 14.05 516.52 11.93 527.31 11.89 527.33"/><polygon class="cls-2" points="11.85 527.34 13.97 516.54 14.01 516.53 11.89 527.33 11.85 527.34"/><polygon class="cls-2" points="11.81 527.35 13.93 516.56 13.97 516.54 11.85 527.34 11.81 527.35"/><polygon class="cls-2" points="11.77 527.37 13.89 516.57 13.93 516.56 11.81 527.35 11.77 527.37"/><polygon class="cls-2" points="11.73 527.38 13.85 516.58 13.89 516.57 11.77 527.37 11.73 527.38"/><polygon class="cls-2" points="11.7 527.39 13.81 516.6 13.85 516.58 11.73 527.38 11.7 527.39"/><polygon class="cls-2" points="11.66 527.4 13.78 516.61 13.81 516.6 11.7 527.39 11.66 527.4"/><polygon class="cls-2" points="11.62 527.42 13.74 516.62 13.78 516.61 11.66 527.4 11.62 527.42"/><polygon class="cls-2" points="11.58 527.43 13.7 516.64 13.74 516.62 11.62 527.42 11.58 527.43"/><polygon class="cls-2" points="11.54 527.44 13.66 516.65 13.7 516.64 11.58 527.43 11.54 527.44"/><polygon class="cls-2" points="11.5 527.46 13.62 516.66 13.66 516.65 11.54 527.44 11.5 527.46"/><polygon class="cls-2" points="11.46 527.47 13.58 516.68 13.62 516.66 11.5 527.46 11.46 527.47"/><polygon class="cls-2" points="11.43 527.48 13.55 516.69 13.58 516.68 11.46 527.47 11.43 527.48"/><polygon class="cls-2" points="11.39 527.5 13.51 516.7 13.55 516.69 11.43 527.48 11.39 527.5"/><polygon class="cls-2" points="11.35 527.51 13.47 516.71 13.51 516.7 11.39 527.5 11.35 527.51"/><polygon class="cls-2" points="11.31 527.52 13.43 516.73 13.47 516.71 11.35 527.51 11.31 527.52"/><polygon class="cls-2" points="11.27 527.54 13.39 516.74 13.43 516.73 11.31 527.52 11.27 527.54"/><polygon class="cls-2" points="11.23 527.55 13.35 516.75 13.39 516.74 11.27 527.54 11.23 527.55"/><polygon class="cls-2" points="11.19 527.56 13.31 516.77 13.35 516.75 11.23 527.55 11.19 527.56"/><polygon class="cls-2" points="11.15 527.58 13.27 516.78 13.31 516.77 11.19 527.56 11.15 527.58"/><polygon class="cls-2" points="11.11 527.59 13.23 516.79 13.27 516.78 11.15 527.58 11.11 527.59"/><polygon class="cls-2" points="11.07 527.6 13.2 516.81 13.23 516.79 11.11 527.59 11.07 527.6"/><polygon class="cls-2" points="11.03 527.62 13.16 516.82 13.2 516.81 11.07 527.6 11.03 527.62"/><polygon class="cls-2" points="10.99 527.63 13.12 516.83 13.16 516.82 11.03 527.62 10.99 527.63"/><polygon class="cls-2" points="10.96 527.64 13.08 516.85 13.12 516.83 10.99 527.63 10.96 527.64"/><polygon class="cls-2" points="10.92 527.66 13.04 516.86 13.08 516.85 10.96 527.64 10.92 527.66"/><polygon class="cls-2" points="10.88 527.67 13 516.87 13.04 516.86 10.92 527.66 10.88 527.67"/><polygon class="cls-2" points="10.85 527.67 12.96 516.89 13 516.87 10.88 527.67 10.85 527.67"/><polygon class="cls-2" points="10.81 527.68 12.92 516.9 12.96 516.89 10.85 527.67 10.81 527.68"/><polygon class="cls-2" points="10.77 527.7 12.88 516.9 12.92 516.9 10.81 527.68 10.77 527.7"/><polygon class="cls-2" points="10.73 527.71 12.84 516.91 12.88 516.9 10.77 527.7 10.73 527.71"/><polygon class="cls-2" points="10.69 527.72 12.81 516.93 12.84 516.91 10.73 527.71 10.69 527.72"/><polygon class="cls-2" points="10.65 527.74 12.77 516.94 12.81 516.93 10.69 527.72 10.65 527.74"/><polygon class="cls-2" points="10.61 527.75 12.73 516.95 12.77 516.94 10.65 527.74 10.61 527.75"/><polygon class="cls-2" points="10.57 527.76 12.69 516.97 12.73 516.95 10.61 527.75 10.57 527.76"/><polygon class="cls-2" points="10.53 527.77 12.65 516.98 12.69 516.97 10.57 527.76 10.53 527.77"/><polygon class="cls-2" points="10.49 527.79 12.62 516.99 12.65 516.98 10.53 527.77 10.49 527.79"/><polygon class="cls-2" points="10.45 527.8 12.58 517.01 12.62 516.99 10.49 527.79 10.45 527.8"/><polygon class="cls-2" points="10.41 527.81 12.54 517.02 12.58 517.01 10.45 527.8 10.41 527.81"/><polygon class="cls-2" points="10.37 527.83 12.5 517.03 12.54 517.02 10.41 527.81 10.37 527.83"/><polygon class="cls-2" points="10.33 527.84 12.46 517.05 12.5 517.03 10.37 527.83 10.33 527.84"/><polygon class="cls-2" points="10.29 527.85 12.42 517.06 12.46 517.05 10.33 527.84 10.29 527.85"/><polygon class="cls-2" points="10.27 527.87 12.38 517.07 12.42 517.06 10.29 527.85 10.27 527.87"/><polygon class="cls-2" points="10.23 527.88 12.34 517.08 12.38 517.07 10.27 527.87 10.23 527.88"/><polygon class="cls-2" points="10.19 527.89 12.3 517.1 12.34 517.08 10.23 527.88 10.19 527.89"/><polygon class="cls-2" points="10.15 527.91 12.26 517.11 12.3 517.1 10.19 527.89 10.15 527.91"/><polygon class="cls-2" points="10.11 527.92 12.22 517.12 12.26 517.11 10.15 527.91 10.11 527.92"/><polygon class="cls-2" points="10.07 527.93 12.18 517.14 12.22 517.12 10.11 527.92 10.07 527.93"/><polygon class="cls-2" points="10.03 527.95 12.14 517.15 12.18 517.14 10.07 527.93 10.03 527.95"/><polygon class="cls-2" points="9.99 527.96 12.1 517.16 12.14 517.15 10.03 527.95 9.99 527.96"/><polygon class="cls-2" points="9.95 527.97 12.07 517.18 12.1 517.16 9.99 527.96 9.95 527.97"/><polygon class="cls-2" points="9.91 527.99 12.04 517.19 12.07 517.18 9.95 527.97 9.91 527.99"/><polygon class="cls-2" points="9.87 528 12 517.2 12.04 517.19 9.91 527.99 9.87 528"/><polygon class="cls-2" points="9.83 528.01 11.96 517.22 12 517.2 9.87 528 9.83 528.01"/><polygon class="cls-2" points="11.96 517.22 9.83 528.01 7.47 518.7 11.96 517.22"/></g><path class="cls-2" d="m26.6,500.74c3.82-1.26,8.1.22,10.61,4.07,3.24,4.96,2.34,11.96-2.02,15.65l-19.5,16.52c-4.35,3.69-10.51,2.66-13.74-2.3-3.24-4.96-2.34-11.96,2.02-15.65l19.5-16.52c.96-.82,2.03-1.41,3.13-1.77Z"/></g><g class="cls-4"><circle class="cls-2" cx="281.83" cy="592.88" r="163.41"/><g class="cls-3"><circle class="cls-2" cx="91.89" cy="419.67" r="9.5"/><circle class="cls-2" cx="122.8" cy="419.67" r="9.5"/><circle class="cls-2" cx="153.71" cy="419.67" r="9.5"/><circle class="cls-2" cx="184.6" cy="419.67" r="9.5"/><circle class="cls-2" cx="215.51" cy="419.67" r="9.5"/><circle class="cls-2" cx="246.42" cy="419.67" r="9.5"/><circle class="cls-2" cx="277.33" cy="419.67" r="9.5"/><circle class="cls-2" cx="308.23" cy="419.67" r="9.5"/><circle class="cls-2" cx="339.14" cy="419.67" r="9.5"/><circle class="cls-2" cx="370.04" cy="419.67" r="9.5"/><circle class="cls-2" cx="400.95" cy="419.67" r="9.5"/><circle class="cls-2" cx="431.85" cy="419.67" r="9.5"/><circle class="cls-2" cx="462.76" cy="419.67" r="9.5"/><circle class="cls-2" cx="91.89" cy="450.26" r="9.5"/><circle class="cls-2" cx="122.8" cy="450.26" r="9.5"/><circle class="cls-2" cx="153.71" cy="450.26" r="9.5"/><circle class="cls-2" cx="184.6" cy="450.26" r="9.5"/><circle class="cls-2" cx="215.51" cy="450.26" r="9.5"/><circle class="cls-2" cx="246.42" cy="450.26" r="9.5"/><circle class="cls-2" cx="277.33" cy="450.26" r="9.5"/><circle class="cls-2" cx="308.23" cy="450.26" r="9.5"/><circle class="cls-2" cx="339.14" cy="450.26" r="9.5"/><circle class="cls-2" cx="370.04" cy="450.26" r="9.5"/><circle class="cls-2" cx="400.95" cy="450.26" r="9.5"/><circle class="cls-2" cx="431.85" cy="450.26" r="9.5"/><circle class="cls-2" cx="462.76" cy="450.26" r="9.5"/><circle class="cls-2" cx="91.89" cy="480.84" r="9.5"/><circle class="cls-2" cx="122.8" cy="480.84" r="9.5"/><circle class="cls-2" cx="153.71" cy="480.84" r="9.5"/><circle class="cls-2" cx="184.6" cy="480.84" r="9.5"/><circle class="cls-2" cx="215.51" cy="480.84" r="9.5"/><circle class="cls-2" cx="246.42" cy="480.84" r="9.5"/><circle class="cls-2" cx="277.33" cy="480.84" r="9.5"/><circle class="cls-2" cx="308.23" cy="480.84" r="9.5"/><circle class="cls-2" cx="339.14" cy="480.84" r="9.5"/><circle class="cls-2" cx="370.04" cy="480.84" r="9.5"/><circle class="cls-2" cx="400.95" cy="480.84" r="9.5"/><circle class="cls-2" cx="431.85" cy="480.84" r="9.5"/><circle class="cls-2" cx="462.76" cy="480.84" r="9.5"/><circle class="cls-2" cx="91.89" cy="511.43" r="9.5"/><circle class="cls-2" cx="122.8" cy="511.43" r="9.5"/><circle class="cls-2" cx="153.71" cy="511.43" r="9.5"/><circle class="cls-2" cx="184.6" cy="511.43" r="9.5"/><circle class="cls-2" cx="215.51" cy="511.43" r="9.5"/><circle class="cls-2" cx="246.42" cy="511.43" r="9.5"/><circle class="cls-2" cx="277.33" cy="511.43" r="9.5"/><circle class="cls-2" cx="308.23" cy="511.43" r="9.5"/><circle class="cls-2" cx="339.14" cy="511.43" r="9.5"/><circle class="cls-2" cx="370.04" cy="511.43" r="9.5"/><circle class="cls-2" cx="400.95" cy="511.43" r="9.5"/><circle class="cls-2" cx="431.85" cy="511.43" r="9.5"/><circle class="cls-2" cx="462.76" cy="511.43" r="9.5"/><circle class="cls-2" cx="91.89" cy="542.01" r="9.5"/><circle class="cls-2" cx="122.8" cy="542.01" r="9.5"/><circle class="cls-2" cx="153.71" cy="542.01" r="9.5"/><circle class="cls-2" cx="184.6" cy="542.01" r="9.5"/><circle class="cls-2" cx="215.51" cy="542.01" r="9.5"/><circle class="cls-2" cx="246.42" cy="542.01" r="9.5"/><circle class="cls-2" cx="277.33" cy="542.01" r="9.5"/><circle class="cls-2" cx="308.23" cy="542.01" r="9.5"/><circle class="cls-2" cx="339.14" cy="542.01" r="9.5"/><circle class="cls-2" cx="370.04" cy="542.01" r="9.5"/><circle class="cls-2" cx="400.95" cy="542.01" r="9.5"/><circle class="cls-2" cx="431.85" cy="542.01" r="9.5"/><circle class="cls-2" cx="462.76" cy="542.01" r="9.5"/><circle class="cls-2" cx="91.89" cy="572.6" r="9.5"/><circle class="cls-2" cx="122.8" cy="572.6" r="9.5"/><circle class="cls-2" cx="153.71" cy="572.6" r="9.5"/><circle class="cls-2" cx="184.6" cy="572.6" r="9.5"/><circle class="cls-2" cx="215.51" cy="572.6" r="9.5"/><circle class="cls-2" cx="246.42" cy="572.6" r="9.5"/><circle class="cls-2" cx="277.33" cy="572.6" r="9.5"/><circle class="cls-2" cx="308.23" cy="572.6" r="9.5"/><circle class="cls-2" cx="339.14" cy="572.6" r="9.5"/><circle class="cls-2" cx="370.04" cy="572.6" r="9.5"/><circle class="cls-2" cx="400.95" cy="572.6" r="9.5"/><circle class="cls-2" cx="431.85" cy="572.6" r="9.5"/><circle class="cls-2" cx="462.76" cy="572.6" r="9.5"/><circle class="cls-2" cx="91.89" cy="603.18" r="9.5"/><circle class="cls-2" cx="122.8" cy="603.18" r="9.5"/><circle class="cls-2" cx="153.71" cy="603.18" r="9.5"/><circle class="cls-2" cx="184.6" cy="603.18" r="9.5"/><circle class="cls-2" cx="215.51" cy="603.18" r="9.5"/><circle class="cls-2" cx="246.42" cy="603.18" r="9.5"/><circle class="cls-2" cx="277.33" cy="603.18" r="9.5"/><circle class="cls-2" cx="308.23" cy="603.18" r="9.5"/><circle class="cls-2" cx="339.14" cy="603.18" r="9.5"/><circle class="cls-2" cx="370.04" cy="603.18" r="9.5"/><circle class="cls-2" cx="400.95" cy="603.18" r="9.5"/><circle class="cls-2" cx="431.85" cy="603.18" r="9.5"/><circle class="cls-2" cx="462.76" cy="603.18" r="9.5"/><circle class="cls-2" cx="91.89" cy="633.77" r="9.5"/><circle class="cls-2" cx="122.8" cy="633.77" r="9.5"/><circle class="cls-2" cx="153.71" cy="633.77" r="9.5"/><circle class="cls-2" cx="184.6" cy="633.77" r="9.5"/><circle class="cls-2" cx="215.51" cy="633.77" r="9.5"/><circle class="cls-2" cx="246.42" cy="633.77" r="9.5"/><circle class="cls-2" cx="277.33" cy="633.77" r="9.5"/><circle class="cls-2" cx="308.23" cy="633.77" r="9.5"/><circle class="cls-2" cx="339.14" cy="633.77" r="9.5"/><circle class="cls-2" cx="370.04" cy="633.77" r="9.5"/><circle class="cls-2" cx="400.95" cy="633.77" r="9.5"/><circle class="cls-2" cx="431.85" cy="633.77" r="9.5"/><circle class="cls-2" cx="462.76" cy="633.77" r="9.5"/><circle class="cls-2" cx="91.89" cy="664.34" r="9.5"/><circle class="cls-2" cx="122.8" cy="664.34" r="9.5"/><circle class="cls-2" cx="153.71" cy="664.34" r="9.5"/><circle class="cls-2" cx="184.6" cy="664.34" r="9.5"/><circle class="cls-2" cx="215.51" cy="664.34" r="9.5"/><circle class="cls-2" cx="246.42" cy="664.34" r="9.5"/><circle class="cls-2" cx="277.33" cy="664.34" r="9.5"/><circle class="cls-2" cx="308.23" cy="664.34" r="9.5"/><circle class="cls-2" cx="339.14" cy="664.34" r="9.5"/><circle class="cls-2" cx="370.04" cy="664.34" r="9.5"/><circle class="cls-2" cx="400.95" cy="664.34" r="9.5"/><circle class="cls-2" cx="431.85" cy="664.34" r="9.5"/><circle class="cls-2" cx="462.76" cy="664.34" r="9.5"/><circle class="cls-2" cx="91.89" cy="694.92" r="9.5"/><circle class="cls-2" cx="122.8" cy="694.92" r="9.5"/><circle class="cls-2" cx="153.71" cy="694.92" r="9.5"/><circle class="cls-2" cx="184.6" cy="694.92" r="9.5"/><circle class="cls-2" cx="215.51" cy="694.92" r="9.5"/><circle class="cls-2" cx="246.42" cy="694.92" r="9.5"/><circle class="cls-2" cx="277.33" cy="694.92" r="9.5"/><circle class="cls-2" cx="308.23" cy="694.92" r="9.5"/><circle class="cls-2" cx="339.14" cy="694.92" r="9.5"/><circle class="cls-2" cx="370.04" cy="694.92" r="9.5"/><circle class="cls-2" cx="400.95" cy="694.92" r="9.5"/><circle class="cls-2" cx="431.85" cy="694.92" r="9.5"/><circle class="cls-2" cx="462.76" cy="694.92" r="9.5"/><circle class="cls-2" cx="91.89" cy="725.51" r="9.5"/><circle class="cls-2" cx="122.8" cy="725.51" r="9.5"/><circle class="cls-2" cx="153.71" cy="725.51" r="9.5"/><circle class="cls-2" cx="184.6" cy="725.51" r="9.5"/><circle class="cls-2" cx="215.51" cy="725.51" r="9.5"/><circle class="cls-2" cx="246.42" cy="725.51" r="9.5"/><circle class="cls-2" cx="277.33" cy="725.51" r="9.5"/><circle class="cls-2" cx="308.23" cy="725.51" r="9.5"/><circle class="cls-2" cx="339.14" cy="725.51" r="9.5"/><circle class="cls-2" cx="370.04" cy="725.51" r="9.5"/><circle class="cls-2" cx="400.95" cy="725.51" r="9.5"/><circle class="cls-2" cx="431.85" cy="725.51" r="9.5"/><circle class="cls-2" cx="462.76" cy="725.51" r="9.5"/><circle class="cls-2" cx="91.89" cy="756.09" r="9.5"/><circle class="cls-2" cx="122.8" cy="756.09" r="9.5"/><circle class="cls-2" cx="153.71" cy="756.09" r="9.5"/><circle class="cls-2" cx="184.6" cy="756.09" r="9.5"/><circle class="cls-2" cx="215.51" cy="756.09" r="9.5"/><circle class="cls-2" cx="246.42" cy="756.09" r="9.5"/><circle class="cls-2" cx="277.33" cy="756.09" r="9.5"/><circle class="cls-2" cx="308.23" cy="756.09" r="9.5"/><circle class="cls-2" cx="339.14" cy="756.09" r="9.5"/><circle class="cls-2" cx="370.04" cy="756.09" r="9.5"/><circle class="cls-2" cx="400.95" cy="756.09" r="9.5"/><circle class="cls-2" cx="431.85" cy="756.09" r="9.5"/><circle class="cls-2" cx="462.76" cy="756.09" r="9.5"/></g></g></g><g class="cls-4"><path class="cls-2" d="m200.76,830.22c-.53-1.3-1.07-2.45-1.62-3.55l-5.94.8-6.41.83c-.2,1.21-.37,2.47-.5,3.88-.16,1.76-.26,3.58-.3,5.58-.03,1.43-.03,2.89,0,4.37l8.98-1.2,9-1.16c-.41-1.48-.83-2.92-1.29-4.31-.61-1.87-1.24-3.58-1.92-5.24Z"/><path class="cls-2" d="m186.05,844.72c.05,1.39.12,2.8.22,4.26.2,2.9.5,5.98.92,9.32l9.88-1.32,10.14-1.31c-.46-3.2-1-6.35-1.65-9.39-.3-1.39-.62-2.71-.94-4.01l-9.32,1.25-9.26,1.2Z"/><path class="cls-2" d="m166.9,844.73l8.98-1.24,7.44-1c-.01-1.64,0-3.24.05-4.81.07-2.06.19-3.94.38-5.75.12-1.17.26-2.25.43-3.29-1.52.2-3.03.4-4.55.58l-6.45.8c-1.12,1.6-2.15,3.31-3.04,5.16-1.42,2.95-2.49,6.16-3.24,9.54Z"/><path class="cls-2" d="m198.47,818.76c-.55,0-1.11,0-1.67.02.12.13.24.22.37.36,1.15,1.27,2.21,2.79,3.34,4.78l7.76-.98c-1.29-.87-2.61-1.64-3.94-2.26-1.92-.89-3.9-1.53-5.87-1.92Z"/><path class="cls-2" d="m187.29,825.63l5.56-.74,5-.63c-.83-1.4-1.62-2.54-2.46-3.48-.66-.73-1.25-1.26-1.86-1.64-.09-.06-.17-.08-.26-.13-.47.05-.94.09-1.41.15-.64.08-1.27.22-1.91.33,0,0-.01,0-.02.02-.48.52-.9,1.18-1.31,2.07-.34.73-.64,1.54-.91,2.49-.15.49-.28,1.02-.41,1.57Z"/><path class="cls-2" d="m207.38,890.86l-11.23,1.48s.03.06.04.09c1,1.9,1.94,3.33,2.94,4.48.42.48.81.84,1.2,1.15.18-.01.35-.02.53-.03,1.33-.12,2.63-.3,3.93-.53.33-.45.65-.95.96-1.61.64-1.36,1.16-2.97,1.62-5.03Z"/><path class="cls-2" d="m215.29,829.21c-1.33-1.54-2.77-2.92-4.26-4.17l-4.29.6-4.97.67c.45.92.89,1.88,1.33,2.92.72,1.7,1.39,3.46,2.04,5.39.53,1.57,1.01,3.17,1.48,4.8l14.28-1.84c-1.6-3.08-3.48-5.9-5.61-8.38Z"/><path class="cls-2" d="m197.43,859.57l-9.89,1.28c.48,3.55,1.06,7.06,1.76,10.41.21,1.03.44,2.02.66,3l9.24-1.24,9.48-1.22c-.03-1.06-.08-2.15-.14-3.26-.19-3.36-.52-6.84-.96-10.34l-10.15,1.36Z"/><path class="cls-2" d="m167.14,877.38c-.93-2.22-1.73-4.52-2.37-6.88-.57-2.12-1.01-4.33-1.34-6.55l-8.44,1.05c.8,4.84,2.53,9.35,5.02,13.4l1.03-.17,6.11-.85Z"/><path class="cls-2" d="m215.77,824.38l-1.35.19c.98.91,1.94,1.88,2.85,2.91,2.53,2.88,4.7,6.15,6.52,9.74l9.34-1.15c-3.64-5.02-8.5-9.17-14.14-12.16-1.07.16-2.14.31-3.22.47Z"/><path class="cls-2" d="m207.27,841.92c1.09,4.22,1.98,8.67,2.68,13.4l16.05-2.07c-.69-4.22-1.8-8.27-3.38-12.03-.19-.45-.41-.87-.61-1.31l-7.62,1.06-7.12.95Z"/><path class="cls-2" d="m166.05,861.17l10.29-1.42,8.05-1.08c-.16-1.35-.29-2.66-.4-3.82-.18-1.92-.33-3.84-.43-5.71-.08-1.41-.13-2.76-.17-4.09l-16.71,2.16-.22.03c-.08.48-.18.94-.25,1.43-.3,2.25-.46,4.63-.45,7.06,0,1.8.13,3.62.31,5.44Z"/><path class="cls-2" d="m179.29,826.71c1.59-.22,3.18-.44,4.77-.65l.6-.08c.21-.96.43-1.83.68-2.64.32-1.06.68-1.98,1.07-2.81.06-.12.11-.22.17-.33-1.56.39-3.09.87-4.59,1.42-1.21.72-2.39,1.54-3.52,2.48-1.11.93-2.17,2-3.19,3.17l4-.56Z"/><path class="cls-2" d="m193.92,893.64c-.16-.3-.31-.64-.47-.95l-10.22,1.35c1.6,1.17,3.23,2.15,4.88,2.93.52.24,1.05.47,1.59.67,2.35.37,4.76.56,7.21.55-1.02-1.23-1.98-2.68-2.99-4.55Z"/><path class="cls-2" d="m210.09,890.5c-.06.28-.11.58-.17.86-.5,2.18-1.07,3.91-1.77,5.41.65-.16,1.3-.33,1.94-.52,1.34-.76,2.64-1.65,3.86-2.67,1.4-1.17,2.73-2.56,3.97-4.1l-7.83,1.03Z"/><path class="cls-2" d="m208.74,874.38l-9.19,1.23-8.98,1.16c.47,1.84.97,3.62,1.51,5.35.59,1.89,1.2,3.61,1.84,5.27.36.91.72,1.77,1.08,2.58l12.86-1.7c.15-.93.28-1.9.4-2.95.19-1.75.32-3.57.4-5.56.07-1.74.09-3.53.07-5.37Z"/><path class="cls-2" d="m175.58,892.52l1.56-.21c-.69-.68-1.37-1.35-2.02-2.09-2.72-3.1-5.03-6.66-6.93-10.58l-6.82.84c3.53,4.99,8.25,9.15,13.76,12.19.13-.08.28-.13.45-.15Z"/><path class="cls-2" d="m155.6,862.61l7.55-1.04c-.2-1.96-.32-3.92-.32-5.84,0-2.51.18-5.01.53-7.45.03-.22.09-.44.12-.66l-6.84.84-.52-.4c-1.4,4.55-1.93,9.32-1.5,14.15.02.19.05.37.06.56l.91-.15Z"/><path class="cls-2" d="m156.8,846.13l7.14-.99c.83-3.96,2.09-7.7,3.79-11.14.61-1.23,1.28-2.41,2-3.55-.89.11-1.77.21-2.66.32-.84.79-1.66,1.61-2.44,2.47-3.51,3.88-6.14,8.25-7.84,12.89h.02Z"/><path class="cls-2" d="m244.65,795.16l-107.9,14.23c-5.88.78-10.05,6.13-9.37,12.02l11,95.25c.7,6.03,6.2,10.32,12.22,9.53l109.43-14.44c5.95-.78,10.14-6.24,9.35-12.2l-12.54-95.05c-.78-5.95-6.24-10.14-12.2-9.35Zm2.01,59.01h0c1.08,12.34-3.06,24.38-11.65,33.91-8.02,8.88-19.03,14.57-31.2,16.18-.79.1-1.57.19-2.37.26-27.16,2.37-51.07-16.35-53.29-41.73-1.08-12.34,3.06-24.38,11.65-33.91,8.54-9.45,20.47-15.29,33.57-16.44,27.16-2.37,51.07,16.35,53.3,41.73Z"/><path class="cls-2" d="m221.5,888.99c-.25.35-.48.73-.74,1.07-.73.96-1.5,1.86-2.3,2.72,2.29-1.23,4.47-2.64,6.5-4.25l-3.46.46Z"/><path class="cls-2" d="m237.69,870.41l-9.07,1.26c-.81,4.27-2.11,8.31-3.93,12-.44.88-.92,1.72-1.41,2.56l5.03-.66c.62-.61,1.26-1.21,1.85-1.86,3.63-4.02,6.33-8.55,8.02-13.38l-.5.08Z"/><path class="cls-2" d="m233.46,838.31l-8.58,1.19c.09.21.2.41.3.62,1.7,3.99,2.9,8.29,3.64,12.76l10.25-1.27.75.59.16,1.55-1.08.17-9.73,1.35c.54,4.74.51,9.41-.1,13.92l9.42-1.16.14.96c1.42-4.58,1.96-9.39,1.54-14.25-.53-6.07-2.52-11.68-5.63-16.59l-1.08.17Z"/><path class="cls-2" d="m218.17,856.79l-7.86,1.05c.6,4.77.94,9.28,1.06,13.62l14.81-1.91c.03-.18.07-.36.1-.55.59-4.31.6-8.8.07-13.35l-8.18,1.13Z"/><path class="cls-2" d="m225.74,872.07l-7.11.99-7.19.96c.01,1.98-.01,3.93-.1,5.85-.1,2.05-.25,3.93-.46,5.75-.09.8-.21,1.55-.32,2.29l9.35-1.23c.87-1.33,1.69-2.71,2.4-4.18,1.54-3.2,2.69-6.71,3.44-10.42Z"/><path class="cls-2" d="m180.59,891.86l11.74-1.55c-.28-.64-.56-1.27-.84-1.96-.68-1.7-1.32-3.47-1.95-5.43-.6-1.87-1.16-3.8-1.68-5.81l-16.68,2.15c1.68,3.39,3.69,6.46,6,9.15,1.07,1.25,2.23,2.37,3.41,3.43Z"/><path class="cls-2" d="m187.24,874.63c-.22-.91-.43-1.84-.64-2.79-.74-3.43-1.37-7-1.88-10.62l-18.38,2.38c.31,2.09.72,4.16,1.25,6.15.63,2.34,1.39,4.6,2.27,6.7.08.18.17.35.25.53l10-1.38,7.13-.95Z"/><path class="cls-2" d="m171.55,827.79c.04-.06.08-.12.12-.18.35-.46.71-.9,1.08-1.34-.82.54-1.63,1.09-2.41,1.68l1.21-.17Z"/><path class="cls-2" d="m179.59,894.52l-.53.07c.39.17.79.34,1.19.5-.22-.18-.44-.38-.66-.57Z"/><path class="cls-2" d="m211.81,822.33c.05.04.1.09.15.13l3.09-.39c-2.19-.89-4.47-1.62-6.83-2.16,1.23.72,2.43,1.52,3.59,2.42Z"/></g></g></svg>