<?xml version="1.0" encoding="UTF-8"?><svg xmlns="http://www.w3.org/2000/svg" xmlns:xlink="http://www.w3.org/1999/xlink" viewBox="0 0 866.42 1102.38"><defs><style>.cls-1,.cls-2{fill:none;}.cls-2{stroke:#00a7b3;stroke-miterlimit:10;stroke-width:3.04px;}.cls-3{clip-path:url(#clippath);}.cls-4{fill:#3f8d91;}.cls-5{mix-blend-mode:multiply;}.cls-6{clip-path:url(#clippath-1);}.cls-7{opacity:.3;}.cls-8{isolation:isolate;}</style><clipPath id="clippath"><path class="cls-1" d="m100.09,1036.57c-20.59-20.68-33.16-49.14-34.58-78.29-.67-13.82,1.56-28.79,11.09-38.82,7.75-8.16,19.16-11.83,27.67-19.19,24-20.75,18.1-63.12,42.35-83.58,7.53-6.35,17.1-9.7,26.55-12.52,40.96-12.23,88.85-15.93,123.21,9.48,32.99,24.4,43.95,68.04,52.71,108.13,2.24,10.26,4.46,21.08,1.29,31.08-8.38,26.43-45.99,29.57-63.21,51.29-9.81,12.37-11.99,29.69-22.58,41.39-11.67,12.9-30.47,15.88-47.72,18.09-23.85,3.05-47.7,6.1-71.55,9.15-16.21,2.07-32.88,4.12-48.71.08-16.09-4.11-29.92-14.14-43.31-23.97-9.52-6.99-20.01-15.79-19.96-27.6.09-19.86,28.25-27.5,35.13-46.12"/></clipPath><clipPath id="clippath-1"><rect class="cls-2" x="28.78" y="773.08" width="327.79" height="327.79"/></clipPath></defs><g class="cls-8"><g id="Camada_2"><g id="Camada_3"><g class="cls-7"><path class="cls-4" d="m514.31,215.01c-2.55,0-4.8-.5-6.76-1.48-1.95-.99-3.48-2.37-4.58-4.12-1.09-1.76-1.64-3.78-1.64-6.06s.56-4.38,1.69-6.11c1.12-1.73,2.66-3.07,4.62-4.03s4.19-1.44,6.71-1.44,4.85.49,6.8,1.47c1.95.97,3.47,2.33,4.55,4.06,1.08,1.73,1.62,3.74,1.62,6.06s-.55,4.35-1.64,6.1c-1.1,1.76-2.62,3.13-4.57,4.1-1.95.98-4.22,1.46-6.8,1.46Zm.09-6.76c1.23,0,2.24-.46,3.04-1.37s1.19-2.1,1.19-3.54-.39-2.62-1.17-3.54c-.78-.91-1.77-1.37-2.97-1.37-1.29,0-2.34.46-3.13,1.37-.8.92-1.19,2.1-1.19,3.54s.4,2.62,1.19,3.54,1.81,1.37,3.04,1.37Z"/><path class="cls-4" d="m0,22.57l6.85-11.71L.45,0h9.51l2.52,5.31L15.09,0h9.24l-6.31,10.86,6.76,11.71h-9.24l-3.06-5.77-2.97,5.77H0Z"/><path class="cls-4" d="m196.55,215.01c-2.55,0-4.8-.5-6.76-1.48-1.95-.99-3.48-2.37-4.58-4.12-1.09-1.76-1.64-3.78-1.64-6.06s.56-4.38,1.69-6.11c1.12-1.73,2.66-3.07,4.62-4.03s4.19-1.44,6.71-1.44,4.85.49,6.8,1.47c1.95.97,3.47,2.33,4.55,4.06,1.08,1.73,1.62,3.74,1.62,6.06s-.55,4.35-1.64,6.1-2.62,3.13-4.57,4.1c-1.95.98-4.22,1.46-6.8,1.46Zm.09-6.76c1.23,0,2.24-.46,3.04-1.37s1.19-2.1,1.19-3.54-.39-2.62-1.17-3.54c-.78-.91-1.77-1.37-2.97-1.37-1.29,0-2.34.46-3.13,1.37-.8.92-1.19,2.1-1.19,3.54s.4,2.62,1.19,3.54,1.81,1.37,3.04,1.37Z"/><path class="cls-4" d="m853.4,203.15c-2.55,0-4.8-.5-6.76-1.48-1.95-.99-3.48-2.37-4.58-4.12-1.09-1.76-1.64-3.78-1.64-6.06s.56-4.38,1.69-6.11c1.12-1.73,2.66-3.07,4.62-4.03s4.19-1.44,6.71-1.44,4.85.49,6.8,1.47c1.95.97,3.47,2.33,4.55,4.06,1.08,1.73,1.62,3.74,1.62,6.06s-.55,4.35-1.64,6.1-2.62,3.13-4.57,4.1c-1.95.98-4.22,1.46-6.8,1.46Zm.09-6.76c1.23,0,2.24-.46,3.04-1.37s1.19-2.1,1.19-3.54-.39-2.62-1.17-3.54c-.78-.91-1.77-1.37-2.97-1.37-1.29,0-2.34.46-3.13,1.37-.8.92-1.19,2.1-1.19,3.54s.4,2.62,1.19,3.54,1.81,1.37,3.04,1.37Z"/><path class="cls-4" d="m327.24,22.57l6.85-11.71-6.4-10.86h9.51l2.52,5.31,2.62-5.31h9.24l-6.31,10.86,6.76,11.71h-9.24l-3.06-5.77-2.97,5.77h-9.51Z"/><path class="cls-4" d="m635.51,22.57l6.85-11.71-6.4-10.86h9.51l2.52,5.31,2.62-5.31h9.24l-6.31,10.86,6.76,11.71h-9.24l-3.06-5.77-2.97,5.77h-9.51Z"/><path class="cls-4" d="m514.31,622.87c-2.55,0-4.8-.5-6.76-1.48-1.95-.99-3.48-2.37-4.58-4.12-1.09-1.76-1.64-3.78-1.64-6.06s.56-4.38,1.69-6.11c1.12-1.73,2.66-3.07,4.62-4.03s4.19-1.44,6.71-1.44,4.85.49,6.8,1.47c1.95.97,3.47,2.33,4.55,4.06,1.08,1.73,1.62,3.74,1.62,6.06s-.55,4.35-1.64,6.1-2.62,3.13-4.57,4.1c-1.95.98-4.22,1.46-6.8,1.46Zm.09-6.76c1.23,0,2.24-.46,3.04-1.37s1.19-2.1,1.19-3.54-.39-2.62-1.17-3.54c-.78-.91-1.77-1.37-2.97-1.37-1.29,0-2.34.46-3.13,1.37-.8.92-1.19,2.1-1.19,3.54s.4,2.62,1.19,3.54,1.81,1.37,3.04,1.37Z"/><path class="cls-4" d="m0,430.44l6.85-11.71-6.4-10.86h9.51l2.52,5.31,2.62-5.31h9.24l-6.31,10.86,6.76,11.71h-9.24l-3.06-5.77-2.97,5.77H0Z"/><path class="cls-4" d="m196.55,622.87c-2.55,0-4.8-.5-6.76-1.48-1.95-.99-3.48-2.37-4.58-4.12-1.09-1.76-1.64-3.78-1.64-6.06s.56-4.38,1.69-6.11c1.12-1.73,2.66-3.07,4.62-4.03s4.19-1.44,6.71-1.44,4.85.49,6.8,1.47c1.95.97,3.47,2.33,4.55,4.06,1.08,1.73,1.62,3.74,1.62,6.06s-.55,4.35-1.64,6.1-2.62,3.13-4.57,4.1c-1.95.98-4.22,1.46-6.8,1.46Zm.09-6.76c1.23,0,2.24-.46,3.04-1.37s1.19-2.1,1.19-3.54-.39-2.62-1.17-3.54c-.78-.91-1.77-1.37-2.97-1.37-1.29,0-2.34.46-3.13,1.37-.8.92-1.19,2.1-1.19,3.54s.4,2.62,1.19,3.54,1.81,1.37,3.04,1.37Z"/><path class="cls-4" d="m853.4,611.01c-2.55,0-4.8-.5-6.76-1.48-1.95-.99-3.48-2.37-4.58-4.12-1.09-1.76-1.64-3.78-1.64-6.06s.56-4.38,1.69-6.11c1.12-1.73,2.66-3.07,4.62-4.03s4.19-1.44,6.71-1.44,4.85.49,6.8,1.47c1.95.97,3.47,2.33,4.55,4.06,1.08,1.73,1.62,3.74,1.62,6.06s-.55,4.35-1.64,6.1-2.62,3.13-4.57,4.1c-1.95.98-4.22,1.46-6.8,1.46Zm.09-6.76c1.23,0,2.24-.46,3.04-1.37s1.19-2.1,1.19-3.54-.39-2.62-1.17-3.54c-.78-.91-1.77-1.37-2.97-1.37-1.29,0-2.34.46-3.13,1.37-.8.92-1.19,2.1-1.19,3.54s.4,2.62,1.19,3.54,1.81,1.37,3.04,1.37Z"/><path class="cls-4" d="m327.24,430.44l6.85-11.71-6.4-10.86h9.51l2.52,5.31,2.62-5.31h9.24l-6.31,10.86,6.76,11.71h-9.24l-3.06-5.77-2.97,5.77h-9.51Z"/><path class="cls-4" d="m635.51,430.44l6.85-11.71-6.4-10.86h9.51l2.52,5.31,2.62-5.31h9.24l-6.31,10.86,6.76,11.71h-9.24l-3.06-5.77-2.97,5.77h-9.51Z"/></g><g class="cls-7"><g class="cls-3"><g class="cls-5"><g class="cls-6"><polygon class="cls-2" points="356.57 1100.87 28.78 1100.87 28.78 773.08 356.57 773.08 356.57 1100.87 356.57 1100.87"/></g><rect class="cls-2" x="28.78" y="773.08" width="327.79" height="327.79"/><path class="cls-2" d="m217.21,924.88c-2.55-2.65-4.32-5.9-5.61-9.26-.36,4.29,2.26,9.13,5.43,12.01,1.66,1.51,4.12,2.9,6.19,2.16,1.27-.45,1.97-1.68,2.01-3.11-2.03,2.77-5.74.57-8.01-1.79h0Z"/><path class="cls-2" d="m281.17,929.9c.9,5.29,1.48,10.66,1.32,16.04-.14,4.66-.78,9.14-1.85,13.67,1.71-8.72,1.73-17.38.39-26.16-1.47-9.62-4.45-19.05-8.33-27.96-7.96-18.28-19.96-35.22-35.38-47.94-7.63-6.3-16.15-11.06-25.63-13.91,8.5,2.21,16.23,6,23.31,11.21,7.99,5.89,14.89,12.9,21.08,20.64,6.35,7.95,11.71,16.79,15.96,26.03,4.17,9.05,7.45,18.54,9.13,28.38h0Zm-90.54,28.63c-7.75-9.13-14.02-19.41-18.76-30.4-5.67-13.13-8.97-27.79-8.1-42.14.81-13.32,5.61-27.21,17.04-35.03.87-.6,1.8-1.11,2.71-1.64-4.68,3.27-8.56,7.25-11.34,12.28-3.26,5.88-4.98,12.54-5.65,19.2-1.41,13.96,1.44,28.12,6.39,41.15,4.09,10.76,9.79,20.94,16.73,30.11,8.46,11.18,19.04,21.24,31.53,27.77,11.56,6.05,25.18,9.11,37.67,4.06.93-.37,1.82-.84,2.72-1.27-5.24,3.07-10.78,4.85-16.88,5.08-6.84.26-13.61-1.23-19.96-3.71-13.29-5.21-24.9-14.64-34.07-25.45h0Zm-3.5,13.11c1.5,1.07,3.06,2.03,4.65,2.89-3.08-.75-6.06-1.82-8.96-3.3-5.38-2.74-9.97-6.54-14.07-10.93,3.73,5.15,8.09,9.65,13.4,13.2,1.39.93,2.83,1.76,4.31,2.5-2.98-.62-5.89-1.55-8.73-2.88-5.4-2.52-10.02-6.19-14.13-10.47,3.77,5.06,8.2,9.45,13.61,12.77,1.3.8,2.62,1.5,3.98,2.14-2.64-.45-5.24-1.16-7.8-2.2-5.73-2.33-10.62-5.97-14.93-10.36,3.86,5.06,8.45,9.4,14.04,12.5,1.13.63,2.28,1.19,3.45,1.69-2.65-.34-5.26-.96-7.83-1.94-5.68-2.17-10.53-5.62-14.81-9.89,3.94,5.03,8.65,9.33,14.4,12.21.97.48,1.94.92,2.92,1.31-2.56-.24-5.09-.77-7.6-1.64-5.72-1.98-10.57-5.33-14.88-9.53,4.06,5.07,8.95,9.35,14.94,12.01.73.32,1.46.62,2.19.89-2.38-.15-4.75-.56-7.12-1.28-5.84-1.78-10.78-5.08-15.15-9.27,4.03,4.93,8.85,9.01,14.76,11.52.73.31,1.47.59,2.21.85-2.32-.08-4.65-.42-6.98-1.08-5.83-1.66-10.74-4.81-15.13-8.93,4.08,4.89,8.86,8.68,14.75,11.14.91.38,1.84.71,2.77.99-9.63-1.08-18.77-7-24.25-16.36-7.05-12.05-6.04-26.96,2.17-36.55,10-6.48,18.4-15.31,24.96-23.8,2.35,11.8,6.78,23.84,13.57,35.44,5.89,10.07,12.93,18.9,20.65,26.28-1.62-.65-3.21-1.4-4.77-2.27-5.28-2.95-9.78-6.88-13.83-11.34,3.69,5.25,7.99,9.95,13.24,13.7h0Zm-76.12-3.33c-1.54-7.04-1.51-14.15.92-21.01-.7,1.09-1.35,2.22-1.91,3.42-2.96,6.35-3.68,13.07-2.94,19.98-1.54-7.04-1.51-14.15.92-21.01-.7,1.09-1.35,2.22-1.91,3.42-2.96,6.35-3.68,13.07-2.94,19.98-1.54-7.04-1.51-14.15.92-21.01-.7,1.09-1.35,2.22-1.91,3.42-2.96,6.35-3.68,13.07-2.94,19.98-1.54-7.04-1.51-14.15.92-21.01-.7,1.09-1.35,2.22-1.91,3.42-2.96,6.35-3.68,13.07-2.93,19.98-1.54-7.04-1.51-14.15.92-21.01-.7,1.09-1.35,2.22-1.91,3.42-2.96,6.35-3.68,13.07-2.94,19.98-1.54-7.05-1.51-14.15.93-21.02.57-1.6,1.26-3.12,2.05-4.58,1.95-2.21,4.25-4.14,6.9-5.69l27.95-17.47c-1.58,1.97-6.46,9.98-7.42,12.02-2.96,6.35-3.68,13.07-2.93,19.98-1.54-7.04-1.51-14.15.92-21.01-.7,1.09-1.35,2.22-1.91,3.42-2.96,6.35-3.68,13.07-2.94,19.98-1.54-7.04-1.51-14.15.92-21.01-.7,1.09-1.35,2.22-1.91,3.42-2.96,6.35-3.68,13.07-2.94,19.98h0Zm57.35,26.98c3.64,3.96,7.09,8.11,10.53,12.25,2.36,2.83,4.74,5.55,7.55,7.95,2.67,2.28,5.62,4.14,8.54,6.09,2.73,1.82,6.16,3.51,6.54,7.14-1.13-2.98-3.83-4.19-6.4-5.74-2.99-1.8-6-3.6-8.72-5.79-5.49-4.42-9.65-10.39-13.81-16.02-1.44-1.94-2.86-3.89-4.23-5.88h0Zm9.9,46.07s-.08-.09-.12-.14l-33.3-34.93,1.02-.55,7.55,5.78-4.19-7.58,1.34-.72,7.37,5.64-4.1-7.4,1.42-.76,7.2,5.51-4-7.22,1.02-.54,15.7,19.31c2.93,3.61,6.41,6.71,10.32,9.22l9.45,6.05c.59.38.93.99.93,1.69,0,.7-.32,1.32-.9,1.71l-8.99,6.02c-2.27,1.3-5.9,1.17-7.73-1.09h0Zm35.72-70.83l14.07.77-19.54-6.14,32.55-.56-37.05-5.17,28.72-4.46-26.71-1.07,22.05-18.11c.12-.1.22-.2.31-.32,4.4-3.83,4.47-12.23-.09-20.02-1.04-1.78-2.23-3.37-3.51-4.73l23.33-19.86-28.76,15.67c-1.13-.58-2.28-1-3.41-1.23l28.16-25.22c-1.49-1.98-3.03-3.92-4.63-5.81l-27.29,26.12,23.78-30.09c-4.55-4.92-9.54-9.44-15.06-13.47h0s-25.01,29.4-25.01,29.4l22.25-31.27c-2.31-1.46-4.71-2.78-7.14-4.05,16.98,5.11,35.51,20.85,48.68,43.35,20.42,34.88,20.37,73-.1,84.99-12.4,7.26-29.49,3.29-45.58-8.72h0Zm-42.61-86.42c1.11-4.66,3.02-9.18,5.02-13.52,2-4.33,4.23-8.72,7.07-12.57-1.11,4.66-3.02,9.18-5.02,13.52-2,4.33-4.23,8.72-7.07,12.57h0Zm5.05,6.32c-1.55,2.32-3.13,4.63-4.83,6.85,2.4-5.63,5.32-11.05,8.26-16.43,3.86-7.07,8.05-14,12.54-20.7,1.55-2.32,3.13-4.63,4.83-6.85-2.4,5.63-5.32,11.05-8.26,16.43-3.86,7.07-8.06,14-12.55,20.7h0Zm48.45,41.99c-2.86,1.68-8.74-1.05-12.6-7.63-3.86-6.59-3.35-13.04-.49-14.72,2.86-1.68,8.74,1.05,12.6,7.63,3.86,6.59,3.35,13.04.49,14.72h0Zm-33.35,14.73l18.54-13.67-21.05,9.5,10.41-8.29-12.98,4.75c-.11-.19-.23-.38-.34-.57l7.24-5.79-9.17,2.46c-.13-.23-.26-.46-.38-.69l5.78-4.71-7.5,1.47c-.13-.26-.26-.51-.39-.77l5.2-4.18-6.73,1.05c-.13-.28-.26-.56-.39-.83l4.93-3.95-6.25.98c-.11-.27-.23-.54-.34-.81l27.18-10.59c-.87,4.16.14,9.48,3.11,14.55,1.59,2.72,3.53,4.99,5.61,6.7l-22.12,13.87c-.12-.16-.24-.32-.35-.49h0Zm34.17-101.11c-16.95-9.13-33.18-10.11-45.72-2.78-14.95,8.75-23.41,24.95-23.75,44.19-.08,4.77.18,9.66.79,14.62-3.94,5.52-8.73,11.41-14.29,16.79-2.21.7-4.34,1.64-6.33,2.8-.64.37-1.28.79-2.03,1.31l-35.44,22.16c-16.64,9.74-21.61,32.31-11.08,50.31,10.54,18,32.65,24.71,49.21,15.01l3.64-1.95,34.11,35.77c3.11,3.77,9.03,4.67,13.51,2.04.04-.02.08-.05.12-.07l9.05-6.06c.99-.66,1.76-1.56,2.25-2.6.18-.25.35-.52.49-.8,3.38-6.47,3.54-7.24,3.62-7.66.53-2.67-.6-5.34-2.88-6.8l-8.88-5.69c-3.89-2.49-7.34-5.57-10.25-9.15l-11.9-14.63,3.43-1.83c1.07-.49,1.96-.94,2.78-1.42,1.99-1.17,3.85-2.57,5.54-4.17,8.16-2.08,16.51-2.91,24.03-3.1,2.9,1.99,5.85,3.79,8.84,5.39,18.32,9.81,33.66,10.82,50.52.95,12.53-7.34,19.62-21.98,19.96-41.22.32-18.46-5.65-39.15-16.82-58.23-11.17-19.09-26.28-34.42-42.54-43.18h0Z"/><path class="cls-2" d="m237.53,843.81c1.63-1.89,3.13-3.88,4.6-5.9,3.96-5.45,7.46-11.18,10.92-16.95-2.38.1-4.77.21-7.15.35,3.12-5.86,6.11-11.85,8.44-18.07-2.06,2.49-3.98,5.11-5.82,7.77-3.25,4.67-6.24,9.49-9.24,14.33,2.33-.06,4.65-.12,6.97-.22-.3.55-.61,1.09-.9,1.65-2.93,5.49-5.74,11.16-7.81,17.05h0Z"/><path class="cls-2" d="m259.9,861.3c2.18-1.33,4.28-2.81,6.34-4.32,5.38-3.94,10.43-8.28,15.44-12.67-2.3-.63-4.6-1.26-6.91-1.86,4.77-4.61,9.45-9.4,13.57-14.61-2.73,1.74-5.35,3.65-7.93,5.61-4.53,3.44-8.86,7.12-13.19,10.8,2.23.66,4.46,1.31,6.7,1.93-.45.43-.91.86-1.36,1.29-4.47,4.33-8.89,8.86-12.66,13.83h0Z"/><path class="cls-2" d="m298.07,872.39c5.96-2.92,11.89-6.03,17.42-9.71-3.13.81-6.22,1.82-9.27,2.89-5.37,1.88-10.62,4.04-15.88,6.2,1.92,1.31,3.83,2.62,5.77,3.9-2.56,1.24-5.11,2.52-7.61,3.87-3.54,1.9-7.08,3.9-10.38,6.2,2.49-.59,4.93-1.35,7.36-2.15,6.33-2.09,12.47-4.66,18.6-7.29-1.99-1.31-3.99-2.62-6-3.9h0Z"/><path class="cls-2" d="m318.9,911.36c-1.62-1.75-3.24-3.51-4.88-5.24,6.49-1.39,13-2.98,19.25-5.21-3.24.03-6.47.26-9.69.56-5.66.53-11.28,1.35-16.91,2.18,1.54,1.74,3.09,3.47,4.66,5.18-2.79.58-5.56,1.21-8.32,1.91-3.9.99-7.81,2.07-11.57,3.51,2.56.03,5.11-.12,7.66-.31,6.65-.5,13.23-1.51,19.81-2.58h0Z"/><path class="cls-2" d="m339.27,940.69c-3.14-.77-6.33-1.35-9.53-1.86-5.62-.9-11.27-1.49-16.92-2.08,1.06,2.07,2.13,4.13,3.23,6.17-2.84-.13-5.69-.21-8.54-.21-4.02,0-8.08.07-12.08.52,2.47.66,4.98,1.15,7.5,1.6,6.56,1.17,13.19,1.82,19.83,2.41-1.13-2.1-2.26-4.2-3.43-6.29,6.63.26,13.33.34,19.94-.27h0Z"/></g></g></g></g></g></g></svg>