<?xml version="1.0" encoding="UTF-8"?><svg id="Camada_2" xmlns="http://www.w3.org/2000/svg" xmlns:xlink="http://www.w3.org/1999/xlink" viewBox="0 0 395.13 1525.21"><defs><style>.cls-1{fill:url(#Gradiente_sem_nome_2);}.cls-2{fill:#004f53;}.cls-3{fill:#ef9637;}.cls-4{fill:#fff;}.cls-5{fill:#ff9200;}.cls-6{fill:#009da9;}.cls-7{fill:#377e84;}.cls-8{fill:#4aa3b0;}.cls-9{opacity:.3;}.cls-10{opacity:.3;}.cls-11{opacity:.4;}.cls-12{fill:url(#Gradiente_sem_nome_2-2);}</style><linearGradient id="Gradiente_sem_nome_2" x1="-6793.18" y1="8692.58" x2="-6889.88" y2="8609.99" gradientTransform="translate(-8942.38 7161.42) rotate(-161.98)" gradientUnits="userSpaceOnUse"><stop offset="0" stop-color="#eeb980"/><stop offset="1" stop-color="#e38067"/></linearGradient><linearGradient id="Gradiente_sem_nome_2-2" x1="-6734.87" y1="8688.12" x2="-6680.49" y2="8633.73" xlink:href="#Gradiente_sem_nome_2"/></defs><g id="Camada_3"><g id="Camada_1-2"><g class="cls-10"><path class="cls-8" d="m286.78,265.67l-52.13,7.47c-5.38.78-9.36,5.35-9.36,10.76v59.88c0,6.45,5.62,11.48,12.06,10.8l52.13-5.46c5.56-.58,9.78-5.25,9.78-10.8v-61.89c0-6.62-5.89-11.71-12.47-10.76Zm-38.98,72.38c-4.27,0-7.75-3.45-7.75-7.71s3.47-7.71,7.75-7.71,7.75,3.45,7.75,7.71-3.47,7.71-7.75,7.71Zm21.58-6.2c-.04.52-.43.96-.95,1.03l-3.59.53c-.15.02-.28-.11-.25-.26.16-.95.25-1.87.25-2.83,0-9.07-7.41-16.45-16.53-16.45-.94,0-1.88.09-2.77.26-.12.02-.24-.06-.26-.18l-.7-4.08c-.02-.12.06-.24.19-.27,7.26-1.34,15.58,1.53,24.96,8.59,2.08,1.57,2.12,4.52.3,6.38-1.07,1.09-.38,4.41-.62,7.26h0Zm10.49-.74l-2.36.35c-.68.1-1.28-.42-1.28-1.1h0c0-15.63-12.76-28.32-28.45-28.32-1.34,0-2.65.1-3.94.28-.6.08-1.15-.33-1.25-.92l-.4-2.32c-.1-.61.31-1.2.92-1.29,1.52-.21,3.07-.34,4.65-.34,18.11,0,32.87,14.57,33.06,32.56-.37.42-.61.69-.98,1.12h.03Zm11.86-1.3l-2.35.35c-.67.1-1.27-.41-1.29-1.08-.91-21.36-18.64-38.44-40.31-38.44-2,0-3.98.16-5.89.44-.61.09-1.18-.31-1.29-.92l-.4-2.32c-.11-.62.31-1.21.93-1.3,2.17-.32,4.39-.49,6.65-.49,24.08,0,43.78,18.93,44.91,42.61.03.57-.4,1.08-.97,1.16h.01Z"/><path class="cls-8" d="m247.8,325.68c-2.57,0-4.68,2.08-4.68,4.66s2.09,4.66,4.68,4.66,4.68-2.08,4.68-4.66-2.09-4.66-4.68-4.66Z"/></g><g class="cls-10"><path class="cls-2" d="m356.76,797.38s-103.74-52.73-197.49-57.91l-23.12,90.62s-17.03,130.58-17.46,190.59c0,0,62.45,32.98,99.67,26.09,0,0,76.17-146.18,98.01-164.39,0,0,33.93-55.44,40.38-85h0Z"/><path class="cls-5" d="m306.11,694.4l-12.95,76.84s-34.94,4.01-51.53-17.42l21.41-50.23,43.07-9.18h0Z"/><path class="cls-2" d="m355.81,799.14s108.51,234.91-110.95,239.94l4.59-14.1s93.88-38.08,64.71-141.13c0,0,33.23-78.08,41.65-84.69h0Z"/><path class="cls-1" d="m246.9,1027.57s-20.3-25.6-33.68-23.62c-13.37,1.98-16.17,10.57-16.17,10.57,0,0,2.02,13.33,11.59,13.26,9.56-.06,27.84,12.23,37.4,12.16,0,0,6.61-10.52.84-12.39v.02Z"/><path class="cls-2" d="m159.75,739.71s-234.52,119.88-57.5,254.98l4.65-14.3s-54.29-87.26,31.14-154.39c0,0,28.55-68.24,21.71-86.27h0Z"/><path class="cls-12" d="m107.37,982.19s31.48-8.76,41.13.71c9.65,9.46,6.86,18.05,6.86,18.05,0,0-9.47,9.59-17.17,3.91-7.7-5.67-29.7-6.49-37.4-12.16,0,0,.84-12.39,6.61-10.52h-.02Z"/><path class="cls-5" d="m292.13,629.75c-.95.45-50.55,49.84-50.55,49.84l28.99,27.68,54-39.83s-16.38-45.22-32.45-37.69h.01Z"/><path class="cls-2" d="m308.74,664.43c.1,1.77-.63,3.49-1.96,4.66l-26.39,22.86c-.4.35-.84.64-1.32.85-2.66,1.22-11.43,4.46-14.39-4.78-2.52-7.88-4.95-15.08-8.8-18.97-2.25-2.28-5.93-2.24-8.19.02-4.64,4.65-13.8,14.22-20.73,23.87-1.74,2.41-1.28,5.78,1.01,7.7,6.04,5.06,18.15,14.61,29.8,20.26,1.91.92,4.17.73,5.89-.51,7.58-5.45,28.88-20.64,35.57-24.01,6.21-3.13,14.29,1.45,17.84,3.84,1.35.9,2.99,1.21,4.57.86,4.73-1.08,13.55-4.75,10.49-16.82-.76-3,1.12-6.05,4.1-6.87,5.36-1.46,11.92-5.32,10.22-15.61-1.73-10.4-9.73-13.9-15.59-15.04-2.59-.51-4.69-2.63-4.89-5.24-.09-1.16-.65-2.31-2.1-3.14-2.76-1.55-3.81-4.87-2.28-7.62,2.62-4.71,4.01-11.51-2.64-18.56-12.19-12.94-29.47-3.94-36.4,6.14-6.93,10.09,7.07,23.36,17.08,28.07,7.34,3.46,8.84,13.15,9.12,18.04v-.02Z"/><path class="cls-5" d="m289.4,704.71s12.83-17.05,21.04-13.61c8.21,3.45,12.13,13.98-1.38,19.99-16.82,7.47-19.66-6.38-19.66-6.38h0Z"/><polygon class="cls-8" points="395.13 907.67 203.99 916.4 126.22 1145.36 285.16 1146.32 395.13 907.67"/><polygon class="cls-8" points="51.46 795.89 203.99 916.4 129.1 1146.29 0 1053.58 51.46 795.89"/><g class="cls-11"><polygon class="cls-4" points="190.6 925.38 54.46 817.38 46.76 866.62 180.1 957.66 190.6 925.38"/><polygon class="cls-4" points="171.14 973.77 127.17 940.45 85.78 1092.69 119.94 1119.96 171.14 973.77"/><polygon class="cls-4" points="116.3 936.91 47.09 884.47 24.15 1007.49 86.14 1042.57 116.3 936.91"/><polygon class="cls-4" points="82.08 1056.69 21.72 1021.52 14.29 1044.38 73.32 1083.61 82.08 1056.69"/></g><g class="cls-11"><polygon class="cls-4" points="216.3 933.74 371.82 925.72 360.72 951.21 211.03 949.95 216.3 933.74"/><polygon class="cls-4" points="204.83 971.36 349.94 977.21 279.49 1133.87 148.31 1129.19 204.83 971.36"/></g><path class="cls-7" d="m335.6,1031.28c1.27-1.43,22.96-21.16,15.83-33.27-7.13-12.11-15.1-3.81-17.87,7.08-2.78,10.89-7.65,37.03,2.04,26.19Z"/><path class="cls-7" d="m25.65,930.47c-.19-1.91-6.12-30.61,6.77-36.22,12.89-5.6,14.45,5.8,10.29,16.24s-15.6,34.45-17.06,19.98Z"/></g><g class="cls-10"><path class="cls-3" d="m98.69,47.8l39.89,16.39,10.77-12.02c.2-.38.44-.74.78-1.05.14-.13.3-.24.46-.34l16.67-18.61-68.56,15.64h0Z"/><path class="cls-3" d="m179.77,89.21c-3.4-3.65-7.91-8.52-12.43-13.4-5.92-6.38-11.81-12.75-15.18-16.41l-10.41,11.62c-.53.58-1.21.98-1.93,1.13-.73.16-1.51.11-2.23-.18l-14.67-6.03c-1.44,4.71-3.97,13.08-6.53,21.47-1.93,6.34-3.87,12.68-5.32,17.45-.44,1.43-.81,2.63-1.14,3.68l72.47-16.53c-.75-.79-1.61-1.71-2.63-2.82h0Z"/><path class="cls-3" d="m92.95,53.69l11.15,48.41c2.97-9.7,7.91-25.95,11.86-38.95,0,0-23.02-9.46-23.02-9.46Z"/><path class="cls-3" d="m157.03,53.79c9.37,10.12,21.07,22.76,27.92,30.14l-11.24-48.78-16.7,18.64h.01Z"/><path class="cls-3" d="m181.16.18l-107.45,18.73c-8.78,1.53-14.14,9.84-11.89,18.47l25.12,96.55c2.05,7.88,10.36,12.39,18.46,10.11l99.68-27.96c6.76-1.9,11.01-9.21,9.57-16.41l-17.6-87.61c-1.56-7.8-8.65-13.15-15.9-11.89Zm11.91,86.06c1.31,5.7-2.28,11.39-8.01,12.7l-74.44,16.97c-5.73,1.3-11.45-2.26-12.76-7.97l-12.43-53.97c-1.31-5.7,2.28-11.39,8.01-12.7l74.44-16.97c5.73-1.3,11.45,2.26,12.76,7.97l12.43,53.97Z"/></g></g><g class="cls-9"><path class="cls-6" d="m106.52,1315.18c-14.51,0-26.32,11.81-26.32,26.32s11.81,26.32,26.32,26.32,26.32-11.81,26.32-26.32-11.81-26.32-26.32-26.32Zm13.98,29.83l-19.16,11.37c-2.09,1.24-4.73-.27-4.73-2.7v-22.73c0-2.43,2.64-3.93,4.73-2.7l19.16,11.37c2.05,1.21,2.05,4.18,0,5.39Z"/><path class="cls-6" d="m151.02,1296.2l-83.95-4.37c-6.86-.36-12.33,4.99-12.13,11.9l2.17,77.2c.18,6.31,5.64,11.13,12.11,10.81l79.72-3.94c5.4-.27,9.87-5.06,10.03-10.74l1.94-69.16c.17-6.16-4.22-11.42-9.89-11.71Zm-44.5,76.93c-17.44,0-31.62-14.18-31.62-31.62s14.18-31.62,31.62-31.62,31.62,14.18,31.62,31.62-14.18,31.62-31.62,31.62Z"/></g><g class="cls-9"><path class="cls-6" d="m226.97,1473.82l-45.14-2.35c-3.69-.19-6.63,2.68-6.52,6.4l1.17,41.52c.1,3.39,3.03,5.98,6.51,5.81l42.87-2.12c2.91-.14,5.31-2.72,5.39-5.77l1.05-37.19c.09-3.31-2.27-6.14-5.32-6.3Zm-1.71,27.68c0,2.93-1.26,6.07-4.24,6.14l-4.77,5.58c-.28.33-.72.52-1.16.52-.53,0-.97-.27-1.22-.45-.53-.18-1.61-.58-1.61-1.66v-2.62c0-.76-.41-2.84-1.17-2.84h-21.95c-2.93,0-6.88-1.74-6.88-4.67v-17.75c0-3.05,3.93-5.58,6.88-5.58h31.91c2.9,0,4.2,2.68,4.2,5.58v17.75Z"/><path class="cls-6" d="m221.05,1482.18h-31.91c-1.37,0-3.88.33-3.88,2.31v17.02c0,1.36,2.52,2.67,3.88,2.67h24.79c.76,0,.33,1.25.33,2v3.86l5.6-5.86h1.19c1.11,0,1.2-1.3,1.2-2.67v-17.75c0-1.35.15-1.58-1.2-1.58Zm-2.8,18h-29c-.55,0-1-.45-1-1s.45-1,1-1h29c.55,0,1,.45,1,1s-.45,1-1,1Zm0-7h-29c-.55,0-1-.45-1-1s.45-1,1-1h29c.55,0,1,.45,1,1s-.45,1-1,1Zm0-5h-29c-.55,0-1-.45-1-1s.45-1,1-1h29c.55,0,1,.45,1,1s-.45,1-1,1Z"/></g></g></svg>