<?xml version="1.0" encoding="UTF-8"?><svg id="Camada_2" xmlns="http://www.w3.org/2000/svg" viewBox="0 0 219.87 170.24"><defs><style>.cls-1{opacity:.3;}.cls-2{fill:none;stroke:#fff;stroke-linecap:round;stroke-miterlimit:10;stroke-width:12.84px;}</style></defs><g id="Camada_2-2"><g class="cls-1"><polyline class="cls-2" points="6.42 8.51 36.01 33.3 65.56 8.47 95.14 33.26 124.69 8.43 154.29 33.21 183.85 8.38 213.44 33.17"/><polyline class="cls-2" points="6.42 40.65 36.01 65.44 65.56 40.61 95.14 65.4 124.69 40.56 154.29 65.35 183.85 40.52 213.44 65.31"/><polyline class="cls-2" points="6.42 72.79 36.01 97.58 65.56 72.75 95.14 97.53 124.69 72.7 154.29 97.49 183.85 72.66 213.44 97.45"/><polyline class="cls-2" points="6.42 104.93 36.01 129.72 65.56 104.88 95.14 129.67 124.69 104.84 154.29 129.63 183.85 104.8 213.44 129.59"/><polyline class="cls-2" points="6.42 137.07 36.01 161.86 65.56 137.02 95.14 161.81 124.69 136.98 154.29 161.77 183.85 136.94 213.44 161.73"/></g></g></svg>