<?xml version="1.0" encoding="UTF-8"?><svg id="Camada_2" xmlns="http://www.w3.org/2000/svg" xmlns:xlink="http://www.w3.org/1999/xlink" viewBox="0 0 352 400.13"><defs><style>.cls-1,.cls-2{fill:none;}.cls-3{clip-path:url(#clippath);}.cls-4{fill:#00a7b3;}.cls-5{clip-path:url(#clippath-1);}.cls-2{stroke:#3f8d91;stroke-linecap:round;stroke-miterlimit:10;stroke-width:4px;}.cls-6{opacity:.3;}</style><clipPath id="clippath"><line class="cls-4" x1="315.88" y1="234.68" x2="331.45" y2="247.8"/></clipPath><clipPath id="clippath-1"><circle class="cls-1" cx="184.54" cy="150.96" r="130.16"/></clipPath></defs><g id="Camada_3"><g class="cls-6"><line class="cls-4" x1="95.47" y1="11.37" x2="343.12" y2="218.28"/><path class="cls-4" d="m87.39,14.94c-1.49-2.82-.91-6.36,1.76-8.85,3.45-3.21,9.07-3.46,12.56-.54l247.65,206.91c3.49,2.91,3.52,7.88.08,11.1-3.45,3.21-9.07,3.46-12.56.54L89.22,17.19c-.79-.66-1.4-1.42-1.83-2.25Z"/><line class="cls-4" x1="44.7" y1="7.86" x2="292.35" y2="214.77"/><path class="cls-4" d="m36.62,11.43c-1.49-2.82-.91-6.36,1.76-8.85,3.45-3.21,9.07-3.46,12.56-.54l247.65,206.91c3.49,2.91,3.52,7.88.08,11.1-3.45,3.21-9.07,3.46-12.56.54L38.46,13.68c-.79-.66-1.4-1.42-1.83-2.25Z"/><line class="cls-4" x1="315.88" y1="234.68" x2="331.45" y2="247.8"/><g class="cls-3"><polygon class="cls-4" points="328.29 241.83 319.53 241.59 315.88 234.68 322.88 231.58 328.29 241.83"/><polygon class="cls-4" points="328.3 241.85 319.54 241.62 319.53 241.59 328.29 241.83 328.3 241.85"/><polygon class="cls-4" points="328.32 241.88 319.56 241.65 319.54 241.62 328.3 241.85 328.32 241.88"/><polygon class="cls-4" points="328.33 241.91 319.57 241.68 319.56 241.65 328.32 241.88 328.33 241.91"/><polygon class="cls-4" points="328.35 241.94 319.59 241.71 319.57 241.68 328.33 241.91 328.35 241.94"/><polygon class="cls-4" points="328.36 241.97 319.6 241.74 319.59 241.71 328.35 241.94 328.36 241.97"/><polygon class="cls-4" points="328.38 242 319.62 241.77 319.6 241.74 328.36 241.97 328.38 242"/><polygon class="cls-4" points="328.39 242.03 319.63 241.8 319.62 241.77 328.38 242 328.39 242.03"/><polygon class="cls-4" points="328.41 242.06 319.65 241.82 319.63 241.8 328.39 242.03 328.41 242.06"/><polygon class="cls-4" points="328.42 242.08 319.66 241.85 319.65 241.82 328.41 242.06 328.42 242.08"/><polygon class="cls-4" points="328.44 242.11 319.68 241.88 319.66 241.85 328.42 242.08 328.44 242.11"/><polygon class="cls-4" points="328.45 242.14 319.69 241.91 319.68 241.88 328.44 242.11 328.45 242.14"/><polygon class="cls-4" points="328.47 242.17 319.71 241.94 319.69 241.91 328.45 242.14 328.47 242.17"/><polygon class="cls-4" points="328.48 242.2 319.72 241.97 319.71 241.94 328.47 242.17 328.48 242.2"/><polygon class="cls-4" points="328.5 242.23 319.74 242 319.72 241.97 328.48 242.2 328.5 242.23"/><polygon class="cls-4" points="328.52 242.26 319.76 242.03 319.74 242 328.5 242.23 328.52 242.26"/><polygon class="cls-4" points="328.53 242.28 319.77 242.05 319.76 242.03 328.52 242.26 328.53 242.28"/><polygon class="cls-4" points="328.55 242.31 319.79 242.08 319.77 242.05 328.53 242.28 328.55 242.31"/><polygon class="cls-4" points="328.56 242.34 319.8 242.11 319.79 242.08 328.55 242.31 328.56 242.34"/><polygon class="cls-4" points="328.58 242.37 319.82 242.14 319.8 242.11 328.56 242.34 328.58 242.37"/><polygon class="cls-4" points="328.59 242.4 319.83 242.17 319.82 242.14 328.58 242.37 328.59 242.4"/><polygon class="cls-4" points="328.61 242.43 319.85 242.2 319.83 242.17 328.59 242.4 328.61 242.43"/><polygon class="cls-4" points="328.62 242.46 319.86 242.23 319.85 242.2 328.61 242.43 328.62 242.46"/><polygon class="cls-4" points="328.64 242.49 319.88 242.26 319.86 242.23 328.62 242.46 328.64 242.49"/><polygon class="cls-4" points="328.65 242.51 319.89 242.28 319.88 242.26 328.64 242.49 328.65 242.51"/><polygon class="cls-4" points="328.67 242.54 319.91 242.31 319.89 242.28 328.65 242.51 328.67 242.54"/><polygon class="cls-4" points="328.68 242.57 319.92 242.34 319.91 242.31 328.67 242.54 328.68 242.57"/><polygon class="cls-4" points="328.7 242.6 319.94 242.37 319.92 242.34 328.68 242.57 328.7 242.6"/><polygon class="cls-4" points="328.71 242.63 319.95 242.4 319.94 242.37 328.7 242.6 328.71 242.63"/><polygon class="cls-4" points="328.73 242.66 319.97 242.43 319.95 242.4 328.71 242.63 328.73 242.66"/><polygon class="cls-4" points="328.74 242.69 319.98 242.46 319.97 242.43 328.73 242.66 328.74 242.69"/><polygon class="cls-4" points="328.76 242.72 320 242.49 319.98 242.46 328.74 242.69 328.76 242.72"/><polygon class="cls-4" points="328.77 242.74 320.01 242.51 320 242.49 328.76 242.72 328.77 242.74"/><polygon class="cls-4" points="328.79 242.77 320.03 242.54 320.01 242.51 328.77 242.74 328.79 242.77"/><polygon class="cls-4" points="328.8 242.8 320.04 242.57 320.03 242.54 328.79 242.77 328.8 242.8"/><polygon class="cls-4" points="328.82 242.83 320.06 242.6 320.04 242.57 328.8 242.8 328.82 242.83"/><polygon class="cls-4" points="328.83 242.86 320.07 242.63 320.06 242.6 328.82 242.83 328.83 242.86"/><polygon class="cls-4" points="328.85 242.89 320.09 242.66 320.07 242.63 328.83 242.86 328.85 242.89"/><polygon class="cls-4" points="328.86 242.92 320.1 242.69 320.09 242.66 328.85 242.89 328.86 242.92"/><polygon class="cls-4" points="328.88 242.95 320.12 242.72 320.1 242.69 328.86 242.92 328.88 242.95"/><polygon class="cls-4" points="328.89 242.97 320.13 242.74 320.12 242.72 328.88 242.95 328.89 242.97"/><polygon class="cls-4" points="328.91 243 320.15 242.77 320.13 242.74 328.89 242.97 328.91 243"/><polygon class="cls-4" points="328.93 243.03 320.17 242.8 320.15 242.77 328.91 243 328.93 243.03"/><polygon class="cls-4" points="328.94 243.06 320.18 242.83 320.17 242.8 328.93 243.03 328.94 243.06"/><polygon class="cls-4" points="328.96 243.09 320.2 242.86 320.18 242.83 328.94 243.06 328.96 243.09"/><polygon class="cls-4" points="328.97 243.12 320.21 242.89 320.2 242.86 328.96 243.09 328.97 243.12"/><polygon class="cls-4" points="328.99 243.15 320.23 242.92 320.21 242.89 328.97 243.12 328.99 243.15"/><polygon class="cls-4" points="329 243.18 320.24 242.95 320.23 242.92 328.99 243.15 329 243.18"/><polygon class="cls-4" points="329.02 243.2 320.26 242.97 320.24 242.95 329 243.18 329.02 243.2"/><polygon class="cls-4" points="329.03 243.23 320.27 243 320.26 242.97 329.02 243.2 329.03 243.23"/><polygon class="cls-4" points="329.05 243.26 320.29 243.03 320.27 243 329.03 243.23 329.05 243.26"/><polygon class="cls-4" points="329.06 243.29 320.3 243.06 320.29 243.03 329.05 243.26 329.06 243.29"/><polygon class="cls-4" points="329.08 243.32 320.32 243.09 320.3 243.06 329.06 243.29 329.08 243.32"/><polygon class="cls-4" points="329.09 243.35 320.33 243.12 320.32 243.09 329.08 243.32 329.09 243.35"/><polygon class="cls-4" points="329.11 243.38 320.35 243.15 320.33 243.12 329.09 243.35 329.11 243.38"/><polygon class="cls-4" points="329.12 243.41 320.36 243.18 320.35 243.15 329.11 243.38 329.12 243.41"/><polygon class="cls-4" points="329.14 243.43 320.38 243.2 320.36 243.18 329.12 243.41 329.14 243.43"/><polygon class="cls-4" points="329.15 243.46 320.39 243.23 320.38 243.2 329.14 243.43 329.15 243.46"/><polygon class="cls-4" points="329.17 243.49 320.41 243.26 320.39 243.23 329.15 243.46 329.17 243.49"/><polygon class="cls-4" points="329.18 243.52 320.42 243.29 320.41 243.26 329.17 243.49 329.18 243.52"/><polygon class="cls-4" points="329.2 243.55 320.44 243.32 320.42 243.29 329.18 243.52 329.2 243.55"/><polygon class="cls-4" points="329.21 243.58 320.45 243.35 320.44 243.32 329.2 243.55 329.21 243.58"/><polygon class="cls-4" points="329.23 243.61 320.47 243.38 320.45 243.35 329.21 243.58 329.23 243.61"/><polygon class="cls-4" points="329.24 243.64 320.48 243.41 320.47 243.38 329.23 243.61 329.24 243.64"/><polygon class="cls-4" points="329.26 243.66 320.5 243.43 320.48 243.41 329.24 243.64 329.26 243.66"/><polygon class="cls-4" points="329.27 243.69 320.51 243.46 320.5 243.43 329.26 243.66 329.27 243.69"/><polygon class="cls-4" points="329.29 243.72 320.53 243.49 320.51 243.46 329.27 243.69 329.29 243.72"/><polygon class="cls-4" points="329.3 243.75 320.54 243.52 320.53 243.49 329.29 243.72 329.3 243.75"/><polygon class="cls-4" points="329.32 243.78 320.56 243.55 320.54 243.52 329.3 243.75 329.32 243.78"/><polygon class="cls-4" points="329.34 243.81 320.58 243.58 320.56 243.55 329.32 243.78 329.34 243.81"/><polygon class="cls-4" points="329.35 243.84 320.59 243.61 320.58 243.58 329.34 243.81 329.35 243.84"/><polygon class="cls-4" points="329.37 243.87 320.61 243.64 320.59 243.61 329.35 243.84 329.37 243.87"/><polygon class="cls-4" points="329.38 243.89 320.62 243.66 320.61 243.64 329.37 243.87 329.38 243.89"/><polygon class="cls-4" points="329.4 243.92 320.64 243.69 320.62 243.66 329.38 243.89 329.4 243.92"/><polygon class="cls-4" points="329.41 243.95 320.65 243.72 320.64 243.69 329.4 243.92 329.41 243.95"/><polygon class="cls-4" points="329.43 243.98 320.67 243.75 320.65 243.72 329.41 243.95 329.43 243.98"/><polygon class="cls-4" points="329.44 244.01 320.68 243.78 320.67 243.75 329.43 243.98 329.44 244.01"/><polygon class="cls-4" points="329.46 244.04 320.7 243.81 320.68 243.78 329.44 244.01 329.46 244.04"/><polygon class="cls-4" points="329.47 244.07 320.71 243.84 320.7 243.81 329.46 244.04 329.47 244.07"/><polygon class="cls-4" points="329.49 244.1 320.73 243.87 320.71 243.84 329.47 244.07 329.49 244.1"/><polygon class="cls-4" points="329.5 244.12 320.74 243.89 320.73 243.87 329.49 244.1 329.5 244.12"/><polygon class="cls-4" points="329.52 244.15 320.76 243.92 320.74 243.89 329.5 244.12 329.52 244.15"/><polygon class="cls-4" points="329.53 244.18 320.77 243.95 320.76 243.92 329.52 244.15 329.53 244.18"/><polygon class="cls-4" points="329.55 244.21 320.79 243.98 320.77 243.95 329.53 244.18 329.55 244.21"/><polygon class="cls-4" points="329.56 244.24 320.8 244.01 320.79 243.98 329.55 244.21 329.56 244.24"/><polygon class="cls-4" points="329.58 244.27 320.82 244.04 320.8 244.01 329.56 244.24 329.58 244.27"/><polygon class="cls-4" points="329.59 244.3 320.83 244.07 320.82 244.04 329.58 244.27 329.59 244.3"/><polygon class="cls-4" points="329.61 244.33 320.85 244.1 320.83 244.07 329.59 244.3 329.61 244.33"/><polygon class="cls-4" points="329.62 244.35 320.86 244.12 320.85 244.1 329.61 244.33 329.62 244.35"/><polygon class="cls-4" points="329.64 244.38 320.88 244.15 320.86 244.12 329.62 244.35 329.64 244.38"/><polygon class="cls-4" points="329.65 244.41 320.89 244.18 320.88 244.15 329.64 244.38 329.65 244.41"/><polygon class="cls-4" points="329.67 244.44 320.91 244.21 320.89 244.18 329.65 244.41 329.67 244.44"/><polygon class="cls-4" points="329.68 244.47 320.92 244.24 320.91 244.21 329.67 244.44 329.68 244.47"/><polygon class="cls-4" points="329.7 244.5 320.94 244.27 320.92 244.24 329.68 244.47 329.7 244.5"/><polygon class="cls-4" points="329.71 244.53 320.95 244.3 320.94 244.27 329.7 244.5 329.71 244.53"/><polygon class="cls-4" points="329.73 244.56 320.97 244.33 320.95 244.3 329.71 244.53 329.73 244.56"/><polygon class="cls-4" points="329.74 244.58 320.98 244.35 320.97 244.33 329.73 244.56 329.74 244.58"/><polygon class="cls-4" points="329.76 244.61 321 244.38 320.98 244.35 329.74 244.58 329.76 244.61"/><polygon class="cls-4" points="329.78 244.64 321.02 244.41 321 244.38 329.76 244.61 329.78 244.64"/><polygon class="cls-4" points="329.79 244.67 321.03 244.44 321.02 244.41 329.78 244.64 329.79 244.67"/><polygon class="cls-4" points="329.81 244.7 321.05 244.47 321.03 244.44 329.79 244.67 329.81 244.7"/><polygon class="cls-4" points="329.82 244.73 321.06 244.5 321.05 244.47 329.81 244.7 329.82 244.73"/><polygon class="cls-4" points="329.84 244.76 321.08 244.53 321.06 244.5 329.82 244.73 329.84 244.76"/><polygon class="cls-4" points="329.85 244.79 321.09 244.56 321.08 244.53 329.84 244.76 329.85 244.79"/><polygon class="cls-4" points="329.87 244.81 321.11 244.58 321.09 244.56 329.85 244.79 329.87 244.81"/><polygon class="cls-4" points="329.88 244.84 321.12 244.61 321.11 244.58 329.87 244.81 329.88 244.84"/><polygon class="cls-4" points="329.9 244.87 321.14 244.64 321.12 244.61 329.88 244.84 329.9 244.87"/><polygon class="cls-4" points="329.91 244.9 321.15 244.67 321.14 244.64 329.9 244.87 329.91 244.9"/><polygon class="cls-4" points="329.93 244.93 321.17 244.7 321.15 244.67 329.91 244.9 329.93 244.93"/><polygon class="cls-4" points="329.94 244.96 321.18 244.73 321.17 244.7 329.93 244.93 329.94 244.96"/><polygon class="cls-4" points="329.96 244.99 321.2 244.76 321.18 244.73 329.94 244.96 329.96 244.99"/><polygon class="cls-4" points="329.97 245.02 321.21 244.79 321.2 244.76 329.96 244.99 329.97 245.02"/><polygon class="cls-4" points="329.99 245.04 321.23 244.81 321.21 244.79 329.97 245.02 329.99 245.04"/><polygon class="cls-4" points="330 245.07 321.24 244.84 321.23 244.81 329.99 245.04 330 245.07"/><polygon class="cls-4" points="330.02 245.1 321.26 244.87 321.24 244.84 330 245.07 330.02 245.1"/><polygon class="cls-4" points="330.03 245.13 321.27 244.9 321.26 244.87 330.02 245.1 330.03 245.13"/><polygon class="cls-4" points="330.05 245.16 321.29 244.93 321.27 244.9 330.03 245.13 330.05 245.16"/><polygon class="cls-4" points="330.06 245.19 321.3 244.96 321.29 244.93 330.05 245.16 330.06 245.19"/><polygon class="cls-4" points="330.08 245.22 321.32 244.99 321.3 244.96 330.06 245.19 330.08 245.22"/><polygon class="cls-4" points="330.09 245.25 321.33 245.02 321.32 244.99 330.08 245.22 330.09 245.25"/><polygon class="cls-4" points="330.11 245.27 321.35 245.04 321.33 245.02 330.09 245.25 330.11 245.27"/><polygon class="cls-4" points="330.12 245.3 321.36 245.07 321.35 245.04 330.11 245.27 330.12 245.3"/><polygon class="cls-4" points="330.14 245.33 321.38 245.1 321.36 245.07 330.12 245.3 330.14 245.33"/><polygon class="cls-4" points="330.15 245.36 321.39 245.13 321.38 245.1 330.14 245.33 330.15 245.36"/><polygon class="cls-4" points="330.17 245.39 321.41 245.16 321.39 245.13 330.15 245.36 330.17 245.39"/><polygon class="cls-4" points="330.19 245.42 321.43 245.19 321.41 245.16 330.17 245.39 330.19 245.42"/><polygon class="cls-4" points="330.2 245.45 321.44 245.22 321.43 245.19 330.19 245.42 330.2 245.45"/><polygon class="cls-4" points="330.22 245.48 321.46 245.25 321.44 245.22 330.2 245.45 330.22 245.48"/><polygon class="cls-4" points="330.23 245.5 321.47 245.27 321.46 245.25 330.22 245.48 330.23 245.5"/><polygon class="cls-4" points="330.25 245.53 321.49 245.3 321.47 245.27 330.23 245.5 330.25 245.53"/><polygon class="cls-4" points="330.26 245.56 321.5 245.33 321.49 245.3 330.25 245.53 330.26 245.56"/><polygon class="cls-4" points="330.28 245.59 321.52 245.36 321.5 245.33 330.26 245.56 330.28 245.59"/><polygon class="cls-4" points="330.29 245.62 321.53 245.39 321.52 245.36 330.28 245.59 330.29 245.62"/><polygon class="cls-4" points="330.31 245.65 321.55 245.42 321.53 245.39 330.29 245.62 330.31 245.65"/><polygon class="cls-4" points="330.32 245.68 321.56 245.45 321.55 245.42 330.31 245.65 330.32 245.68"/><polygon class="cls-4" points="330.34 245.71 321.58 245.48 321.56 245.45 330.32 245.68 330.34 245.71"/><polygon class="cls-4" points="330.35 245.73 321.59 245.5 321.58 245.48 330.34 245.71 330.35 245.73"/><polygon class="cls-4" points="330.37 245.76 321.61 245.53 321.59 245.5 330.35 245.73 330.37 245.76"/><polygon class="cls-4" points="330.38 245.79 321.62 245.56 321.61 245.53 330.37 245.76 330.38 245.79"/><polygon class="cls-4" points="330.4 245.82 321.64 245.59 321.62 245.56 330.38 245.79 330.4 245.82"/><polygon class="cls-4" points="330.41 245.85 321.65 245.62 321.64 245.59 330.4 245.82 330.41 245.85"/><polygon class="cls-4" points="330.43 245.88 321.67 245.65 321.65 245.62 330.41 245.85 330.43 245.88"/><polygon class="cls-4" points="330.44 245.91 321.68 245.68 321.67 245.65 330.43 245.88 330.44 245.91"/><polygon class="cls-4" points="330.46 245.94 321.7 245.71 321.68 245.68 330.44 245.91 330.46 245.94"/><polygon class="cls-4" points="330.47 245.96 321.71 245.73 321.7 245.71 330.46 245.94 330.47 245.96"/><polygon class="cls-4" points="330.49 245.99 321.73 245.76 321.71 245.73 330.47 245.96 330.49 245.99"/><polygon class="cls-4" points="330.5 246.02 321.74 245.79 321.73 245.76 330.49 245.99 330.5 246.02"/><polygon class="cls-4" points="330.52 246.05 321.76 245.82 321.74 245.79 330.5 246.02 330.52 246.05"/><polygon class="cls-4" points="330.53 246.08 321.77 245.85 321.76 245.82 330.52 246.05 330.53 246.08"/><polygon class="cls-4" points="330.55 246.11 321.79 245.88 321.77 245.85 330.53 246.08 330.55 246.11"/><polygon class="cls-4" points="330.56 246.14 321.8 245.91 321.79 245.88 330.55 246.11 330.56 246.14"/><polygon class="cls-4" points="330.58 246.17 321.82 245.94 321.8 245.91 330.56 246.14 330.58 246.17"/><polygon class="cls-4" points="330.6 246.19 321.84 245.96 321.82 245.94 330.58 246.17 330.6 246.19"/><polygon class="cls-4" points="330.61 246.22 321.85 245.99 321.84 245.96 330.6 246.19 330.61 246.22"/><polygon class="cls-4" points="330.63 246.25 321.87 246.02 321.85 245.99 330.61 246.22 330.63 246.25"/><polygon class="cls-4" points="330.64 246.28 321.88 246.05 321.87 246.02 330.63 246.25 330.64 246.28"/><polygon class="cls-4" points="330.66 246.31 321.9 246.08 321.88 246.05 330.64 246.28 330.66 246.31"/><polygon class="cls-4" points="330.67 246.34 321.91 246.11 321.9 246.08 330.66 246.31 330.67 246.34"/><polygon class="cls-4" points="330.69 246.37 321.93 246.14 321.91 246.11 330.67 246.34 330.69 246.37"/><polygon class="cls-4" points="330.7 246.4 321.94 246.17 321.93 246.14 330.69 246.37 330.7 246.4"/><polygon class="cls-4" points="330.72 246.42 321.96 246.19 321.94 246.17 330.7 246.4 330.72 246.42"/><polygon class="cls-4" points="330.73 246.45 321.97 246.22 321.96 246.19 330.72 246.42 330.73 246.45"/><polygon class="cls-4" points="330.75 246.48 321.99 246.25 321.97 246.22 330.73 246.45 330.75 246.48"/><polygon class="cls-4" points="330.76 246.51 322 246.28 321.99 246.25 330.75 246.48 330.76 246.51"/><polygon class="cls-4" points="330.78 246.54 322.02 246.31 322 246.28 330.76 246.51 330.78 246.54"/><polygon class="cls-4" points="330.79 246.57 322.03 246.34 322.02 246.31 330.78 246.54 330.79 246.57"/><polygon class="cls-4" points="330.81 246.6 322.05 246.37 322.03 246.34 330.79 246.57 330.81 246.6"/><polygon class="cls-4" points="330.82 246.63 322.06 246.4 322.05 246.37 330.81 246.6 330.82 246.63"/><polygon class="cls-4" points="330.84 246.65 322.08 246.42 322.06 246.4 330.82 246.63 330.84 246.65"/><polygon class="cls-4" points="330.85 246.68 322.09 246.45 322.08 246.42 330.84 246.65 330.85 246.68"/><polygon class="cls-4" points="330.87 246.71 322.11 246.48 322.09 246.45 330.85 246.68 330.87 246.71"/><polygon class="cls-4" points="330.88 246.74 322.12 246.51 322.11 246.48 330.87 246.71 330.88 246.74"/><polygon class="cls-4" points="330.9 246.77 322.14 246.54 322.12 246.51 330.88 246.74 330.9 246.77"/><polygon class="cls-4" points="330.91 246.8 322.15 246.57 322.14 246.54 330.9 246.77 330.91 246.8"/><polygon class="cls-4" points="330.93 246.83 322.17 246.6 322.15 246.57 330.91 246.8 330.93 246.83"/><polygon class="cls-4" points="330.94 246.86 322.18 246.63 322.17 246.6 330.93 246.83 330.94 246.86"/><polygon class="cls-4" points="330.96 246.88 322.2 246.65 322.18 246.63 330.94 246.86 330.96 246.88"/><polygon class="cls-4" points="330.97 246.91 322.21 246.68 322.2 246.65 330.96 246.88 330.97 246.91"/><polygon class="cls-4" points="330.99 246.94 322.23 246.71 322.21 246.68 330.97 246.91 330.99 246.94"/><polygon class="cls-4" points="331.01 246.97 322.25 246.74 322.23 246.71 330.99 246.94 331.01 246.97"/><polygon class="cls-4" points="331.02 247 322.26 246.77 322.25 246.74 331.01 246.97 331.02 247"/><polygon class="cls-4" points="331.04 247.03 322.28 246.8 322.26 246.77 331.02 247 331.04 247.03"/><polygon class="cls-4" points="331.05 247.06 322.29 246.83 322.28 246.8 331.04 247.03 331.05 247.06"/><polygon class="cls-4" points="331.07 247.09 322.31 246.86 322.29 246.83 331.05 247.06 331.07 247.09"/><polygon class="cls-4" points="331.08 247.11 322.32 246.88 322.31 246.86 331.07 247.09 331.08 247.11"/><polygon class="cls-4" points="331.1 247.14 322.34 246.91 322.32 246.88 331.08 247.11 331.1 247.14"/><polygon class="cls-4" points="331.11 247.17 322.35 246.94 322.34 246.91 331.1 247.14 331.11 247.17"/><polygon class="cls-4" points="331.13 247.2 322.37 246.97 322.35 246.94 331.11 247.17 331.13 247.2"/><polygon class="cls-4" points="331.14 247.23 322.38 247 322.37 246.97 331.13 247.2 331.14 247.23"/><polygon class="cls-4" points="331.16 247.26 322.4 247.03 322.38 247 331.14 247.23 331.16 247.26"/><polygon class="cls-4" points="331.17 247.29 322.41 247.06 322.4 247.03 331.16 247.26 331.17 247.29"/><polygon class="cls-4" points="331.19 247.32 322.43 247.09 322.41 247.06 331.17 247.29 331.19 247.32"/><polygon class="cls-4" points="331.2 247.34 322.44 247.11 322.43 247.09 331.19 247.32 331.2 247.34"/><polygon class="cls-4" points="331.22 247.37 322.46 247.14 322.44 247.11 331.2 247.34 331.22 247.37"/><polygon class="cls-4" points="331.23 247.4 322.47 247.17 322.46 247.14 331.22 247.37 331.23 247.4"/><polygon class="cls-4" points="331.25 247.43 322.49 247.2 322.47 247.17 331.23 247.4 331.25 247.43"/><polygon class="cls-4" points="331.26 247.46 322.5 247.23 322.49 247.2 331.25 247.43 331.26 247.46"/><polygon class="cls-4" points="331.28 247.49 322.52 247.26 322.5 247.23 331.26 247.46 331.28 247.49"/><polygon class="cls-4" points="331.29 247.52 322.53 247.29 322.52 247.26 331.28 247.49 331.29 247.52"/><polygon class="cls-4" points="331.31 247.55 322.55 247.32 322.53 247.29 331.29 247.52 331.31 247.55"/><polygon class="cls-4" points="331.32 247.57 322.56 247.34 322.55 247.32 331.31 247.55 331.32 247.57"/><polygon class="cls-4" points="331.34 247.6 322.58 247.37 322.56 247.34 331.32 247.57 331.34 247.6"/><polygon class="cls-4" points="331.35 247.63 322.59 247.4 322.58 247.37 331.34 247.6 331.35 247.63"/><polygon class="cls-4" points="331.37 247.66 322.61 247.43 322.59 247.4 331.35 247.63 331.37 247.66"/><polygon class="cls-4" points="331.38 247.69 322.62 247.46 322.61 247.43 331.37 247.66 331.38 247.69"/><polygon class="cls-4" points="331.4 247.72 322.64 247.49 322.62 247.46 331.38 247.69 331.4 247.72"/><polygon class="cls-4" points="331.42 247.75 322.65 247.52 322.64 247.49 331.4 247.72 331.42 247.75"/><polygon class="cls-4" points="331.43 247.78 322.67 247.55 322.65 247.52 331.42 247.75 331.43 247.78"/><polygon class="cls-4" points="331.45 247.8 322.69 247.57 322.67 247.55 331.43 247.78 331.45 247.8"/><polygon class="cls-4" points="322.69 247.57 331.45 247.8 324.44 250.9 322.69 247.57"/></g><path class="cls-4" d="m307.8,238.26c-1.5-2.84-.9-6.39,1.79-8.88,3.46-3.2,9.09-3.42,12.56-.49l15.57,13.12c3.48,2.93,3.48,7.9.02,11.1-3.46,3.2-9.09,3.42-12.56.49l-15.57-13.12c-.78-.65-1.38-1.41-1.81-2.22Z"/><g class="cls-5"><circle class="cls-4" cx="73.82" cy="323.2" r="7.57"/><circle class="cls-4" cx="69.7" cy="298.93" r="7.57"/><circle class="cls-4" cx="65.58" cy="274.66" r="7.57"/><circle class="cls-4" cx="61.46" cy="250.39" r="7.57"/><circle class="cls-4" cx="57.35" cy="226.12" r="7.57"/><circle class="cls-4" cx="53.23" cy="201.85" r="7.57"/><circle class="cls-4" cx="49.11" cy="177.58" r="7.57"/><circle class="cls-4" cx="44.99" cy="153.3" r="7.57"/><circle class="cls-4" cx="40.87" cy="129.03" r="7.57"/><circle class="cls-4" cx="36.75" cy="104.76" r="7.57"/><circle class="cls-4" cx="32.63" cy="80.49" r="7.57"/><circle class="cls-4" cx="28.51" cy="56.22" r="7.57"/><circle class="cls-4" cx="24.39" cy="31.95" r="7.57"/><circle class="cls-4" cx="97.84" cy="319.13" r="7.57"/><circle class="cls-4" cx="93.72" cy="294.86" r="7.57"/><circle class="cls-4" cx="89.6" cy="270.59" r="7.57"/><circle class="cls-4" cx="85.48" cy="246.31" r="7.57"/><circle class="cls-4" cx="81.36" cy="222.04" r="7.57"/><circle class="cls-4" cx="77.25" cy="197.77" r="7.57"/><circle class="cls-4" cx="73.13" cy="173.5" r="7.57"/><circle class="cls-4" cx="69.01" cy="149.23" r="7.57"/><circle class="cls-4" cx="64.89" cy="124.96" r="7.57"/><circle class="cls-4" cx="60.77" cy="100.69" r="7.57"/><circle class="cls-4" cx="56.65" cy="76.42" r="7.57"/><circle class="cls-4" cx="52.53" cy="52.14" r="7.57"/><circle class="cls-4" cx="48.41" cy="27.87" r="7.57"/><circle class="cls-4" cx="121.86" cy="315.05" r="7.57"/><circle class="cls-4" cx="117.74" cy="290.78" r="7.57"/><circle class="cls-4" cx="113.62" cy="266.51" r="7.57"/><circle class="cls-4" cx="109.5" cy="242.24" r="7.57"/><circle class="cls-4" cx="105.38" cy="217.97" r="7.57"/><circle class="cls-4" cx="101.26" cy="193.7" r="7.57"/><circle class="cls-4" cx="97.15" cy="169.42" r="7.57"/><circle class="cls-4" cx="93.03" cy="145.15" r="7.57"/><circle class="cls-4" cx="88.91" cy="120.88" r="7.57"/><circle class="cls-4" cx="84.79" cy="96.61" r="7.57"/><circle class="cls-4" cx="80.67" cy="72.34" r="7.57"/><circle class="cls-4" cx="76.55" cy="48.07" r="7.57"/><circle class="cls-4" cx="72.43" cy="23.8" r="7.57"/><circle class="cls-4" cx="145.88" cy="310.98" r="7.57"/><circle class="cls-4" cx="141.76" cy="286.7" r="7.57"/><circle class="cls-4" cx="137.64" cy="262.43" r="7.57"/><circle class="cls-4" cx="133.52" cy="238.16" r="7.57"/><circle class="cls-4" cx="129.4" cy="213.89" r="7.57"/><circle class="cls-4" cx="125.28" cy="189.62" r="7.57"/><circle class="cls-4" cx="121.16" cy="165.35" r="7.57"/><circle class="cls-4" cx="117.04" cy="141.08" r="7.57"/><circle class="cls-4" cx="112.93" cy="116.81" r="7.57"/><circle class="cls-4" cx="108.81" cy="92.53" r="7.57"/><circle class="cls-4" cx="104.69" cy="68.26" r="7.57"/><circle class="cls-4" cx="100.57" cy="43.99" r="7.57"/><circle class="cls-4" cx="96.45" cy="19.72" r="7.57"/><circle class="cls-4" cx="169.9" cy="306.9" r="7.57"/><circle class="cls-4" cx="165.78" cy="282.63" r="7.57"/><circle class="cls-4" cx="161.66" cy="258.36" r="7.57"/><circle class="cls-4" cx="157.54" cy="234.09" r="7.57"/><circle class="cls-4" cx="153.42" cy="209.81" r="7.57"/><circle class="cls-4" cx="149.3" cy="185.54" r="7.57"/><circle class="cls-4" cx="145.18" cy="161.27" r="7.57"/><circle class="cls-4" cx="141.06" cy="137" r="7.57"/><circle class="cls-4" cx="136.94" cy="112.73" r="7.57"/><circle class="cls-4" cx="132.83" cy="88.46" r="7.57"/><circle class="cls-4" cx="128.71" cy="64.19" r="7.57"/><circle class="cls-4" cx="124.59" cy="39.92" r="7.57"/><circle class="cls-4" cx="120.47" cy="15.64" r="7.57"/><circle class="cls-4" cx="193.91" cy="302.82" r="7.57"/><circle class="cls-4" cx="189.8" cy="278.55" r="7.57"/><circle class="cls-4" cx="185.68" cy="254.28" r="7.57"/><circle class="cls-4" cx="181.56" cy="230.01" r="7.57"/><circle class="cls-4" cx="177.44" cy="205.74" r="7.57"/><circle class="cls-4" cx="173.32" cy="181.47" r="7.57"/><circle class="cls-4" cx="169.2" cy="157.2" r="7.57"/><circle class="cls-4" cx="165.08" cy="132.93" r="7.57"/><circle class="cls-4" cx="160.96" cy="108.65" r="7.57"/><circle class="cls-4" cx="156.84" cy="84.38" r="7.57"/><circle class="cls-4" cx="152.73" cy="60.11" r="7.57"/><circle class="cls-4" cx="148.61" cy="35.84" r="7.57"/><circle class="cls-4" cx="144.49" cy="11.57" r="7.57"/><circle class="cls-4" cx="217.93" cy="298.75" r="7.57"/><circle class="cls-4" cx="213.81" cy="274.48" r="7.57"/><circle class="cls-4" cx="209.69" cy="250.21" r="7.57"/><circle class="cls-4" cx="205.58" cy="225.93" r="7.57"/><circle class="cls-4" cx="201.46" cy="201.66" r="7.57"/><circle class="cls-4" cx="197.34" cy="177.39" r="7.57"/><circle class="cls-4" cx="193.22" cy="153.12" r="7.57"/><circle class="cls-4" cx="189.1" cy="128.85" r="7.57"/><circle class="cls-4" cx="184.98" cy="104.58" r="7.57"/><circle class="cls-4" cx="180.86" cy="80.31" r="7.57"/><circle class="cls-4" cx="176.74" cy="56.04" r="7.57"/><circle class="cls-4" cx="172.62" cy="31.76" r="7.57"/><circle class="cls-4" cx="168.51" cy="7.49" r="7.57"/><circle class="cls-4" cx="241.95" cy="294.67" r="7.57"/><circle class="cls-4" cx="237.83" cy="270.4" r="7.57"/><circle class="cls-4" cx="233.71" cy="246.13" r="7.57"/><circle class="cls-4" cx="229.59" cy="221.86" r="7.57"/><circle class="cls-4" cx="225.48" cy="197.59" r="7.57"/><circle class="cls-4" cx="221.36" cy="173.32" r="7.57"/><circle class="cls-4" cx="217.24" cy="149.04" r="7.57"/><circle class="cls-4" cx="213.12" cy="124.77" r="7.57"/><circle class="cls-4" cx="209" cy="100.5" r="7.57"/><circle class="cls-4" cx="204.88" cy="76.23" r="7.57"/><circle class="cls-4" cx="200.76" cy="51.96" r="7.57"/><circle class="cls-4" cx="196.64" cy="27.69" r="7.57"/><circle class="cls-4" cx="192.52" cy="3.42" r="7.57"/><circle class="cls-4" cx="265.97" cy="290.6" r="7.57"/><circle class="cls-4" cx="261.85" cy="266.32" r="7.57"/><circle class="cls-4" cx="257.73" cy="242.05" r="7.57"/><circle class="cls-4" cx="253.61" cy="217.78" r="7.57"/><circle class="cls-4" cx="249.49" cy="193.51" r="7.57"/><circle class="cls-4" cx="245.38" cy="169.24" r="7.57"/><circle class="cls-4" cx="241.26" cy="144.97" r="7.57"/><circle class="cls-4" cx="237.14" cy="120.7" r="7.57"/><circle class="cls-4" cx="233.02" cy="96.43" r="7.57"/><circle class="cls-4" cx="228.9" cy="72.15" r="7.57"/><circle class="cls-4" cx="224.78" cy="47.88" r="7.57"/><circle class="cls-4" cx="220.66" cy="23.61" r="7.57"/><circle class="cls-4" cx="216.54" cy="-.66" r="7.57"/><circle class="cls-4" cx="289.99" cy="286.52" r="7.57"/><circle class="cls-4" cx="285.87" cy="262.25" r="7.57"/><circle class="cls-4" cx="281.75" cy="237.98" r="7.57"/><circle class="cls-4" cx="277.63" cy="213.71" r="7.57"/><circle class="cls-4" cx="273.51" cy="189.44" r="7.57"/><circle class="cls-4" cx="269.39" cy="165.16" r="7.57"/><circle class="cls-4" cx="265.27" cy="140.89" r="7.57"/><circle class="cls-4" cx="261.16" cy="116.62" r="7.57"/><circle class="cls-4" cx="257.04" cy="92.35" r="7.57"/><circle class="cls-4" cx="252.92" cy="68.08" r="7.57"/><circle class="cls-4" cx="248.8" cy="43.81" r="7.57"/><circle class="cls-4" cx="244.68" cy="19.54" r="7.57"/><circle class="cls-4" cx="240.56" cy="-4.74" r="7.57"/><circle class="cls-4" cx="314.01" cy="282.44" r="7.57"/><circle class="cls-4" cx="309.89" cy="258.17" r="7.57"/><circle class="cls-4" cx="305.77" cy="233.9" r="7.57"/><circle class="cls-4" cx="301.65" cy="209.63" r="7.57"/><circle class="cls-4" cx="297.53" cy="185.36" r="7.57"/><circle class="cls-4" cx="293.41" cy="161.09" r="7.57"/><circle class="cls-4" cx="289.29" cy="136.82" r="7.57"/><circle class="cls-4" cx="285.17" cy="112.55" r="7.57"/><circle class="cls-4" cx="281.06" cy="88.27" r="7.57"/><circle class="cls-4" cx="276.94" cy="64" r="7.57"/><circle class="cls-4" cx="272.82" cy="39.73" r="7.57"/><circle class="cls-4" cx="268.7" cy="15.46" r="7.57"/><circle class="cls-4" cx="338.02" cy="278.37" r="7.57"/><circle class="cls-4" cx="333.91" cy="254.1" r="7.57"/><circle class="cls-4" cx="329.79" cy="229.83" r="7.57"/><circle class="cls-4" cx="325.67" cy="205.55" r="7.57"/><circle class="cls-4" cx="321.55" cy="181.28" r="7.57"/><circle class="cls-4" cx="317.43" cy="157.01" r="7.57"/><circle class="cls-4" cx="313.31" cy="132.74" r="7.57"/><circle class="cls-4" cx="309.19" cy="108.47" r="7.57"/><circle class="cls-4" cx="305.07" cy="84.2" r="7.57"/><circle class="cls-4" cx="300.95" cy="59.93" r="7.57"/><circle class="cls-4" cx="296.84" cy="35.66" r="7.57"/><circle class="cls-4" cx="292.72" cy="11.38" r="7.57"/></g><polyline class="cls-2" points="97.16 393.93 83.5 383.49 70.85 395.13 57.2 384.69 44.54 396.33 30.88 385.89 18.23 397.52 4.56 387.09"/><polyline class="cls-2" points="96.52 379.63 82.86 369.19 70.21 380.83 56.55 370.39 43.9 382.03 30.24 371.59 17.58 383.23 3.92 372.79"/><polyline class="cls-2" points="95.88 365.33 82.22 354.89 69.57 366.53 55.91 356.09 43.26 367.73 29.6 357.29 16.94 368.93 3.28 358.49"/><polyline class="cls-2" points="95.24 351.03 81.58 340.59 68.93 352.23 55.27 341.79 42.62 353.43 28.96 342.99 16.3 354.63 2.64 344.19"/><polyline class="cls-2" points="94.6 336.74 80.94 326.3 68.29 337.93 54.63 327.49 41.98 339.13 28.32 328.69 15.66 340.33 2 329.89"/></g></g></svg>