<?xml version="1.0" encoding="UTF-8"?><svg id="Camada_2" xmlns="http://www.w3.org/2000/svg" viewBox="0 0 458.07 578.87"><defs><style>.cls-1{fill:#00a7b3;}.cls-2{opacity:.3;}</style></defs><g id="Camada_1-2"><g class="cls-2"><path class="cls-1" d="m227.38,371.65c-4.29-4.47-7.27-9.94-9.46-15.6-.6,7.23,3.8,15.39,9.15,20.24,2.8,2.54,6.94,4.88,10.43,3.64,2.14-.76,3.32-2.83,3.38-5.25-3.42,4.68-9.67.96-13.5-3.02Z"/><path class="cls-1" d="m241.66,238.76c-28.57-15.38-55.93-17.05-77.06-4.68-25.2,14.76-39.46,42.05-40.03,74.49-.14,8.04.3,16.28,1.34,24.64-6.64,9.31-14.71,19.24-24.09,28.3-3.73,1.18-7.31,2.76-10.67,4.73-1.08.63-2.16,1.33-3.42,2.2l-59.74,37.35C-.06,422.21-8.44,460.26,9.32,490.59c17.76,30.33,55.03,41.65,82.95,25.3l6.14-3.28,57.49,60.3c5.25,6.35,15.22,7.87,22.78,3.44.07-.04.13-.08.19-.12l15.26-10.21c1.67-1.12,2.96-2.64,3.8-4.38.31-.42.58-.87.83-1.34,5.7-10.9,5.96-12.21,6.1-12.91.9-4.5-1.01-9-4.86-11.46l-14.97-9.59c-6.56-4.2-12.37-9.39-17.28-15.43l-20.05-24.65,5.78-3.09c1.8-.82,3.3-1.58,4.69-2.4,3.36-1.96,6.48-4.33,9.34-7.03,13.76-3.5,27.83-4.91,40.51-5.22,4.89,3.35,9.86,6.38,14.89,9.08,30.89,16.53,56.74,18.23,85.16,1.6,21.13-12.37,33.07-37.05,33.64-69.49.55-31.12-9.52-65.98-28.36-98.15-18.83-32.17-44.3-58.02-71.71-72.78Zm-57.59,170.43l31.26-23.05-35.48,16.01,17.54-13.97-21.87,8.01c-.19-.32-.38-.64-.58-.96l12.21-9.77-15.46,4.15c-.22-.39-.43-.77-.64-1.16l9.74-7.94-12.64,2.48c-.22-.43-.44-.86-.66-1.29l8.77-7.04-11.34,1.78c-.22-.47-.43-.94-.65-1.41l8.3-6.66-10.53,1.65c-.19-.45-.39-.9-.58-1.36l45.81-17.86c-1.46,7.01.24,15.99,5.23,24.53,2.69,4.59,5.95,8.41,9.46,11.3l-37.29,23.38c-.2-.27-.4-.55-.59-.82Zm56.22-24.83c-4.83,2.83-14.73-1.76-21.23-12.87-6.5-11.1-5.65-21.99-.82-24.81,4.83-2.83,14.73,1.76,21.23,12.87,6.5,11.1,5.65,21.99.82,24.81Zm-81.67-70.78c-2.62,3.91-5.28,7.8-8.14,11.54,4.04-9.49,8.97-18.63,13.92-27.69,6.51-11.91,13.57-23.6,21.14-34.89,2.62-3.91,5.28-7.8,8.15-11.54-4.04,9.49-8.97,18.63-13.92,27.69-6.5,11.91-13.58,23.59-21.15,34.89Zm-8.52-10.65c1.88-7.85,5.09-15.48,8.47-22.79,3.37-7.31,7.13-14.7,11.92-21.19-1.87,7.86-5.09,15.48-8.47,22.79-3.38,7.3-7.14,14.69-11.92,21.19Zm71.82,145.61l23.71,1.3-32.94-10.35,54.86-.94-62.46-8.71,48.41-7.52-45.02-1.81,37.17-30.52c.2-.16.37-.34.53-.54,7.42-6.45,7.54-20.61-.15-33.74-1.76-3-3.76-5.67-5.92-7.97l39.32-33.47-48.48,26.42c-1.91-.98-3.84-1.68-5.74-2.08l47.46-42.52c-2.51-3.34-5.11-6.61-7.8-9.8l-46,44.02,40.08-50.72c-7.54-8.15-15.79-15.66-24.92-22.35-.16-.12-.32-.23-.48-.34l-42.16,49.56,37.5-52.7c-3.89-2.47-7.94-4.68-12.03-6.83,28.63,8.62,59.85,35.14,82.06,73.07,34.41,58.79,34.34,123.05-.17,143.25-20.9,12.24-49.71,5.54-76.83-14.7Zm-60.2,119.45c-.07-.08-.13-.16-.21-.23l-56.14-58.88,1.72-.92,12.73,9.74-7.07-12.77,2.26-1.21,12.43,9.51-6.9-12.47,2.39-1.28,12.13,9.29-6.74-12.17,1.72-.92,26.47,32.55c4.95,6.08,10.8,11.31,17.4,15.54l15.92,10.2c.99.63,1.56,1.67,1.57,2.84.01,1.17-.54,2.22-1.51,2.88l-15.15,10.14c-3.83,2.18-9.95,1.97-13.03-1.84Zm-16.69-77.65c6.14,6.68,11.95,13.68,17.75,20.65,3.97,4.77,7.99,9.36,12.73,13.4,4.51,3.84,9.48,6.98,14.39,10.26,4.6,3.07,10.38,5.91,11.03,12.04-1.9-5.02-6.46-7.07-10.79-9.68-5.03-3.03-10.12-6.07-14.7-9.76-9.25-7.46-16.26-17.51-23.29-27-2.42-3.27-4.82-6.56-7.13-9.91Zm-96.67-45.48c-2.59-11.87-2.54-23.85,1.56-35.41-1.18,1.84-2.28,3.74-3.22,5.77-5,10.7-6.21,22.03-4.95,33.67-2.59-11.87-2.54-23.85,1.56-35.41-1.18,1.84-2.28,3.74-3.22,5.77-5,10.7-6.21,22.04-4.95,33.67-2.59-11.87-2.54-23.85,1.56-35.41-1.18,1.84-2.28,3.74-3.22,5.77-5,10.7-6.21,22.03-4.95,33.67-2.59-11.87-2.54-23.85,1.56-35.41-1.18,1.84-2.28,3.74-3.23,5.77-5,10.7-6.21,22.04-4.95,33.67-2.59-11.87-2.54-23.85,1.56-35.41-1.18,1.84-2.28,3.74-3.23,5.77-5,10.7-6.2,22.03-4.95,33.67-2.6-11.88-2.54-23.86,1.56-35.43.96-2.7,2.13-5.26,3.45-7.71,3.28-3.72,7.17-6.97,11.63-9.59l47.1-29.45c-2.66,3.33-10.89,16.82-12.5,20.26-5,10.7-6.21,22.04-4.95,33.67-2.6-11.87-2.54-23.85,1.56-35.41-1.18,1.84-2.28,3.74-3.22,5.77-5,10.7-6.21,22.03-4.95,33.67-2.6-11.87-2.54-23.85,1.56-35.41-1.18,1.84-2.28,3.74-3.22,5.77-5,10.7-6.21,22.04-4.95,33.67Zm128.31,5.61c2.53,1.81,5.15,3.42,7.85,4.87-5.18-1.27-10.22-3.07-15.11-5.56-9.06-4.61-16.81-11.02-23.72-18.42,6.29,8.69,13.64,16.27,22.59,22.25,2.35,1.57,4.77,2.96,7.26,4.21-5.02-1.04-9.92-2.62-14.71-4.85-9.11-4.24-16.9-10.43-23.81-17.64,6.35,8.54,13.83,15.94,22.94,21.52,2.19,1.34,4.42,2.54,6.7,3.6-4.46-.75-8.84-1.95-13.15-3.7-9.66-3.92-17.9-10.06-25.16-17.45,6.51,8.53,14.24,15.84,23.67,21.06,1.91,1.06,3.85,2,5.82,2.85-4.46-.57-8.86-1.63-13.2-3.28-9.58-3.65-17.74-9.48-24.96-16.67,6.63,8.49,14.58,15.73,24.28,20.58,1.63.81,3.27,1.55,4.93,2.21-4.31-.4-8.58-1.29-12.81-2.76-9.64-3.34-17.82-8.99-25.08-16.06,6.84,8.55,15.09,15.76,25.17,20.25,1.23.55,2.46,1.05,3.69,1.51-4.01-.25-8.01-.95-12-2.16-9.84-3-18.17-8.57-25.54-15.62,6.79,8.31,14.92,15.19,24.87,19.42,1.23.52,2.47,1,3.72,1.43-3.92-.13-7.84-.71-11.76-1.83-9.83-2.79-18.11-8.11-25.51-15.06,6.87,8.24,14.93,14.63,24.87,18.78,1.54.64,3.1,1.19,4.67,1.67-16.23-1.82-31.64-11.81-40.88-27.58-11.89-20.31-10.18-45.45,3.66-61.61,16.86-10.92,31.01-25.81,42.08-40.12,3.97,19.89,11.42,40.18,22.87,59.73,9.93,16.97,21.79,31.86,34.81,44.29-2.73-1.1-5.41-2.36-8.04-3.83-8.89-4.97-16.49-11.59-23.32-19.11,6.23,8.85,13.47,16.77,22.31,23.08Zm5.9-22.1c-13.06-15.4-23.64-32.72-31.63-51.24-9.55-22.13-15.12-46.84-13.65-71.02,1.37-22.46,9.46-45.87,28.72-59.05,1.47-1,3.03-1.86,4.56-2.76-7.89,5.52-14.43,12.22-19.12,20.69-5.49,9.91-8.39,21.13-9.53,32.36-2.38,23.52,2.43,47.41,10.77,69.36,6.89,18.13,16.5,35.29,28.2,50.75,14.25,18.84,32.09,35.8,53.14,46.82,19.49,10.19,42.44,15.35,63.49,6.84,1.56-.63,3.06-1.41,4.58-2.14-8.83,5.18-18.17,8.17-28.45,8.56-11.54.43-22.95-2.07-33.65-6.26-22.41-8.77-41.97-24.67-57.43-42.9Zm152.61-48.25c1.52,8.92,2.49,17.97,2.22,27.03-.24,7.85-1.32,15.4-3.12,23.04,2.88-14.7,2.92-29.29.65-44.1-2.48-16.21-7.5-32.11-14.04-47.13-13.41-30.81-33.65-59.36-59.63-80.8-12.87-10.62-27.22-18.65-43.2-23.45,14.33,3.73,27.36,10.12,39.29,18.9,13.48,9.92,25.1,21.75,35.52,34.8,10.71,13.4,19.73,28.3,26.91,43.87,7.03,15.25,12.56,31.26,15.39,47.84Z"/><path class="cls-1" d="m222.28,214.6c4.24-4.91,8.16-10.12,11.97-15.37,10.3-14.19,19.44-29.12,28.43-44.15-6.21.27-12.42.54-18.62.91,8.14-15.25,15.91-30.86,21.97-47.06-5.38,6.49-10.35,13.32-15.17,20.23-8.47,12.16-16.26,24.73-24.06,37.31,6.06-.15,12.11-.32,18.16-.57-.78,1.43-1.58,2.85-2.34,4.29-7.62,14.31-14.96,29.08-20.34,44.4Z"/><path class="cls-1" d="m309.97,300.26c5.53-1.51,10.96-3.41,16.33-5.39,14.04-5.17,27.61-11.41,41.13-17.79-4.57-2.79-9.14-5.57-13.76-8.29,13.14-7,26.19-14.43,38.3-23.11-6.96,2.06-13.8,4.56-20.56,7.19-11.89,4.63-23.5,9.88-35.12,15.14,4.41,2.8,8.81,5.59,13.26,8.31-1.24.65-2.5,1.28-3.73,1.94-12.32,6.58-24.66,13.61-35.85,21.99Z"/><path class="cls-1" d="m303.22,210.56c7.13-8.62,14.09-17.51,20.02-26.99-4.25,3.42-8.29,7.11-12.24,10.86-6.94,6.61-13.51,13.57-20.09,20.54,3.86.69,7.71,1.36,11.57,1.99-3.08,3.68-6.1,7.41-9.02,11.22-4.12,5.38-8.17,10.89-11.65,16.72,3.41-2.63,6.64-5.5,9.81-8.41,8.28-7.6,15.93-15.81,23.51-24.1-3.97-.63-7.95-1.26-11.93-1.84Z"/><path class="cls-1" d="m398.77,348.86c-2.73-2.96-5.45-5.91-8.23-8.83,10.94-2.34,21.9-5.02,32.44-8.78-5.45.05-10.91.44-16.34.95-9.55.89-19.02,2.28-28.5,3.68,2.6,2.93,5.21,5.85,7.85,8.73-4.7.98-9.38,2.04-14.03,3.22-6.57,1.67-13.16,3.49-19.5,5.91,4.31.05,8.62-.2,12.91-.52,11.21-.84,22.3-2.54,33.38-4.35Z"/><path class="cls-1" d="m457.36,443.79c-6.45-3.79-13.15-7.18-19.89-10.42-11.86-5.69-23.99-10.74-36.13-15.78.99,5.28,2,10.55,3.08,15.81-6.22-2.17-12.47-4.22-18.78-6.11-8.91-2.67-17.95-5.18-27.12-6.81,5.03,3.1,10.29,5.85,15.56,8.5,13.78,6.93,28.03,12.75,42.36,18.44-1.12-5.41-2.24-10.81-3.45-16.19,14.52,4.96,29.32,9.55,44.37,12.56Z"/></g><g class="cls-2"><path class="cls-1" d="m340.51,23.37c-14.51,0-26.32,11.81-26.32,26.32s11.81,26.32,26.32,26.32,26.32-11.81,26.32-26.32-11.81-26.32-26.32-26.32Zm13.98,29.83l-19.16,11.37c-2.09,1.24-4.73-.27-4.73-2.7v-22.73c0-2.43,2.64-3.93,4.73-2.7l19.16,11.37c2.05,1.21,2.05,4.18,0,5.39Z"/><path class="cls-1" d="m385.01,4.38L301.07.02c-6.86-.36-12.33,4.99-12.13,11.9l2.17,77.2c.18,6.31,5.64,11.13,12.11,10.81l79.72-3.94c5.4-.27,9.87-5.06,10.03-10.74l1.94-69.16c.17-6.16-4.22-11.42-9.89-11.71Zm-44.5,76.93c-17.44,0-31.62-14.18-31.62-31.62s14.18-31.62,31.62-31.62,31.62,14.18,31.62,31.62-14.18,31.62-31.62,31.62Z"/></g><g class="cls-2"><path class="cls-1" d="m452.75,185.01l-45.14-2.35c-3.69-.19-6.63,2.68-6.52,6.4l1.17,41.52c.1,3.39,3.03,5.98,6.51,5.81l42.87-2.12c2.91-.14,5.31-2.72,5.39-5.77l1.05-37.19c.09-3.31-2.27-6.14-5.32-6.3Zm-1.71,27.68c0,2.93-1.26,6.07-4.24,6.14l-4.77,5.58c-.28.33-.72.52-1.16.52-.53,0-.97-.27-1.22-.45-.53-.18-1.61-.58-1.61-1.66v-2.62c0-.76-.41-2.84-1.17-2.84h-21.95c-2.93,0-6.88-1.74-6.88-4.67v-17.75c0-3.05,3.93-5.58,6.88-5.58h31.91c2.9,0,4.2,2.68,4.2,5.58v17.75Z"/><path class="cls-1" d="m446.84,193.36h-31.91c-1.37,0-3.88.33-3.88,2.31v17.02c0,1.36,2.52,2.67,3.88,2.67h24.79c.76,0,.33,1.25.33,2v3.86l5.6-5.86h1.19c1.11,0,1.2-1.3,1.2-2.67v-17.75c0-1.35.15-1.58-1.2-1.58Zm-2.8,18h-29c-.55,0-1-.45-1-1s.45-1,1-1h29c.55,0,1,.45,1,1s-.45,1-1,1Zm0-7h-29c-.55,0-1-.45-1-1s.45-1,1-1h29c.55,0,1,.45,1,1s-.45,1-1,1Zm0-5h-29c-.55,0-1-.45-1-1s.45-1,1-1h29c.55,0,1,.45,1,1s-.45,1-1,1Z"/></g></g></svg>