<?xml version="1.0" encoding="UTF-8"?><svg id="Camada_2" xmlns="http://www.w3.org/2000/svg" xmlns:xlink="http://www.w3.org/1999/xlink" viewBox="0 0 254.07 765.65"><defs><style>.cls-1{fill:url(#linear-gradient);}.cls-2{fill:#00a7b3;}.cls-3{fill:#008086;}.cls-4{fill:#fff;}.cls-5{fill:#ff9200;}.cls-6{fill:url(#linear-gradient-2);}.cls-7{opacity:.3;}.cls-8{opacity:.4;}</style><linearGradient id="linear-gradient" x1="107.1" y1="647.99" x2="39.04" y2="706.12" gradientUnits="userSpaceOnUse"><stop offset="0" stop-color="#f9b776"/><stop offset="1" stop-color="#f47960"/></linearGradient><linearGradient id="linear-gradient-2" x1="148.05" y1="651.12" x2="186.33" y2="689.41" xlink:href="#linear-gradient"/></defs><g id="Camada_1-2"><g class="cls-7"><path class="cls-2" d="m232.6,187.61l-36.74,5.29c-3.79.55-6.6,3.79-6.6,7.62v42.41c0,4.57,3.96,8.13,8.5,7.65l36.74-3.87c3.92-.41,6.89-3.72,6.89-7.65v-43.83c0-4.69-4.15-8.29-8.79-7.62Zm-27.82,51.21c-3,0-5.45-2.44-5.45-5.45s2.44-5.45,5.45-5.45,5.45,2.44,5.45,5.45-2.44,5.45-5.45,5.45Zm14.82-4.38c-.03.37-.3.68-.67.73l-1.69.25c-.52.08-.95-.36-.9-.88.04-.39.06-.78.06-1.18,0-6.41-5.21-11.62-11.62-11.62-.46,0-.92.03-1.37.09-.42.05-.8-.23-.87-.65l-.28-1.64c-.08-.45.24-.86.69-.92.6-.08,1.21-.12,1.83-.12,8.2,0,14.86,6.67,14.86,14.86,0,.36-.01.72-.04,1.07Zm7.73-.52l-1.66.25c-.48.07-.9-.3-.9-.78h0c0-11.04-8.97-20.01-20-20.01-.94,0-1.86.07-2.77.2-.42.06-.81-.23-.88-.65l-.28-1.64c-.07-.43.22-.85.65-.91,1.07-.15,2.16-.24,3.27-.24,12.73,0,23.11,10.29,23.24,23-.26.3-.43.49-.69.79Zm8.34-1.25l-1.65.25c-.47.07-.89-.29-.91-.76-.64-15.09-13.1-27.16-28.34-27.16-1.41,0-2.8.11-4.15.31-.43.06-.83-.22-.9-.65l-.28-1.64c-.07-.43.22-.85.65-.92,1.53-.23,3.09-.35,4.68-.35,16.93,0,30.78,13.37,31.57,30.1.02.4-.28.76-.68.82Z"/><path class="cls-2" d="m204.78,230.08c-1.81,0-3.29,1.47-3.29,3.29s1.47,3.29,3.29,3.29,3.29-1.47,3.29-3.29-1.47-3.29-3.29-3.29Z"/></g><g class="cls-7"><path class="cls-5" d="m49.7,481.5s80.82-12.76,144.62,4.25l-4.25,65.93s-17.01,91.45-29.77,131.86c0,0-48.92,8.51-72.31-4.25,0,0-19.14-114.85-29.78-131.86,0,0-10.63-44.66-8.51-65.93Z"/><path class="cls-2" d="m105.84,423.38l-8.05,54.45s22.49,10.33,38.24-.44l-3.39-38.42-26.8-15.58Z"/><path class="cls-5" d="m49.7,481.5s-125.48,136.12,22.33,188.22v-10.63s-55.3-46.79-12.76-110.59c0,0-5.32-60.61-9.57-66.99Z"/><path class="cls-1" d="m73.09,660.15s19.14-12.76,27.65-8.51c8.51,4.25,8.51,10.63,8.51,10.63,0,0-4.25,8.51-10.63,6.38-6.38-2.13-21.27,2.13-27.65,0,0,0-2.13-8.51,2.13-8.51Z"/><path class="cls-5" d="m194.32,485.75s130.8,131.86-17.01,183.97v-10.63s55.3-46.79,12.76-110.59c0,0-4.25-52.11,4.25-62.74Z"/><path class="cls-6" d="m176.24,660.15s-19.14-12.76-27.65-8.51c-8.51,4.25-8.51,10.63-8.51,10.63,0,0,4.25,8.51,10.63,6.38,6.38-2.13,21.27,2.13,27.65,0,0,0,2.13-8.51-2.13-8.51Z"/><path class="cls-2" d="m129.36,383.37c.54.51,22.96,44.53,22.96,44.53l-25.4,12.26-27.44-38.56s20.78-26.8,29.89-18.23Z"/><path class="cls-5" d="m110.71,402.67c-.45,1.17-.34,2.48.3,3.56l12.67,21.12c.19.32.42.61.7.86,1.51,1.4,6.67,5.49,10.66-.07,3.4-4.74,6.59-9.05,10.01-10.82,2-1.04,4.45-.21,5.47,1.8,2.09,4.14,6.13,12.57,8.67,20.57.64,2-.4,4.16-2.35,4.95-5.14,2.08-15.31,5.85-24.33,7.1-1.48.2-2.95-.42-3.83-1.63-3.88-5.32-14.82-20.18-18.56-23.9-3.47-3.46-9.87-2.15-12.76-1.32-1.1.31-2.26.16-3.24-.42-2.93-1.76-8.03-6.15-3.36-13.59,1.16-1.85.57-4.31-1.25-5.51-3.27-2.15-6.81-6.18-3.44-12.72,3.42-6.61,9.53-7.21,13.69-6.7,1.84.22,3.71-.74,4.41-2.45.31-.76.94-1.41,2.09-1.65,2.18-.44,3.61-2.44,3.18-4.62-.73-3.74-.18-8.61,5.8-11.89,10.96-6.03,20.56,3.79,23,12.08,2.44,8.29-9.81,14.15-17.52,15.13-5.66.72-8.77,6.9-10.02,10.13Z"/><path class="cls-2" d="m114.88,433.96s-4.87-14.26-11.11-13.74c-6.24.52-11.15,6.74-3.42,13.73,9.62,8.69,14.53.01,14.53.01Z"/><polygon class="cls-2" points="0 547.21 125.89 594.84 128.1 765.65 21.63 731.57 0 547.21"/><polygon class="cls-2" points="254.07 547.21 125.89 594.84 125.97 765.65 232.44 731.57 254.07 547.21"/><g class="cls-8"><polygon class="cls-4" points="133.28 603.8 247.78 560.99 242.22 595.75 133.28 627.78 133.28 603.8"/><polygon class="cls-4" points="135.44 640.56 172.08 627.78 166.65 739.1 137.88 749.96 135.44 640.56"/><polygon class="cls-4" points="180.12 627.78 237.79 607.67 226.38 695.33 177.31 705.35 180.12 627.78"/><polygon class="cls-4" points="176.72 715.75 224.51 705.35 224.51 722.26 176.72 735.66 176.72 715.75"/></g><g class="cls-8"><polygon class="cls-4" points="113.74 603.8 11.51 564.43 13.39 583.98 113.74 615.84 113.74 603.8"/><polygon class="cls-4" points="113.44 631.58 15.16 603.8 28.19 724.44 116.91 749.96 113.44 631.58"/></g><path class="cls-3" d="m12.99,643.26c-.54-1.24-10.75-19.23-3.35-25.81,7.4-6.58,10.92.74,10.41,8.66-.51,7.92-2.94,26.55-7.06,17.15Z"/><path class="cls-3" d="m242.12,643.26c.54-1.24,10.75-19.23,3.35-25.81-7.4-6.58-10.92.74-10.41,8.66.51,7.92,2.94,26.55,7.06,17.15Z"/></g><g class="cls-7"><path class="cls-5" d="m99.48,33.77l28.04,11.58,7.57-8.49c.14-.27.31-.52.55-.74.1-.09.21-.17.32-.24l11.72-13.15-48.2,11.05Z"/><path class="cls-5" d="m156.9,63.02c-2.39-2.58-5.56-6.02-8.74-9.47-4.16-4.51-8.3-9.01-10.67-11.59l-7.32,8.21c-.37.41-.85.69-1.36.8s-1.06.08-1.57-.13l-10.31-4.26c-1.01,3.33-2.79,9.24-4.59,15.17-1.36,4.48-2.72,8.96-3.74,12.33-.31,1.01-.57,1.86-.8,2.6l50.95-11.68c-.53-.56-1.13-1.21-1.85-1.99Z"/><path class="cls-5" d="m95.92,37.93l7.84,34.2c2.09-6.85,5.56-18.33,8.34-27.52l-16.18-6.68Z"/><path class="cls-5" d="m140.97,38.07c6.59,7.15,14.81,16.08,19.63,21.29l-7.9-34.46-11.74,13.17Z"/><path class="cls-5" d="m157.93.13l-75.54,13.23c-6.17,1.08-9.94,6.95-8.36,13.05l17.66,68.21c1.44,5.57,7.28,8.75,12.98,7.14l70.08-19.75c4.75-1.34,7.74-6.51,6.73-11.59l-12.37-61.89c-1.1-5.51-6.08-9.29-11.18-8.4Zm8.37,60.8c.92,4.03-1.6,8.05-5.63,8.97l-52.33,11.99c-4.03.92-8.05-1.6-8.97-5.63l-8.74-38.13c-.92-4.03,1.6-8.05,5.63-8.97l52.33-11.99c4.03-.92,8.05,1.6,8.97,5.63l8.74,38.13Z"/></g></g></svg>