<?xml version="1.0" encoding="UTF-8"?><svg id="Camada_2" xmlns="http://www.w3.org/2000/svg" xmlns:xlink="http://www.w3.org/1999/xlink" viewBox="0 0 847.18 1059"><defs><style>.cls-1,.cls-2{fill:none;}.cls-3{clip-path:url(#clippath);}.cls-4{fill:#fff;}.cls-2{stroke:#fff;stroke-miterlimit:10;stroke-width:12.84px;}.cls-5{clip-path:url(#clippath-1);}.cls-6{opacity:.3;}</style><clipPath id="clippath"><rect class="cls-1" x="327.18" width="520" height="1059" transform="translate(1174.37 1059) rotate(180)"/></clipPath><clipPath id="clippath-1"><line class="cls-4" x1="628.27" y1="131.21" x2="663.16" y2="101.66"/></clipPath></defs><g id="Camada_2-2"><g class="cls-3"><g class="cls-6"><line class="cls-4" x1="51.33" y1="535.58" x2="602.16" y2="64.76"/><path class="cls-4" d="m56.22,554.8c-6.81,2.24-14.43-.37-18.94-7.21-5.82-8.84-4.26-21.38,3.5-28.01L591.62,48.76c7.76-6.63,18.77-4.85,24.6,3.99,5.82,8.84,4.26,21.38-3.5,28.01L61.88,551.58c-1.75,1.5-3.67,2.57-5.66,3.22Z"/><line class="cls-4" x1="24.55" y1="646.66" x2="575.38" y2="175.84"/><path class="cls-4" d="m29.44,665.88c-6.81,2.24-14.43-.37-18.94-7.21-5.82-8.84-4.26-21.38,3.5-28.01L564.83,159.84c7.76-6.63,18.77-4.85,24.6,3.99,5.82,8.84,4.26,21.38-3.5,28.01L35.1,662.66c-1.75,1.5-3.67,2.57-5.66,3.22Z"/><line class="cls-4" x1="628.27" y1="131.21" x2="663.16" y2="101.66"/><g class="cls-5"><polygon class="cls-4" points="648.74 106.41 644.95 125.72 628.27 131.21 624.04 114.55 648.74 106.41"/><polygon class="cls-4" points="648.81 106.39 645.02 125.69 644.95 125.72 648.74 106.41 648.81 106.39"/><polygon class="cls-4" points="648.88 106.36 645.09 125.67 645.02 125.69 648.81 106.39 648.88 106.36"/><polygon class="cls-4" points="648.95 106.34 645.16 125.65 645.09 125.67 648.88 106.36 648.95 106.34"/><polygon class="cls-4" points="649.02 106.32 645.22 125.63 645.16 125.65 648.95 106.34 649.02 106.32"/><polygon class="cls-4" points="649.08 106.29 645.29 125.6 645.22 125.63 649.02 106.32 649.08 106.29"/><polygon class="cls-4" points="649.15 106.27 645.36 125.58 645.29 125.6 649.08 106.29 649.15 106.27"/><polygon class="cls-4" points="649.22 106.25 645.43 125.56 645.36 125.58 649.15 106.27 649.22 106.25"/><polygon class="cls-4" points="649.29 106.23 645.5 125.53 645.43 125.56 649.22 106.25 649.29 106.23"/><polygon class="cls-4" points="649.36 106.2 645.57 125.51 645.5 125.53 649.29 106.23 649.36 106.2"/><polygon class="cls-4" points="649.43 106.18 645.64 125.49 645.57 125.51 649.36 106.2 649.43 106.18"/><polygon class="cls-4" points="649.5 106.16 645.71 125.47 645.64 125.49 649.43 106.18 649.5 106.16"/><polygon class="cls-4" points="649.57 106.13 645.78 125.44 645.71 125.47 649.5 106.16 649.57 106.13"/><polygon class="cls-4" points="649.64 106.11 645.85 125.42 645.78 125.44 649.57 106.13 649.64 106.11"/><polygon class="cls-4" points="649.71 106.09 645.92 125.4 645.85 125.42 649.64 106.11 649.71 106.09"/><polygon class="cls-4" points="649.78 106.07 645.99 125.37 645.92 125.4 649.71 106.09 649.78 106.07"/><polygon class="cls-4" points="649.85 106.04 646.06 125.35 645.99 125.37 649.78 106.07 649.85 106.04"/><polygon class="cls-4" points="649.92 106.02 646.13 125.33 646.06 125.35 649.85 106.04 649.92 106.02"/><polygon class="cls-4" points="649.99 106 646.2 125.31 646.13 125.33 649.92 106.02 649.99 106"/><polygon class="cls-4" points="650.06 105.97 646.26 125.28 646.2 125.31 649.99 106 650.06 105.97"/><polygon class="cls-4" points="650.12 105.95 646.33 125.26 646.26 125.28 650.06 105.97 650.12 105.95"/><polygon class="cls-4" points="650.19 105.93 646.4 125.24 646.33 125.26 650.12 105.95 650.19 105.93"/><polygon class="cls-4" points="650.26 105.91 646.47 125.21 646.4 125.24 650.19 105.93 650.26 105.91"/><polygon class="cls-4" points="650.33 105.88 646.54 125.19 646.47 125.21 650.26 105.91 650.33 105.88"/><polygon class="cls-4" points="650.4 105.86 646.61 125.17 646.54 125.19 650.33 105.88 650.4 105.86"/><polygon class="cls-4" points="650.47 105.84 646.68 125.15 646.61 125.17 650.4 105.86 650.47 105.84"/><polygon class="cls-4" points="650.54 105.81 646.75 125.12 646.68 125.15 650.47 105.84 650.54 105.81"/><polygon class="cls-4" points="650.61 105.79 646.82 125.1 646.75 125.12 650.54 105.81 650.61 105.79"/><polygon class="cls-4" points="650.68 105.77 646.89 125.08 646.82 125.1 650.61 105.79 650.68 105.77"/><polygon class="cls-4" points="650.75 105.75 646.96 125.05 646.89 125.08 650.68 105.77 650.75 105.75"/><polygon class="cls-4" points="650.82 105.72 647.03 125.03 646.96 125.05 650.75 105.75 650.82 105.72"/><polygon class="cls-4" points="650.89 105.7 647.1 125.01 647.03 125.03 650.82 105.72 650.89 105.7"/><polygon class="cls-4" points="650.96 105.68 647.17 124.99 647.1 125.01 650.89 105.7 650.96 105.68"/><polygon class="cls-4" points="651.03 105.65 647.24 124.96 647.17 124.99 650.96 105.68 651.03 105.65"/><polygon class="cls-4" points="651.1 105.63 647.3 124.94 647.24 124.96 651.03 105.65 651.1 105.63"/><polygon class="cls-4" points="651.16 105.61 647.37 124.92 647.3 124.94 651.1 105.63 651.16 105.61"/><polygon class="cls-4" points="651.23 105.59 647.44 124.89 647.37 124.92 651.16 105.61 651.23 105.59"/><polygon class="cls-4" points="651.3 105.56 647.51 124.87 647.44 124.89 651.23 105.59 651.3 105.56"/><polygon class="cls-4" points="651.37 105.54 647.58 124.85 647.51 124.87 651.3 105.56 651.37 105.54"/><polygon class="cls-4" points="651.44 105.52 647.65 124.83 647.58 124.85 651.37 105.54 651.44 105.52"/><polygon class="cls-4" points="651.51 105.49 647.72 124.8 647.65 124.83 651.44 105.52 651.51 105.49"/><polygon class="cls-4" points="651.58 105.47 647.79 124.78 647.72 124.8 651.51 105.49 651.58 105.47"/><polygon class="cls-4" points="651.65 105.45 647.86 124.76 647.79 124.78 651.58 105.47 651.65 105.45"/><polygon class="cls-4" points="651.72 105.43 647.93 124.73 647.86 124.76 651.65 105.45 651.72 105.43"/><polygon class="cls-4" points="651.79 105.4 648 124.71 647.93 124.73 651.72 105.43 651.79 105.4"/><polygon class="cls-4" points="651.86 105.38 648.07 124.69 648 124.71 651.79 105.4 651.86 105.38"/><polygon class="cls-4" points="651.93 105.36 648.14 124.67 648.07 124.69 651.86 105.38 651.93 105.36"/><polygon class="cls-4" points="652 105.33 648.21 124.64 648.14 124.67 651.93 105.36 652 105.33"/><polygon class="cls-4" points="652.07 105.31 648.28 124.62 648.21 124.64 652 105.33 652.07 105.31"/><polygon class="cls-4" points="652.14 105.29 648.34 124.6 648.28 124.62 652.07 105.31 652.14 105.29"/><polygon class="cls-4" points="652.2 105.27 648.41 124.57 648.34 124.6 652.14 105.29 652.2 105.27"/><polygon class="cls-4" points="652.27 105.24 648.48 124.55 648.41 124.57 652.2 105.27 652.27 105.24"/><polygon class="cls-4" points="652.34 105.22 648.55 124.53 648.48 124.55 652.27 105.24 652.34 105.22"/><polygon class="cls-4" points="652.41 105.2 648.62 124.51 648.55 124.53 652.34 105.22 652.41 105.2"/><polygon class="cls-4" points="652.48 105.17 648.69 124.48 648.62 124.51 652.41 105.2 652.48 105.17"/><polygon class="cls-4" points="652.55 105.15 648.76 124.46 648.69 124.48 652.48 105.17 652.55 105.15"/><polygon class="cls-4" points="652.62 105.13 648.83 124.44 648.76 124.46 652.55 105.15 652.62 105.13"/><polygon class="cls-4" points="652.69 105.11 648.9 124.41 648.83 124.44 652.62 105.13 652.69 105.11"/><polygon class="cls-4" points="652.76 105.08 648.97 124.39 648.9 124.41 652.69 105.11 652.76 105.08"/><polygon class="cls-4" points="652.83 105.06 649.04 124.37 648.97 124.39 652.76 105.08 652.83 105.06"/><polygon class="cls-4" points="652.9 105.04 649.11 124.35 649.04 124.37 652.83 105.06 652.9 105.04"/><polygon class="cls-4" points="652.97 105.01 649.18 124.32 649.11 124.35 652.9 105.04 652.97 105.01"/><polygon class="cls-4" points="653.04 104.99 649.25 124.3 649.18 124.32 652.97 105.01 653.04 104.99"/><polygon class="cls-4" points="653.11 104.97 649.32 124.28 649.25 124.3 653.04 104.99 653.11 104.97"/><polygon class="cls-4" points="653.17 104.95 649.38 124.25 649.32 124.28 653.11 104.97 653.17 104.95"/><polygon class="cls-4" points="653.24 104.92 649.45 124.23 649.38 124.25 653.17 104.95 653.24 104.92"/><polygon class="cls-4" points="653.31 104.9 649.52 124.21 649.45 124.23 653.24 104.92 653.31 104.9"/><polygon class="cls-4" points="653.38 104.88 649.59 124.19 649.52 124.21 653.31 104.9 653.38 104.88"/><polygon class="cls-4" points="653.45 104.85 649.66 124.16 649.59 124.19 653.38 104.88 653.45 104.85"/><polygon class="cls-4" points="653.52 104.83 649.73 124.14 649.66 124.16 653.45 104.85 653.52 104.83"/><polygon class="cls-4" points="653.59 104.81 649.8 124.12 649.73 124.14 653.52 104.83 653.59 104.81"/><polygon class="cls-4" points="653.66 104.79 649.87 124.09 649.8 124.12 653.59 104.81 653.66 104.79"/><polygon class="cls-4" points="653.73 104.76 649.94 124.07 649.87 124.09 653.66 104.79 653.73 104.76"/><polygon class="cls-4" points="653.8 104.74 650.01 124.05 649.94 124.07 653.73 104.76 653.8 104.74"/><polygon class="cls-4" points="653.87 104.72 650.08 124.03 650.01 124.05 653.8 104.74 653.87 104.72"/><polygon class="cls-4" points="653.94 104.69 650.15 124 650.08 124.03 653.87 104.72 653.94 104.69"/><polygon class="cls-4" points="654.01 104.67 650.22 123.98 650.15 124 653.94 104.69 654.01 104.67"/><polygon class="cls-4" points="654.08 104.65 650.29 123.96 650.22 123.98 654.01 104.67 654.08 104.65"/><polygon class="cls-4" points="654.15 104.63 650.36 123.93 650.29 123.96 654.08 104.65 654.15 104.63"/><polygon class="cls-4" points="654.21 104.6 650.42 123.91 650.36 123.93 654.15 104.63 654.21 104.6"/><polygon class="cls-4" points="654.28 104.58 650.49 123.89 650.42 123.91 654.21 104.6 654.28 104.58"/><polygon class="cls-4" points="654.35 104.56 650.56 123.87 650.49 123.89 654.28 104.58 654.35 104.56"/><polygon class="cls-4" points="654.42 104.54 650.63 123.84 650.56 123.87 654.35 104.56 654.42 104.54"/><polygon class="cls-4" points="654.49 104.51 650.7 123.82 650.63 123.84 654.42 104.54 654.49 104.51"/><polygon class="cls-4" points="654.56 104.49 650.77 123.8 650.7 123.82 654.49 104.51 654.56 104.49"/><polygon class="cls-4" points="654.63 104.47 650.84 123.77 650.77 123.8 654.56 104.49 654.63 104.47"/><polygon class="cls-4" points="654.7 104.44 650.91 123.75 650.84 123.77 654.63 104.47 654.7 104.44"/><polygon class="cls-4" points="654.77 104.42 650.98 123.73 650.91 123.75 654.7 104.44 654.77 104.42"/><polygon class="cls-4" points="654.84 104.4 651.05 123.71 650.98 123.73 654.77 104.42 654.84 104.4"/><polygon class="cls-4" points="654.91 104.38 651.12 123.68 651.05 123.71 654.84 104.4 654.91 104.38"/><polygon class="cls-4" points="654.98 104.35 651.19 123.66 651.12 123.68 654.91 104.38 654.98 104.35"/><polygon class="cls-4" points="655.05 104.33 651.26 123.64 651.19 123.66 654.98 104.35 655.05 104.33"/><polygon class="cls-4" points="655.12 104.31 651.33 123.61 651.26 123.64 655.05 104.33 655.12 104.31"/><polygon class="cls-4" points="655.19 104.28 651.4 123.59 651.33 123.61 655.12 104.31 655.19 104.28"/><polygon class="cls-4" points="655.25 104.26 651.46 123.57 651.4 123.59 655.19 104.28 655.25 104.26"/><polygon class="cls-4" points="655.32 104.24 651.53 123.55 651.46 123.57 655.25 104.26 655.32 104.24"/><polygon class="cls-4" points="655.39 104.22 651.6 123.52 651.53 123.55 655.32 104.24 655.39 104.22"/><polygon class="cls-4" points="655.46 104.19 651.67 123.5 651.6 123.52 655.39 104.22 655.46 104.19"/><polygon class="cls-4" points="655.53 104.17 651.74 123.48 651.67 123.5 655.46 104.19 655.53 104.17"/><polygon class="cls-4" points="655.6 104.15 651.81 123.45 651.74 123.48 655.53 104.17 655.6 104.15"/><polygon class="cls-4" points="655.67 104.12 651.88 123.43 651.81 123.45 655.6 104.15 655.67 104.12"/><polygon class="cls-4" points="655.74 104.1 651.95 123.41 651.88 123.43 655.67 104.12 655.74 104.1"/><polygon class="cls-4" points="655.81 104.08 652.02 123.39 651.95 123.41 655.74 104.1 655.81 104.08"/><polygon class="cls-4" points="655.88 104.06 652.09 123.36 652.02 123.39 655.81 104.08 655.88 104.06"/><polygon class="cls-4" points="655.95 104.03 652.16 123.34 652.09 123.36 655.88 104.06 655.95 104.03"/><polygon class="cls-4" points="656.02 104.01 652.23 123.32 652.16 123.34 655.95 104.03 656.02 104.01"/><polygon class="cls-4" points="656.09 103.99 652.3 123.29 652.23 123.32 656.02 104.01 656.09 103.99"/><polygon class="cls-4" points="656.16 103.96 652.37 123.27 652.3 123.29 656.09 103.99 656.16 103.96"/><polygon class="cls-4" points="656.23 103.94 652.44 123.25 652.37 123.27 656.16 103.96 656.23 103.94"/><polygon class="cls-4" points="656.29 103.92 652.5 123.23 652.44 123.25 656.23 103.94 656.29 103.92"/><polygon class="cls-4" points="656.36 103.9 652.57 123.2 652.5 123.23 656.29 103.92 656.36 103.9"/><polygon class="cls-4" points="656.43 103.87 652.64 123.18 652.57 123.2 656.36 103.9 656.43 103.87"/><polygon class="cls-4" points="656.5 103.85 652.71 123.16 652.64 123.18 656.43 103.87 656.5 103.85"/><polygon class="cls-4" points="656.57 103.83 652.78 123.14 652.71 123.16 656.5 103.85 656.57 103.83"/><polygon class="cls-4" points="656.64 103.8 652.85 123.11 652.78 123.14 656.57 103.83 656.64 103.8"/><polygon class="cls-4" points="656.71 103.78 652.92 123.09 652.85 123.11 656.64 103.8 656.71 103.78"/><polygon class="cls-4" points="656.78 103.76 652.99 123.07 652.92 123.09 656.71 103.78 656.78 103.76"/><polygon class="cls-4" points="656.85 103.74 653.06 123.04 652.99 123.07 656.78 103.76 656.85 103.74"/><polygon class="cls-4" points="656.92 103.71 653.13 123.02 653.06 123.04 656.85 103.74 656.92 103.71"/><polygon class="cls-4" points="656.99 103.69 653.2 123 653.13 123.02 656.92 103.71 656.99 103.69"/><polygon class="cls-4" points="657.06 103.67 653.27 122.98 653.2 123 656.99 103.69 657.06 103.67"/><polygon class="cls-4" points="657.13 103.64 653.34 122.95 653.27 122.98 657.06 103.67 657.13 103.64"/><polygon class="cls-4" points="657.2 103.62 653.41 122.93 653.34 122.95 657.13 103.64 657.2 103.62"/><polygon class="cls-4" points="657.27 103.6 653.48 122.91 653.41 122.93 657.2 103.62 657.27 103.6"/><polygon class="cls-4" points="657.33 103.58 653.54 122.88 653.48 122.91 657.27 103.6 657.33 103.58"/><polygon class="cls-4" points="657.4 103.55 653.61 122.86 653.54 122.88 657.33 103.58 657.4 103.55"/><polygon class="cls-4" points="657.47 103.53 653.68 122.84 653.61 122.86 657.4 103.55 657.47 103.53"/><polygon class="cls-4" points="657.54 103.51 653.75 122.82 653.68 122.84 657.47 103.53 657.54 103.51"/><polygon class="cls-4" points="657.61 103.48 653.82 122.79 653.75 122.82 657.54 103.51 657.61 103.48"/><polygon class="cls-4" points="657.68 103.46 653.89 122.77 653.82 122.79 657.61 103.48 657.68 103.46"/><polygon class="cls-4" points="657.75 103.44 653.96 122.75 653.89 122.77 657.68 103.46 657.75 103.44"/><polygon class="cls-4" points="657.82 103.42 654.03 122.72 653.96 122.75 657.75 103.44 657.82 103.42"/><polygon class="cls-4" points="657.89 103.39 654.1 122.7 654.03 122.72 657.82 103.42 657.89 103.39"/><polygon class="cls-4" points="657.96 103.37 654.17 122.68 654.1 122.7 657.89 103.39 657.96 103.37"/><polygon class="cls-4" points="658.03 103.35 654.24 122.66 654.17 122.68 657.96 103.37 658.03 103.35"/><polygon class="cls-4" points="658.1 103.32 654.31 122.63 654.24 122.66 658.03 103.35 658.1 103.32"/><polygon class="cls-4" points="658.17 103.3 654.38 122.61 654.31 122.63 658.1 103.32 658.17 103.3"/><polygon class="cls-4" points="658.24 103.28 654.45 122.59 654.38 122.61 658.17 103.3 658.24 103.28"/><polygon class="cls-4" points="658.31 103.26 654.52 122.56 654.45 122.59 658.24 103.28 658.31 103.26"/><polygon class="cls-4" points="658.37 103.23 654.58 122.54 654.52 122.56 658.31 103.26 658.37 103.23"/><polygon class="cls-4" points="658.44 103.21 654.65 122.52 654.58 122.54 658.37 103.23 658.44 103.21"/><polygon class="cls-4" points="658.51 103.19 654.72 122.5 654.65 122.52 658.44 103.21 658.51 103.19"/><polygon class="cls-4" points="658.58 103.16 654.79 122.47 654.72 122.5 658.51 103.19 658.58 103.16"/><polygon class="cls-4" points="658.65 103.14 654.86 122.45 654.79 122.47 658.58 103.16 658.65 103.14"/><polygon class="cls-4" points="658.72 103.12 654.93 122.43 654.86 122.45 658.65 103.14 658.72 103.12"/><polygon class="cls-4" points="658.79 103.1 655 122.4 654.93 122.43 658.72 103.12 658.79 103.1"/><polygon class="cls-4" points="658.86 103.07 655.07 122.38 655 122.4 658.79 103.1 658.86 103.07"/><polygon class="cls-4" points="658.93 103.05 655.14 122.36 655.07 122.38 658.86 103.07 658.93 103.05"/><polygon class="cls-4" points="659 103.03 655.21 122.34 655.14 122.36 658.93 103.05 659 103.03"/><polygon class="cls-4" points="659.07 103 655.28 122.31 655.21 122.34 659 103.03 659.07 103"/><polygon class="cls-4" points="659.14 102.98 655.35 122.29 655.28 122.31 659.07 103 659.14 102.98"/><polygon class="cls-4" points="659.21 102.96 655.42 122.27 655.35 122.29 659.14 102.98 659.21 102.96"/><polygon class="cls-4" points="659.28 102.94 655.49 122.24 655.42 122.27 659.21 102.96 659.28 102.94"/><polygon class="cls-4" points="659.35 102.91 655.56 122.22 655.49 122.24 659.28 102.94 659.35 102.91"/><polygon class="cls-4" points="659.41 102.89 655.62 122.2 655.56 122.22 659.35 102.91 659.41 102.89"/><polygon class="cls-4" points="659.48 102.87 655.69 122.18 655.62 122.2 659.41 102.89 659.48 102.87"/><polygon class="cls-4" points="659.55 102.84 655.76 122.15 655.69 122.18 659.48 102.87 659.55 102.84"/><polygon class="cls-4" points="659.62 102.82 655.83 122.13 655.76 122.15 659.55 102.84 659.62 102.82"/><polygon class="cls-4" points="659.69 102.8 655.9 122.11 655.83 122.13 659.62 102.82 659.69 102.8"/><polygon class="cls-4" points="659.76 102.78 655.97 122.08 655.9 122.11 659.69 102.8 659.76 102.78"/><polygon class="cls-4" points="659.83 102.75 656.04 122.06 655.97 122.08 659.76 102.78 659.83 102.75"/><polygon class="cls-4" points="659.9 102.73 656.11 122.04 656.04 122.06 659.83 102.75 659.9 102.73"/><polygon class="cls-4" points="659.97 102.71 656.18 122.02 656.11 122.04 659.9 102.73 659.97 102.71"/><polygon class="cls-4" points="660.04 102.68 656.25 121.99 656.18 122.02 659.97 102.71 660.04 102.68"/><polygon class="cls-4" points="660.11 102.66 656.32 121.97 656.25 121.99 660.04 102.68 660.11 102.66"/><polygon class="cls-4" points="660.18 102.64 656.39 121.95 656.32 121.97 660.11 102.66 660.18 102.64"/><polygon class="cls-4" points="660.25 102.62 656.46 121.92 656.39 121.95 660.18 102.64 660.25 102.62"/><polygon class="cls-4" points="660.32 102.59 656.53 121.9 656.46 121.92 660.25 102.62 660.32 102.59"/><polygon class="cls-4" points="660.39 102.57 656.6 121.88 656.53 121.9 660.32 102.59 660.39 102.57"/><polygon class="cls-4" points="660.45 102.55 656.66 121.86 656.6 121.88 660.39 102.57 660.45 102.55"/><polygon class="cls-4" points="660.52 102.52 656.73 121.83 656.66 121.86 660.45 102.55 660.52 102.52"/><polygon class="cls-4" points="660.59 102.5 656.8 121.81 656.73 121.83 660.52 102.52 660.59 102.5"/><polygon class="cls-4" points="660.66 102.48 656.87 121.79 656.8 121.81 660.59 102.5 660.66 102.48"/><polygon class="cls-4" points="660.73 102.46 656.94 121.76 656.87 121.79 660.66 102.48 660.73 102.46"/><polygon class="cls-4" points="660.8 102.43 657.01 121.74 656.94 121.76 660.73 102.46 660.8 102.43"/><polygon class="cls-4" points="660.87 102.41 657.08 121.72 657.01 121.74 660.8 102.43 660.87 102.41"/><polygon class="cls-4" points="660.94 102.39 657.15 121.7 657.08 121.72 660.87 102.41 660.94 102.39"/><polygon class="cls-4" points="661.01 102.36 657.22 121.67 657.15 121.7 660.94 102.39 661.01 102.36"/><polygon class="cls-4" points="661.08 102.34 657.29 121.65 657.22 121.67 661.01 102.36 661.08 102.34"/><polygon class="cls-4" points="661.15 102.32 657.36 121.63 657.29 121.65 661.08 102.34 661.15 102.32"/><polygon class="cls-4" points="661.22 102.3 657.43 121.6 657.36 121.63 661.15 102.32 661.22 102.3"/><polygon class="cls-4" points="661.29 102.27 657.5 121.58 657.43 121.6 661.22 102.3 661.29 102.27"/><polygon class="cls-4" points="661.36 102.25 657.57 121.56 657.5 121.58 661.29 102.27 661.36 102.25"/><polygon class="cls-4" points="661.43 102.23 657.64 121.54 657.57 121.56 661.36 102.25 661.43 102.23"/><polygon class="cls-4" points="661.49 102.2 657.7 121.51 657.64 121.54 661.43 102.23 661.49 102.2"/><polygon class="cls-4" points="661.56 102.18 657.77 121.49 657.7 121.51 661.49 102.2 661.56 102.18"/><polygon class="cls-4" points="661.63 102.16 657.84 121.47 657.77 121.49 661.56 102.18 661.63 102.16"/><polygon class="cls-4" points="661.7 102.14 657.91 121.44 657.84 121.47 661.63 102.16 661.7 102.14"/><polygon class="cls-4" points="661.77 102.11 657.98 121.42 657.91 121.44 661.7 102.14 661.77 102.11"/><polygon class="cls-4" points="661.84 102.09 658.05 121.4 657.98 121.42 661.77 102.11 661.84 102.09"/><polygon class="cls-4" points="661.91 102.07 658.12 121.38 658.05 121.4 661.84 102.09 661.91 102.07"/><polygon class="cls-4" points="661.98 102.04 658.19 121.35 658.12 121.38 661.91 102.07 661.98 102.04"/><polygon class="cls-4" points="662.05 102.02 658.26 121.33 658.19 121.35 661.98 102.04 662.05 102.02"/><polygon class="cls-4" points="662.12 102 658.33 121.31 658.26 121.33 662.05 102.02 662.12 102"/><polygon class="cls-4" points="662.19 101.98 658.4 121.28 658.33 121.31 662.12 102 662.19 101.98"/><polygon class="cls-4" points="662.26 101.95 658.47 121.26 658.4 121.28 662.19 101.98 662.26 101.95"/><polygon class="cls-4" points="662.33 101.93 658.54 121.24 658.47 121.26 662.26 101.95 662.33 101.93"/><polygon class="cls-4" points="662.4 101.91 658.61 121.22 658.54 121.24 662.33 101.93 662.4 101.91"/><polygon class="cls-4" points="662.47 101.88 658.68 121.19 658.61 121.22 662.4 101.91 662.47 101.88"/><polygon class="cls-4" points="662.53 101.86 658.74 121.17 658.68 121.19 662.47 101.88 662.53 101.86"/><polygon class="cls-4" points="662.6 101.84 658.81 121.15 658.74 121.17 662.53 101.86 662.6 101.84"/><polygon class="cls-4" points="662.67 101.82 658.88 121.12 658.81 121.15 662.6 101.84 662.67 101.82"/><polygon class="cls-4" points="662.74 101.79 658.95 121.1 658.88 121.12 662.67 101.82 662.74 101.79"/><polygon class="cls-4" points="662.81 101.77 659.02 121.08 658.95 121.1 662.74 101.79 662.81 101.77"/><polygon class="cls-4" points="662.88 101.75 659.09 121.06 659.02 121.08 662.81 101.77 662.88 101.75"/><polygon class="cls-4" points="662.95 101.72 659.16 121.03 659.09 121.06 662.88 101.75 662.95 101.72"/><polygon class="cls-4" points="663.02 101.7 659.23 121.01 659.16 121.03 662.95 101.72 663.02 101.7"/><polygon class="cls-4" points="663.09 101.68 659.3 120.99 659.23 121.01 663.02 101.7 663.09 101.68"/><polygon class="cls-4" points="663.16 101.66 659.37 120.96 659.3 120.99 663.09 101.68 663.16 101.66"/><polygon class="cls-4" points="659.37 120.96 663.16 101.66 667.39 118.32 659.37 120.96"/></g><path class="cls-4" d="m633.16,150.43c-6.84,2.25-14.48-.39-18.98-7.28-5.79-8.86-4.18-21.4,3.61-27.99l34.88-29.55c7.78-6.6,18.79-4.76,24.58,4.11,5.79,8.86,4.18,21.4-3.61,27.99l-34.88,29.55c-1.74,1.47-3.64,2.52-5.6,3.17Z"/><circle class="cls-2" cx="305.22" cy="442.24" r="172.71"/><circle class="cls-2" cx="305.41" cy="438.08" r="198.19"/><circle class="cls-2" cx="305.41" cy="443.5" r="236.19"/><circle class="cls-2" cx="305.41" cy="443.5" r="273.4"/><circle class="cls-2" cx="311.61" cy="438.08" r="305.19"/><circle class="cls-2" cx="305.22" cy="442.8" r="144.85"/><circle class="cls-2" cx="305.22" cy="445.03" r="113.65"/><circle class="cls-2" cx="305.22" cy="446.7" r="78.55"/><circle class="cls-2" cx="304.66" cy="449.49" r="39"/><circle class="cls-2" cx="305.22" cy="448.37" r="11.14"/><circle class="cls-4" cx="478.18" cy="680" r="273"/></g></g></g></svg>