<?xml version="1.0" encoding="UTF-8"?><svg id="Camada_2" xmlns="http://www.w3.org/2000/svg" xmlns:xlink="http://www.w3.org/1999/xlink" viewBox="0 0 343.45 286.73"><defs><style>.cls-1,.cls-2{fill:none;}.cls-3{clip-path:url(#clippath);}.cls-4{fill:#00a7b3;}.cls-2{stroke:#3f8d91;stroke-linecap:round;stroke-miterlimit:10;stroke-width:4px;}.cls-5{opacity:.3;}</style><clipPath id="clippath"><circle class="cls-1" cx="115.02" cy="117.57" r="89.31"/></clipPath></defs><g id="Camada_3"><g class="cls-5"><g class="cls-3"><circle class="cls-4" cx="38.99" cy="235.71" r="5.19"/><circle class="cls-4" cx="36.18" cy="219.06" r="5.19"/><circle class="cls-4" cx="33.36" cy="202.4" r="5.19"/><circle class="cls-4" cx="30.54" cy="185.75" r="5.19"/><circle class="cls-4" cx="27.73" cy="169.09" r="5.19"/><circle class="cls-4" cx="24.91" cy="152.44" r="5.19"/><circle class="cls-4" cx="22.09" cy="135.78" r="5.19"/><circle class="cls-4" cx="19.28" cy="119.13" r="5.19"/><circle class="cls-4" cx="16.46" cy="102.47" r="5.19"/><circle class="cls-4" cx="13.64" cy="85.82" r="5.19"/><circle class="cls-4" cx="10.83" cy="69.16" r="5.19"/><circle class="cls-4" cx="8.01" cy="52.51" r="5.19"/><circle class="cls-4" cx="5.19" cy="35.85" r="5.19"/><circle class="cls-4" cx="55.48" cy="232.93" r="5.19"/><circle class="cls-4" cx="52.66" cy="216.27" r="5.19"/><circle class="cls-4" cx="49.84" cy="199.62" r="5.19"/><circle class="cls-4" cx="47.02" cy="182.96" r="5.19"/><circle class="cls-4" cx="44.21" cy="166.31" r="5.19"/><circle class="cls-4" cx="41.39" cy="149.65" r="5.19"/><circle class="cls-4" cx="38.57" cy="133" r="5.19"/><circle class="cls-4" cx="35.76" cy="116.34" r="5.19"/><circle class="cls-4" cx="32.94" cy="99.69" r="5.19"/><circle class="cls-4" cx="30.12" cy="83.03" r="5.19"/><circle class="cls-4" cx="27.31" cy="66.38" r="5.19"/><circle class="cls-4" cx="24.49" cy="49.72" r="5.19"/><circle class="cls-4" cx="21.67" cy="33.07" r="5.19"/><circle class="cls-4" cx="71.96" cy="230.14" r="5.19"/><circle class="cls-4" cx="69.14" cy="213.48" r="5.19"/><circle class="cls-4" cx="66.32" cy="196.83" r="5.19"/><circle class="cls-4" cx="63.51" cy="180.17" r="5.19"/><circle class="cls-4" cx="60.69" cy="163.52" r="5.19"/><circle class="cls-4" cx="57.87" cy="146.86" r="5.19"/><circle class="cls-4" cx="55.06" cy="130.21" r="5.19"/><circle class="cls-4" cx="52.24" cy="113.55" r="5.19"/><circle class="cls-4" cx="49.42" cy="96.9" r="5.19"/><circle class="cls-4" cx="46.61" cy="80.24" r="5.19"/><circle class="cls-4" cx="43.79" cy="63.59" r="5.19"/><circle class="cls-4" cx="40.97" cy="46.93" r="5.19"/><circle class="cls-4" cx="38.15" cy="30.28" r="5.19"/><circle class="cls-4" cx="88.44" cy="227.35" r="5.19"/><circle class="cls-4" cx="85.62" cy="210.7" r="5.19"/><circle class="cls-4" cx="82.8" cy="194.04" r="5.19"/><circle class="cls-4" cx="79.99" cy="177.39" r="5.19"/><circle class="cls-4" cx="77.17" cy="160.73" r="5.19"/><circle class="cls-4" cx="74.35" cy="144.08" r="5.19"/><circle class="cls-4" cx="71.54" cy="127.42" r="5.19"/><circle class="cls-4" cx="68.72" cy="110.77" r="5.19"/><circle class="cls-4" cx="65.9" cy="94.11" r="5.19"/><circle class="cls-4" cx="63.09" cy="77.46" r="5.19"/><circle class="cls-4" cx="60.27" cy="60.8" r="5.19"/><circle class="cls-4" cx="57.45" cy="44.15" r="5.19"/><circle class="cls-4" cx="54.64" cy="27.49" r="5.19"/><circle class="cls-4" cx="104.92" cy="224.56" r="5.19"/><circle class="cls-4" cx="102.1" cy="207.91" r="5.19"/><circle class="cls-4" cx="99.29" cy="191.25" r="5.19"/><circle class="cls-4" cx="96.47" cy="174.6" r="5.19"/><circle class="cls-4" cx="93.65" cy="157.94" r="5.19"/><circle class="cls-4" cx="90.84" cy="141.29" r="5.19"/><circle class="cls-4" cx="88.02" cy="124.63" r="5.19"/><circle class="cls-4" cx="85.2" cy="107.98" r="5.19"/><circle class="cls-4" cx="82.38" cy="91.32" r="5.19"/><circle class="cls-4" cx="79.57" cy="74.67" r="5.19"/><circle class="cls-4" cx="76.75" cy="58.01" r="5.19"/><circle class="cls-4" cx="73.93" cy="41.36" r="5.19"/><circle class="cls-4" cx="71.12" cy="24.7" r="5.19"/><circle class="cls-4" cx="121.4" cy="221.78" r="5.19"/><circle class="cls-4" cx="118.58" cy="205.12" r="5.19"/><circle class="cls-4" cx="115.77" cy="188.47" r="5.19"/><circle class="cls-4" cx="112.95" cy="171.81" r="5.19"/><circle class="cls-4" cx="110.13" cy="155.16" r="5.19"/><circle class="cls-4" cx="107.32" cy="138.5" r="5.19"/><circle class="cls-4" cx="104.5" cy="121.85" r="5.19"/><circle class="cls-4" cx="101.68" cy="105.19" r="5.19"/><circle class="cls-4" cx="98.87" cy="88.54" r="5.19"/><circle class="cls-4" cx="96.05" cy="71.88" r="5.19"/><circle class="cls-4" cx="93.23" cy="55.23" r="5.19"/><circle class="cls-4" cx="90.42" cy="38.57" r="5.19"/><circle class="cls-4" cx="87.6" cy="21.92" r="5.19"/><circle class="cls-4" cx="137.88" cy="218.99" r="5.19"/><circle class="cls-4" cx="135.07" cy="202.33" r="5.19"/><circle class="cls-4" cx="132.25" cy="185.68" r="5.19"/><circle class="cls-4" cx="129.43" cy="169.02" r="5.19"/><circle class="cls-4" cx="126.62" cy="152.37" r="5.19"/><circle class="cls-4" cx="123.8" cy="135.71" r="5.19"/><circle class="cls-4" cx="120.98" cy="119.06" r="5.19"/><circle class="cls-4" cx="118.16" cy="102.4" r="5.19"/><circle class="cls-4" cx="115.35" cy="85.75" r="5.19"/><circle class="cls-4" cx="112.53" cy="69.09" r="5.19"/><circle class="cls-4" cx="109.71" cy="52.44" r="5.19"/><circle class="cls-4" cx="106.9" cy="35.78" r="5.19"/><circle class="cls-4" cx="104.08" cy="19.13" r="5.19"/><circle class="cls-4" cx="154.36" cy="216.2" r="5.19"/><circle class="cls-4" cx="151.55" cy="199.55" r="5.19"/><circle class="cls-4" cx="148.73" cy="182.89" r="5.19"/><circle class="cls-4" cx="145.91" cy="166.24" r="5.19"/><circle class="cls-4" cx="143.1" cy="149.58" r="5.19"/><circle class="cls-4" cx="140.28" cy="132.93" r="5.19"/><circle class="cls-4" cx="137.46" cy="116.27" r="5.19"/><circle class="cls-4" cx="134.65" cy="99.62" r="5.19"/><circle class="cls-4" cx="131.83" cy="82.96" r="5.19"/><circle class="cls-4" cx="129.01" cy="66.31" r="5.19"/><circle class="cls-4" cx="126.2" cy="49.65" r="5.19"/><circle class="cls-4" cx="123.38" cy="33" r="5.19"/><circle class="cls-4" cx="120.56" cy="16.34" r="5.19"/><circle class="cls-4" cx="170.85" cy="213.41" r="5.19"/><circle class="cls-4" cx="168.03" cy="196.76" r="5.19"/><circle class="cls-4" cx="165.21" cy="180.1" r="5.19"/><circle class="cls-4" cx="162.4" cy="163.45" r="5.19"/><circle class="cls-4" cx="159.58" cy="146.79" r="5.19"/><circle class="cls-4" cx="156.76" cy="130.14" r="5.19"/><circle class="cls-4" cx="153.94" cy="113.48" r="5.19"/><circle class="cls-4" cx="151.13" cy="96.83" r="5.19"/><circle class="cls-4" cx="148.31" cy="80.17" r="5.19"/><circle class="cls-4" cx="145.49" cy="63.52" r="5.19"/><circle class="cls-4" cx="142.68" cy="46.86" r="5.19"/><circle class="cls-4" cx="139.86" cy="30.21" r="5.19"/><circle class="cls-4" cx="137.04" cy="13.55" r="5.19"/><circle class="cls-4" cx="187.33" cy="210.63" r="5.19"/><circle class="cls-4" cx="184.51" cy="193.97" r="5.19"/><circle class="cls-4" cx="181.69" cy="177.32" r="5.19"/><circle class="cls-4" cx="178.88" cy="160.66" r="5.19"/><circle class="cls-4" cx="176.06" cy="144.01" r="5.19"/><circle class="cls-4" cx="173.24" cy="127.35" r="5.19"/><circle class="cls-4" cx="170.43" cy="110.7" r="5.19"/><circle class="cls-4" cx="167.61" cy="94.04" r="5.19"/><circle class="cls-4" cx="164.79" cy="77.39" r="5.19"/><circle class="cls-4" cx="161.98" cy="60.73" r="5.19"/><circle class="cls-4" cx="159.16" cy="44.08" r="5.19"/><circle class="cls-4" cx="156.34" cy="27.42" r="5.19"/><circle class="cls-4" cx="153.52" cy="10.77" r="5.19"/><circle class="cls-4" cx="203.81" cy="207.84" r="5.19"/><circle class="cls-4" cx="200.99" cy="191.18" r="5.19"/><circle class="cls-4" cx="198.18" cy="174.53" r="5.19"/><circle class="cls-4" cx="195.36" cy="157.87" r="5.19"/><circle class="cls-4" cx="192.54" cy="141.22" r="5.19"/><circle class="cls-4" cx="189.72" cy="124.56" r="5.19"/><circle class="cls-4" cx="186.91" cy="107.91" r="5.19"/><circle class="cls-4" cx="184.09" cy="91.25" r="5.19"/><circle class="cls-4" cx="181.27" cy="74.6" r="5.19"/><circle class="cls-4" cx="178.46" cy="57.94" r="5.19"/><circle class="cls-4" cx="175.64" cy="41.29" r="5.19"/><circle class="cls-4" cx="172.82" cy="24.63" r="5.19"/><circle class="cls-4" cx="170.01" cy="7.98" r="5.19"/><circle class="cls-4" cx="220.29" cy="205.05" r="5.19"/><circle class="cls-4" cx="217.47" cy="188.4" r="5.19"/><circle class="cls-4" cx="214.66" cy="171.74" r="5.19"/><circle class="cls-4" cx="211.84" cy="155.09" r="5.19"/><circle class="cls-4" cx="209.02" cy="138.43" r="5.19"/><circle class="cls-4" cx="206.21" cy="121.78" r="5.19"/><circle class="cls-4" cx="203.39" cy="105.12" r="5.19"/><circle class="cls-4" cx="200.57" cy="88.47" r="5.19"/><circle class="cls-4" cx="197.76" cy="71.81" r="5.19"/><circle class="cls-4" cx="194.94" cy="55.16" r="5.19"/><circle class="cls-4" cx="192.12" cy="38.5" r="5.19"/><circle class="cls-4" cx="189.3" cy="21.85" r="5.19"/><circle class="cls-4" cx="186.49" cy="5.19" r="5.19"/></g><path class="cls-2" d="m307.07,61.28l-4.69-3.58c-2.71-2.07-6.51-1.9-9.02.41h0c-2.51,2.31-6.32,2.48-9.02.41h0c-2.71-2.07-6.51-1.9-9.02.41h0c-2.51,2.31-6.31,2.48-9.02.41h0c-2.71-2.07-6.51-1.9-9.02.41h0c-2.51,2.31-6.31,2.49-9.02.42l-4.69-3.58"/><path class="cls-2" d="m306.63,51.47l-4.69-3.58c-2.71-2.07-6.51-1.9-9.02.41h0c-2.51,2.31-6.32,2.48-9.02.41h0c-2.71-2.07-6.51-1.9-9.02.41h0c-2.51,2.31-6.31,2.48-9.02.41h0c-2.71-2.07-6.51-1.9-9.02.41h0c-2.51,2.31-6.31,2.49-9.02.42l-4.69-3.58"/><path class="cls-2" d="m306.19,41.66l-4.69-3.58c-2.71-2.07-6.51-1.9-9.02.41h0c-2.51,2.31-6.32,2.48-9.02.41h0c-2.71-2.07-6.51-1.9-9.02.41h0c-2.51,2.31-6.31,2.48-9.02.41h0c-2.71-2.07-6.51-1.9-9.02.41h0c-2.51,2.31-6.31,2.49-9.02.42l-4.69-3.58"/><path class="cls-2" d="m305.75,31.85l-4.69-3.58c-2.71-2.07-6.51-1.9-9.02.41h0c-2.51,2.31-6.32,2.48-9.02.41h0c-2.71-2.07-6.51-1.9-9.02.41h0c-2.51,2.31-6.31,2.48-9.02.41h0c-2.71-2.07-6.51-1.9-9.02.41h0c-2.51,2.31-6.31,2.49-9.02.42l-4.69-3.58"/><path class="cls-2" d="m305.31,22.04l-4.69-3.58c-2.71-2.07-6.51-1.9-9.02.41h0c-2.51,2.31-6.32,2.48-9.02.41h0c-2.71-2.07-6.51-1.9-9.02.41h0c-2.51,2.31-6.31,2.48-9.02.41h0c-2.71-2.07-6.51-1.9-9.02.41h0c-2.51,2.31-6.31,2.49-9.02.42l-4.69-3.58"/><circle class="cls-4" cx="219.77" cy="163.05" r="123.67"/></g></g></svg>