<?xml version="1.0" encoding="UTF-8"?><svg id="Camada_2" xmlns="http://www.w3.org/2000/svg" xmlns:xlink="http://www.w3.org/1999/xlink" viewBox="0 0 608.35 525"><defs><style>.cls-1,.cls-2,.cls-3{fill:none;}.cls-2{stroke:#3f8d91;stroke-linecap:round;}.cls-2,.cls-3{stroke-miterlimit:10;stroke-width:6px;}.cls-3{stroke:#00a7b3;}.cls-4{clip-path:url(#clippath);}.cls-5{fill:#00a7b3;}.cls-6{clip-path:url(#clippath-1);}.cls-7{opacity:.2;}.cls-8{opacity:.4;}</style><clipPath id="clippath"><rect class="cls-1" width="506" height="525"/></clipPath><clipPath id="clippath-1"><line class="cls-5" x1="160.55" y1="443.03" x2="144.25" y2="456.84"/></clipPath></defs><g id="Camada_3"><g class="cls-8"><g class="cls-4"><line class="cls-5" x1="430.06" y1="254.14" x2="172.75" y2="474.08"/><path class="cls-5" d="m427.78,245.16c3.18-1.05,6.74.17,8.85,3.37,2.72,4.13,1.99,9.99-1.64,13.08l-257.32,219.94c-3.62,3.1-8.77,2.26-11.49-1.86-2.72-4.13-1.99-9.99,1.64-13.08l257.32-219.94c.82-.7,1.71-1.2,2.64-1.5Z"/><line class="cls-5" x1="442.58" y1="202.25" x2="185.26" y2="422.19"/><path class="cls-5" d="m440.29,193.27c3.18-1.05,6.74.17,8.85,3.37,2.72,4.13,1.99,9.99-1.64,13.08l-257.32,219.94c-3.62,3.1-8.77,2.26-11.49-1.86-2.72-4.13-1.99-9.99,1.64-13.08l257.32-219.94c.82-.7,1.72-1.2,2.64-1.5Z"/><line class="cls-5" x1="160.55" y1="443.03" x2="144.25" y2="456.84"/><g class="cls-6"><polygon class="cls-5" points="150.99 454.62 152.76 445.6 160.55 443.03 162.53 450.82 150.99 454.62"/><polygon class="cls-5" points="150.96 454.63 152.73 445.61 152.76 445.6 150.99 454.62 150.96 454.63"/><polygon class="cls-5" points="150.93 454.64 152.7 445.62 152.73 445.61 150.96 454.63 150.93 454.64"/><polygon class="cls-5" points="150.89 454.65 152.66 445.63 152.7 445.62 150.93 454.64 150.89 454.65"/><polygon class="cls-5" points="150.86 454.66 152.63 445.64 152.66 445.63 150.89 454.65 150.86 454.66"/><polygon class="cls-5" points="150.83 454.67 152.6 445.65 152.63 445.64 150.86 454.66 150.83 454.67"/><polygon class="cls-5" points="150.8 454.68 152.57 445.67 152.6 445.65 150.83 454.67 150.8 454.68"/><polygon class="cls-5" points="150.76 454.7 152.54 445.68 152.57 445.67 150.8 454.68 150.76 454.7"/><polygon class="cls-5" points="150.73 454.71 152.5 445.69 152.54 445.68 150.76 454.7 150.73 454.71"/><polygon class="cls-5" points="150.7 454.72 152.47 445.7 152.5 445.69 150.73 454.71 150.7 454.72"/><polygon class="cls-5" points="150.67 454.73 152.44 445.71 152.47 445.7 150.7 454.72 150.67 454.73"/><polygon class="cls-5" points="150.63 454.74 152.41 445.72 152.44 445.71 150.67 454.73 150.63 454.74"/><polygon class="cls-5" points="150.6 454.75 152.37 445.73 152.41 445.72 150.63 454.74 150.6 454.75"/><polygon class="cls-5" points="150.57 454.76 152.34 445.74 152.37 445.73 150.6 454.75 150.57 454.76"/><polygon class="cls-5" points="150.54 454.77 152.31 445.75 152.34 445.74 150.57 454.76 150.54 454.77"/><polygon class="cls-5" points="150.51 454.78 152.28 445.76 152.31 445.75 150.54 454.77 150.51 454.78"/><polygon class="cls-5" points="150.47 454.79 152.24 445.77 152.28 445.76 150.51 454.78 150.47 454.79"/><polygon class="cls-5" points="150.44 454.8 152.21 445.78 152.24 445.77 150.47 454.79 150.44 454.8"/><polygon class="cls-5" points="150.41 454.81 152.18 445.79 152.21 445.78 150.44 454.8 150.41 454.81"/><polygon class="cls-5" points="150.38 454.82 152.15 445.8 152.18 445.79 150.41 454.81 150.38 454.82"/><polygon class="cls-5" points="150.34 454.83 152.11 445.81 152.15 445.8 150.38 454.82 150.34 454.83"/><polygon class="cls-5" points="150.31 454.84 152.08 445.83 152.11 445.81 150.34 454.83 150.31 454.84"/><polygon class="cls-5" points="150.28 454.86 152.05 445.84 152.08 445.83 150.31 454.84 150.28 454.86"/><polygon class="cls-5" points="150.25 454.87 152.02 445.85 152.05 445.84 150.28 454.86 150.25 454.87"/><polygon class="cls-5" points="150.21 454.88 151.98 445.86 152.02 445.85 150.25 454.87 150.21 454.88"/><polygon class="cls-5" points="150.18 454.89 151.95 445.87 151.98 445.86 150.21 454.88 150.18 454.89"/><polygon class="cls-5" points="150.15 454.9 151.92 445.88 151.95 445.87 150.18 454.89 150.15 454.9"/><polygon class="cls-5" points="150.12 454.91 151.89 445.89 151.92 445.88 150.15 454.9 150.12 454.91"/><polygon class="cls-5" points="150.08 454.92 151.85 445.9 151.89 445.89 150.12 454.91 150.08 454.92"/><polygon class="cls-5" points="150.05 454.93 151.82 445.91 151.85 445.9 150.08 454.92 150.05 454.93"/><polygon class="cls-5" points="150.02 454.94 151.79 445.92 151.82 445.91 150.05 454.93 150.02 454.94"/><polygon class="cls-5" points="149.99 454.95 151.76 445.93 151.79 445.92 150.02 454.94 149.99 454.95"/><polygon class="cls-5" points="149.95 454.96 151.73 445.94 151.76 445.93 149.99 454.95 149.95 454.96"/><polygon class="cls-5" points="149.92 454.97 151.69 445.95 151.73 445.94 149.95 454.96 149.92 454.97"/><polygon class="cls-5" points="149.89 454.98 151.66 445.96 151.69 445.95 149.92 454.97 149.89 454.98"/><polygon class="cls-5" points="149.86 454.99 151.63 445.97 151.66 445.96 149.89 454.98 149.86 454.99"/><polygon class="cls-5" points="149.83 455.01 151.6 445.99 151.63 445.97 149.86 454.99 149.83 455.01"/><polygon class="cls-5" points="149.79 455.02 151.56 446 151.6 445.99 149.83 455.01 149.79 455.02"/><polygon class="cls-5" points="149.76 455.03 151.53 446.01 151.56 446 149.79 455.02 149.76 455.03"/><polygon class="cls-5" points="149.73 455.04 151.5 446.02 151.53 446.01 149.76 455.03 149.73 455.04"/><polygon class="cls-5" points="149.7 455.05 151.47 446.03 151.5 446.02 149.73 455.04 149.7 455.05"/><polygon class="cls-5" points="149.66 455.06 151.43 446.04 151.47 446.03 149.7 455.05 149.66 455.06"/><polygon class="cls-5" points="149.63 455.07 151.4 446.05 151.43 446.04 149.66 455.06 149.63 455.07"/><polygon class="cls-5" points="149.6 455.08 151.37 446.06 151.4 446.05 149.63 455.07 149.6 455.08"/><polygon class="cls-5" points="149.57 455.09 151.34 446.07 151.37 446.06 149.6 455.08 149.57 455.09"/><polygon class="cls-5" points="149.53 455.1 151.3 446.08 151.34 446.07 149.57 455.09 149.53 455.1"/><polygon class="cls-5" points="149.5 455.11 151.27 446.09 151.3 446.08 149.53 455.1 149.5 455.11"/><polygon class="cls-5" points="149.47 455.12 151.24 446.1 151.27 446.09 149.5 455.11 149.47 455.12"/><polygon class="cls-5" points="149.44 455.13 151.21 446.11 151.24 446.1 149.47 455.12 149.44 455.13"/><polygon class="cls-5" points="149.4 455.14 151.17 446.12 151.21 446.11 149.44 455.13 149.4 455.14"/><polygon class="cls-5" points="149.37 455.15 151.14 446.13 151.17 446.12 149.4 455.14 149.37 455.15"/><polygon class="cls-5" points="149.34 455.17 151.11 446.15 151.14 446.13 149.37 455.15 149.34 455.17"/><polygon class="cls-5" points="149.31 455.18 151.08 446.16 151.11 446.15 149.34 455.17 149.31 455.18"/><polygon class="cls-5" points="149.27 455.19 151.05 446.17 151.08 446.16 149.31 455.18 149.27 455.19"/><polygon class="cls-5" points="149.24 455.2 151.01 446.18 151.05 446.17 149.27 455.19 149.24 455.2"/><polygon class="cls-5" points="149.21 455.21 150.98 446.19 151.01 446.18 149.24 455.2 149.21 455.21"/><polygon class="cls-5" points="149.18 455.22 150.95 446.2 150.98 446.19 149.21 455.21 149.18 455.22"/><polygon class="cls-5" points="149.15 455.23 150.92 446.21 150.95 446.2 149.18 455.22 149.15 455.23"/><polygon class="cls-5" points="149.11 455.24 150.88 446.22 150.92 446.21 149.15 455.23 149.11 455.24"/><polygon class="cls-5" points="149.08 455.25 150.85 446.23 150.88 446.22 149.11 455.24 149.08 455.25"/><polygon class="cls-5" points="149.05 455.26 150.82 446.24 150.85 446.23 149.08 455.25 149.05 455.26"/><polygon class="cls-5" points="149.02 455.27 150.79 446.25 150.82 446.24 149.05 455.26 149.02 455.27"/><polygon class="cls-5" points="148.98 455.28 150.75 446.26 150.79 446.25 149.02 455.27 148.98 455.28"/><polygon class="cls-5" points="148.95 455.29 150.72 446.27 150.75 446.26 148.98 455.28 148.95 455.29"/><polygon class="cls-5" points="148.92 455.3 150.69 446.28 150.72 446.27 148.95 455.29 148.92 455.3"/><polygon class="cls-5" points="148.89 455.31 150.66 446.29 150.69 446.28 148.92 455.3 148.89 455.31"/><polygon class="cls-5" points="148.85 455.33 150.62 446.31 150.66 446.29 148.89 455.31 148.85 455.33"/><polygon class="cls-5" points="148.82 455.34 150.59 446.32 150.62 446.31 148.85 455.33 148.82 455.34"/><polygon class="cls-5" points="148.79 455.35 150.56 446.33 150.59 446.32 148.82 455.34 148.79 455.35"/><polygon class="cls-5" points="148.76 455.36 150.53 446.34 150.56 446.33 148.79 455.35 148.76 455.36"/><polygon class="cls-5" points="148.72 455.37 150.49 446.35 150.53 446.34 148.76 455.36 148.72 455.37"/><polygon class="cls-5" points="148.69 455.38 150.46 446.36 150.49 446.35 148.72 455.37 148.69 455.38"/><polygon class="cls-5" points="148.66 455.39 150.43 446.37 150.46 446.36 148.69 455.38 148.66 455.39"/><polygon class="cls-5" points="148.63 455.4 150.4 446.38 150.43 446.37 148.66 455.39 148.63 455.4"/><polygon class="cls-5" points="148.59 455.41 150.37 446.39 150.4 446.38 148.63 455.4 148.59 455.41"/><polygon class="cls-5" points="148.56 455.42 150.33 446.4 150.37 446.39 148.59 455.41 148.56 455.42"/><polygon class="cls-5" points="148.53 455.43 150.3 446.41 150.33 446.4 148.56 455.42 148.53 455.43"/><polygon class="cls-5" points="148.5 455.44 150.27 446.42 150.3 446.41 148.53 455.43 148.5 455.44"/><polygon class="cls-5" points="148.46 455.45 150.24 446.43 150.27 446.42 148.5 455.44 148.46 455.45"/><polygon class="cls-5" points="148.43 455.46 150.2 446.44 150.24 446.43 148.46 455.45 148.43 455.46"/><polygon class="cls-5" points="148.4 455.47 150.17 446.45 150.2 446.44 148.43 455.46 148.4 455.47"/><polygon class="cls-5" points="148.37 455.49 150.14 446.47 150.17 446.45 148.4 455.47 148.37 455.49"/><polygon class="cls-5" points="148.34 455.5 150.11 446.48 150.14 446.47 148.37 455.49 148.34 455.5"/><polygon class="cls-5" points="148.3 455.51 150.07 446.49 150.11 446.48 148.34 455.5 148.3 455.51"/><polygon class="cls-5" points="148.27 455.52 150.04 446.5 150.07 446.49 148.3 455.51 148.27 455.52"/><polygon class="cls-5" points="148.24 455.53 150.01 446.51 150.04 446.5 148.27 455.52 148.24 455.53"/><polygon class="cls-5" points="148.21 455.54 149.98 446.52 150.01 446.51 148.24 455.53 148.21 455.54"/><polygon class="cls-5" points="148.17 455.55 149.94 446.53 149.98 446.52 148.21 455.54 148.17 455.55"/><polygon class="cls-5" points="148.14 455.56 149.91 446.54 149.94 446.53 148.17 455.55 148.14 455.56"/><polygon class="cls-5" points="148.11 455.57 149.88 446.55 149.91 446.54 148.14 455.56 148.11 455.57"/><polygon class="cls-5" points="148.08 455.58 149.85 446.56 149.88 446.55 148.11 455.57 148.08 455.58"/><polygon class="cls-5" points="148.04 455.59 149.81 446.57 149.85 446.56 148.08 455.58 148.04 455.59"/><polygon class="cls-5" points="148.01 455.6 149.78 446.58 149.81 446.57 148.04 455.59 148.01 455.6"/><polygon class="cls-5" points="147.98 455.61 149.75 446.59 149.78 446.58 148.01 455.6 147.98 455.61"/><polygon class="cls-5" points="147.95 455.62 149.72 446.6 149.75 446.59 147.98 455.61 147.95 455.62"/><polygon class="cls-5" points="147.91 455.63 149.68 446.62 149.72 446.6 147.95 455.62 147.91 455.63"/><polygon class="cls-5" points="147.88 455.65 149.65 446.63 149.68 446.62 147.91 455.63 147.88 455.65"/><polygon class="cls-5" points="147.85 455.66 149.62 446.64 149.65 446.63 147.88 455.65 147.85 455.66"/><polygon class="cls-5" points="147.82 455.67 149.59 446.65 149.62 446.64 147.85 455.66 147.82 455.67"/><polygon class="cls-5" points="147.78 455.68 149.56 446.66 149.59 446.65 147.82 455.67 147.78 455.68"/><polygon class="cls-5" points="147.75 455.69 149.52 446.67 149.56 446.66 147.78 455.68 147.75 455.69"/><polygon class="cls-5" points="147.72 455.7 149.49 446.68 149.52 446.67 147.75 455.69 147.72 455.7"/><polygon class="cls-5" points="147.69 455.71 149.46 446.69 149.49 446.68 147.72 455.7 147.69 455.71"/><polygon class="cls-5" points="147.66 455.72 149.43 446.7 149.46 446.69 147.69 455.71 147.66 455.72"/><polygon class="cls-5" points="147.62 455.73 149.39 446.71 149.43 446.7 147.66 455.72 147.62 455.73"/><polygon class="cls-5" points="147.59 455.74 149.36 446.72 149.39 446.71 147.62 455.73 147.59 455.74"/><polygon class="cls-5" points="147.56 455.75 149.33 446.73 149.36 446.72 147.59 455.74 147.56 455.75"/><polygon class="cls-5" points="147.53 455.76 149.3 446.74 149.33 446.73 147.56 455.75 147.53 455.76"/><polygon class="cls-5" points="147.49 455.77 149.26 446.75 149.3 446.74 147.53 455.76 147.49 455.77"/><polygon class="cls-5" points="147.46 455.78 149.23 446.76 149.26 446.75 147.49 455.77 147.46 455.78"/><polygon class="cls-5" points="147.43 455.79 149.2 446.78 149.23 446.76 147.46 455.78 147.43 455.79"/><polygon class="cls-5" points="147.4 455.81 149.17 446.79 149.2 446.78 147.43 455.79 147.4 455.81"/><polygon class="cls-5" points="147.36 455.82 149.13 446.8 149.17 446.79 147.4 455.81 147.36 455.82"/><polygon class="cls-5" points="147.33 455.83 149.1 446.81 149.13 446.8 147.36 455.82 147.33 455.83"/><polygon class="cls-5" points="147.3 455.84 149.07 446.82 149.1 446.81 147.33 455.83 147.3 455.84"/><polygon class="cls-5" points="147.27 455.85 149.04 446.83 149.07 446.82 147.3 455.84 147.27 455.85"/><polygon class="cls-5" points="147.23 455.86 149 446.84 149.04 446.83 147.27 455.85 147.23 455.86"/><polygon class="cls-5" points="147.2 455.87 148.97 446.85 149 446.84 147.23 455.86 147.2 455.87"/><polygon class="cls-5" points="147.17 455.88 148.94 446.86 148.97 446.85 147.2 455.87 147.17 455.88"/><polygon class="cls-5" points="147.14 455.89 148.91 446.87 148.94 446.86 147.17 455.88 147.14 455.89"/><polygon class="cls-5" points="147.1 455.9 148.88 446.88 148.91 446.87 147.14 455.89 147.1 455.9"/><polygon class="cls-5" points="147.07 455.91 148.84 446.89 148.88 446.88 147.1 455.9 147.07 455.91"/><polygon class="cls-5" points="147.04 455.92 148.81 446.9 148.84 446.89 147.07 455.91 147.04 455.92"/><polygon class="cls-5" points="147.01 455.93 148.78 446.91 148.81 446.9 147.04 455.92 147.01 455.93"/><polygon class="cls-5" points="146.98 455.94 148.75 446.92 148.78 446.91 147.01 455.93 146.98 455.94"/><polygon class="cls-5" points="146.94 455.96 148.71 446.94 148.75 446.92 146.98 455.94 146.94 455.96"/><polygon class="cls-5" points="146.91 455.97 148.68 446.95 148.71 446.94 146.94 455.96 146.91 455.97"/><polygon class="cls-5" points="146.88 455.98 148.65 446.96 148.68 446.95 146.91 455.97 146.88 455.98"/><polygon class="cls-5" points="146.85 455.99 148.62 446.97 148.65 446.96 146.88 455.98 146.85 455.99"/><polygon class="cls-5" points="146.81 456 148.58 446.98 148.62 446.97 146.85 455.99 146.81 456"/><polygon class="cls-5" points="146.78 456.01 148.55 446.99 148.58 446.98 146.81 456 146.78 456.01"/><polygon class="cls-5" points="146.75 456.02 148.52 447 148.55 446.99 146.78 456.01 146.75 456.02"/><polygon class="cls-5" points="146.72 456.03 148.49 447.01 148.52 447 146.75 456.02 146.72 456.03"/><polygon class="cls-5" points="146.68 456.04 148.45 447.02 148.49 447.01 146.72 456.03 146.68 456.04"/><polygon class="cls-5" points="146.65 456.05 148.42 447.03 148.45 447.02 146.68 456.04 146.65 456.05"/><polygon class="cls-5" points="146.62 456.06 148.39 447.04 148.42 447.03 146.65 456.05 146.62 456.06"/><polygon class="cls-5" points="146.59 456.07 148.36 447.05 148.39 447.04 146.62 456.06 146.59 456.07"/><polygon class="cls-5" points="146.55 456.08 148.32 447.06 148.36 447.05 146.59 456.07 146.55 456.08"/><polygon class="cls-5" points="146.52 456.09 148.29 447.07 148.32 447.06 146.55 456.08 146.52 456.09"/><polygon class="cls-5" points="146.49 456.1 148.26 447.08 148.29 447.07 146.52 456.09 146.49 456.1"/><polygon class="cls-5" points="146.46 456.12 148.23 447.1 148.26 447.08 146.49 456.1 146.46 456.12"/><polygon class="cls-5" points="146.42 456.13 148.2 447.11 148.23 447.1 146.46 456.12 146.42 456.13"/><polygon class="cls-5" points="146.39 456.14 148.16 447.12 148.2 447.11 146.42 456.13 146.39 456.14"/><polygon class="cls-5" points="146.36 456.15 148.13 447.13 148.16 447.12 146.39 456.14 146.36 456.15"/><polygon class="cls-5" points="146.33 456.16 148.1 447.14 148.13 447.13 146.36 456.15 146.33 456.16"/><polygon class="cls-5" points="146.29 456.17 148.07 447.15 148.1 447.14 146.33 456.16 146.29 456.17"/><polygon class="cls-5" points="146.26 456.18 148.03 447.16 148.07 447.15 146.29 456.17 146.26 456.18"/><polygon class="cls-5" points="146.23 456.19 148 447.17 148.03 447.16 146.26 456.18 146.23 456.19"/><polygon class="cls-5" points="146.2 456.2 147.97 447.18 148 447.17 146.23 456.19 146.2 456.2"/><polygon class="cls-5" points="146.17 456.21 147.94 447.19 147.97 447.18 146.2 456.2 146.17 456.21"/><polygon class="cls-5" points="146.13 456.22 147.9 447.2 147.94 447.19 146.17 456.21 146.13 456.22"/><polygon class="cls-5" points="146.1 456.23 147.87 447.21 147.9 447.2 146.13 456.22 146.1 456.23"/><polygon class="cls-5" points="146.07 456.24 147.84 447.22 147.87 447.21 146.1 456.23 146.07 456.24"/><polygon class="cls-5" points="146.04 456.25 147.81 447.23 147.84 447.22 146.07 456.24 146.04 456.25"/><polygon class="cls-5" points="146 456.26 147.77 447.24 147.81 447.23 146.04 456.25 146 456.26"/><polygon class="cls-5" points="145.97 456.28 147.74 447.26 147.77 447.24 146 456.26 145.97 456.28"/><polygon class="cls-5" points="145.94 456.29 147.71 447.27 147.74 447.26 145.97 456.28 145.94 456.29"/><polygon class="cls-5" points="145.91 456.3 147.68 447.28 147.71 447.27 145.94 456.29 145.91 456.3"/><polygon class="cls-5" points="145.87 456.31 147.64 447.29 147.68 447.28 145.91 456.3 145.87 456.31"/><polygon class="cls-5" points="145.84 456.32 147.61 447.3 147.64 447.29 145.87 456.31 145.84 456.32"/><polygon class="cls-5" points="145.81 456.33 147.58 447.31 147.61 447.3 145.84 456.32 145.81 456.33"/><polygon class="cls-5" points="145.78 456.34 147.55 447.32 147.58 447.31 145.81 456.33 145.78 456.34"/><polygon class="cls-5" points="145.74 456.35 147.51 447.33 147.55 447.32 145.78 456.34 145.74 456.35"/><polygon class="cls-5" points="145.71 456.36 147.48 447.34 147.51 447.33 145.74 456.35 145.71 456.36"/><polygon class="cls-5" points="145.68 456.37 147.45 447.35 147.48 447.34 145.71 456.36 145.68 456.37"/><polygon class="cls-5" points="145.65 456.38 147.42 447.36 147.45 447.35 145.68 456.37 145.65 456.38"/><polygon class="cls-5" points="145.61 456.39 147.39 447.37 147.42 447.36 145.65 456.38 145.61 456.39"/><polygon class="cls-5" points="145.58 456.4 147.35 447.38 147.39 447.37 145.61 456.39 145.58 456.4"/><polygon class="cls-5" points="145.55 456.41 147.32 447.39 147.35 447.38 145.58 456.4 145.55 456.41"/><polygon class="cls-5" points="145.52 456.42 147.29 447.4 147.32 447.39 145.55 456.41 145.52 456.42"/><polygon class="cls-5" points="145.49 456.44 147.26 447.42 147.29 447.4 145.52 456.42 145.49 456.44"/><polygon class="cls-5" points="145.45 456.45 147.22 447.43 147.26 447.42 145.49 456.44 145.45 456.45"/><polygon class="cls-5" points="145.42 456.46 147.19 447.44 147.22 447.43 145.45 456.45 145.42 456.46"/><polygon class="cls-5" points="145.39 456.47 147.16 447.45 147.19 447.44 145.42 456.46 145.39 456.47"/><polygon class="cls-5" points="145.36 456.48 147.13 447.46 147.16 447.45 145.39 456.47 145.36 456.48"/><polygon class="cls-5" points="145.32 456.49 147.09 447.47 147.13 447.46 145.36 456.48 145.32 456.49"/><polygon class="cls-5" points="145.29 456.5 147.06 447.48 147.09 447.47 145.32 456.49 145.29 456.5"/><polygon class="cls-5" points="145.26 456.51 147.03 447.49 147.06 447.48 145.29 456.5 145.26 456.51"/><polygon class="cls-5" points="145.23 456.52 147 447.5 147.03 447.49 145.26 456.51 145.23 456.52"/><polygon class="cls-5" points="145.19 456.53 146.96 447.51 147 447.5 145.23 456.52 145.19 456.53"/><polygon class="cls-5" points="145.16 456.54 146.93 447.52 146.96 447.51 145.19 456.53 145.16 456.54"/><polygon class="cls-5" points="145.13 456.55 146.9 447.53 146.93 447.52 145.16 456.54 145.13 456.55"/><polygon class="cls-5" points="145.1 456.56 146.87 447.54 146.9 447.53 145.13 456.55 145.1 456.56"/><polygon class="cls-5" points="145.06 456.57 146.83 447.55 146.87 447.54 145.1 456.56 145.06 456.57"/><polygon class="cls-5" points="145.03 456.58 146.8 447.57 146.83 447.55 145.06 456.57 145.03 456.58"/><polygon class="cls-5" points="145 456.6 146.77 447.58 146.8 447.57 145.03 456.58 145 456.6"/><polygon class="cls-5" points="144.97 456.61 146.74 447.59 146.77 447.58 145 456.6 144.97 456.61"/><polygon class="cls-5" points="144.93 456.62 146.71 447.6 146.74 447.59 144.97 456.61 144.93 456.62"/><polygon class="cls-5" points="144.9 456.63 146.67 447.61 146.71 447.6 144.93 456.62 144.9 456.63"/><polygon class="cls-5" points="144.87 456.64 146.64 447.62 146.67 447.61 144.9 456.63 144.87 456.64"/><polygon class="cls-5" points="144.84 456.65 146.61 447.63 146.64 447.62 144.87 456.64 144.84 456.65"/><polygon class="cls-5" points="144.81 456.66 146.58 447.64 146.61 447.63 144.84 456.65 144.81 456.66"/><polygon class="cls-5" points="144.77 456.67 146.54 447.65 146.58 447.64 144.81 456.66 144.77 456.67"/><polygon class="cls-5" points="144.74 456.68 146.51 447.66 146.54 447.65 144.77 456.67 144.74 456.68"/><polygon class="cls-5" points="144.71 456.69 146.48 447.67 146.51 447.66 144.74 456.68 144.71 456.69"/><polygon class="cls-5" points="144.68 456.7 146.45 447.68 146.48 447.67 144.71 456.69 144.68 456.7"/><polygon class="cls-5" points="144.64 456.71 146.41 447.69 146.45 447.68 144.68 456.7 144.64 456.71"/><polygon class="cls-5" points="144.61 456.72 146.38 447.7 146.41 447.69 144.64 456.71 144.61 456.72"/><polygon class="cls-5" points="144.58 456.73 146.35 447.71 146.38 447.7 144.61 456.72 144.58 456.73"/><polygon class="cls-5" points="144.55 456.74 146.32 447.73 146.35 447.71 144.58 456.73 144.55 456.74"/><polygon class="cls-5" points="144.51 456.76 146.28 447.74 146.32 447.73 144.55 456.74 144.51 456.76"/><polygon class="cls-5" points="144.48 456.77 146.25 447.75 146.28 447.74 144.51 456.76 144.48 456.77"/><polygon class="cls-5" points="144.45 456.78 146.22 447.76 146.25 447.75 144.48 456.77 144.45 456.78"/><polygon class="cls-5" points="144.42 456.79 146.19 447.77 146.22 447.76 144.45 456.78 144.42 456.79"/><polygon class="cls-5" points="144.38 456.8 146.15 447.78 146.19 447.77 144.42 456.79 144.38 456.8"/><polygon class="cls-5" points="144.35 456.81 146.12 447.79 146.15 447.78 144.38 456.8 144.35 456.81"/><polygon class="cls-5" points="144.32 456.82 146.09 447.8 146.12 447.79 144.35 456.81 144.32 456.82"/><polygon class="cls-5" points="144.29 456.83 146.06 447.81 146.09 447.8 144.32 456.82 144.29 456.83"/><polygon class="cls-5" points="144.25 456.84 146.03 447.82 146.06 447.81 144.29 456.83 144.25 456.84"/><polygon class="cls-5" points="146.03 447.82 144.25 456.84 142.28 449.06 146.03 447.82"/></g><path class="cls-5" d="m158.27,434.06c3.19-1.05,6.77.18,8.87,3.4,2.71,4.14,1.95,9.99-1.69,13.08l-16.3,13.81c-3.64,3.08-8.78,2.22-11.48-1.92-2.71-4.14-1.95-10,1.69-13.08l16.3-13.81c.81-.69,1.7-1.18,2.62-1.48Z"/><polyline class="cls-2" points="22.35 296.27 36.17 307.85 49.97 296.25 63.79 307.83 77.6 296.23 91.42 307.81 105.23 296.21 119.05 307.79"/><polyline class="cls-2" points="22.35 311.28 36.17 322.86 49.97 311.26 63.79 322.84 77.6 311.24 91.42 322.82 105.23 311.22 119.05 322.8"/><polyline class="cls-2" points="22.35 326.3 36.17 337.88 49.97 326.28 63.79 337.86 77.6 326.26 91.42 337.84 105.23 326.24 119.05 337.82"/><polyline class="cls-2" points="22.35 341.31 36.17 352.89 49.97 341.29 63.79 352.87 77.6 341.27 91.42 352.85 105.23 341.25 119.05 352.83"/><polyline class="cls-2" points="22.35 356.32 36.17 367.9 49.97 356.3 63.79 367.88 77.6 356.28 91.42 367.86 105.23 356.26 119.05 367.84"/><g class="cls-7"><circle class="cls-3" cx="311.46" cy="297.74" r="80.68"/><circle class="cls-3" cx="311.37" cy="299.68" r="92.59"/><circle class="cls-3" cx="311.37" cy="297.15" r="110.33"/><circle class="cls-3" cx="311.37" cy="297.15" r="127.72"/><circle class="cls-3" cx="308.48" cy="299.68" r="142.57"/><circle class="cls-3" cx="311.46" cy="297.48" r="67.67"/><circle class="cls-3" cx="311.46" cy="296.44" r="53.09"/><circle class="cls-3" cx="311.46" cy="295.66" r="36.7"/><circle class="cls-3" cx="311.73" cy="294.35" r="18.22"/><circle class="cls-3" cx="311.46" cy="294.88" r="5.21"/></g><circle class="cls-5" cx="419.28" cy="190.77" r="189.06"/></g></g></g></svg>