<?xml version="1.0" encoding="UTF-8"?><svg id="Camada_2" xmlns="http://www.w3.org/2000/svg" viewBox="0 0 866.42 622.87"><defs><style>.cls-1{fill:#3f8d91;}.cls-2{opacity:.3;}</style></defs><g id="Camada_3"><g class="cls-2"><path class="cls-1" d="m514.31,215.01c-2.55,0-4.8-.5-6.76-1.48-1.95-.99-3.48-2.37-4.58-4.12-1.09-1.76-1.64-3.78-1.64-6.06s.56-4.38,1.69-6.11c1.12-1.73,2.66-3.07,4.62-4.03s4.19-1.44,6.71-1.44,4.85.49,6.8,1.47c1.95.97,3.47,2.33,4.55,4.06,1.08,1.73,1.62,3.74,1.62,6.06s-.55,4.35-1.64,6.1c-1.1,1.76-2.62,3.13-4.57,4.1-1.95.98-4.22,1.46-6.8,1.46Zm.09-6.76c1.23,0,2.24-.46,3.04-1.37s1.19-2.1,1.19-3.54-.39-2.62-1.17-3.54c-.78-.91-1.77-1.37-2.97-1.37-1.29,0-2.34.46-3.13,1.37-.8.92-1.19,2.1-1.19,3.54s.4,2.62,1.19,3.54,1.81,1.37,3.04,1.37Z"/><path class="cls-1" d="m0,22.57l6.85-11.71L.45,0h9.51l2.52,5.31L15.09,0h9.24l-6.31,10.86,6.76,11.71h-9.24l-3.06-5.77-2.97,5.77H0Z"/><path class="cls-1" d="m196.55,215.01c-2.55,0-4.8-.5-6.76-1.48-1.95-.99-3.48-2.37-4.58-4.12-1.09-1.76-1.64-3.78-1.64-6.06s.56-4.38,1.69-6.11c1.12-1.73,2.66-3.07,4.62-4.03s4.19-1.44,6.71-1.44,4.85.49,6.8,1.47c1.95.97,3.47,2.33,4.55,4.06,1.08,1.73,1.62,3.74,1.62,6.06s-.55,4.35-1.64,6.1-2.62,3.13-4.57,4.1c-1.95.98-4.22,1.46-6.8,1.46Zm.09-6.76c1.23,0,2.24-.46,3.04-1.37s1.19-2.1,1.19-3.54-.39-2.62-1.17-3.54c-.78-.91-1.77-1.37-2.97-1.37-1.29,0-2.34.46-3.13,1.37-.8.92-1.19,2.1-1.19,3.54s.4,2.62,1.19,3.54,1.81,1.37,3.04,1.37Z"/><path class="cls-1" d="m853.4,203.15c-2.55,0-4.8-.5-6.76-1.48-1.95-.99-3.48-2.37-4.58-4.12-1.09-1.76-1.64-3.78-1.64-6.06s.56-4.38,1.69-6.11c1.12-1.73,2.66-3.07,4.62-4.03s4.19-1.44,6.71-1.44,4.85.49,6.8,1.47c1.95.97,3.47,2.33,4.55,4.06,1.08,1.73,1.62,3.74,1.62,6.06s-.55,4.35-1.64,6.1-2.62,3.13-4.57,4.1c-1.95.98-4.22,1.46-6.8,1.46Zm.09-6.76c1.23,0,2.24-.46,3.04-1.37s1.19-2.1,1.19-3.54-.39-2.62-1.17-3.54c-.78-.91-1.77-1.37-2.97-1.37-1.29,0-2.34.46-3.13,1.37-.8.92-1.19,2.1-1.19,3.54s.4,2.62,1.19,3.54,1.81,1.37,3.04,1.37Z"/><path class="cls-1" d="m327.24,22.57l6.85-11.71-6.4-10.86h9.51l2.52,5.31,2.62-5.31h9.24l-6.31,10.86,6.76,11.71h-9.24l-3.06-5.77-2.97,5.77h-9.51Z"/><path class="cls-1" d="m635.51,22.57l6.85-11.71-6.4-10.86h9.51l2.52,5.31,2.62-5.31h9.24l-6.31,10.86,6.76,11.71h-9.24l-3.06-5.77-2.97,5.77h-9.51Z"/><path class="cls-1" d="m514.31,622.87c-2.55,0-4.8-.5-6.76-1.48-1.95-.99-3.48-2.37-4.58-4.12-1.09-1.76-1.64-3.78-1.64-6.06s.56-4.38,1.69-6.11c1.12-1.73,2.66-3.07,4.62-4.03s4.19-1.44,6.71-1.44,4.85.49,6.8,1.47c1.95.97,3.47,2.33,4.55,4.06,1.08,1.73,1.62,3.74,1.62,6.06s-.55,4.35-1.64,6.1-2.62,3.13-4.57,4.1c-1.95.98-4.22,1.46-6.8,1.46Zm.09-6.76c1.23,0,2.24-.46,3.04-1.37s1.19-2.1,1.19-3.54-.39-2.62-1.17-3.54c-.78-.91-1.77-1.37-2.97-1.37-1.29,0-2.34.46-3.13,1.37-.8.92-1.19,2.1-1.19,3.54s.4,2.62,1.19,3.54,1.81,1.37,3.04,1.37Z"/><path class="cls-1" d="m0,430.44l6.85-11.71-6.4-10.86h9.51l2.52,5.31,2.62-5.31h9.24l-6.31,10.86,6.76,11.71h-9.24l-3.06-5.77-2.97,5.77H0Z"/><path class="cls-1" d="m196.55,622.87c-2.55,0-4.8-.5-6.76-1.48-1.95-.99-3.48-2.37-4.58-4.12-1.09-1.76-1.64-3.78-1.64-6.06s.56-4.38,1.69-6.11c1.12-1.73,2.66-3.07,4.62-4.03s4.19-1.44,6.71-1.44,4.85.49,6.8,1.47c1.95.97,3.47,2.33,4.55,4.06,1.08,1.73,1.62,3.74,1.62,6.06s-.55,4.35-1.64,6.1-2.62,3.13-4.57,4.1c-1.95.98-4.22,1.46-6.8,1.46Zm.09-6.76c1.23,0,2.24-.46,3.04-1.37s1.19-2.1,1.19-3.54-.39-2.62-1.17-3.54c-.78-.91-1.77-1.37-2.97-1.37-1.29,0-2.34.46-3.13,1.37-.8.92-1.19,2.1-1.19,3.54s.4,2.62,1.19,3.54,1.81,1.37,3.04,1.37Z"/><path class="cls-1" d="m853.4,611.01c-2.55,0-4.8-.5-6.76-1.48-1.95-.99-3.48-2.37-4.58-4.12-1.09-1.76-1.64-3.78-1.64-6.06s.56-4.38,1.69-6.11c1.12-1.73,2.66-3.07,4.62-4.03s4.19-1.44,6.71-1.44,4.85.49,6.8,1.47c1.95.97,3.47,2.33,4.55,4.06,1.08,1.73,1.62,3.74,1.62,6.06s-.55,4.35-1.64,6.1-2.62,3.13-4.57,4.1c-1.95.98-4.22,1.46-6.8,1.46Zm.09-6.76c1.23,0,2.24-.46,3.04-1.37s1.19-2.1,1.19-3.54-.39-2.62-1.17-3.54c-.78-.91-1.77-1.37-2.97-1.37-1.29,0-2.34.46-3.13,1.37-.8.92-1.19,2.1-1.19,3.54s.4,2.62,1.19,3.54,1.81,1.37,3.04,1.37Z"/><path class="cls-1" d="m327.24,430.44l6.85-11.71-6.4-10.86h9.51l2.52,5.31,2.62-5.31h9.24l-6.31,10.86,6.76,11.71h-9.24l-3.06-5.77-2.97,5.77h-9.51Z"/><path class="cls-1" d="m635.51,430.44l6.85-11.71-6.4-10.86h9.51l2.52,5.31,2.62-5.31h9.24l-6.31,10.86,6.76,11.71h-9.24l-3.06-5.77-2.97,5.77h-9.51Z"/></g></g></svg>