<?xml version="1.0" encoding="UTF-8"?><svg xmlns="http://www.w3.org/2000/svg" xmlns:xlink="http://www.w3.org/1999/xlink" viewBox="0 0 59.61 69.15"><defs><style>.cls-1{fill:url(#linear-gradient);}.cls-2{fill:#ff8cbd;}.cls-3{fill:#9f9f95;}.cls-4{fill:#84847b;}.cls-5{fill:#dde5dd;}.cls-6{fill:url(#radial-gradient-2);}.cls-7{fill:url(#linear-gradient-3);}.cls-8{fill:url(#linear-gradient-2);}.cls-9{fill:url(#radial-gradient);}.cls-10{isolation:isolate;}.cls-11{fill:#fff;opacity:.8;}.cls-11,.cls-12{mix-blend-mode:overlay;}.cls-12{fill:#822d12;opacity:.5;}.cls-13{fill:#d9a794;opacity:.3;}</style><linearGradient id="linear-gradient" x1="6422.43" y1="4407.47" x2="6444.71" y2="4407.47" gradientTransform="translate(-7779.53 107.85) rotate(-35.03)" gradientUnits="userSpaceOnUse"><stop offset="0" stop-color="#de2020"/><stop offset=".02" stop-color="#d0241e"/><stop offset=".05" stop-color="#bf2a1b"/><stop offset=".09" stop-color="#b32e1a"/><stop offset=".14" stop-color="#ac3019"/><stop offset=".29" stop-color="#ab3119"/><stop offset=".45" stop-color="#a73018"/><stop offset=".6" stop-color="#9c2e16"/><stop offset=".75" stop-color="#892b13"/><stop offset=".89" stop-color="#6f270f"/><stop offset=".99" stop-color="#57240c"/></linearGradient><radialGradient id="radial-gradient" cx="3508.53" cy="4470.49" fx="3508.53" fy="4470.49" r="21.17" gradientTransform="translate(-5645.23 602.42) rotate(-57.7)" gradientUnits="userSpaceOnUse"><stop offset="0" stop-color="#f5c2bb"/><stop offset=".45" stop-color="#e86c5c"/><stop offset=".55" stop-color="#e46a59"/><stop offset=".65" stop-color="#d96451"/><stop offset=".75" stop-color="#c65a43"/><stop offset=".84" stop-color="#ac4c30"/><stop offset=".93" stop-color="#8a3a17"/><stop offset="1" stop-color="#6b2a00"/></radialGradient><linearGradient id="linear-gradient-2" x1="6425.65" y1="4397.29" x2="6440.63" y2="4397.29" gradientTransform="translate(-7779.53 107.85) rotate(-35.03)" gradientUnits="userSpaceOnUse"><stop offset="0" stop-color="#de2020"/><stop offset=".09" stop-color="#ce1513"/><stop offset=".22" stop-color="#bf0a06"/><stop offset=".32" stop-color="#ba0702"/><stop offset=".44" stop-color="#b40802"/><stop offset=".58" stop-color="#a60c04"/><stop offset=".74" stop-color="#8d1306"/><stop offset=".91" stop-color="#6b1d09"/><stop offset=".99" stop-color="#57240c"/></linearGradient><linearGradient id="linear-gradient-3" x1="6425.58" y1="4387.27" x2="6441.48" y2="4387.27" gradientTransform="translate(-6426.56 -4380.94)" xlink:href="#linear-gradient"/><radialGradient id="radial-gradient-2" cx="3517.85" cy="4454.65" fx="3517.85" fy="4454.65" r="17.55" gradientTransform="translate(-4963.31 -2750.59) rotate(-22.66)" gradientUnits="userSpaceOnUse"><stop offset="0" stop-color="#f6c4bc"/><stop offset=".45" stop-color="#e86c5c"/><stop offset=".55" stop-color="#e46a59"/><stop offset=".65" stop-color="#d96451"/><stop offset=".75" stop-color="#c65a43"/><stop offset=".84" stop-color="#ac4c30"/><stop offset=".93" stop-color="#8a3a17"/><stop offset="1" stop-color="#6b2a00"/></radialGradient></defs><g class="cls-10"><g id="Camada_2"><g id="Camada_2-2"><path class="cls-2" d="m57.1,39.42s-.02-.13-.05-.35c-.26.22-.53.52-.57.9-.07.77-.83.83-1.88.77-1.04-.07-2.09-2.71-2.09-3.13s1.46-2.43,2.29-2.43c.54,0,1.31.58,1.93.99-.02-.31-.03-.54-.02-.63.08-.45.6-5.61-.3-6.14-.9-.52-1.8-5.76-2.1-6.28-.3-.52-3.59-.23-3.97-.82-.37-.59-3.14-.02-3.2-.58-.43.64-.92,1.34-1.16,1.63-.5.6-1.9.2-2.09,1.2-.2,1-1.9,2-2.69,2s-1.4,1.4-1.4,2.3-1.6,2.1-2.89,2.1-.9,1.1-1.3,2.49c-.4,1.4-1,1.5-3.19,1.5s-2.29-.2-3.99-1.3c-1.69-1.1-2.19.9-2.29,1.79-.1.9-2.39,2.69-3.09,3.49-.7.8-2.39.2-3.39.2s-.6-.9-.6-1.5.5-.2.7-.8c.2-.6-.7-2.79-1.1-3.79-.17-.43-.86-.79-1.6-1.05v12.32c0,1.1-1.8,1.6-2.19,2.2-.4.6-2.89.1-4.29.1s-1.1-1.4-1.8-2.39c-.7-1-1.9.3-1.9,1,0,.53-.62.43-1.44.35,1.09,1.73,2.05,3.75,2.54,5.39.8,2.64,2.74,5.14,3.24,6.68.5,1.55,1.05,2.99,0,3.14-1.05.15-1.05,1.05.05,2.74,1.1,1.7.15,2.69,1.1,2.89.95.2.65.8,1.4.85.75.05,1.3.8,1.8,1.45.5.65,1.64.65,2.19-.15.55-.8,2.25-1.05,3.99-1.05s1.4-.75,3.09-1.25c1.7-.5,3.74-.55,5.19-.05,1.45.5,2.54.05,3.24-.4.7-.45,2.04.7,2.14-.45.1-1.15,1.5-.95,2.79-.95s4.44-2.05,6.93-4.39c2.5-2.34,6.63-7.48,8.03-9.83,1.4-2.35,3.69-4.34,4.84-5.39.86-.78,1.35-3.54,1.59-5.55-1.18-.01-2.51.19-2.51.19Zm-10.4,11.15c0,.8-1.8-.2-2.19.6-.4.8-.8,1.8-.8,1.8l-1.4-.2-1.99-2.8s1.6-2.19,1.99-2.99c.4-.8,2.99-2.19,3.39-1.4.4.8,2.19,1.8,2.19,2.59s-1.2,1.6-1.2,2.39Z"/><path class="cls-3" d="m32.95,41.88l-13.65-20.39-2.14,1.5,15.02,20.34s.12.14.56-.56c.48-.76.2-.9.2-.9Z"/><path class="cls-4" d="m19.1,21.63l-.43.3,14.19,20.64s.17-.34.15-.36l-13.92-20.59Z"/><path class="cls-5" d="m18.16,23.57l14.24,19.64c.13-.03.29-.36.31-.37,0,0-.07-.11-.07-.11l-13.63-19.39c-.29.08-.57.17-.85.24Z"/><path class="cls-1" d="m28.2,16.66c2.47,3.53.34,9.29-4.77,12.87-5.11,3.58-11.25,3.62-13.72.09-2.47-3.53-.34-9.29,4.77-12.87,5.11-3.58,11.25-3.62,13.72-.09Z"/><path class="cls-9" d="m27.4,16.17c2.25,3.21.07,8.61-4.86,12.08-4.94,3.46-10.76,3.67-13.01.46s-.07-8.61,4.86-12.08c4.94-3.46,10.76-3.67,13.01-.46Z"/><path class="cls-11" d="m22.8,27.66c-4.98,3.49-10.95,3.56-13.35.14-.39-.55-.66-1.16-.81-1.81.04,1,.33,1.92.88,2.71,2.25,3.21,8.07,3,13.01-.46,2.83-1.98,4.75-4.6,5.45-7.08-.81,2.33-2.61,4.69-5.18,6.49Z"/><path class="cls-8" d="m2.6,9.6c4.3,6.45,8.02,13.55,8.29,13.93,1.41,2.01,5.05,1.88,8.14-.29,3.09-2.17,4.45-5.55,3.04-7.56-.27-.38-5.68-6.3-10.28-12.54L2.6,9.6Z"/><path class="cls-13" d="m6.04,15.06c2.68,4.47,4.65,8.2,4.84,8.47.9,1.28,2.72,1.69,4.72,1.26,0,0-1.17-1.89-5.37-7.41-5.76-7.56-4.76-3.27-4.19-2.32Z"/><path class="cls-12" d="m21.64,20.55s.03-.05.04-.07c.04-.06.08-.13.11-.19.01-.02.02-.04.03-.06.04-.07.08-.13.11-.2,0-.01.01-.03.02-.04.04-.07.07-.14.11-.22,0,0,0-.01,0-.02.51-1.07.68-2.15.44-3.07-1.82-2.1-5.88-6.77-9.69-11.69,0,0,0-.01,0-.02-.3,1.6-1.5,3.35-3.34,4.65-2,1.4-4.24,1.9-5.89,1.48.2.31.4.62.59.93,1.77.61,4.23.16,6.38-1.35.72-.5,1.3-1.01,1.76-1.55,2.88,3.82,6.16,8.05,8.54,11.1-.61,1.17-1.61,2.33-2.94,3.26-.89.63-1.84,1.08-2.76,1.37,1.25-.2,2.6-.74,3.86-1.62.97-.68,1.77-1.48,2.36-2.32h0s.05-.08.08-.11c.02-.03.03-.05.05-.08.04-.06.08-.12.12-.18Z"/><ellipse class="cls-7" cx="7.36" cy="6.6" rx="8.05" ry="5.57" transform="translate(-2.45 5.42) rotate(-35.04)"/><ellipse class="cls-6" cx="7.01" cy="6.1" rx="7.79" ry="5.06" transform="translate(-2.23 5.13) rotate(-35.04)"/><path class="cls-11" d="m10.11,9.82c-3.55,2.49-7.81,2.54-9.52.1-.28-.39-.47-.83-.58-1.29.03.71.23,1.37.63,1.94,1.6,2.29,5.76,2.14,9.28-.33,2.02-1.41,3.39-3.28,3.89-5.05-.58,1.66-1.86,3.35-3.7,4.63Z"/></g></g></g></svg>