<?xml version="1.0" encoding="UTF-8"?><svg xmlns="http://www.w3.org/2000/svg" xmlns:xlink="http://www.w3.org/1999/xlink" viewBox="0 0 70.96 61.28"><defs><style>.cls-1{fill:url(#linear-gradient);}.cls-2{fill:#ed3c77;}.cls-3{fill:#9f9f95;}.cls-4{fill:#84847b;}.cls-5{fill:#dde5dd;}.cls-6{fill:url(#radial-gradient-2);}.cls-7{fill:url(#linear-gradient-3);}.cls-8{fill:url(#linear-gradient-2);}.cls-9{fill:url(#radial-gradient);}.cls-10{isolation:isolate;}.cls-11{fill:#fff;opacity:.8;}.cls-11,.cls-12{mix-blend-mode:overlay;}.cls-12{fill:#822d12;opacity:.5;}.cls-13{fill:#d9a794;opacity:.3;}</style><linearGradient id="linear-gradient" x1="6150.33" y1="3453.48" x2="6172.78" y2="3453.48" gradientTransform="translate(-5425.67 4508.08) rotate(-68.77)" gradientUnits="userSpaceOnUse"><stop offset="0" stop-color="#de2020"/><stop offset=".02" stop-color="#d0241e"/><stop offset=".05" stop-color="#bf2a1b"/><stop offset=".09" stop-color="#b32e1a"/><stop offset=".14" stop-color="#ac3019"/><stop offset=".29" stop-color="#ab3119"/><stop offset=".45" stop-color="#a73018"/><stop offset=".6" stop-color="#9c2e16"/><stop offset=".75" stop-color="#892b13"/><stop offset=".89" stop-color="#6f270f"/><stop offset=".99" stop-color="#57240c"/></linearGradient><radialGradient id="radial-gradient" cx="3718.2" cy="3498.79" fx="3718.2" fy="3498.79" r="21.33" gradientTransform="translate(-3387.26 3827.75) rotate(-91.43)" gradientUnits="userSpaceOnUse"><stop offset="0" stop-color="#f5c2bb"/><stop offset=".45" stop-color="#e86c5c"/><stop offset=".55" stop-color="#e46a59"/><stop offset=".65" stop-color="#d96451"/><stop offset=".75" stop-color="#c65a43"/><stop offset=".84" stop-color="#ac4c30"/><stop offset=".93" stop-color="#8a3a17"/><stop offset="1" stop-color="#6b2a00"/></radialGradient><linearGradient id="linear-gradient-2" x1="6153.58" y1="3443.22" x2="6168.68" y2="3443.22" gradientTransform="translate(-5425.67 4508.08) rotate(-68.77)" gradientUnits="userSpaceOnUse"><stop offset="0" stop-color="#de2020"/><stop offset=".09" stop-color="#ce1513"/><stop offset=".22" stop-color="#bf0a06"/><stop offset=".32" stop-color="#ba0702"/><stop offset=".44" stop-color="#b40802"/><stop offset=".58" stop-color="#a60c04"/><stop offset=".74" stop-color="#8d1306"/><stop offset=".91" stop-color="#6b1d09"/><stop offset=".99" stop-color="#57240c"/></linearGradient><linearGradient id="linear-gradient-3" x1="6153.51" y1="3433.12" x2="6169.53" y2="3433.12" gradientTransform="translate(-6155.73 -3425.54)" xlink:href="#linear-gradient"/><radialGradient id="radial-gradient-2" cx="3727.59" cy="3482.83" fx="3727.59" fy="3482.83" r="17.69" gradientTransform="translate(-4783.98 -1771.47) rotate(-22.66)" gradientUnits="userSpaceOnUse"><stop offset="0" stop-color="#f6c4bc"/><stop offset=".45" stop-color="#e86c5c"/><stop offset=".55" stop-color="#e46a59"/><stop offset=".65" stop-color="#d96451"/><stop offset=".75" stop-color="#c65a43"/><stop offset=".84" stop-color="#ac4c30"/><stop offset=".93" stop-color="#8a3a17"/><stop offset="1" stop-color="#6b2a00"/></radialGradient></defs><g class="cls-10"><g id="Camada_2"><g id="Camada_2-2"><path class="cls-2" d="m38.93,33.2c-1.48-1.43-3.39.81-4.95.79-.26,1.14-.67,1.96-1.08,2.26-.62.44-1.77,2.13-.89,2.3.89.18,2.3,1.59,2.48.53.18-1.06.8-2.48,2.3-.71.36.42.82.82,1.31,1.18.24-.8,2.09-.94,3.05-1.9,1.17-1.17-.59-2.87-2.22-4.45Zm32.02,14.52c.12-1.76-3.75-2.99-4.16-2.05-.41.93-1.29.82-1.93-.24-.64-1.05.59-2.05-.06-2.17-.64-.12-1.46-1.58-1.29-2.17.18-.59-1-4.33-2.99-4.8-1.99-.47-2.28-3.28-2.63-4.8-.35-1.52-1.64-.7-2.63-1.99-1-1.29-2.69-.65-3.57-.59-.88.06,0-1.64,1.4-2.57,1.4-.94,3.05-5.91,3.05-6.91s-6.15-.94-7.32-.35c-1.17.59-2.34-.88-1.35-1.29,1-.41,3.1-2.46,2.99-3.28-.12-.82,1.47-1.58.59-2.34-.88-.76-1,1-1.76,1.58-.76.59-2.46.41-4.28.06-1.81-.35-2.52,2.22-2.46,3.34.06,1.11-2.11,1.76-1.76,2.69.35.94-.41,1.64-.99,1.11-.58-.53-1.23-1.81-2.4-.88-1.17.94,1.35,2.17,2.87,2.34,1.52.17-1.17,1.29-1.46,2.93-.29,1.64,1.99.93,2.11,2.11.12,1.17-3.28,1.35-3.28,2.46s1.93-.53,2.81-.99c.88-.47-.47,2.75,1.64,2.4,2.11-.35,1.52-3.22,2.28-3.1.76.12-.35,1.52.29,2.75.64,1.23-1.52,3.1-1.41,3.98.12.88,4.33.88,5.68-.53,1.35-1.4,1.99.12,1.05,1.17-.94,1.05-.53,2.05.64,2.46,1.17.41,1.58.53,1.05,1.47-.53.93-.06,2.69-.35,3.57-.29.88-3.92.76-4.04.18-.12-.59-1.64-.18-1.23.64.41.82-1.29,1.7-1.17,2.46.12.76,2.28.58,2.34,1.52.06.93-1.58,2.05-3.8,2.69-2.23.64.47,2.4,1.52,1.64,1.05-.76.82.53,2.34.53s2.46,1.23,4.15.58c1.7-.64,1.64,0,.35,1-1.29,1-3.22-.06-4.39.59-1.17.64-5.93,5.11-5.03,6.2.53.64,1.23-.93,2.93-1.64,1.7-.7,1.99.47,2.93.58.94.12.99-1.93,1.76-1.76.76.18,1.46-.64,2.87-.41,1.41.24,2.4-.29,3.1-.88.7-.59,2.57,1.17,3.16.76.58-.41,3.16-.88,4.45-.82,1.29.06,4.62-1.46,5.5-2.28.88-.82-.53-1-1.7-.82-1.17.17-.94-1.17.29-2.34,1.23-1.17,3.16-2.05,3.28-3.8Zm-35.18-29.39c1.58-.06,3.39-2.75,2.63-3.51-.76-.76-3.81,3.56-2.63,3.51Zm22.66-12.7c1-1,2.17-4.8.65-4.39-1.52.41-1.08,4.82-.65,4.39Z"/><path class="cls-3" d="m47.31,23.08l-22.85-9.45-.95,2.46,23.97,8.64s.18.05.16-.78c-.02-.91-.33-.86-.33-.86Z"/><path class="cls-4" d="m24.37,13.87l-.19.49,23.45,9.36s-.04-.38-.07-.39l-23.18-9.47Z"/><path class="cls-5" d="m24.67,16.02l22.92,8.49c.09-.1.04-.46.05-.49,0,0-.12-.05-.12-.05l-22.27-8.63c-.19.23-.39.46-.58.68Z"/><path class="cls-1" d="m29.21,4.61c4.05,1.57,5.48,7.6,3.21,13.45-2.28,5.86-7.4,9.33-11.45,7.76-4.05-1.57-5.48-7.6-3.21-13.45,2.28-5.86,7.4-9.33,11.45-7.76Z"/><path class="cls-9" d="m28.27,4.65c3.68,1.43,4.88,7.18,2.68,12.84-2.2,5.66-6.97,9.09-10.65,7.66s-4.88-7.18-2.68-12.84c2.2-5.66,6.97-9.09,10.65-7.66Z"/><path class="cls-11" d="m30.84,16.84c-2.22,5.71-7.19,9.11-11.11,7.59-.63-.25-1.2-.61-1.7-1.06.59.81,1.35,1.43,2.26,1.78,3.68,1.43,8.45-2,10.65-7.66,1.26-3.24,1.4-6.51.61-8.98.62,2.41.43,5.39-.71,8.34Z"/><path class="cls-8" d="m3.8,13.01c7.21,3,14.3,6.87,14.75,7.04,2.3.89,5.29-1.25,6.66-4.8,1.38-3.54.63-7.14-1.68-8.04-.44-.17-8.29-2.1-15.63-4.76L3.8,13.01Z"/><path class="cls-13" d="m9.75,15.66c4.75,2.24,8.49,4.27,8.8,4.39,1.47.57,3.22-.1,4.66-1.59,0,0-2.04-.93-8.65-3.2-9.05-3.11-5.82-.07-4.81.4Z"/><path class="cls-12" d="m25.89,11.54s0-.05,0-.08c0-.08,0-.15-.01-.22,0-.02,0-.04,0-.07,0-.08-.01-.15-.02-.23,0-.02,0-.03,0-.05,0-.08-.02-.16-.03-.24,0,0,0-.01,0-.02-.18-1.18-.64-2.18-1.35-2.82-2.7-.74-8.72-2.38-14.66-4.37,0,0-.01,0-.02,0,.64,1.51.62,3.65-.2,5.77-.89,2.29-2.49,3.97-4.11,4.54.34.15.68.3,1.02.45,1.83-.48,3.64-2.24,4.6-4.7.32-.82.52-1.58.61-2.28,4.55,1.59,9.67,3.3,13.37,4.53.15,1.32-.05,2.85-.64,4.37-.4,1.03-.93,1.93-1.55,2.69.94-.87,1.76-2.08,2.32-3.52.43-1.11.65-2.23.68-3.27h0s0-.09,0-.14c0-.03,0-.06,0-.09,0-.07,0-.15,0-.22Z"/><ellipse class="cls-7" cx="6.11" cy="7.84" rx="8.12" ry="5.61" transform="translate(-3.4 10.7) rotate(-68.77)"/><ellipse class="cls-6" cx="5.54" cy="7.61" rx="7.85" ry="5.1" transform="translate(-3.56 10.02) rotate(-68.77)"/><path class="cls-11" d="m10.22,9c-1.58,4.07-5.13,6.5-7.92,5.41-.45-.18-.86-.43-1.21-.76.42.58.96,1.02,1.61,1.27,2.63,1.02,6.03-1.43,7.6-5.47.9-2.31,1-4.64.43-6.41.44,1.72.31,3.85-.51,5.95Z"/></g></g></g></svg>