<?xml version="1.0" encoding="UTF-8"?><svg xmlns="http://www.w3.org/2000/svg" xmlns:xlink="http://www.w3.org/1999/xlink" viewBox="0 0 70.81 59.69"><defs><style>.cls-1{fill:url(#linear-gradient);}.cls-2{fill:#9f9f95;}.cls-3{fill:#84847b;}.cls-4{fill:#a599ca;}.cls-5{fill:#dde5dd;}.cls-6{fill:url(#radial-gradient-2);}.cls-7{fill:url(#linear-gradient-3);}.cls-8{fill:url(#linear-gradient-2);}.cls-9{fill:url(#radial-gradient);}.cls-10{isolation:isolate;}.cls-11{fill:#fff;opacity:.8;}.cls-11,.cls-12{mix-blend-mode:overlay;}.cls-12{fill:#822d12;opacity:.5;}.cls-13{fill:#d9a794;opacity:.3;}</style><linearGradient id="linear-gradient" x1="6624.31" y1="5047.26" x2="6645.7" y2="5047.26" gradientTransform="translate(-8136.14 -1724.45) rotate(-25.16)" gradientUnits="userSpaceOnUse"><stop offset="0" stop-color="#de2020"/><stop offset=".02" stop-color="#d0241e"/><stop offset=".05" stop-color="#bf2a1b"/><stop offset=".09" stop-color="#b32e1a"/><stop offset=".14" stop-color="#ac3019"/><stop offset=".29" stop-color="#ab3119"/><stop offset=".45" stop-color="#a73018"/><stop offset=".6" stop-color="#9c2e16"/><stop offset=".75" stop-color="#892b13"/><stop offset=".89" stop-color="#6f270f"/><stop offset=".99" stop-color="#57240c"/></linearGradient><radialGradient id="radial-gradient" cx="3495.27" cy="5144.98" fx="3495.27" fy="5144.98" r="20.32" gradientTransform="translate(-6154.45 -840.36) rotate(-47.82)" gradientUnits="userSpaceOnUse"><stop offset="0" stop-color="#f5c2bb"/><stop offset=".45" stop-color="#e86c5c"/><stop offset=".55" stop-color="#e46a59"/><stop offset=".65" stop-color="#d96451"/><stop offset=".75" stop-color="#c65a43"/><stop offset=".84" stop-color="#ac4c30"/><stop offset=".93" stop-color="#8a3a17"/><stop offset="1" stop-color="#6b2a00"/></radialGradient><linearGradient id="linear-gradient-2" x1="6627.41" y1="5037.49" x2="6641.78" y2="5037.49" gradientTransform="translate(-8136.14 -1724.45) rotate(-25.16)" gradientUnits="userSpaceOnUse"><stop offset="0" stop-color="#de2020"/><stop offset=".09" stop-color="#ce1513"/><stop offset=".22" stop-color="#bf0a06"/><stop offset=".32" stop-color="#ba0702"/><stop offset=".44" stop-color="#b40802"/><stop offset=".58" stop-color="#a60c04"/><stop offset=".74" stop-color="#8d1306"/><stop offset=".91" stop-color="#6b1d09"/><stop offset=".99" stop-color="#57240c"/></linearGradient><linearGradient id="linear-gradient-3" x1="6627.34" y1="5027.87" x2="6642.59" y2="5027.87" gradientTransform="translate(-6628.04 -5022.19)" xlink:href="#linear-gradient"/><radialGradient id="radial-gradient-2" cx="3504.21" cy="5129.78" fx="3504.21" fy="5129.78" r="16.85" gradientTransform="translate(-5210.42 -3379.47) rotate(-22.66)" gradientUnits="userSpaceOnUse"><stop offset="0" stop-color="#f6c4bc"/><stop offset=".45" stop-color="#e86c5c"/><stop offset=".55" stop-color="#e46a59"/><stop offset=".65" stop-color="#d96451"/><stop offset=".75" stop-color="#c65a43"/><stop offset=".84" stop-color="#ac4c30"/><stop offset=".93" stop-color="#8a3a17"/><stop offset="1" stop-color="#6b2a00"/></radialGradient></defs><g class="cls-10"><g id="Camada_2"><g id="Camada_2-2"><path class="cls-4" d="m14.81,53.46c-.23-.24-.82-.18-.91-.41-.09-.22-.64-1.04-.94-1.01-.3.02-.68.04-1.03-.21-.35-.26-.58-.27-.82-.11s.26.19.25.36c-.02.17.16.28.37.24.21-.04.34.4.54.41.33.02.77.55.95.77.19.24.59.22.76.61.48.05.89.09,1.24-.01,0-.11.03-.23.08-.33.12-.23-.26-.07-.49-.31Zm-.95-27.64c.66.14.59,1.1,1.21,1.19.18.03.85-.55,1.2-.53.99.07.57-1.14,1.48-1.38.42-.11.03-.63.62-.77.59-.15,2.22-.86,2.49-1.08.28-.21-.35-.48-.99-.86-.63-.37-1.12-.47-1.6-.15-.16.11-1.78-.26-2.06-.6-.18-.22-2.66.49-2.64.55.13.24.31.44.54.59.32.24-.75,1.02-.54,1.19.21.17-.2.63-.68,1.19-.48.56.35.52.98.65Zm17.44,2.63c.26-.32.95.5,1.11-.05.15-.51-1.12-.84-1.41-1.03-.42-.27-.59-.13-1.26-.61-.67-.48.16-.73-.33-1.11-.49-.38-.68-1.42-.34-1.77.34-.35.72-.88.09-1.11-.63-.24-1.63.23-1.53.37.19.25.98.47.99.82,0,0-.94-.5-1.08-.4-.28.18-.6-.34-.84.01-.24.35.33,1.56.55,1.91.21.35-.2.35-.48.42-.28.07-.33-.97-.61-1.35-.09-.13-1.37-.94-1.47-.54-.08.33.71.24.6.65-.1.38-.53-.24-.9.08-.38.32-.31.11-.25-.21.07-.31-.57-.65-1.26-.58-.7.08-.31.56-.51.74-.11.09-.88.03-.81-.14.26-.56.92-.12.34-1-.25-.38-.9.08-1.98.48-1.07.4-1.56.82-1.42.85.14.03.18.21-.24.56-.39.34.51.98.71,1.04.24.07,1.49-.51,1.84-.27.12.08-1.72.49-1.8.6-.61.86,1.49.79,2.06.68.21-.04,2.68-.17,2.68.35,0,.33-4.5-.02-4.31.72.26.98,2.92.63,2.9,1.08-.03.59.5.72,1.72.74,1.22.02,1.77-.58,2.36-.55.59.03.87-.08,1.14-.5.27-.42.52-.18.59.03.07.21.84.16,1.01.33.45.44,1.92.29,2.47,0,.55-.29-.26-1.04-.53-.69-.27.35-.52.15-.59-.03-.07-.17.55-.29.76-.53Zm-13.34-8.39c.63.06,1.25-.5,1.21-.82-.04-.31-1.52.79-1.21.82Zm-2.9-.94c.24.1,0,.59.28.45.28-.14.35-.18.56-.11.38.12.45-.21.62-.39,0,0,.37.6.57.62.34.03.31-.83.65-.6.35.24.45-.11.52-.35.07-.24.06-.66.44-.74.38-.07.07.38.25.69.26.45.7.03.73-.18.03-.21.66-.08.62-.32-.04-.24.17-.32,0-.59-.18-.28.28-.21.48-.42.14-.14-.97-.35-.99-.35-.18.02,0,.37-.22.38-.34.02-.6-.02-.95-.14-.38-.13-.86.46-1.42.75-.55.29-.58.77-1.1.75-.52-.03-1.28.47-1.04.57Zm5.43-.24c-1.11.09.62.68.59.6-.17.09-.35.11-.54.06-.8-.02-1.14.68-.58.53.56-.15,1.22-.15.8-.01-.42.14-1.55.26-1.39.47.11.14.56.1,1.01.27.45.17.73.27,1.08-.12.34-.39.79-.78.62-.25-.18.56,1.61-.05,1.83.13.22.18-1.42.6-1.48.6-.97.08-.79.57-.03.73.77.16,2.4-.52,2.77-.91.38-.39.73.2,1.11-.08.38-.28,1.11.02,1.77-.13.66-.15.75-1.4.26-1.6-.56-.23-.41.38-.87.32-.46-.06-.61-.42-.91-.72-.32-.31-.12-.9-.57-.83-.45.07-1.42.82-.82.88.59.06.39.38.08.52-.31.14.74.37.6.58-.14.21-1.74.06-1.81-.29-.1-.45-1.03-.69-1.35-.78-.31-.09-1.12-.46-1.35-.47-.52-.03-.34.46-.83.5Zm1.78-2.53c.17-.42-1.16-.33-1.05-.2.25.31.88.62,1.05.2Zm2.89-.21c.45-.08.24-.42-.49-.31-.35.05-1.68.02-1.88.43-.33.65.46.87.96.9.31.02,1.2-.19,1.21-.63-.08-.08-.18-.12-.3-.14.12-.16.28-.25.5-.25Zm-1.71-.64c.14.05,2,.11,2.15-.05.62-.68-1.22-.88-1.6-.65-.35.21-1.95.3-1.49.65.28.21.59-.08.94.06Zm5.8-1.15c.41-.28,1.19.16,1.05.47-.14.31-1.34-.05-1.25.22.04.1.18.52,1.01.27.83-.25,1.53-.09,2.09.36.56.45,1.09.61,1.46.16.38-.46-.49-.52-.32-.87.09-.19-1.7-1.13-1.79-1.09-.13.11-.29.17-.45.19-.37-.22-.21-.43-.85-.61-.4-.11-1.09-.08-1.48.07-.45.18.12,1.11.53.83Zm.28,2.92c.27-.35-1.13-1.45-1.2-.92-.06.52.9,1.3,1.2.92Zm4.46-4.62c.24-.42-1.48-.73-1.05-.37.25.21.81.79,1.05.37Zm-3.83,7.95c.24-.28-.53-.86-.74-.37-.2.49.49.66.74.37Zm3.9-2.49c-.03.35-.84-.06-1.47-.29-.63-.24-.24.49.26.9.49.41-.24.21-.91-.23-.67-.44-.59.32-.27.56.32.24-.06.59-.49.04-.42-.55-.64-1.14-1.3-1.17-.66-.03-.35.65-.09.98,1.05,1.33,1.88.5,3.14.79.42.1-.44.63-.16.98.28.34,1.05.09,1.64.05.59-.04.31-.39.65-.64.34-.25-.35-.2-.08-.8.27-.6-.89-1.52-.92-1.17Zm1.44-2.07c.52,0,.94-.08,1.39-.26.45-.18-.25-.17.06-.59.31-.42-.77-.44-.84-.3-.07.14-1.44-.82-1.64-.5-.2.32.51,1.66,1.03,1.66Zm2.82.14c-.07-.21-2.71.14-2.29.45.7.51,2.36-.24,2.29-.45Zm-.32,5.09c.63-.04.3-.8-.4-1.32-.7-.51-2.25.58-1.97.79.32.24,1.75.57,2.37.53Zm-4.39,4.93c.33.22,1.42-.23,1.71-.47.57-.48.53-1.19.7-1.86.13-.52-.7-.48-.49-.1.12.18.13.36,0,.52.25-.03-1.14-.65-1.09-.57-.25-.34.76-.39,1-.85.24-.46-.81-.37-.57-.72.24-.35-1.53.05-1.01.26.52.2.04.49-.45.15-.49-.34-1.83.26-1.35.64.39.31,1.53-.23.88.68-.65.91-.94-.23-1.57-.12-.63.11-.34.87.61,1.14.94.27.85.79,1.62,1.3Zm5.6-5.64c.25.69.52.2.91.48.39.27.98.44,1.29.16.31-.28.45-.49.55-.25.28.62,2.14.48,2.62.45.33-.02,1.54-.55,1.73-.44.97.54,2.92.35,2.77-1.11-.04-.38-3.77-.65-4.42-.26-.66.39-1.71-.15-2.23.13-.17.09-1.19-.27-1.29-.37-.45-.45-.26-.12.23-.73.17-.21-1.44-.75-2.1-.6-.66.15-1.05-.2-1.68-.47-.63-.27-2.33-.18-1.98.3.25.34,2.28,1.05,2.48.7.2-.35.74.41,1.05.79.32.38-.2.52.05,1.22Zm1.72-4.13c-.63-.31-1.41.37-.76.6.56.2,1.39-.3.76-.6Zm-5.06-3.83c.52.25.22.59.78.83.56.24,2.15-.34,2.3.04.14.38-1.63.44-1.38.68.25.24,1.26.61,1.12.82-.14.21,1.68.78,1.85.5.17-.28.66-.22,1.11-.05.45.17.47-1.09.79-.88.32.2.27-.46.79-.67.52-.22,1.27-.23,1.32-.47.03-.17-.14-.42-.77-.34-.63.08-1.05-.16-.77-.51.27-.35-.7-.44-.36-.73.34-.28-.67-.55-.56-.13.11.42-.63.04-.74-.34-.11-.38-1.54-.5-2.49-1.33-.95-.82-1.92-.25-1.36-.16.56.1.53.38.07.35-.45-.03-1.25.05-.52.32.1.06.19.12.29.17-.11-.27-2.55.87-.8,1.09.77.09.22.55-.41.39-.63-.17-.83.15-.27.42Zm4.17-3.5c.48-.32.87-.12.45.1-.08.06-.16.12-.23.18-.07.2.75.08.76.14.03.12-.6.31-.45.51.17.23.71.21.74.48.04.35,1.54.47,1.98.04.45-.42.28.1.25.38-.03.28,2.13.49,2.23.15.1-.35.41-.21.83-.12.42.1,2.47-.41,2.5-.83.03-.42.66.2,0,.66-.66.46-1.98.41-2.57.59-.59.18.39.59.99,1.03.6.44-.76.22-1.33-.37-.56-.58-1.82-.57-2.48-.52-.58.04-.44.88-.17,1.16.46.49,1.19.25,1.69,1.01.2.31,1.54.65,1.54.92,0,.28-2-.37-2.13-.39-.77-.13-1.98.37-2.01.93-.03.56,1.12.47,1.88.01.76-.46.21.14-.17.49-.35.33.79.63.82.84.11.6-.81.61-.95.11-.44-1.55-2.8-.06-1.46.09.32,0,.45.12.38.37-.06.06-2.58.41-2,.94.49.45,2.26-.03,2.58.25.32.27,1.19.37,1.39.05.39-.6,2.34-.22,2.79.17.32.27.87.16,1.25-.12.41-.31,1.72-.21,1.21-.99-.25-.38-.87.29-.94.01-.09-.34-.67-.44-1.64-.29-.25.09-.44.04-.58-.14-.08-.37,2.4-.34,2.66-.41.8-.22-.13-.55.13-.77.31-.27.58-.07.97-.14.87-.16,1.98-.41,2.04-1.6.04-.89-2.01-.15-2.3-.46-.2-.22,2.27-.47,2.23-.45.66-.28.31-.38.71-.73.24-.21.87.23,1.53.08.25-.06.69-.61.92-.78.63-.48,1.5-.85,2.18-1.24,1.42-.82,2.53-.69,2.6-1.15.06-.45-1.98.03-2.33-.11-.35-.13,1.42-.54,1.84-.44.42.1.97-.01,2.39-.73,1.42-.71.79-.88.2-.77-.59.11-1.25-.09-1.22-.47.03-.38-.87-.02-.91-.23-.04-.21-.87-.09-1.77.27-.9.36-.07-.35.31-.49-.54.21-1.97-.24-2.67-.24-.53,0-1.15-.03-1.64,0-.26.02-.6-.04-.9,0-.37.04-.16.44-.29.55-.23.03-.43-.05-.6-.23-.42-.34-1.22.05-1.95-.04-.39-.05-.66.28-1.03.31-.14,0-1.63-.1-1.61-.1.24.1-.07.31-.41.21-.35-.1-.66.04-.48.39-.15-.29-1.9.81-2.22.55-.42-.34-1.75-.43-1.36-.12.39.31-1.18.15-.76.46.58.42-1.69.19-1.74.23-.34.32-.44.7-.62.5-.18-.21-.94-.13-1.67.16-.73.29.11.49.59.17Zm9.16,29.92c.24-.04.72-.91.09-.87-.63.04-.47.93-.09.87Zm-3.07-.73c.56.34,1.38-.61,1.31-.89-.07-.28-1.99.48-1.31.89Zm2.48-1.95c.07-.35-1.15-.47-1.09-.86.06-.38-1.16-.68-1.54-.88-.42-.22-1.78-1.66-1.85-.18-.03.63-.38.49-.19,1.08.18.59-.76.74-.65,1.05.12.36.83-.14,1.06,0,.25.15-.11.54.34.58.42.03,1.14-.47,1.31-.75.43-.7,2.43.91,2.61-.03Zm11.34-3.21c.42.03.49.55,1.16,1.1.67.55.73.16.83-.22.1-.38.83-.08.79-.46-.04-.38.58-.84,1-1.02.42-.18-.36-.59-.91-.54-.82.06-.93-1.65-2.07-1.3-.35.11-.95-.44-1.4-.47-.45-.03-1.12-.37-1.06-.86.06-.49.91.13,1.08-.26.17-.38-.87-.16-.91-.44-.04-.28.24-.18.45-.35.21-.18-.18-.52-.43-.66-.23-.13-.34.28-.55.29-.31,0,.13-.63.13-.63.17-.25-.81-.51-1.22-.37-.73.25-.54-.94-1.57-.15-.28.21-.63-.2-.28-.24.35-.04.76-.32.65-.64-.11-.31-1.01-.33-1.18.05-.07.16-1.89-1.29-1.9-1.26.19-.76-2.76-.98-2.54.03.07.35-.41.21-.49-.17-.08-.4-1.11.52-1.28.43-.33-.17.16-1.01.02-1.32-.14-.31-.35-.41-.57-.93-.22-.52-1.26-.3-1.53.02-.27.32-1.18.19-1.66.68-.48.49.05.97.26,1.15.21.17-.73.46-.41.74.32.27.8.13.84.58.04.45-1.15-.12-1.33-.5-.18-.38.06-.73-.19-1.01-.25-.28-.04-.63.4-1.12.51-.56,1.13-.59.24-.86-.73-.22-2.04.49-2.54.96-1.13,1.06-.77,2.45-.7,2.72.07.28,1.08.13,1.67.29.59.17.28.41-.17.35-.45-.06-1.22-.19-1.18.12.04.31.99.89,1.54.75q.56-.15.8.16c.25.31.91.2,1.57.22.66.03,1.43.26,1.74.29.31.03.69-.18.8-.36.1-.18,1.4.26,1.78.22.38-.04.13-.38-.11-.49-.24-.1-.15-.56.17-.39.32.17.84.27.95.58.09.27.38.13.42.38.06.36,1.23.4,1.19.79-.02.23-1,.49-.76.67.32.24.8-.32,1.21-.36.42-.04.43.9.74.76.42-.2.77.16,1.19.75.43.59-.02,1.15.02,1.36.04.21.84.13,1.29-.12.45-.25.87.27,1.23.58.35.31-1.28.85-1.14.57.14-.28-.99-1.1-1.99-.71-1.12.44.02.85-.19,1.32-.28.63-1.25.6-1.84.41-.49-.15-2.18.45-1.48,1.2.35.38,1.11.02,1.74.05.63.03.7.2.76-.15.07-.35.73-.18,1.18-.08.45.1.36.73.92.79.56.06.11.63.47,1,.35.38,1.46.16,1.89.57.42.41,2.2,1.22,2.45.91.27-.35-1.56-1.93-2.08-2.06-.52-.13.52-.32,1.19.19.67.51,1.65.74,2.12.11.2-.27-.63-1.6-.91-1.87-.04-.04-2.36-.92-1.63-1.27.45-.21-.15-.49.2-.87.34-.39.7.34,1.12.37Zm-7.36-1.57c.42-.08.33-.72.09-1.05-.18-.24-.63-.27-1.01-.23-.38.04-1.04.64-.68,1.23.36.59,1.19.12,1.6.05Zm-4.47-8.99c-.2.46.46.45.5.97.04.52.7.69,1.19.37.36-.24,1.89.08,1.83-.43-.05-.5-1.58-.94-1.95-.86-.52.11-1.36-.5-1.57-.05Zm13.43,29.45c.07.28,2.1,1.09,2.17.7.06-.38-2.23-.94-2.17-.7Zm8.85,1.96c-.14.26-.35-.18-.05-.42.3-.24-.05-.32-.33-.18-.28.14-.22-.62.04-.77.12-.06-1.29-.18-1.33-.28-.07-.23-.51-.29-.35-.46.16-.16-.54-.25-.6.03-.07.28-.28-.18.06-.56.34-.38.22-.7.55-.89.32-.19-.03-.4-.37-.25-.65.27-1.31,2.54-1.59,2.53-.33-.02-.69.29-.43.47.26.18-.66.72-.22.95.3.16.79-.08,1.21-.04.42.04.77.06,1.11-.2.34-.26.35.23.72.18.37-.05-.2.3-.18.56.03.26.39-.14.67-.29.28-.14.63,0,.49.23-.14.23.77.45.98.08.2-.37-.22-.95-.36-.69Zm-62.98-5.58c-.62.34.9,1.91,1.22,1.71.09-.06-.34-2.18-1.22-1.71Zm57.45,7.19c-.24.04-.06-.35-.02-.54.03-.19-.52.09-.54.32-.02.32-.49.67-.72.79-.28.14-1.36.02-1.4-.23-.04-.24-.82-.35-.86-.69-.04-.33-.42-.43-.11-.8.31-.37-.06-.54-.35-.26-.29.28-.47-.15-.07-.31.4-.16,1.14-.33.75-1.02-.39-.69-2.78.24-3.39.6-.2.12-1.72,1.34-1.75,1.42.13-.33.59-.46.77-.76.28-.47.74-1.02,1.23-1.41.36-.28.77-.03.81-.25.05-.23.22-.39.57-.7.34-.32,4.5-.32,4.9-.31.4.01,1.18-.54,1.4-.89.22-.35.52-.35,1.07-.33.56.03.81-.48,1.09-.68.28-.2.17-.28-.07-.33-.24-.05-.47-.2-.23-.22.24-.02.36-.16.46-.48.1-.31-.09-.17-.43-.6-.34-.43-.5.15-.83.12-.33-.03.22-.46-.06-.63-.28-.17-.8-.04-1.21.31-.41.35-.38-.01-.74.34-.36.35-.37-.17-.2-.31.17-.14.3.01.45-.2.28-.38,1.32-.19,1.58-.61.12-.19-.2-.45-.58-.36-.38.09-.65-.51-.89-.34-.24.18-.19-.26-.47-.08-.28.18-.44-.05-.56-.38-.13-.33-.88-.86-1.34-.99-.45-.13-.16-.38.08-.21.25.17.52-.18.62-.36.1-.18-.18-.33-.32-.34-.14-.02-.14-.24-.11-.42.03-.17-.49-.39-.51-.57-.02-.17-.32-.29-.3-.45.05-.52-.81-.98-.85-1.45-.02-.24-.3-.41-.41-.71-.19-.52-.65.88-.7.81.22.28.06.29-.1.47-.03.03-.33.9-.43.74-.2-.35-.84.56-1.25.54-.23-.01-.23-.48-.42-.34-.19.14-.16-.4-.46-.38-.3.02-.5-.01-.42-.27-.02.05-.42-1.38-.42-1.42-.03-.36.26-.39.25-.66,0,0-.77-.21-.86-.2-.23.02-.91,0-.94-.32-.04-.31-.26-.15-.37-.45-.03-.08-.66-.58-.72-.58-.21-.02-.28-.24-.56-.27-.28-.03-.62.2-.78.27-.16.07-.56-.24-.71-.11-.16.12-.19-.08-.63-.2-.44-.12-1.01-.14-1.04.01-.03.16-.38.21-.32.58.06.36.42.29.51.53.09.24-.17.16-.19.39-.04.55-.17.19.01.8.13.45.63.9.01,1.1-.13.04-.63,1.16-.47,1.29.19.17.91.46,1.2.92.28.47.28,1.2.2,1.72-.08.52-.67.65-1.1,1.11-.43.46-.88.39-1.09.41-.21.02-.08.44.22.76.3.33.06.43.22.78.16.35,0,.63.24.94.23.31.09.43-.17.66-.07.06.13.59.05.55-.09-.06-.18-.12-.27-.18-.34-.23-.34.47-.43.49-.27.06-.43-.27-.66-.24-.12.02.03-.3-.29-.54-.27-.21-.82-.65-.97-.97-.2-.45.04-1.03-.21-1.45-.12-.21-.02-.43.08-.63.33-.62-1.46-.55-1.63-.54-.73.07-1.22-.49-1.91-.65-.54-.13-.79-.41-.84-.56-.05-.16-.6-.27-.72-.43-.12-.15-.65-.23-.86-.2-.21.04-.74-.43-1.05-.4-.31.02-1.04.34-1.16.36-.12.02.01-.26.1-.38.09-.12-.27-.64-.36-.99-.09-.35-.22-.73-.58-.67-.36.06-.77-.13-.87-.2-.11-.07-.14-1.06-.05-1.48.1-.5.42-1.18.7-1.61-.08.13.86-.8.68-.77.26-.04.28-.14.33-.35.05-.21.36-.07.19-.25-.22-.21,1.4-.18,1.26-.78-.03-.12-2.4-.89-2.38-.94.08-.19,1.32.12,1.78.29.45.17.58.15.94.13.37-.02.12-.49.18-.68.07-.19.77.29,1.17.18.4-.11.77-.93,1.1-1.16.33-.23.03-.44-.61-.37-.64.06-1.01-.18-1.36-.44-.35-.26-.32-.47.05-.44.52.04.94.7,1.45.71.57,0,.86-.49,1.3-.83.36-.28-.73-.39-.45-.58,0,0,3.27.25,1.5-.42-.4-.15.01-.45.14-.21.12.24.4.19.55.46.21.4.33.13.68,0,.29-.1.97-.57,1.15-.85.16-.23-.46-1.31-.66-1.4-.08-.08-.15-.16-.23-.24,0,.04.95-.27,1.02-.38.15-.25-.53-.29-.21-.47.43-.25-.84-.43-.86-.75-.02-.26-.56-.08-.89-.23-.33-.15-1.06-.11-1.24-.09-.17.02-.18.73.08.75.26.01.47.29.25.38-.23.09.04.36-.13.35-.17-.02-.45-.1-.5.35-.05.45-.08.63-.37.79-.29.16-.08-.5-.35-.48-.28.02-.31.56-.1.61.21.05.25.22.3.48.06.26-.38.07-.55.39-.17.32-.19-.14-.44-.34-.25-.21-.55-.55-.53-.81.01-.23.14-.32.33-.35.19-.04,0-.21-.02-.52-.02-.35-.96-1.01-1.26-.7-.15.16-.05.45-.29.56-.24.11-.13.59-.34.63-.21.04-.1-.85-.27-.94-.18-.08-.16-.29.1-.33.09-.06.18-.12.28-.17.06-.11-.85-.43-.88-.45-.16-.07-.41.3-.59.16-.18-.14.01-.49.03-.68.01-.19.28.08.45-.16.16-.23-1.08-.85-1.2-.91-.18-.08.11-.52.03-.7-.09-.17-.74-.74-1.02-.68-.28.06-.35-.36-.2-.35.26.03,1.08-.81.68-.93l-.19-.16c-.02-.2,1.3.11,1.46-.01.21-.16.85-1.19,1.11-1.56.26-.37-.2-.4-.82-.34-.63.06-.77-.23-1.29-.26-.52-.03-1.5.12-1.63.28-.13.15.26.31.21.47-.04.14-.42-.09-.51-.05-.14.07.06.3.01.9-.04.61.13.64.31.87.48.61.09,1.05-.33,1.36-.03.02.27.39.25.47-.05.19-.54-.1-.64-.06-.21.07-.37.67-.15.85.23.19.32.15.14.38-.17.23-.36.56.06.89.42.33,1.19.28,1.59.54.4.26-.17.11-.01.4.17.31-.26.36-.24.63.17.19.3.09.38-.28.2-.39.37.1.35.43-.01.33-.31.14-.53.48-.22.33-.43.39-.76.32-.33-.07-.13.47,0,.77.14.29-.03.4-.41.3-.38-.1-.61-.34-.43-.64.19-.3.32-.65.1-.61-.23.04-.75,0-.91-.25-.16-.24.1-.14.57-.09-.04,0,1.34-.42,1.32-.4.29-.27-.2-.76-.44-.67-.24.17-.45.15-.63-.04,0-.22.55-.11.64-.13.23-.06-.13-.36-.47-.27-.35.09-.59.11-.87-.18-.28-.29-.79-.46-.9.22-.11.68-.6.32-.79.55-.19.23.23.38.7.39.95.02.48.78.23.66-.25-.12-.49,0-.31.21.18.21-.07.3-.05.51.02.21-.37.02-.73,0-.37-.03-1.04.1-1.53.21-.49.11-1.03-.06-1.24-.28-.08-.09-1.32-.51-1.54-.52-.45-.01-.35-.4-.41-.62-.06-.23-.96-.14-1.29.07-.33.21-.97.13-1.14.52-.3.68.95.06,1.08.07.16.02.9-.44,1.04-.31.24.24-1.17.68-1.28.7-.45.08-.34.44.1,1.08.61.88-.9.47-.67.39.33-.11.17-.44-.1-.64-.29-.22-.67-.19-.93-.39-.25-.19-.37-.34-.7-.17-.33.18-.71.13-1.44.26-.73.13-2.07.11-2.32-.13-.25-.24.62-.69.88-.62.25.06.1-.28-.3-.59-.4-.31-1.29-.49-1.27-.3.03.29-2.09-.43-2.3-.44-.4-.01-1.05-.13-1.54-.5-.49-.38-1.64-.26-1.77.09-.1.27-1.09.43-1.03.23.1-.11.15-.25.16-.39-.18-.1,0-.57-.27-.61-.28-.03-.52,1.16-1.05,1.13-.52-.03-.76-1.24-1.2-1.55-.44-.31-.84-.32-.47.15.37.46-.31.14-.27.46.04.31-.58.69-.57.51.02-.17-.35-.36-.76.13-.19.22-2.09.41-1.95.93.05.21-.19.37-.52.35-.33-.01-.07-.29.19-.44.29-.16,1.09-.82,1.5-.89.42-.08,1.21-.42,1.23-.61.01-.19-.4-.03-.68-.08-.28-.05-.76.27-1.23.49-.47.21-1.01.15-.86.43.1.19-1.05.24-.73.04.2-.13-2.13.16-1.49.63.28.2.46.31.32.45-.14.14-.58-.36-1.19-.3-.72.07-1.15-.48-1.74-.7-.49-.18-.96-.17-1.55-.22l.16,12.03s.3.22.42.08c.11-.14.33.04.72-.15.31-.15,1.16.94,1.34,1.17.24.3.36.55.61.39.42-.28.85-.89,1.4-.8.38.06,1.09.99,1.38,1.3.61.64.87,1.59,1.51,2.17.38.34,1.64.45,1.38,1.16-.11.3.54.46.17.72-.14.1-.34.24-.53.39.02.15.16.25.34.39-.07-.06-.26.71-.06.92.18.19.49.12.68-.04.19-.16.33.19.18.45-.15.26.18.45.33.26.15-.19.49.31.65.39.34.18-.4.78.03.82-.21-.02,1.62,1.15,1.56,1.04.11.19.53.32.68.2.16-.12.26.22.3.47.04.24.38.1.59.08.21-.02.33.27.47.22.3-.12.4.42.61.73l21.63-.4s0-.54.27-.35c.26.18.03.49.33.6.3.11.51.3.68.22.16-.07.44-.31.72.01.28.32.49.04.65.25.17.21.47.36.67.11.17-.21.81.03,1.12.14.56-.46.6-.89,1.35-.96.4-.04,1.27.16,1.34.66.08.59.77.02.84.58.07.47.53.84.46,1.09.13.08.3.19.45.3.22-.08.81,0,1.2.14.49.17,1.22-.22,1.47.36.25.59.82,1.03.29,1.08-.82.07-.6-.55-1.12.06-.19.22-.15,1.71-.67,1.63,0,0-.01,0-.02,0-.03.2-.03.45.13.61.26-.2.64-.53.97-.51.52.03.67.34,1.01.09.34-.25.41-.35.49-.18,0,.02,0,.05-.01.08.13-.07.22-.14.23-.2,0-.09-.02-.21-.05-.31-.35.05-.46.08-.56-.16-.14-.35,1.03-.71,1.59-.65.53.06.9-.32,1.08-.09,1.14-1.06,2.24-.83,3.73-.87,0,0,.85-.54.96-1.03.11-.49.65-1.66.98-1.41.33.25,1.02.06,1.05.29.02.21-.22,1.01.69,2.17.31-.2.63-.36.82-.36.31.01.78-.41.91-.67.14-.26.33.24.06.33-.28.09.23.29.72.27.49-.02-.22.18-.59.16-.37-.01-.52.04-1,.53-.48.49-.36.63-.08.87.28.24.65.13,1.02-.2.38-.34.36-.67.74-.65s1.37-.37,1.8-.51c.72-.24-.12-.14.15-.4.28-.28.72-.17,1.04-.4.28-.2-.06-.35-.3-.31Zm-45.58-21.97c-.45.57-.6.66-1.07.58-.47-.08-.76.16-.52.33.24.16.25.3-.23.42-.48.12-.8.49-.99.46-.19-.04.82-.79.55-.98-.27-.19-.91.34-.92.58-.01.23-.44.25-.7.24-.26-.01-.61-.25-.35-.29.26-.03.08-.32.44-.46.36-.14-.07-.34.03-.5.11-.15.85.14.86-.14.01-.28-.74-.5-.99-.33-.25.17-.82.56-1.52.27-.22-.09,1.74-.33,2.07-.64.33-.31,1.82-.67,1.93-.4.11.28-.8.47-.35.71.45.24,1.16.07,1.33-.2.16-.27.88-.23.43.34Zm4.47,5.53c-.53.48-.49.35-.96.44s-.09.55-.66.6c-.57.05-1.94.12-2.13-.19-.07-.11.75-.04.8-.27.13-.58,1.52-.8.36-1.35-.57-.27.81-.47,1.13-.03.32.44.9.75,1.21.43.18-.18,2.12-1.21,2.12-.82,0,.5-1.56.91-1.87,1.19Zm12.27,12.49c-.38.05.02-1.01-.68-1.38-.46-.25-1.24-.97-1.18-1.57.04-.39.51-1.02.95-.48.28.34.72,1.77.97,2.22.25.45.26,1.18-.05,1.22Z"/><path class="cls-2" d="m25.76,43.54l-9.55-21.53-2.27,1.07,10.86,21.71s.09.15.63-.43c.58-.64.34-.81.34-.81Z"/><path class="cls-3" d="m15.99,22.11l-.46.22,10.02,21.86s.22-.29.2-.32l-9.77-21.76Z"/><path class="cls-5" d="m14.78,23.79l10.23,20.92c.13,0,.34-.29.36-.3,0,0-.05-.11-.05-.11l-9.69-20.59c-.29.03-.57.06-.85.08Z"/><path class="cls-1" d="m25.41,18.91c1.76,3.74-1.21,8.84-6.63,11.39-5.42,2.54-11.24,1.57-13-2.17-1.76-3.74,1.21-8.84,6.63-11.39,5.42-2.54,11.24-1.57,13,2.17Z"/><path class="cls-9" d="m24.74,18.31c1.6,3.4-1.35,8.16-6.59,10.62-5.24,2.46-10.78,1.69-12.38-1.71s1.35-8.16,6.59-10.62c5.24-2.46,10.78-1.69,12.38,1.71Z"/><path class="cls-11" d="m18.5,28.42c-5.28,2.48-10.95,1.56-12.65-2.06-.28-.59-.43-1.21-.47-1.85-.13.95,0,1.87.39,2.71,1.6,3.4,7.14,4.17,12.38,1.71,3-1.41,5.25-3.57,6.32-5.8-1.15,2.07-3.24,4.01-5.97,5.28Z"/><path class="cls-8" d="m2.36,8.01c3.01,6.81,5.35,14.14,5.54,14.54,1,2.13,4.47,2.61,7.75,1.07,3.28-1.54,5.12-4.51,4.12-6.64-.19-.41-4.33-6.9-7.65-13.55L2.36,8.01Z"/><path class="cls-13" d="m4.72,13.74c1.8,4.67,3.05,8.52,3.19,8.81.64,1.36,2.29,2.05,4.25,1.96,0,0-.8-1.99-3.86-7.89-4.2-8.1-3.97-3.87-3.58-2.89Z"/><path class="cls-12" d="m18.57,21.51s.03-.04.05-.06c.05-.05.09-.11.14-.16.01-.02.03-.03.04-.05.05-.06.09-.11.14-.17,0-.01.02-.02.03-.04.05-.06.09-.12.14-.19,0,0,0,0,.01-.01.66-.93.99-1.92.92-2.84-1.38-2.28-4.45-7.37-7.24-12.65,0,0,0-.01,0-.02-.55,1.46-1.97,2.92-3.93,3.84-2.12,1-4.32,1.1-5.82.43.14.33.27.65.41.98,1.58.87,3.98.85,6.26-.22.76-.36,1.39-.75,1.92-1.17,2.09,4.09,4.5,8.63,6.25,11.91-.77,1.01-1.91,1.94-3.32,2.6-.95.45-1.91.72-2.83.84,1.22.02,2.58-.27,3.92-.9,1.03-.48,1.92-1.11,2.62-1.81h0s.06-.06.09-.09c.02-.02.04-.04.06-.06.05-.05.1-.1.14-.15Z"/><ellipse class="cls-7" cx="7.36" cy="5.96" rx="7.73" ry="5.34" transform="translate(-1.83 3.69) rotate(-25.16)"/><ellipse class="cls-6" cx="7.11" cy="5.43" rx="7.48" ry="4.86" transform="translate(-1.63 3.54) rotate(-25.16)"/><path class="cls-11" d="m9.43,9.46c-3.77,1.77-7.81,1.11-9.02-1.47-.2-.42-.31-.86-.34-1.32-.09.68,0,1.34.28,1.93,1.14,2.43,5.09,2.98,8.83,1.22,2.14-1,3.74-2.55,4.51-4.14-.82,1.48-2.31,2.86-4.26,3.77Z"/></g></g></g></svg>