<?xml version="1.0" encoding="UTF-8"?><svg xmlns="http://www.w3.org/2000/svg" xmlns:xlink="http://www.w3.org/1999/xlink" viewBox="0 0 69 61.37"><defs><style>.cls-1{fill:url(#linear-gradient);}.cls-2{fill:#ffab00;}.cls-3{fill:#9f9f95;}.cls-4{fill:#84847b;}.cls-5{fill:#dde5dd;}.cls-6{fill:url(#radial-gradient-2);}.cls-7{fill:url(#linear-gradient-3);}.cls-8{fill:url(#linear-gradient-2);}.cls-9{fill:url(#radial-gradient);}.cls-10{isolation:isolate;}.cls-11{fill:#fff;opacity:.8;}.cls-11,.cls-12{mix-blend-mode:overlay;}.cls-12{fill:#822d12;opacity:.5;}.cls-13{fill:#d9a794;opacity:.3;}</style><linearGradient id="linear-gradient" x1="6302.06" y1="4377.08" x2="6321.87" y2="4377.08" gradientTransform="translate(-7536.09 1407.36) rotate(-45.15)" gradientUnits="userSpaceOnUse"><stop offset="0" stop-color="#de2020"/><stop offset=".02" stop-color="#d0241e"/><stop offset=".05" stop-color="#bf2a1b"/><stop offset=".09" stop-color="#b32e1a"/><stop offset=".14" stop-color="#ac3019"/><stop offset=".29" stop-color="#ab3119"/><stop offset=".45" stop-color="#a73018"/><stop offset=".6" stop-color="#9c2e16"/><stop offset=".75" stop-color="#892b13"/><stop offset=".89" stop-color="#6f270f"/><stop offset=".99" stop-color="#57240c"/></linearGradient><radialGradient id="radial-gradient" cx="3441.2" cy="4481.98" fx="3441.2" fy="4481.98" r="18.82" gradientTransform="translate(-5439.52 1516.92) rotate(-67.81)" gradientUnits="userSpaceOnUse"><stop offset="0" stop-color="#f5c2bb"/><stop offset=".45" stop-color="#e86c5c"/><stop offset=".55" stop-color="#e46a59"/><stop offset=".65" stop-color="#d96451"/><stop offset=".75" stop-color="#c65a43"/><stop offset=".84" stop-color="#ac4c30"/><stop offset=".93" stop-color="#8a3a17"/><stop offset="1" stop-color="#6b2a00"/></radialGradient><linearGradient id="linear-gradient-2" x1="6304.92" y1="4368.03" x2="6318.24" y2="4368.03" gradientTransform="translate(-7536.09 1407.36) rotate(-45.15)" gradientUnits="userSpaceOnUse"><stop offset="0" stop-color="#de2020"/><stop offset=".09" stop-color="#ce1513"/><stop offset=".22" stop-color="#bf0a06"/><stop offset=".32" stop-color="#ba0702"/><stop offset=".44" stop-color="#b40802"/><stop offset=".58" stop-color="#a60c04"/><stop offset=".74" stop-color="#8d1306"/><stop offset=".91" stop-color="#6b1d09"/><stop offset=".99" stop-color="#57240c"/></linearGradient><linearGradient id="linear-gradient-3" x1="6304.86" y1="4359.12" x2="6318.99" y2="4359.12" gradientTransform="translate(-6306.1 -4353.16)" xlink:href="#linear-gradient"/><radialGradient id="radial-gradient-2" cx="3449.48" cy="4467.9" fx="3449.48" fy="4467.9" r="15.61" gradientTransform="translate(-4905.64 -2789.26) rotate(-22.66)" gradientUnits="userSpaceOnUse"><stop offset="0" stop-color="#f6c4bc"/><stop offset=".45" stop-color="#e86c5c"/><stop offset=".55" stop-color="#e46a59"/><stop offset=".65" stop-color="#d96451"/><stop offset=".75" stop-color="#c65a43"/><stop offset=".84" stop-color="#ac4c30"/><stop offset=".93" stop-color="#8a3a17"/><stop offset="1" stop-color="#6b2a00"/></radialGradient></defs><g class="cls-10"><g id="Camada_2"><g id="Camada_2-2"><path class="cls-2" d="m53.67,30.23c-.35-.81-.58-2.33-.47-2.91.12-.58.81-.12,1.05-.82.23-.7-1.98-.7-1.28-1.63.7-.93.7,0,1.63,0s1.28.47,1.28,1.05.93.93.93.93c0,0,1.51-.12,2.21-.12s1.4,0,1.4.47-.81,1.98-1.51,1.98-.7,1.98-.12,2.09c.58.12,1.05-1.51,1.4-1.51.25,0,.44,1.85.78,3.75.09-.11.18-.18.28-.18.46,0,.23-1.61.54-2.07.31-.46.15-1.92.38-1.92s1.61.46,1.53.08c-.08-.38.84-1.69.69-2.38-.15-.69.54-1.53.54-2.38s.77-1.07,1.3-1.53c.54-.46,1.46-1.07,1.61-.69.15.38,1.3.69.84,0-.46-.69-.46-1.15-.15-1.3.31-.15.46-.92.46-.92,0,0-1-.15-1.15-.61-.15-.46-.77-.92-.77-1.3s-.54-.23-1,.15c-.46.38-1.3-.46-2.3.08-1,.54-1.23,1.15-1.69,1.07-.46-.08-.38.38-.77.77-.38.38-.69.84-.92.84s-1,.38-1,.38c0,0,.54,1.15.23,1.69-.31.54-1.07,0-1.92.23-.84.23-1.23-.31-1.84-.15-.61.15-1-.38-1.3-.31-.31.08-.77-.69-.61-1.3.15-.61-.31-1.46-.61-1-.31.46-.77.23-.77.92s.38,1.53-.08,1.99c-.46.46-2.92.69-3.37.31-.46-.38-2.45-.61-2.53-1-.08-.38-.69-1.07-1.07-1.07s-1.54.54-1.84.31c-.31-.23-1.07-.84-1.61-.92-.54-.08-1.38-.46-1.46-.77-.08-.31-1.3-.46-1.53-.77-.23-.31-1-.38-1-.77s.31-1,.31-1.46.92-.92.92-1.23-.84-.84-.84-.84c0,0-.54-1-1.15-1s-1.07-1.07-1.61-1.15c-.54-.08-.38-1.15-.69-1.54-.31-.38-.08-1.3.46-.84.54.46,1.53,0,1.15-.69-.38-.69-1.07-1.3-1.07-1.69s.46-1.53-.08-1.84c-.54-.31-1-.77-1.15-1.3-.15-.54-.77-.92-.77-.92l-.77.07s-.46,1.23-.77,1.38c-.31.15-1.38.38-1.92.77-.54.38-2.07-.54-2.91-.54s-1.38.84-1,1.07c.38.23.31,1.84.31,1.84,0,0,.46,2,1.15,1.84.69-.15,1.53.69.92.84-.61.15-.92.84-1,1.46-.08.61.08,1.38-.38,1.46-.46.08-.92.23-.92,1.07s-1,.61-1.15.92c-.15.31-.54,1.84-.77,2.07-.23.23-1.53.31-1.61,1-.08.69-.69,1.53-1.07,1.46-.38-.08-1.07-.38-1.31.08-.23.46-1.23-.38-1.46-.15-.23.23-1.46,1.23-1.46,1.84s1.3.61,1.23,1.38c-.08.77.46,1.61.84,1.99.38.38,1,1.3.69,1.76-.31.46-.77.54-1.46.38-.69-.15-.61.31-1.84.08-1.23-.23-1.3.69-1.76,1.23-.03.03-.07.08-.12.14.58.46.82,1.28,1.79,1.65,1.12.43,2.13-.72,2.13.12s-2.64.66-2.7.92c-.06.26,2.73,3.62,4.14,3.36,1.41-.26,2.44-1.78,2.04-2.01-.4-.23.23-1.18.6-1,.37.17.06,1.67.49,2.01.43.34.29.98,0,1.78-.29.8.29,2.38.37,3.27.09.89.69,2.18.89,3.5.2,1.32,1.03,3.73,1.81,5.2.78,1.46,1.38,4.34,1.89,5.03.52.69,1.84,2.79,1.84,4.08s1.41,3.1,1.9,3.45c.49.34,1.55-.4,1.81-1.21.26-.8,1.72-1.12,1.81-1.81.09-.69.23-1.23.75-1.32.52-.09.52-.63.52-1.38s.06-1.81.57-2.47c.52-.66.6-2.44.29-3.16-.32-.72-.14-1.72.14-2.44.29-.72.17-1.55.72-1.61.55-.06,1.35-.55,1.92-1.32.57-.77,2.33-1.84,2.96-2.35.63-.52,2.56-2.21,3.13-3.16.57-.95,2.21-1.27,2.96-2.04.75-.77.46-1.18.6-2.01.14-.83,2.55-1.18,3.47-1.18.19,0,.34-.02.48-.05-.02-1.34-.42-2.93-.68-3.55Z"/><path class="cls-3" d="m34.13,33.12l-15.13-15.72-1.64,1.65,16.33,15.46s.13.1.41-.58c.3-.74.04-.82.04-.82Z"/><path class="cls-4" d="m18.84,17.56l-.33.33,15.65,15.85s.1-.32.08-.34l-15.4-15.85Z"/><path class="cls-5" d="m18.33,19.4l15.53,14.97c.11-.05.2-.36.21-.38,0,0-.08-.08-.08-.08l-14.96-14.85c-.24.12-.47.24-.71.34Z"/><path class="cls-1" d="m26.03,11.78c2.72,2.7,1.75,8.08-2.16,12.01-3.91,3.93-9.28,4.93-12,2.23-2.72-2.7-1.75-8.08,2.16-12.01,3.91-3.93,9.28-4.93,12-2.23Z"/><path class="cls-9" d="m25.26,11.48c2.47,2.46,1.41,7.53-2.37,11.33-3.78,3.8-8.85,4.89-11.32,2.43s-1.41-7.53,2.37-11.33c3.78-3.8,8.85-4.89,11.32-2.43Z"/><path class="cls-11" d="m23.03,22.25c-3.81,3.83-9.03,4.82-11.66,2.21-.43-.42-.75-.92-1-1.46.19.87.59,1.63,1.19,2.24,2.47,2.46,7.54,1.37,11.32-2.43,2.16-2.18,3.44-4.77,3.66-7.05-.35,2.17-1.55,4.51-3.52,6.49Z"/><path class="cls-8" d="m2.52,9.6c4.77,4.97,9.14,10.61,9.43,10.9,1.55,1.54,4.72.86,7.08-1.52,2.37-2.38,3.03-5.55,1.48-7.09-.3-.29-5.96-4.63-10.95-9.37l-7.04,7.08Z"/><path class="cls-13" d="m6.39,13.84c3.05,3.49,5.35,6.45,5.56,6.66.99.98,2.64,1.06,4.33.36,0,0-1.32-1.47-5.86-5.64-6.22-5.72-4.68-2.11-4.03-1.38Z"/><path class="cls-12" d="m20.9,16.22s.02-.04.03-.07c.02-.06.05-.12.07-.18,0-.02.01-.04.02-.06.02-.06.04-.13.07-.19,0-.01,0-.03.01-.04.02-.07.04-.14.06-.21,0,0,0-.01,0-.02.28-1.02.26-1.99-.09-2.76-1.92-1.55-6.21-5.01-10.31-8.72,0,0,0,0,0-.01-.01,1.45-.79,3.17-2.2,4.59-1.53,1.54-3.41,2.33-4.93,2.22.22.24.44.48.66.72,1.65.26,3.73-.52,5.38-2.18.55-.55.98-1.09,1.3-1.63,3.12,2.9,6.65,6.09,9.21,8.39-.35,1.12-1.05,2.29-2.06,3.31-.69.69-1.44,1.23-2.2,1.63,1.07-.37,2.16-1.06,3.12-2.02.74-.75,1.32-1.57,1.71-2.4h0s.03-.07.05-.11c.01-.02.02-.05.03-.07.03-.06.05-.12.08-.18Z"/><ellipse class="cls-7" cx="6.22" cy="6.23" rx="7.16" ry="4.95" transform="translate(-2.58 6.25) rotate(-45.15)"/><ellipse class="cls-6" cx="5.83" cy="5.85" rx="6.92" ry="4.5" transform="translate(-2.43 5.86) rotate(-45.15)"/><path class="cls-11" d="m9.13,8.62c-2.72,2.73-6.44,3.44-8.32,1.58-.3-.3-.54-.65-.71-1.04.14.62.42,1.16.85,1.6,1.76,1.75,5.38.98,8.07-1.74,1.54-1.55,2.45-3.4,2.61-5.03-.25,1.55-1.11,3.22-2.51,4.63Z"/></g></g></g></svg>