<?xml version="1.0" encoding="UTF-8"?><svg xmlns="http://www.w3.org/2000/svg" xmlns:xlink="http://www.w3.org/1999/xlink" viewBox="0 0 96.19 83.86"><defs><style>.cls-1{fill:url(#linear-gradient);}.cls-2{fill:#9f9f95;}.cls-3{fill:#84847b;}.cls-4{fill:#dde5dd;}.cls-5{fill:#82cd4e;}.cls-6{fill:url(#radial-gradient-2);}.cls-7{fill:url(#linear-gradient-3);}.cls-8{fill:url(#linear-gradient-2);}.cls-9{fill:url(#radial-gradient);}.cls-10{isolation:isolate;}.cls-11{fill:#fff;opacity:.8;}.cls-11,.cls-12{mix-blend-mode:overlay;}.cls-12{fill:#822d12;opacity:.5;}.cls-13{fill:#d9a794;opacity:.3;}</style><linearGradient id="linear-gradient" x1="6886" y1="5264.68" x2="6910.49" y2="5264.68" gradientTransform="translate(-7116.13 -4868.76) rotate(-2.99)" gradientUnits="userSpaceOnUse"><stop offset="0" stop-color="#de2020"/><stop offset=".02" stop-color="#d0241e"/><stop offset=".05" stop-color="#bf2a1b"/><stop offset=".09" stop-color="#b32e1a"/><stop offset=".14" stop-color="#ac3019"/><stop offset=".29" stop-color="#ab3119"/><stop offset=".45" stop-color="#a73018"/><stop offset=".6" stop-color="#9c2e16"/><stop offset=".75" stop-color="#892b13"/><stop offset=".89" stop-color="#6f270f"/><stop offset=".99" stop-color="#57240c"/></linearGradient><radialGradient id="radial-gradient" cx="3596.9" cy="5508.1" fx="3596.9" fy="5508.1" r="23.27" gradientTransform="translate(-5590.38 -3382.85) rotate(-25.66)" gradientUnits="userSpaceOnUse"><stop offset="0" stop-color="#f5c2bb"/><stop offset=".45" stop-color="#e86c5c"/><stop offset=".55" stop-color="#e46a59"/><stop offset=".65" stop-color="#d96451"/><stop offset=".75" stop-color="#c65a43"/><stop offset=".84" stop-color="#ac4c30"/><stop offset=".93" stop-color="#8a3a17"/><stop offset="1" stop-color="#6b2a00"/></radialGradient><linearGradient id="linear-gradient-2" x1="6889.55" y1="5253.49" x2="6906.01" y2="5253.49" gradientTransform="translate(-7116.13 -4868.76) rotate(-2.99)" gradientUnits="userSpaceOnUse"><stop offset="0" stop-color="#de2020"/><stop offset=".09" stop-color="#ce1513"/><stop offset=".22" stop-color="#bf0a06"/><stop offset=".32" stop-color="#ba0702"/><stop offset=".44" stop-color="#b40802"/><stop offset=".58" stop-color="#a60c04"/><stop offset=".74" stop-color="#8d1306"/><stop offset=".91" stop-color="#6b1d09"/><stop offset=".99" stop-color="#57240c"/></linearGradient><linearGradient id="linear-gradient-3" x1="6889.47" y1="5242.47" x2="6906.94" y2="5242.47" gradientTransform="translate(-6851.52 -5236.52)" xlink:href="#linear-gradient"/><radialGradient id="radial-gradient-2" cx="3607.14" cy="5490.69" fx="3607.14" fy="5490.69" r="19.29" gradientTransform="translate(-5405.56 -3672.89) rotate(-22.66)" gradientUnits="userSpaceOnUse"><stop offset="0" stop-color="#f6c4bc"/><stop offset=".45" stop-color="#e86c5c"/><stop offset=".55" stop-color="#e46a59"/><stop offset=".65" stop-color="#d96451"/><stop offset=".75" stop-color="#c65a43"/><stop offset=".84" stop-color="#ac4c30"/><stop offset=".93" stop-color="#8a3a17"/><stop offset="1" stop-color="#6b2a00"/></radialGradient></defs><g class="cls-10"><g id="Camada_2"><g id="Camada_2-2"><path class="cls-5" d="m36.09,42.46c.32-.88-1.19-.96-1.66-1.4-.76-.72-1.08-1.83-1.81-2.61-1.52-1.6-1.64-1.71-3.34-.59-.3.2-.45-.11-.73-.47-.24-.31-1.27-1.57-1.61-1.4-.47.23-.73,0-.86.18-.14.17-.5-.1-.5-.1l-.19-14.46c-.17-.02-.32-.04-.43-.08-.61-.22-1.52-.63-1.99-.52-.48.11-1.44.25-1.78.09-.34-.16-.8-.3-1.49-.19-.69.11-1.14-.36-2.02-.56-.88-.2-2.11.09-2.4.2-.29.11-.23-.31-.61-.26-.38.05-.09-.17-.3-.48-.21-.31-1.26,0-1.63.04-.38.05-.48-.18-.47-.37.02-.19-.34-.12-.48.13-.14.25-.56.3-.73.14-.17-.17.35-.23.37-.42.02-.19-.55-.29-.76-.35-.21-.06-.54.22-.98.62-.43.4-1.08.37-1.48.33-.4-.04-.9.05-.88.28.02.23.5.2.22.5-.29.3-.4-.39-.69-.07-.29.32-1.17.31-1.38.27-.21-.04-.89.72-1.1.94-.21.21.17.4-.38,1.01-.54.6-1.31.27-1.94.51-.7.27-.26-.01-.68.59-.16.23.19.44,1.05.66.86.22,1.46,1.34,1.57,1.61.11.27,1.17-.04,1.59.02.42.06-.03.65.32.81.36.16.9-.1,1.01.2.11.29-.71,0-1.13.33-.41.32-.62.47-.79.24-.17-.23-.86-.07-1.21-.03-.36.05-.03-.44,0-.65.02-.21-.49-.35-1.17.06-.69.41-.44.26-.52.57-.08.31-.38-.18-.81.09-.44.28-1.15.48-1.27.75-.12.27.95.45,1.37.53.42.08-.5.36-.16.46.34.1.19.42.72.68.43.22,2.01.22,2.46.11.48-.12,1.54-1.13,2.07-.65-.11-.1-.07,1.85-.14,1.91-.46.34-.9.12-1.15.1-.25-.02-.1.46-.49.78-.65.53-1.71-1.2-1.56.65.03.31-.75-.05-.93.7-.18.76-.98.12-.45.84.53.73.44.27.87.55.42.29-.45.82-.03.9.42.08.89.83,1.19,1.09.3.27.67-.16,1.11-.18.44-.03.22-.63.48-.4.25.23.62.89.39,1.06-.23.17-.03.69-.07.94-.04.25.96.15,1.02-.14.06-.29.85-.39,1.3.09.13.22.31.35.54.41-.07.05.41-1.17.44-.71.02.31.38.39,1.03.09.65-.3.36.02.03.44-.45.58.02,1.42-.32,1.51-.33.09-.59.95-1.14,1.02-.54.07-1.45,1.11-1.57,1.28-.12.17-1.3-.32-1.46.17-.16.48-.87.85-.68,1.03.13.12,1.08-.37,1.12-.62.04-.25.16-.21.33-.03.17.19.58-.09.77-.26.19-.17.5-.11.69-.09.19.02.27-.23.83-.35.56-.11.44-.28.56-.57.04-.09,1.97-1.5,2.07-1.51.27-.02.69-.36,1.04-.66.35-.3.44-.17.71-.28.27-.11.05-.65.33-.69,1.28-.21-.24-.75-.28-.85-.06-.15.54-.7.77-.68.23.02.6-.24.62-.57.02-.34.35-.4.62-.7.27-.3.2-.55.47-.57.27-.02.52-.4.81-.58.29-.17,0,.21.57.22.57.01.45.54.03.36-.42-.18-.61-.16-.98.2-.37.36-.08.46-.37.86-.29.4-.31.65.07.69.38.04.02.31-.33.42-.53.16.43.27.58.25.58-.07,1.14-.73,1.65-.99.67-.34,1.17-.02,1.36-.08.19-.06-.21-.37.01-.48-.49.23-.12-1-.12-1.02.08-.32.31-.19.52-.05.21.14.5-.15.69.24s.4-.11.73.16c.34.27-.06.23-.41.32-.35.09-.16.57.11.33.56-.49.87.21,1.32-.25-.13.13,1.12.48,1.28.51.63.1,1.76-.06,2.05-.09.29-.02.19.44.84.55.65.12.81-.66,1.15-.39.34.27,0,.38-.18.59-.19.21.21.23.46.33.25.1.84.26,1.12.53.28.27.45.56,1.12.89.56.27.15-.38.34-.53.09-.07.85.36.95.45.42.37.27-.17.07-.8-.2-.62.19-.21.38.08.19.29.2.86.08,1.23-.12.38-.75.07-.69-.14.06-.21-.63-.12-.65.18-.02.29.45.85.79.91.34.06.09.58.3.65.29.08.28.62.45.54.17-.09.1-.73-.1-1.02-.19-.29-.11-.71.14-.63.25.08,0,.52.13.67.13.15.27-.15.56-.32.29-.17-.13-.65-.03-.9.1-.25.44.2.57.64.17.57-.59.67-.83.91-.12.13-.05.96.12.98.17.02.26-.69.37-.34.11.35.5-.47.61-.13.11.33.62.7.8.62.19-.09-.09-.44-.38-.46-.29-.02-.26-.5.01-.52.27-.02.76.68.74.93-.02.25-.25.23-.47.49-.23.25-.55-.41-.82-.39-.27.03,0,.44.14.73.13.29-.33.69.03.92.36.23.25-.15.31-.32.06-.17.34.04.53.18.22.17.09-1.23.69-.36.17.25.18-.27.44-.24-.2-.03.44,1.09.49.73,0,.04,0,.07,0,.11.23-.17.47-.34.64-.46.44-.31-.34-.5-.21-.86ZM.82,45.89c.5-.22.71-.47.49-.72-.21-.25-.88.88-.49.72Zm3.53-1.93c-.46-.16-1.66.59-1.25.64.22.03,1.65-.5,1.25-.64Zm10.55-5.06c.02-.23-.32-.21-.73.28-.41.49-.76.74-.82.97-.06.23-.54-.03-.69.26-.14.3.12.94.41.73.53-.39,1.21-.08,1.73-.9.18-.3-.34-.37-.36-.56-.02-.19.44-.19.67-.32.23-.13-.21-.23-.19-.46Zm-13.36-2.3c-.05-.33-.94,0-.83.3.11.31.96.51,1.32.38.31-.11.41-.44.18-.65-.23-.21-.62.3-.67-.03Zm10.8,46.08c-.52.07-.22,1.37.06,1.15.2-.16.57-.19.67-.39.14-.27-.21-.83-.73-.76Zm-.7-.79c-.31.05-.1.61.1.46.34-.25.21-.51-.1-.46Zm-3.28-1.02c.28.29.48.21.55-.05.07-.26-.85-.26-.55.05Zm1.49.61c.2.3.42.36.59.08.17-.28-.82-.44-.59-.08Zm85.52-29.13c-.03-.28-.87-.04-1.26-.35-.39-.3-1.05,1.1-1.18,1.69-.13.59-1.16,1.24-1.16,1.24-1.82.04-3.1-.24-4.49,1.04.01.02.02.03.04.05.31.54-.78.89-1.83.94-.32.02-.56.05-.75.08.04.13.07.27.06.37,0,.07-.12.15-.28.24-.16.33-1.43.97-2.14,1.36-.55.3-1.44.4-1.8-.2-.29-.48.38-.95.61-.41.05.11.19.03.38-.11-.2-.19-.2-.5-.16-.74-.24-.1.12-1.04-.37-1.2-.5-.16-1.08.73-1,.18.08-.54.82-1.01.35-1.72-.47-.71-1.31-.69-1.47-.15-.16.55-.75.3-.95.72-.2.42-.4,1.34-.22,2.01.18.67-.03,1.01-.65,1.39-.62.38-.96-.56-.73-1.79.25-1.32-.07-2.45,1.6-2.87.72-.18,1.42-.28,2.07-.51-.18-.14-.38-.27-.54-.37-.02.05-.05.1-.11.15-.18.13-.7-.35-.88-.36-.58-.03-1.16.64-1.75.36-.49-.24-.94-1.14-1.06-1.07-.66.39-1.66,1.32-2.12.91-.44-.38-1.34.25-1.14-.54.12-.48,1.39-.91,1.79-.9.17,0,.33-.07.48-.19-.38-.13-1.15-.42-1.35-.17-.25.31-.61.12-.81-.13-.2-.25-.45.09-.79-.3-.34-.39-.67-.1-.87-.02-.19.09-.45-.13-.81-.27-.36-.14-.09-.5-.4-.72-.31-.22-.32.43-.32.43l-26.01.48s.06.09.09.12c.32.33.07.59.18.98.36,1.3-.8.71-.41.49.43-.24-.32-.65-.32-.92-.43.12-.92.08-1.49.02.01.02.02.05.02.07.02.25.16.81.5,1.25.34.43.11.71.43.87.32.16.3.35,0,.31-.28-.04-.24,2.83-.29,3.18-.06.4-.51,1.05-.23,1.47.28.42.47,1,.33,1.52-.14.52-.11.84.12,1.23.24.39.06,1.09.31,1.23.25.14.49.43.72.81.24.37.44.14.49.52.05.38.05.44.38.58-.02,0,.91,1.59,1.13,1.79.46.4.32.6.79.94.47.34,1.13.43,1.68.55.27.06.78.64.89,1.03.05.19.12.38.22.59l2.17-.31s.68.46,1.06.55c.38.08,2.45.82,2.45.82l2.68-.06.31-.41,1.48-.02s.95.91,1.09.95c.66.22.43,1.07.96,1.33.23.11.99.59,1.1.55.11-.05.32-.9.73-.88.4.02,1.5.32,1.69.94.19.62.73,1.13.91,1.26.18.13.1.51.23.71.36.52.78,1.09,1.6,1.03.11,0,.25.05.39.14.03-.75-.74-.86-.29-1.21.52-.4-.03-.73.22-.9.44-.3.7-.87,1.25-.81.82.09.67-1.12,1.37-.98-.03,0,1.09-.59,1.06-.35.02-.19.27-.15.46.1.19.25.74.3.77.01.04-.29.36,0,.63.29.28.29.4.2.8.22.4.02.4-.09.41-.34s.45.54.84.58c.4.04.08-.25-.22-.48-.3-.23.06-.34-.19-.52-.25-.19.31-.44.81-.43.5.01.48.14.67-.16-.08.13,2.41.07,2.52.7.05.25.34.37.65.1.31-.28.58-.59.88-.3.3.29.6.68.96,1.03.36.35-.16.8.03,1.07.19.27-.01.65.41.94.42.29.05.9.39.98.34.08.61.6.66.81.04.21.68.47.71.12.04-.36.37-.78.4-1.11.04-.34-.27-1.52-.55-1.9-.28-.37.06-.46-.28-.9-.34-.43-.56-1.21-.55-1.84.01-.63.73-1.66,1.08-1.98.35-.32.75-.16.83-.49.17-.72,1.27-.58,1.33-.98.04-.27.45-.61,1-.7.54-.09.23-.38.08-.63-.15-.25.12-.5.23-.34.11.17.44.18.65.03.21-.15.68-.55.22-.57-.46-.01-.57-.2-.3-.31.27-.11.03-.61-.34-.64-.38-.04-.25-.23-.03-.46.23-.23-.34-.6-.62-.79-.27-.18.16-.29.37-.34.21-.04.03-1,.13-1.24.1-.23.46-.24.31,0-.14.23-.35.61-.07.92.28.31.36.64.27,1.13-.1.48.11.35.42-.28.31-.63.34-1.18.13-1.24-.21-.06-.2-.69.04-.4.23.29.32.33.67-.05.35-.38.72-1.03.49-1.18-.23-.14.1-.29.52-.28.42.02,1.32-.27,1.38-.39.15-.31-1.44.12-1.44-.02,0-.36,1.3-.49,1.52-.5.48-.03.24-.67.46-.4s.53.22.8.05c.27-.17.05-.65-.26-.73-.32-.08.23-.3.12-.48-.11-.19.2-.94.59-1.03.47-.11.92-.73,1.22-1.04.29-.3.72.45,1.17.03.19-.17.44-.37.7-.54-1.09-1.4-.8-2.36-.83-2.61Z"/><path class="cls-2" d="m50.4,54.04l-.83-26.96-2.87.15,2.14,27.71s.03.2.85-.19c.89-.43.71-.72.71-.72Z"/><path class="cls-3" d="m49.3,27.1l-.58.03,1.19,27.51s.36-.21.35-.25l-.96-27.29Z"/><path class="cls-4" d="m47.29,28.36l1.81,26.6c.14.05.48-.16.51-.17,0,0,0-.14,0-.14l-1.39-26.01c-.32-.09-.63-.18-.93-.28Z"/><path class="cls-1" d="m60.68,27.77c.25,4.73-5.1,8.85-11.95,9.21-6.84.36-12.59-3.19-12.84-7.92-.25-4.73,5.1-8.85,11.95-9.21,6.84-.36,12.59,3.19,12.84,7.92Z"/><path class="cls-9" d="m60.21,26.85c.23,4.3-4.96,8.07-11.57,8.41-6.62.35-12.16-2.86-12.39-7.16s4.96-8.07,11.57-8.41c6.62-.35,12.16,2.86,12.39,7.16Z"/><path class="cls-11" d="m49.24,34.87c-6.67.35-12.28-3.08-12.52-7.65-.04-.74.07-1.46.3-2.16-.54.95-.82,1.98-.76,3.04.23,4.3,5.77,7.51,12.39,7.16,3.79-.2,7.1-1.52,9.21-3.42-2.12,1.7-5.17,2.85-8.61,3.03Z"/><path class="cls-8" d="m40.94,6.26c.25,8.51-.43,17.3-.4,17.82.14,2.69,3.61,4.7,7.75,4.48,4.14-.22,7.38-2.57,7.24-5.26-.03-.52-1.62-9.18-2.26-17.68l-12.33.65Z"/><path class="cls-13" d="m40.97,13.36c-.1,5.73-.45,10.35-.43,10.72.09,1.72,1.54,3.16,3.66,3.92,0,0,.01-2.45-.69-10.03-.96-10.4-2.53-5.82-2.55-4.61Z"/><path class="cls-12" d="m52.29,27.58s.05-.03.08-.04c.07-.04.15-.07.22-.11.02-.01.04-.02.06-.03.07-.04.15-.08.22-.12.02,0,.03-.02.05-.03.08-.05.15-.09.23-.14,0,0,.01,0,.02-.01,1.1-.7,1.88-1.61,2.21-2.61-.47-3.01-1.53-9.73-2.21-16.54,0,0,0-.01,0-.02-1.21,1.31-3.35,2.25-5.83,2.38-2.68.14-5.06-.7-6.35-2.06,0,.41,0,.81.01,1.21,1.3,1.6,3.85,2.62,6.73,2.47.96-.05,1.8-.19,2.54-.42.45,5.24,1.04,11.1,1.48,15.32-1.25.74-2.86,1.23-4.64,1.32-1.2.06-2.34-.06-3.36-.33,1.28.54,2.86.82,4.54.74,1.3-.07,2.51-.35,3.56-.78h0s.09-.04.14-.06c.03-.01.06-.03.09-.04.07-.03.15-.07.22-.1Z"/><ellipse class="cls-7" cx="47.13" cy="6.25" rx="8.85" ry="6.12" transform="translate(-.26 2.47) rotate(-3)"/><ellipse class="cls-6" cx="47.09" cy="5.57" rx="8.56" ry="5.56" transform="translate(-.23 2.47) rotate(-3)"/><path class="cls-11" d="m47.81,10.85c-4.76.25-8.76-2.19-8.93-5.46-.03-.53.05-1.05.21-1.54-.39.68-.58,1.41-.54,2.17.16,3.07,4.12,5.36,8.84,5.11,2.7-.14,5.07-1.08,6.57-2.44-1.51,1.21-3.69,2.03-6.14,2.16Z"/></g></g></g></svg>