<?xml version="1.0" encoding="UTF-8"?><svg xmlns="http://www.w3.org/2000/svg" xmlns:xlink="http://www.w3.org/1999/xlink" viewBox="0 0 58.58 66.84"><defs><style>.cls-1{fill:url(#linear-gradient);}.cls-2{fill:#009ecb;}.cls-3{fill:#9f9f95;}.cls-4{fill:#84847b;}.cls-5{fill:#dde5dd;}.cls-6{fill:url(#radial-gradient-2);}.cls-7{fill:url(#linear-gradient-3);}.cls-8{fill:url(#linear-gradient-2);}.cls-9{fill:url(#radial-gradient);}.cls-10{isolation:isolate;}.cls-11{fill:#fff;opacity:.8;}.cls-11,.cls-12{mix-blend-mode:overlay;}.cls-12{fill:#822d12;opacity:.5;}.cls-13{fill:#d9a794;opacity:.3;}</style><linearGradient id="linear-gradient" x1="6324.68" y1="4310.73" x2="6348.09" y2="4310.73" gradientTransform="translate(-7588.28 934.6) rotate(-41.06)" gradientUnits="userSpaceOnUse"><stop offset="0" stop-color="#de2020"/><stop offset=".02" stop-color="#d0241e"/><stop offset=".05" stop-color="#bf2a1b"/><stop offset=".09" stop-color="#b32e1a"/><stop offset=".14" stop-color="#ac3019"/><stop offset=".29" stop-color="#ab3119"/><stop offset=".45" stop-color="#a73018"/><stop offset=".6" stop-color="#9c2e16"/><stop offset=".75" stop-color="#892b13"/><stop offset=".89" stop-color="#6f270f"/><stop offset=".99" stop-color="#57240c"/></linearGradient><radialGradient id="radial-gradient" cx="3535.31" cy="4437.02" fx="3535.31" fy="4437.02" r="22.24" gradientTransform="translate(-5533.09 1232.47) rotate(-63.72)" gradientUnits="userSpaceOnUse"><stop offset="0" stop-color="#f5c2bb"/><stop offset=".45" stop-color="#e86c5c"/><stop offset=".55" stop-color="#e46a59"/><stop offset=".65" stop-color="#d96451"/><stop offset=".75" stop-color="#c65a43"/><stop offset=".84" stop-color="#ac4c30"/><stop offset=".93" stop-color="#8a3a17"/><stop offset="1" stop-color="#6b2a00"/></radialGradient><linearGradient id="linear-gradient-2" x1="6328.07" y1="4300.03" x2="6343.81" y2="4300.03" gradientTransform="translate(-7588.28 934.6) rotate(-41.06)" gradientUnits="userSpaceOnUse"><stop offset="0" stop-color="#de2020"/><stop offset=".09" stop-color="#ce1513"/><stop offset=".22" stop-color="#bf0a06"/><stop offset=".32" stop-color="#ba0702"/><stop offset=".44" stop-color="#b40802"/><stop offset=".58" stop-color="#a60c04"/><stop offset=".74" stop-color="#8d1306"/><stop offset=".91" stop-color="#6b1d09"/><stop offset=".99" stop-color="#57240c"/></linearGradient><linearGradient id="linear-gradient-3" x1="6327.99" y1="4289.5" x2="6344.69" y2="4289.5" gradientTransform="translate(-6329.2 -4282.58)" xlink:href="#linear-gradient"/><radialGradient id="radial-gradient-2" cx="3545.1" cy="4420.38" fx="3545.1" fy="4420.38" r="18.44" gradientTransform="translate(-4975.57 -2707.91) rotate(-22.66)" gradientUnits="userSpaceOnUse"><stop offset="0" stop-color="#f6c4bc"/><stop offset=".45" stop-color="#e86c5c"/><stop offset=".55" stop-color="#e46a59"/><stop offset=".65" stop-color="#d96451"/><stop offset=".75" stop-color="#c65a43"/><stop offset=".84" stop-color="#ac4c30"/><stop offset=".93" stop-color="#8a3a17"/><stop offset="1" stop-color="#6b2a00"/></radialGradient></defs><g class="cls-10"><g id="Camada_2"><g id="Camada_2-2"><path class="cls-2" d="m56.16,35.64c-1.12-.84-2.18-1.75-3-2.71-3.45-4.06-4.86-.81-5.27,1.62-.4,2.43-3.65-.81-5.68-1.22-2.03-.4.61-4.26,2.03-5.27.95-.68,1.89-2.55,2.48-5.17-.39,0-.77-.05-1.13-.19-3.75-1.48-9-1.48-9.13,1.88-.13,3.35,4.16,2.15,4.3,4.29.13,2.15-4.3,1.61-7.39,3.76-3.08,2.14-6.44-1.48-9.66.13-3.22,1.61,3.49,3.49,1.08,6.85-2.42,3.35.13,3.21,4.16,6.43,4.03,3.22-2.42,4.03-2.42,7.65s-4.96,3.49-6.04,5.9c-1.07,2.42,4.3,7.25,9,7.25,3.35,0,11.13-2.15,15.7-6.44,4.56-4.3,6.98-.13,11.14-2.28,4.17-2.15,1.61-17.85,0-21.07-.28-.56-.28-1-.16-1.4Z"/><path class="cls-3" d="m38.15,41.24l-16.51-19.8-2.07,1.81,17.94,19.6s.15.13.53-.64c.42-.85.11-.96.11-.96Z"/><path class="cls-4" d="m21.44,21.61l-.42.36,17.11,20.01s.14-.37.12-.39l-16.81-19.98Z"/><path class="cls-5" d="m20.67,23.74l17.04,18.95c.13-.05.27-.41.28-.42,0,0-.08-.1-.08-.11l-16.38-18.76c-.29.12-.58.24-.87.34Z"/><path class="cls-1" d="m30.4,15.41c2.97,3.41,1.38,9.67-3.56,13.97-4.94,4.3-11.36,5.02-14.33,1.61-2.97-3.41-1.38-9.67,3.56-13.97,4.94-4.3,11.36-5.02,14.33-1.61Z"/><path class="cls-9" d="m29.51,14.99c2.7,3.1,1.02,8.99-3.75,13.15-4.78,4.16-10.84,5.02-13.54,1.91s-1.02-8.99,3.75-13.15c4.78-4.16,10.84-5.02,13.54-1.91Z"/><path class="cls-11" d="m25.97,27.49c-4.82,4.2-11.05,4.92-13.93,1.62-.47-.53-.81-1.14-1.05-1.8.15,1.04.55,1.97,1.22,2.74,2.7,3.1,8.77,2.25,13.54-1.91,2.73-2.38,4.45-5.33,4.91-8-.59,2.53-2.21,5.19-4.7,7.35Z"/><path class="cls-8" d="m2.87,10.85c5.2,6.26,9.87,13.28,10.2,13.65,1.69,1.94,5.49,1.41,8.47-1.2,2.99-2.6,4.04-6.29,2.35-8.23-.32-.37-6.63-5.96-12.12-11.97L2.87,10.85Z"/><path class="cls-13" d="m7.07,16.18c3.3,4.37,5.76,8.05,6,8.32,1.08,1.24,3.03,1.47,5.07.79,0,0-1.44-1.85-6.43-7.15-6.85-7.26-5.34-2.89-4.63-1.97Z"/><path class="cls-12" d="m23.97,20.2s.02-.05.04-.08c.03-.07.07-.14.1-.21,0-.02.02-.04.03-.06.03-.07.06-.15.09-.22,0-.02.01-.03.02-.05.03-.08.06-.16.09-.24,0,0,0-.01,0-.02.41-1.18.47-2.32.12-3.26-2.13-1.99-6.89-6.42-11.41-11.15,0,0,0-.01,0-.02-.14,1.7-1.19,3.67-2.98,5.22-1.93,1.68-4.22,2.46-5.99,2.2.24.3.48.6.72.91,1.92.44,4.44-.3,6.52-2.11.7-.61,1.24-1.2,1.66-1.81,3.43,3.68,7.33,7.74,10.15,10.66-.5,1.29-1.43,2.61-2.71,3.73-.87.75-1.8,1.33-2.73,1.73,1.29-.35,2.64-1.06,3.85-2.12.94-.82,1.68-1.74,2.21-2.69h0s.05-.08.07-.13c.02-.03.03-.06.05-.08.04-.07.07-.14.1-.2Z"/><ellipse class="cls-7" cx="7.51" cy="7.19" rx="8.46" ry="5.85" transform="translate(-2.88 6.7) rotate(-41.06)"/><ellipse class="cls-6" cx="7.09" cy="6.71" rx="8.18" ry="5.32" transform="translate(-2.66 6.31) rotate(-41.06)"/><path class="cls-11" d="m10.74,10.25c-3.44,2.99-7.89,3.51-9.94,1.16-.33-.38-.58-.82-.75-1.29.11.74.39,1.41.87,1.95,1.93,2.21,6.26,1.6,9.66-1.36,1.95-1.7,3.18-3.8,3.51-5.71-.42,1.8-1.58,3.7-3.35,5.24Z"/></g></g></g></svg>