<?xml version="1.0" encoding="UTF-8"?><svg xmlns="http://www.w3.org/2000/svg" xmlns:xlink="http://www.w3.org/1999/xlink" viewBox="0 0 69.14 79"><defs><style>.cls-1{fill:url(#linear-gradient);}.cls-2{fill:#fec76e;}.cls-3{fill:#9f9f95;}.cls-4{fill:#84847b;}.cls-5{fill:#dde5dd;}.cls-6{fill:url(#radial-gradient-2);}.cls-7{fill:url(#linear-gradient-3);}.cls-8{fill:url(#linear-gradient-2);}.cls-9{fill:url(#radial-gradient);}.cls-10{isolation:isolate;}.cls-11{fill:#fff;opacity:.8;}.cls-11,.cls-12{mix-blend-mode:overlay;}.cls-12{fill:#822d12;opacity:.5;}.cls-13{fill:#d9a794;opacity:.3;}</style><linearGradient id="linear-gradient" x1="5746.34" y1="3341.48" x2="5773.93" y2="3341.48" gradientTransform="translate(-5170.11 4177.9) rotate(-68.77)" gradientUnits="userSpaceOnUse"><stop offset="0" stop-color="#de2020"/><stop offset=".02" stop-color="#d0241e"/><stop offset=".05" stop-color="#bf2a1b"/><stop offset=".09" stop-color="#b32e1a"/><stop offset=".14" stop-color="#ac3019"/><stop offset=".29" stop-color="#ab3119"/><stop offset=".45" stop-color="#a73018"/><stop offset=".6" stop-color="#9c2e16"/><stop offset=".75" stop-color="#892b13"/><stop offset=".89" stop-color="#6f270f"/><stop offset=".99" stop-color="#57240c"/></linearGradient><radialGradient id="radial-gradient" cx="3244.74" cy="3255.58" fx="3244.74" fy="3255.58" r="26.22" gradientTransform="translate(-3151.87 3353.76) rotate(-91.43)" gradientUnits="userSpaceOnUse"><stop offset="0" stop-color="#f5c2bb"/><stop offset=".45" stop-color="#e86c5c"/><stop offset=".55" stop-color="#e46a59"/><stop offset=".65" stop-color="#d96451"/><stop offset=".75" stop-color="#c65a43"/><stop offset=".84" stop-color="#ac4c30"/><stop offset=".93" stop-color="#8a3a17"/><stop offset="1" stop-color="#6b2a00"/></radialGradient><linearGradient id="linear-gradient-2" x1="5750.33" y1="3328.87" x2="5768.89" y2="3328.87" gradientTransform="translate(-5170.11 4177.9) rotate(-68.77)" gradientUnits="userSpaceOnUse"><stop offset="0" stop-color="#de2020"/><stop offset=".09" stop-color="#ce1513"/><stop offset=".22" stop-color="#bf0a06"/><stop offset=".32" stop-color="#ba0702"/><stop offset=".44" stop-color="#b40802"/><stop offset=".58" stop-color="#a60c04"/><stop offset=".74" stop-color="#8d1306"/><stop offset=".91" stop-color="#6b1d09"/><stop offset=".99" stop-color="#57240c"/></linearGradient><linearGradient id="linear-gradient-3" x1="5750.24" y1="3316.45" x2="5769.93" y2="3316.45" gradientTransform="translate(-5752.85 -3307.06)" xlink:href="#linear-gradient"/><radialGradient id="radial-gradient-2" cx="3256.28" cy="3235.95" fx="3256.28" fy="3235.95" r="21.75" gradientTransform="translate(-4254.47 -1723.78) rotate(-22.66)" gradientUnits="userSpaceOnUse"><stop offset="0" stop-color="#f6c4bc"/><stop offset=".45" stop-color="#e86c5c"/><stop offset=".55" stop-color="#e46a59"/><stop offset=".65" stop-color="#d96451"/><stop offset=".75" stop-color="#c65a43"/><stop offset=".84" stop-color="#ac4c30"/><stop offset=".93" stop-color="#8a3a17"/><stop offset="1" stop-color="#6b2a00"/></radialGradient></defs><g class="cls-10"><g id="Camada_2"><g id="Camada_2-2"><path class="cls-2" d="m46.66,41.68c-1.51-1.08-2.27.43-3.89,1.19-1.62.76-2.7-3.57-4.76-1.94-2.05,1.62-.21,2.27-2.48,4.22-2.27,1.94-1.3,2.59-4,6.81-2.7,4.22-12,6.59-13.4,8.86-1.41,2.27-6.05,4.11-6.16,5.84-.11,1.73-2.94,2.96-1.3,5.29,1.3,1.84,3.03.54,4.43,1.94,1.4,1.4,2.81.22,3.46,1.4.65,1.19,5.4,1.19,8.97-2.05,3.57-3.24,1.84-4.76,3.24-5.62,1.4-.86,1.62-3.46,2.48-5.08.86-1.62,1.51-3.35,5.4-3.35s1.84-.76,1.62-2.59c-.22-1.84,3.24-2.16,3.24-4.54s4.75-4.54,3.78-6.37c-.97-1.84.86-2.92-.65-4Zm-31.23,37.28c.76.21,3.24-.43,1.84-2.16-1.41-1.73-3.62,1.65-1.84,2.16Zm48.84-54.68c-.97,1.62-2.92-.43-4.75-.43s-2.92-1.3-2.92-2.92-.43-4-2.16-3.89c-1.73.11.54,1.84-.11,2.71-.65.87-1.08-.98-1.95-.98s-1.84-1.19-1.84-3.35-1.84-1.95-1.84-4.43-3.89-4.43-6.05-4.43.43,3.89,1.51,5.18c1.08,1.3,3.46,2.49,3.35,3.46-.11.97,1.62,3.46,2.92,3.89,1.3.43-.76,4.22-.76,7.24s-2.38,2.48-4,4.43c-1.62,1.94,4.1,3.89,6.48,5.83,2.38,1.94-2.04,6.73-1.4,7.78.32.54,1.95,1.3,4.43.65,2.48-.65,3.67-6.05,5.4-7.56,1.73-1.51.65-3.89,1.51-5.08.86-1.19,2.05-1.08,3.24-1.08s.54-2.92,2.05-2.92.76-2.05,1.62-4.32c.86-2.27-3.78-1.4-4.76.22Z"/><path class="cls-3" d="m58.16,28.38l-28.09-11.62-1.17,3.02,29.47,10.62s.22.06.2-.96c-.03-1.12-.41-1.06-.41-1.06Z"/><path class="cls-4" d="m29.96,17.05l-.23.61,28.83,11.51s-.05-.46-.09-.48l-28.5-11.64Z"/><path class="cls-5" d="m30.33,19.69l28.18,10.44c.11-.12.05-.57.06-.6,0,0-.14-.06-.14-.07l-27.38-10.61c-.24.28-.47.57-.72.83Z"/><path class="cls-1" d="m35.91,5.66c4.98,1.93,6.74,9.34,3.94,16.54-2.8,7.2-9.1,11.47-14.08,9.54-4.98-1.93-6.74-9.34-3.94-16.54,2.8-7.2,9.1-11.47,14.08-9.54Z"/><path class="cls-9" d="m34.75,5.71c4.52,1.76,6,8.83,3.3,15.79-2.7,6.96-8.56,11.18-13.09,9.42s-6-8.83-3.3-15.79c2.7-6.96,8.56-11.18,13.09-9.42Z"/><path class="cls-11" d="m37.92,20.71c-2.73,7.02-8.84,11.2-13.65,9.33-.78-.3-1.47-.75-2.08-1.31.73,1,1.66,1.76,2.77,2.19,4.52,1.76,10.39-2.46,13.09-9.42,1.55-3.99,1.72-8,.74-11.04.76,2.96.53,6.63-.87,10.25Z"/><path class="cls-8" d="m4.67,16c8.87,3.68,17.58,8.44,18.13,8.65,2.83,1.1,6.5-1.54,8.19-5.89,1.69-4.36.77-8.78-2.06-9.88-.54-.21-10.19-2.58-19.21-5.85l-5.04,12.97Z"/><path class="cls-13" d="m11.98,19.25c5.84,2.76,10.43,5.25,10.82,5.4,1.81.7,3.96-.12,5.72-1.95,0,0-2.51-1.14-10.63-3.93-11.13-3.83-7.15-.09-5.91.49Z"/><path class="cls-12" d="m31.83,14.19s0-.07,0-.1c0-.09,0-.18-.01-.27,0-.03,0-.05,0-.08,0-.1-.01-.19-.02-.28,0-.02,0-.04,0-.06-.01-.1-.02-.2-.04-.3,0,0,0-.02,0-.02-.22-1.45-.78-2.68-1.66-3.47-3.32-.91-10.72-2.93-18.02-5.38,0,0-.01,0-.02-.01.79,1.85.76,4.48-.25,7.09-1.09,2.82-3.06,4.88-5.05,5.58.42.18.84.37,1.25.55,2.25-.59,4.47-2.75,5.65-5.78.39-1.01.64-1.94.75-2.8,5.6,1.96,11.89,4.06,16.44,5.57.18,1.63-.06,3.51-.79,5.38-.49,1.26-1.15,2.38-1.9,3.3,1.15-1.07,2.17-2.56,2.86-4.33.53-1.37.8-2.74.84-4.02h0c0-.06,0-.11,0-.17,0-.04,0-.08,0-.11,0-.09,0-.18,0-.27Z"/><ellipse class="cls-7" cx="7.52" cy="9.63" rx="9.98" ry="6.9" transform="translate(-4.18 13.15) rotate(-68.77)"/><ellipse class="cls-6" cx="6.81" cy="9.36" rx="9.65" ry="6.27" transform="translate(-4.38 12.32) rotate(-68.77)"/><path class="cls-11" d="m12.56,11.06c-1.95,5.01-6.31,7.99-9.74,6.66-.56-.22-1.05-.53-1.49-.93.52.71,1.18,1.25,1.98,1.56,3.23,1.25,7.41-1.76,9.34-6.72,1.1-2.84,1.23-5.71.53-7.88.55,2.11.38,4.73-.62,7.31Z"/></g></g></g></svg>