<?xml version="1.0" encoding="UTF-8"?><svg id="Camada_2" xmlns="http://www.w3.org/2000/svg" xmlns:xlink="http://www.w3.org/1999/xlink" viewBox="0 0 669.35 117.18"><defs><style>.cls-1{fill:#fff;}.cls-2{filter:url(#drop-shadow-1);}</style><filter id="drop-shadow-1" filterUnits="userSpaceOnUse"><feOffset dx="3" dy="4"/><feGaussianBlur result="blur" stdDeviation="0"/><feFlood flood-color="#1f4e52" flood-opacity=".75"/><feComposite in2="blur" operator="in"/><feComposite in="SourceGraphic"/></filter></defs><g id="Camada_3"><g class="cls-2"><path class="cls-1" d="m258.12,44.04l.06-5.64V6.78l-.06-5.64h14.7l-.06,5.64v26.82h15.42v10.44h-30.06Z"/><path class="cls-1" d="m292.2,44.04l.06-5.64V6.78l-.06-5.64h14.7l-.06,5.64v31.62l.06,5.64h-14.7Z"/><path class="cls-1" d="m339.72,1.14h12.78l-.06,5.64v31.62l.06,5.64h-10.08l-15.78-20.94h-.12l.12,3.84v11.46l.06,5.64h-12.84l.06-5.64V6.78l-.06-5.64h12.48l13.44,17.76h.12l-.12-3.78V6.78l-.06-5.64Z"/><path class="cls-1" d="m392.04,44.04l-1.08-4.56h-.12c-2.22,2.94-5.46,5.7-12.84,5.7-11.1,0-20.76-7.44-20.76-22.62S367.86,0,379.68,0c9.54,0,17.52,4.26,19.86,14.16l-14.04,2.1c-.6-3.66-2.64-6.3-5.94-6.3s-6.24,3-6.24,12.66,2.88,12.6,6.54,12.6,5.7-2.58,5.94-6.6h-6.36v-8.82h20.64l-.06,5.64v18.6h-7.98Z"/><path class="cls-1" d="m419.88,6.78v21.78c0,3.6,1.74,5.52,5.16,5.52,3.18,0,4.8-1.74,4.8-5.52V6.78l-.06-5.64h13.44l-.06,5.64v21.9c0,4.38-1.14,8.88-4.56,12.12-3.24,3.06-8.16,4.38-14.1,4.38-6.54,0-11.88-1.62-15-4.5-3.72-3.48-4.2-8.34-4.2-13.74V6.78l-.06-5.64h14.7l-.06,5.64Z"/><path class="cls-1" d="m457.5,44.04h-13.2l15.18-42.9h15.42l14.58,42.9h-15.78l-1.8-6.78h-12.3l-2.1,6.78Zm4.98-16.14h6.96l-3.12-12.12h-.12l-3.72,12.12Z"/><path class="cls-1" d="m523.98,44.04l-1.08-4.56h-.12c-2.22,2.94-5.46,5.7-12.84,5.7-11.1,0-20.76-7.44-20.76-22.62S499.8,0,511.62,0c9.54,0,17.52,4.26,19.86,14.16l-14.04,2.1c-.6-3.66-2.64-6.3-5.94-6.3s-6.24,3-6.24,12.66,2.88,12.6,6.54,12.6,5.7-2.58,5.94-6.6h-6.36v-8.82h20.64l-.06,5.64v18.6h-7.98Z"/><path class="cls-1" d="m566.52,27.54h-14.34v6.06h17.52v10.44h-32.16l.06-5.64V6.78l-.06-5.64h31.68v10.44h-17.04v5.76h14.34v10.2Z"/><path class="cls-1" d="m600.41,1.14h12.78l-.06,5.64v31.62l.06,5.64h-10.08l-15.78-20.94h-.12l.12,3.84v11.46l.06,5.64h-12.84l.06-5.64V6.78l-.06-5.64h12.48l13.44,17.76h.12l-.12-3.78V6.78l-.06-5.64Z"/><path class="cls-1" d="m649.85,13.86c-3.3-2.46-6.72-4.26-11.46-4.26-3.12,0-5.34.96-5.34,2.94,0,3.06,5.04,2.88,10.26,3.9,8.16,1.56,14.28,5.58,14.28,13.56,0,8.46-6.84,15.18-19.74,15.18-7.86,0-15.72-2.58-20.64-7.02l6.6-7.8c3.72,2.94,8.04,5.28,13.62,5.28,3.12,0,5.58-.9,5.58-3.06,0-3.24-5.64-3.18-10.98-4.26-7.74-1.56-13.56-5.16-13.56-13.14,0-8.4,6.54-15.18,18.84-15.18,6.84,0,14.52,2.34,19.08,6l-6.54,7.86Z"/><path class="cls-1" d="m28.98,99.54h-14.34v6.06h17.52v10.44H0l.06-5.64v-31.62l-.06-5.64h31.68v10.44H14.64v5.76h14.34v10.2Z"/><path class="cls-1" d="m79.08,85.86c-3.3-2.46-6.72-4.26-11.46-4.26-3.12,0-5.34.96-5.34,2.94,0,3.06,5.04,2.88,10.26,3.9,8.16,1.56,14.28,5.58,14.28,13.56,0,8.46-6.84,15.18-19.74,15.18-7.86,0-15.72-2.58-20.64-7.02l6.6-7.8c3.72,2.94,8.04,5.28,13.62,5.28,3.12,0,5.58-.9,5.58-3.06,0-3.24-5.64-3.18-10.98-4.26-7.74-1.56-13.56-5.16-13.56-13.14,0-8.4,6.54-15.18,18.84-15.18,6.84,0,14.52,2.34,19.08,6l-6.54,7.86Z"/><path class="cls-1" d="m105.36,78.78v21.78c0,3.6,1.74,5.52,5.16,5.52,3.18,0,4.8-1.74,4.8-5.52v-21.78l-.06-5.64h13.44l-.06,5.64v21.9c0,4.38-1.14,8.88-4.56,12.12-3.24,3.06-8.16,4.38-14.1,4.38-6.54,0-11.88-1.62-15-4.5-3.72-3.48-4.2-8.34-4.2-13.74v-20.16l-.06-5.64h14.7l-.06,5.64Z"/><path class="cls-1" d="m142.98,116.04h-13.2l15.18-42.9h15.42l14.58,42.9h-15.78l-1.8-6.78h-12.3l-2.1,6.78Zm4.98-16.14h6.96l-3.12-12.12h-.12l-3.72,12.12Z"/><path class="cls-1" d="m207.36,85.86c-3.3-2.46-6.72-4.26-11.46-4.26-3.12,0-5.34.96-5.34,2.94,0,3.06,5.04,2.88,10.26,3.9,8.16,1.56,14.28,5.58,14.28,13.56,0,8.46-6.84,15.18-19.74,15.18-7.86,0-15.72-2.58-20.64-7.02l6.6-7.8c3.72,2.94,8.04,5.28,13.62,5.28,3.12,0,5.58-.9,5.58-3.06,0-3.24-5.64-3.18-10.98-4.26-7.74-1.56-13.56-5.16-13.56-13.14,0-8.4,6.54-15.18,18.84-15.18,6.84,0,14.52,2.34,19.08,6l-6.54,7.86Z"/><path class="cls-1" d="m253.02,83.58v26.82l.06,5.64h-14.82l.06-5.64v-26.82h-10.8v-10.44h36.3v10.44h-10.8Z"/><path class="cls-1" d="m296.82,99.54h-14.34v6.06h17.52v10.44h-32.16l.06-5.64v-31.62l-.06-5.64h31.68v10.44h-17.04v5.76h14.34v10.2Z"/><path class="cls-1" d="m344.4,101.82c-1.02,5.4-6,15.36-20.22,15.36-12.3,0-21.66-7.56-21.66-22.26,0-13.8,8.4-22.92,21.96-22.92s18.3,8.7,19.56,15.9l-13.98,1.32c-.84-3.9-2.34-7.26-5.82-7.26s-5.58,3.48-5.58,12.54c0,10.14,2.52,12.72,5.88,12.72,3.18,0,5.28-2.52,6.12-8.04l13.74,2.64Z"/><path class="cls-1" d="m374.16,73.14h12.78l-.06,5.64v31.62l.06,5.64h-10.08l-15.78-20.94h-.12l.12,3.84v11.46l.06,5.64h-12.84l.06-5.64v-31.62l-.06-5.64h12.48l13.44,17.76h.12l-.12-3.78v-8.34l-.06-5.64Z"/><path class="cls-1" d="m391.62,94.56c0-12.36,7.92-22.56,22.08-22.56s22.02,10.2,22.02,22.56-7.98,22.62-22.02,22.62-22.08-10.2-22.08-22.62Zm27.66,0c0-9.42-1.8-12.6-5.58-12.6s-5.58,3.18-5.58,12.6,1.68,12.66,5.58,12.66,5.58-3.18,5.58-12.66Z"/><path class="cls-1" d="m440.4,116.04l.06-5.64v-31.62l-.06-5.64h14.7l-.06,5.64v26.82h15.42v10.44h-30.06Z"/><path class="cls-1" d="m471.48,94.56c0-12.36,7.92-22.56,22.08-22.56s22.02,10.2,22.02,22.56-7.98,22.62-22.02,22.62-22.08-10.2-22.08-22.62Zm27.66,0c0-9.42-1.8-12.6-5.58-12.6s-5.58,3.18-5.58,12.6,1.68,12.66,5.58,12.66,5.58-3.18,5.58-12.66Z"/><path class="cls-1" d="m553.43,116.04l-1.08-4.56h-.12c-2.22,2.94-5.46,5.7-12.84,5.7-11.1,0-20.76-7.44-20.76-22.62s10.62-22.56,22.44-22.56c9.54,0,17.52,4.26,19.86,14.16l-14.04,2.1c-.6-3.66-2.64-6.3-5.94-6.3s-6.24,3-6.24,12.66,2.88,12.6,6.54,12.6,5.7-2.58,5.94-6.6h-6.36v-8.82h20.64l-.06,5.64v18.6h-7.98Z"/><path class="cls-1" d="m567,116.04l.06-5.64v-31.62l-.06-5.64h14.7l-.06,5.64v31.62l.06,5.64h-14.7Z"/><path class="cls-1" d="m597.23,116.04h-13.2l15.18-42.9h15.42l14.58,42.9h-15.78l-1.8-6.78h-12.3l-2.1,6.78Zm4.98-16.14h6.96l-3.12-12.12h-.12l-3.72,12.12Z"/><path class="cls-1" d="m661.61,85.86c-3.3-2.46-6.72-4.26-11.46-4.26-3.12,0-5.34.96-5.34,2.94,0,3.06,5.04,2.88,10.26,3.9,8.16,1.56,14.28,5.58,14.28,13.56,0,8.46-6.84,15.18-19.74,15.18-7.86,0-15.72-2.58-20.64-7.02l6.6-7.8c3.72,2.94,8.04,5.28,13.62,5.28,3.12,0,5.58-.9,5.58-3.06,0-3.24-5.64-3.18-10.98-4.26-7.74-1.56-13.56-5.16-13.56-13.14,0-8.4,6.54-15.18,18.84-15.18,6.84,0,14.52,2.34,19.08,6l-6.54,7.86Z"/></g></g></svg>